<mxfile host="app.diagrams.net" agent="Mozilla/5.0 (Windows NT 10.0; Win64; x64) AppleWebKit/537.36 (KHTML, like Gecko) Chrome/129.0.0.0 Safari/537.36" version="24.7.16">
  <diagram name="Page-1" id="p1iagmMjU0r13lbRJxUx">
    <mxGraphModel dx="1313" dy="663" grid="1" gridSize="10" guides="1" tooltips="1" connect="1" arrows="1" fold="1" page="1" pageScale="1" pageWidth="827" pageHeight="1169" math="0" shadow="0">
      <root>
        <mxCell id="0" />
        <mxCell id="1" parent="0" />
        <mxCell id="WtAe4rb_YrOn60P3KVqw-2" value="" style="shape=image;verticalLabelPosition=bottom;labelBackgroundColor=default;verticalAlign=top;aspect=fixed;imageAspect=0;image=data:image/png,iVBORw0KGgoAAAANSUhEUgAABNMAAAM4CAYAAADmtaSHAAAAAXNSR0IArs4c6QAAIABJREFUeF7svQd0XOWZ//+dpt57s2zZstxtueJujBvgxEASwiZLCSSQsimbhN2EJHsgJxvaJiEJ+YeEJECAhISQUA3YGNwL7g1X3G3Jlq3eNZqZ/+/7jt7R1Wg0M5JGVnvec3Q0uuUt33vn4vvh+zyPyeVyuSBNFBAFRAFRQBQQBQaEArPmXzsg1iGLuDoKbN2w7uoMJKOIAgEUkGeX3CL9XYGr9TyV1/f+fqcM7vmbTKYBI4BJYNqAuZayEFFAFBAFRAFRAPxHyu1/eFeUEAUCKvDivddDXsoCyiQHXCUF5Nl1lYSWYXpEgav1PJVndo9cPun0KiswUICawLSrfOPIcKKAKCAKiAKiQE8qwH+g/GBPbU8OIX0PEAUenhwtMG2AXMuBsAx5dg2Eqzh419Dd56lAssF778jK/SvQl8GbwDS5e0UBUUAUEAVEgQGkwEB8IS09fRyvfu8OdZVueewFJA8b6fOKNTfW472ffU/tW3L/Y7CGRwZ9ZTf94VGc37sVNz38LCLjk4I+rz8f2N2Xv/68dpl731NgID67OlJZP9Nm3vVtjL/xNnWY9zY+z7Y9/ytM/ex9sEVEtnm2XTy8F8/fvRh3PrsGkQkp6vlo7KsrV5fPv4qis575dKWPwXxOsM/TzkCzzhw7mLWXtQ8cBToDzjpzbE8pJDCtp5SVfkUBUUAUEAVEgV5QYCC+kB58++9444f3KDVX/PSZDl/2ugPTeuFS9fqQwb789fpEZQKDQoGB+OzqDkzzB/gJvjRMyymc1e37wxfc63ang6yDYJ6nnYFjnTl2kEktyx3gCnQGknXm2J6QTWBaT6gqfYoCooAoIAqIAr2kwEB7IdWArLG6SikaHhvXxnVWX1mG139wN05uWYOxy25tc8yR99/Atj8/oZwd7/zvN9S+G370JC4e2Ys9r/wJw2cv9jjRjC+upaeOqhdVHrvr5adRcuyAX4jXS5e628MG8/LX7UGkA1EgSAUG2rPL37IDOdN4rv4fCGkFE/DJn/wRu//xtOqSrlt/zjTdN59bbHSvaeBm/B8T7JdO36jEZM8zlMfP/9r/YO6934fx2Mmf+aIal83o/rU31Ktz2T/P0ZCPfWz47U88fQV5C/Trw/w9T/2BsY72dQamdebYfi2yTL7fKtAZ6NXRsf766Ez/oRRRYFoo1ZS+RAFRQBQQBUSBXlZgoL2QGl86KS3hmDHUkxDsyJrX1DY2hjtlT5yhXvwI0/hCSjfb6EUr1EsgIZoxNGr04pvVS6AvmKZfKgdqCKjAtF7+ssrwbRQYaM+u7sA0hn4anzvBhnnq55yGbgwT1eHrdeWl2Pi7n2LZA79QUyMEi88aqp6VlcXn24SKGp1vyXmjPMBs5p3fChqm8bk6mJrxedpZeNZdoCYwbTDdaf1zrcHCrs6AtM4c21OqCUzrKWWlX1FAFBAFRAFRoBcUGGgvpHRHaICmYZnODaRdadoV4R3mqZ1pGr4ZX071y6Q+1xdM0yGlxjl0lK+tFy51t4cUmNZtCaWDECow0J5dvQnT+D8NtJvMO3ekL8eZN0zz/h8I/Lu6pAgLv/FjrH3yQbU0QriOnGlGN1wIb5E+3ZV+nnYGpPk61ntbZ/rr0wLJ5EQBQFWcb9/c27x3+TrWe1tvAzWBaXJbiwKigCggCogCA0iBgfRC6g3HeJn8hRiFGqbpF0KBaQPoCyJL6bMKDKRnVyCRA4V5dtWZxvO0q0zPQUM1HRrKv6/9+kNY95uHPFDMCNOMLl7jOhgWv/zBp5RjTmBa+ytMmOZ0On1eeiMQ6+gzT/S1z+UydtnmD7VDXGmBvm2yv68o4A+kGWGa8Th/8MzfcXrNwTriuqqRwLSuKifniQKigCggCogCfVCBgfRC6v1SaJSboEuHH+lQJW/Y1l1nmsC0PniDy5QGrAID6dkV6CJpV+345Z/vsJpnV8I8dWVQjm/MJ0mXbcWFU56QT++w0UDONL0e7/9hIc601ivtDdOCAWhtj1ForA0gc4O0tgBN4Fmgb5fs7y8KtAddJo87rXVf6zY3cGt1tgXz2ahFT4A1gWn95W6TeYoCooAoIAqIAkEoMJBeSI350HR4pXZ0GHOd+cuZZsyx1tkwT4FpQdxwcogoECIFBtKzK5AkGkpVFp3xFEHxdsB2BaaNmLPEZ0EAPssqis56QubrK66oIivatRZszrRA+SVDXWU0kI69v9/lYV0PT4nxONMCgTQNyfRxrb/bAzW1pa09Da1/tneq9b4mMgNRwJ8CgUM6fYE0vc392xd06xi09SRQE5gmd7soIAqIAqKAKDCAFBgoL6TaVaFdZzrvj/dLqHZYMEdQR9U8u5ozTWDaAPpiyFL6vAID5dkVrNBG55g+x5hrzOjM/fffr8Sh9/6lDutsNU9dSMU4Hit5RienKZfHTQ8/C+NzVAM2XcCFYxrzrxmrhXI7gaB3Nc9BkTPNC3A9MjUWzc3NnsvvDdR8/e07rLMVkHUM5fQwAtOC/b7JcX1FgfYwLZDDzBdI8z4nUB89BdQEpvWV+0rmIQqIAqKAKCAKhECBwfZCGgLJBm0XUoBg0F76PrlweXb1ycsik2qnQAvA8uJYRphGCNaR68y9T7vNWo/jMHqfd7in3uf+bZyQwDS5QfubAsYwTffcfYMwt/usLUjTfxv3tT1O93e18qkJTOtv95/MVxQQBUQBUUAU8KOAvJDK7RGsAgLTglVKjrsaCsiz62qoLGN0SwEvN1prXy48Oi0edru9BYi15j4zAjJvyNYeuHUMxzQckJxp3bqCcnIfUiDwPe0NytoDNpPJbIBubcM/rwZQE5jWh24omYooIAqIAqKAKNBdBeSFtLsKDp7zBaYNnmvdH1Yqz67+cJUG8RzbgTQD+HIBj06PR1NTUxtHmoZnvoCatztNQzKzmXDAhI5+8wr0RCL1QXxlZem9oIARJLMKLv9u/9vlVZCAsKwVqBnzp7m3t/54f0/0Pl9L7c73SWBaL9w8MqQoIAqIAqKAKNBTCsgLaU8pO/D6FZg28K5pf16RPLv689Ub4HP36Ugzhnu68NiMRDQ0NHicab7COds70wCz2Q0AvOGZMbzNGwR05+V/gF8pWV4/UcBfDkH9PTHCNfdnguT2oZ6tUI3fI52Tzf29MkI1f061rn6nBKb1kxtOpikKiAKigCggCgSjgLyQBqOSHEMFBKbJfdCXFJBnV1+6GjIXjwJBgDS+5T8+Mxm1tXXMauZx2bAPI0AjENBNAzKLxaJAmv7d1Zd6uWKiwEBTgN8dh8Ohfvjd4e+2Yc7t4Vlbd5q3i81/xc+ufPcEpg20u07WIwqIAqKAKDCoFeA/BnKnzRvUGsjig1Pg7M6NXv8wDe48OUoU6AkF5NnVE6pKn6FSwJM2naFk7JQOGfcn9fn87i2orq5pgWfusLWOig1YrVboH2/3TKjmK/2IAgNBAWM4KD83NztU1VyHw10519uV1uriNIZ9uo/z9V3zBmidBWoC0wbCXSZrEAVEAVFAFBAFWhTgPwRu/8O7oocoEFCBF++9XmBaQJXkgKulgDy7rpbSMk5wCrDkphuUqWZIkdZaj1BvdOHvX78FlZWVXmGerUCN4WfeLjQ60qSJAqJAcAq486rxp9WpRscat+nwT/2dcsMzd/5B909wQE1gWnDXQo4SBUQBUUAUEAUGpAISKjUgL2uPLErCPP3LWlNTg5iYmB7RXjptr4A8u+Su6DMKBBnaqQgbeZrLiZ/Py0RZWZlaAl/uXa7WHE86jJNuNAK1zr6w9xldZCKiQB9RwO1Sa25xqbWGfxrDPFs/t1b8DMah1pnvpzjT+sgNIdMQBUQBUUAUEAVCoYC8kIZCxcHRB2GatMAK8OU3Li4O48aNw5e+9CXcddddgU+SIzqtgDy7Oi2ZnNBTCrSBaW2rdroBWstPS340k8uFXyzIxpUrV9o40+iMIUCz2ayeAgOdeVHvqeVJv6LAQFDAWKjAbrcrsMZt2pWmi3v4BmxtixNQD+N3M9jvqcC0gXAnyRpEAVFAFBAFRIEWBeSFVG6FYBUQZ1pgpfiP8wMHDmDVqlV44403sGPHDqSkpOB3v/sdbrrppsAdyBFBKyDPrqClkgN7VIEWt5kaowOQZgRqCry58MuFubh06VJLyBlDOt1FBfRPsC/nPbo06VwUGIAKGAsV8L/ZuvKnu0KuG5LparneYM0I0bqSP01g2gC8oWRJooAoIAqIAoNXAXkhHbzXvrMrF5jWWcXcxxOiEaw9+OCDeOihh7rWiZzVTgF5dslN0fsKGEGaAaYpptbqRqMzTTlgWkAa//714jwUFRWpJRCg6QIDkhet96+qzGBwKECI5naoMaeaQy3aCM8CATVfwDsQBBeYNjjuLVmlKCAKiAKiwCBRQF5IB8mFDsEyBaZ1XURCtB//+Md47bXXxKHWdRnbnCnPrhAJKd10TYGO8qTp7Z7f7kqdRpDmcjrx2xsKcPbsWYSFhSmQJrnRunYZ5CxRoDsK6IqfbqhmV10ZIVqogZrAtO5cLTlXFBAFRAFRQBToYwrIC2kfuyB9eDoC07p3cehQ2759O4qLi7vXkZytFJBnl9wIvapAO5imXWrakUZzGj873b+VU8392QIXtv7P7XjzzTcFpPXqRZTBRQEWAHHC4XAqmOZwuCt/+gZqgQsT6P82daSrwDS540QBUUAUEAVEgQGkgLyQDqCL2cNLEZjWfYFtNhv++Mc/SlGC7kspMC0EGkoX3VDAu+hAm9BODdK4sQWmtYA1q8mFlHALat/9I/7rv/7L89Le1ZnYmx1otNtR32RHg92ORnszuM1BQOB0Vwh1v+ADZhNzs1lgs5gRZrUi3GZDZJgNkeE2WC0WtV+aKDAYFdB51HRhAg3F2hYnIEwztcmrprUKthiBwLTBeHfJmkUBUUAUEAUGrAI9AdPO792KAytfwpL7H4M1PLLT2pWePo6Nv/splj3wC0TGJwV9Ps9b/fh3sfS/f47kYSM95236w6NIyM7D+Btvg/GznufCb/wYa598EBOWfw6RCSldGlsPZuw/6IkHceDBt/+ujsocOwX7XnsO87/6oy5pG8RQHR4iMK076rnPnT17tnqZ3bhxY/c7G+Q9dObZpZ8p4bFx2PPKn5Rydz67BjmFs9RnPguev3ux+jz5M19Uzy629372PWSMLsSul59GybEDWPHTZ1Bx4RQ2/PYnGD57MW56+NlOPaMG+SUbOMv3Vb3TCNNacqQpJ1pL7jSTywkzXIi1mTEnMwoJ5adVxd/uttKqGhSVVuDUpSs4d6UcxeUVuFJVg5r6BtQ32mF3uOdAp02EzYq4qAgkxkQjNT4WOSmJGJaWguEZKYiPjlRwTZooMJgVYEECAjX+ACxEYCxG4IZp3lU/tV7BADWBaYP57pK1iwKigCggCgw4BTrzQnq1Fn+1YJpeT3NjvXppJkzTL9ddXWtPwDTqYQRoGqwRDl7NJjCt+2o/+uijePzxx1FWVtb9zgZ5D515dvE79Or37sDMu77tgerVJUUKmlUWn1f7rn/gCWSMKVTPgti0LMy881vqMxuPu3h4rwJuBGqjF61Q+4ZMnqP6kzaIFPAX3kkZdFincqKx8IDbmUaYlhVtRUFCGMYmRSDWWY+4uLhOCccunS4nLpZX4ezlUpy+VIriMjc8q65vUPYzus5sLGjAH7NZvfi7z3MXQWhm0vVmB+zNzar2aLjVioToKGQlx2NIajJGZKYq0BYTEd6pucnBosBAUIAhnvxpampSoZ/8zhBEtwI042e61Nw/bALTBsIdIGsQBUQBUUAUEAU6oUAwL6T1lWVY95uHcO3XH2rjwjC6OTikdnoYnWnczpdObzeINzDT58y993tY+eOv4eSWNR7nR115qXrZpTPE6AbhORuffgS1pSXInjgDU2+9F+//8ocdOtM4lzd+eI9Shy/ECVm5ykHXkTPNFhHZZu48R784E2jpvtIKJuCWx15A8aHdbfrnsb4cL3TrGaGbEebRGUd3nf6HGZ0vdMUMm77AA/o6uh6duOxdOlRgWpdka3PSnj17MH36dPD/fkvrngLBPLv0CN6uVeMzipDM6KTlPn4/lz/4lPqtgZn3M6snwHn3FJGze1yBgCDNkCPNANPoSIuxmjAuKRxT0iKQGmlDmKVzIZUM46yqq0dJRTU+LrqEYxcu4XRJKRqa7OpFPzoiHCnxMUiNi1XOs9jICESFh8FmtSggwJBPQjRCt/KaOtDRRghXUVuH2oZGBc/SE+MxOicDeRmpyElJQEpsDMJsVljM5i5JSyDBZx3hREREhMoPp5sOq2toaFAQIioqqg2MCGZA3T/7Yv90/YaquRPTN6sf3b93pVXm16qqqkJ4eLiav7SBoYC+9jrk0+1G0640Herp3qb/rRYsUBNn2sC4R2QVooAoIAqIAqKA5x8BP9hT61cNX/DG++WUcOncns0eB4d+Od32/K+gHSB8aX33kW8r8MRmDOU0vtzSKaL38bjXf3A35t77fQWT+ALrqz+GdYY6zPPE5vdUSBfHNmpQeuqomocO8eJnNh5nfME2zic+M8fjePE+zhumaZcM19sROOM4RsB2NW5ngWndV5kvZsybxn+sS+ueAv5gGr8fDMVkm/+1/8GYJZ/u8Hlz5P03PM8ugm4NzRZ952H1fdaOVYFp3bteA+LsjvKkcXG6yIDKU6aLEDhVFc9wMzAqIQwTUiIwKjFc5SbrHEoDzpSUYu/Jc1iz9xDOXylXcIwhmmOHZmFcbpZylBGoWcwWOGGCxQxYW/I7Ke1b6iNwbnSp8YehoHS5HTpbhINnLuDkxSuorKtHbmoSCocPwbIp45CeEKf67UorKSlBZWWlcvnk5OQgPj7e0w2fhfX19Th9+rSCbPn5+eq30d3jb0wCOvZfU1Ojksaz/+jo6K5M0+c57LO8vFzBMn4eMmSIAnbGxrF3796NzMxMjBzZmloiZJOQjnpNAX5PCNN47+qCBIGqfOrJ+nOoCUzrtUsqA4sCooAoIAqIAqFXwN8LqbfzTI9udGjpbb6cHkbHF8GQhkZ0ejD3VzAwzRtcGV9ofe0LZc40I0zzpzxBooZuRphmBIx8STdqRMio87j5cqbpvG/eIZ56Hr0R6ikwLTTfv4ULF2Lt2rWh6WwQ99JZZ1pHz5tAzjSBaYP4JvNeur+iAy373GGdbojGz5FmE1IizJidGYWhcWFICA/ePUVgVllbj32nzuHA6Qs4UXwZ9U1NyEpKUPBsaFoyomNiYY2Iht0SgWqHCXaXCfE2E4bGmJEYZkJpoxOxVhMiLCZUN7tgMwGNTuBkNefogM1ph9leh+qaGpSUV+BEcQnOXS5XxQyykuIxeUQuxg/NVmN11qF26NAhnD17FtXV1Zg2bZoCUtqdVlFRofadOnUKMTExaj/dXfyfDcE0Ao7z588r4EUwR5jV2bDZQLCutrZWAT+OlZycrMAdf9LT0xEWFqZA4bp16zB06FAUFhYGM205ph8pQIjKe4tAja0jh5oO9QzGnSYwrR/dADJVUUAUEAVEAVEgkALBvJD6c0dp9wfH0Ym79cupDtnUrjIeo2FTZ2CaTgyu16LDKusrrrQJzwq1M43FD4wOFx3GquGXDl3lvOh+8XacGUNB9dx1mCpDNzuCaR299BuLOQhMC3Rn9939/M6JM6371yeYZ5cepaOw8mBypglM6/61GjA9BIBpbkeaG6S5c6c5kRFlRUF8GKZnRCExwhKUI03nNrtUXqXCOdcdOIqL5ZXqZb4gOx3jh+UiLzsTtshoVNhNuNTgQnG9ExVNLuVIGx1nQW60GVEW4HydU32Os5lwuNKJlHATrGbgQIUDdc1AmBnIjDIjKQywNDfiSmkp9p04g0NnL+BCaTnyM9MwMS8H00fmIT0xrlO51D788EOcOHEChFKEZcOHD1fuNK6vqKhIubquXLmiQNU111yjnF8EV3V1deqWIViLjIxUP3QF0SlEMKfdQpcvX1bHct/o0aPV+dqpxvMZ9knARvClQUdjYyMYWsrQTA3uCMUI+ehsY18EaJwzz9MJ6Xk853zx4kW1jqSkJDWPNWvWICsrSxWT4N/sh8cSEIYy7HTAfIf62UII1HjP8LcRqPkK+9T7xZnWzy6yTFcUEAVEAVFAFOiqAsG8kPqCaTqvkA517K4zzejiMoZ50n3WUWVQ76qhnOeqR76DeV/5oaeap9EN151qnsa+mRtNh7QScPlzpmnHmvf1MTrY2LcOZfWuJirOtK7e2X33PIFpobk2wTy7goFp2jXaUTVPgWmhuV79vpd2IK0lVFuHdNKJxgBLnSvN6QIDLgtTIzA3iyDNijBzcMGddKRV1zVg9Z5DWLXrIC5VVmPisBwsmFCAKSNy0WSJwLl6YH+FCxfrnaiyc2QoR9qIWDOWZdpwudGJEzVOlDW4MC3ZomDa38/YUZhkwfgEC6rtLmwsacahCgcsZhNyokwYGWvGhHgTbM4mnL90Ge/uOohD54oV/JpRkIclk8dizJDMoEMxCdMIoAitEhISVDjkiBEjFDCjI239+vUKgHH72LFjFcAqLi5WAI7HEFgNGzZM/RBs0YV28OBBEKIRbnAboRWPGzVqlAJpdMPxN+dMOEbHWGpqqgecsX862ugu43kEXpwnoRuBHOfK0FPOLy8vT/VDgMffdNLx3JSUFBQUFKjfrMzMeXB9paWlaj7Z2dkYM2aM5FHr9196Rm8zd56jpSBBc7vcacbQz2CKEYgzbQDcFLIEUUAUEAVEAVFAK9CZF1KjakaYphP1c7+uehdMzjTvCnr6fH850wiuDq78q8pX5g3aNDhjJT66xNg4T52njXnVjBBLw7iOChAY3WNGoMjwTw3T7A31CoQxjNVfzjQ9ts735p1Lji/ydL55wzTJmTbwvqsC00JzTbv67ArN6NLLoFPAD0zjCzerdaq8aS2uNKvJhawoCwpTIxVQs7EiYBAsram5WRUZWLv/iMqRVlpdi6n5QzFuaA6y0tNQYYrC+QaTcpxdaXChzsEKnVCOtMJECyYmWJAcbsK+cgeOVTlV4YPZaRYV6vncySakhJsxLsGMcfEWHKxwqOPO1TkRbjGpsNC0cBPyok1INjfCXlOOPSfO4PC5YjWnaSOH4ppRwzFlxFBYOWCARkhFAEZYxvxmdKXNmDFDVTMmZDt58qRyftGZRpBFMEEXEPOUUVOGgl66dAkzZ85UfxOUEVbpcFC6xHg+oVlaWppynPF4fiaMIwQjJCM4y8jIULPlPAjEOFZiYqKCeQRi7Fe723gM+yYUoxuO/dJ9RsDGn0mTJql9HOO9995T6yJ4oyuN49PZxkIzBGzGoguB9JL9fVMBp9OFpqZGdS+wtQ/3bFvhUx9j/He257NLfOl98yrLrEQBUUAUEAVEgS4o0NUXUmOoI8Mu53/1Rzj07itY9sAv2kAuTslXNU9u12GQPH/qZ+/DxSN7FYzTgIrHEJoZq3nqEE/CKW9nGo/3DsE0Hm8cM5hqnjyeoIyVRdl0mKd2kumKo1NuvRcnNq9Wc2cyc1b51HnljHnnjJVIjX3MvOs/0VhbrRKde8M0jutdbECqeXbhRu9DpwhMC83F6OqzKzSjSy+DS4GW7P1q0fqzLjLggsvpgkltdwM1gjWGWE5Li8SYpHAMiQ0LSi4WBbhwpRz7Tp3HWzv2gS/xwzPSsGzaBMTEJ6HMacP+cqeCX+VNrUVMGKpJgDY3zYr8WDNOVDuxu8yBojoXhkabMS/doqDaMyeaYHcCeTFmLM60otHhwskaJ7ZedqC2mUUJoIAf3W0FsRaMjjej9EoJDp08jQ/2HUGEzYrRQzLxyRmTkKYKE/hfF2Ea3WbMZ3b48GHl4CIYO3PmjAJmdIURPhGOEWTxb6IGhkvyN4/bv38/li5dqkDG1q1b1fm5ubkqlJJwjcCNYIx/E3rRlUb3G8/XDjaCLxY4YGNIJ8ekQ43jEoQdOHBAjU3gxm0ci1CP+wjGOJ8JEyYox9zHH3+M6667TrnaCAXffvttBdrogCO4Y190thGm0bnmXbQgqBtBDupzCvCeaF/dU0M0/maVTzdo886d1ibsU2Ban7u2MiFRQBQQBUQBUaDLCvTEC6kvyNXlCcqJqrrgvteeU8BSh5VSFoatXs0mBQhCo7bAtNDpGKgScWhGkl4GtQJBVvA0utIY3pkUbsYnh8chNzYMtiAsaap6YLMD7+4+iDe27UNZTS0WTRqDG2ZMRFR0HPZWAjtKHSovGoGYsR4wHWXXpFgwKo5uMRPeOG9Hcb0L/MsbplU2uZQDbSJdbInuHG5vnrfjIl1uze5eLabWkNHpSWbENFdj+7FTWLPnEKrrG3DdpNFYML4AIzLT/N4ahGnMacaQRx26yXxjR44cUY6t8ePHq7BNNsI0gi66wi5cuKCABM/ltuuvv16BjG3btmHJkiUKptEVRtjG0EpCNOqnz9c51tgvXW90jWmYRicbQR77Yh/axaaLCxCmEZTRtcb9uhqpL5hG192qVatUDjXCM875o48+UvNi2CrDS0NZYXRQfw97efG8F3jv8F7jd4zwzGx2gzP3Z8I099/eOdMEpvXyxZPhRQFRQBQQBUSBnlIg1DBNJ+zXLq6emvdg61cXHGDhBiNYu5o6CEwLjdoC00Kno8C00GgpvfhRIBBMa6na2Rrm6URyuBkj4myYnRWNlAircqwEarUNjdh5/AzWHzyKoxcuYSbDKUcOR0ZGJg5Um3CixoWiOmc7kBZpMWFItAnLsmywO12qSueHpQ6VEy3CbGoH0wjj6GRLCjNhXrpV7aeTjSGhdLzxPCI1mxkqNHR0vAV5kQ6koQ7r9x9WlUUJ1OhOmzVmBNLiYzvMoUaYRmeXBmWEWAy9JKAiaCKA2rlzp4IUzHl29OhR9ZlOL12kgOCNAI3bd+zYoZxprApKlxv30ZnGZyr/Zt90i9GZxrBNAhCdz4yAjI390i1HlxuEkuJ8AAAgAElEQVRhGOEZx2Y/BH7si+cTvnE/YZ3RmXbs2DEsWrRIQToN03g818JGmMbcagSIAtMC3fX9Zz/vG12MgPcVm4ZovvKmdeROk5xp/eeay0xFAVFAFBAFRIGACoQapgUcUA7otwoITAvNpROYFjodBaaFRkvppQswTRca8FTu1HnTnBgZH4ap6ZEYHheGaFKpAK3RbseF0gr8Y9MunCm5guiIcNw2j2GCaShzhWPL5WaUNrpgN9rRWvpMDnMXHZifZlUFB/aWOXChzglGgUZagJxIM65JsSLKCvztjF0VK9Bs75pkC8YlWBQ4O1XjVCGfF+pcaHS64GgZi+GjLEwwO9WK0+cvYPuRj/HOroOqIMHccSMxa/QI2CxuV45327Vrl4JphFXcz/BKhkESYNFdxtxjhGl0nRFecR9BBeEUj2coJoHZggULFLhgqChDJxl+ybBO5j7jueyP+cnoLuMYLFhAmEYAQpca3WFGhxhDOPfu3av653hz5sxRgI/9E5yxuACdZeyL1Ua5jX8zfJMwjZU7CcoI+Jhvjc60yZMnq+VzvpwX10zgxrlJGxgK8F7hvcDrzs9GmBZsIQKBaQPjXpBViAKigCggCogCSgGBaXIjBKuAwLRglfJ/nMC00OkoMC00WkovnYFpOlcabU5OuIyFB1oqeE5Pj8Ti3BiEW8wqZDJQKy6rUMUGXvhgKzKTErBo0mjMGpOvQNrxahfKmpyqyIAPloYhUWYMizEjJdyEo5UOHK12qtxnPDbcDFVwgOGfERYT1pU0e0I5Oaf0CDNyo8zIV+GhUMDuowoHyppcqG+haYxQTbCZkB9rQVq4C+eLivDcms0qDHV0Tib+4xMLFfyzmNtDQ+Y0I7himCWhEuEU3WqEXXSXMcSSTi46friNRQkY4qnzmTGPGRtdXwRodILxeLrF2GJjYxVEI7TKyclR7jICMR5HyMZ8ZYRaHEs703geYQjH4nwYSkqoR0hCCEb4R2ccz+E4ui8CPh5PmMZxOB4LKzCHGsEg3XdsLFDA4gU8XkO/QNdf9vcPBQhnCdF4T/Me8uVMM0I1/W9svToVAio50/rHxZZZigKigCggCogCwSggMC0YleQYKiAwLTT3gcC00OnYkzDNWLE4Mt4dIiZtECrgCfNsX3hAV+5kAQKCNQtcSIkwY2paJGZlRsHMl+cAkvEFffOhj7F6z0c4W1KG2WPzsXz6RKTGx6LRZUal3YWmlkKhvrqKtpoQYyM4M6ljmRNNN4KwCAsQZzMpqHepwV35UzfuizK5EOtqRHNZGRrtDtSlZqPJZG5zHMNCY20mVVShoroGu0+cwardB9XxN88sxMS8HGQkxrebHqET4QNdYsyRxnxTzIlGCEanGGGX8RiCLIZg8ofHazBBNxrDNQm8GMbpzlsFtY0ONf6wP+5nf9zPcQnjCNu4j8foRs0J0XgcoRtBG4/nNkISgj+eQ2jCH+7jnHk8HWzcxv08jqGl/Exwxsa/eRyPt9lsag7SBo4CvHd4/XmveedLC+ROE5g2cO4DWYkoIAqIAqKAKKAUEJgmN0KwCghMC1Yp/8cJTAudjj0F01gVeMNT/4tJN38BrBwsbRAr0AamtYCqlhBPDdO0Qy3MBIxKCMOklAiMTY4IKJrD6URVbQPe3L4X7+76CPlZaVgwcQymjBqJywzrJKTroLGoAQsJRFqhnGgX69sfbzG59zM/GmHauToXml3uXGoM34wyOWGqqkD9sWNoOHsWJosFcTNnwpKcjEZbBC43MOQTaG6Zh8VsQhgciHI24KX123DoTBGGpCZhxTWFmDgsRyVklyYKDHQFCNJ0xdlAQE3/O1v/FmfaQL87ZH2igCggCogCg0oBgWmD6nJ3a7EC07oln+dkgWmh07GnYFpoZii99HsF2hUfaIVpdKgYiw4QqEWYgXlZURidGI6MaFvA5dc3NeGj00VYufMADpw+j3uWzsWwnCGotcVidXEzykiyOmjxYSbMTLFgWLRFOddePdekKn0aG4sT5EabMSfVAjrYnj/ZhKpmFzIizFjI4gOWBoR/fBgXn3kG9adOwZaUhNRbb0XElKm4lJiN94qbUVzvRE1Llc8oFiSIM+PmITZs2PcRNn50DAdPF+GrNy5QFT7DbYHXHFAUOUAU6OMK0M3IH4Yna5jmq6qnB6AZ8gkKTOvjF1emJwqIAqKAKCAKdEaBvgTTWLHy3J7NWPiNH2Ptkw9iwvLPIadwFnSF0Em3fAEmuDBxxR1qe7Ct9PRxrH78u1j63z9v4zJhvwnZeRh/421qDP2Z4V0HVr7UZh6RCSnY+LufYtkDv0BXQr6M/Qc772COu5pVPgWmBXNFAh8jMC2wRsEc0ZlnF58B/P5mjZ+KNT//PtIKJuCWx15QzwN+3zc+/QhqS0uQPXEGltz/GC4e3ovn716spjH5M19U29je+9n3EJuWhQ2//Yn6e/7X/gdz7/2++swxXv3eHSg5dgDDZy/GTQ8/q54V+nkSHh2LbX/+pdrHc9595Nvq2BU/fUY9g6T1QQX8wDTCM2OYJ8FarA34xLBY5MWHB1V4oLymDq9t3YODZy7A6XLiS8vmozEyGfurTDhc5WyT38yoDv1faREm3DTEpsJIz9Q6sanE4YFe+tgoS9tqns+eaEJKhAnjYoGxEc0wbd+M+k0bUM2KmlVVMIeHIyIvDwmLFsM07RqUpORid4ULx6udqnAB3W2Ec9dlWOGoLsWB4x/jpfUf4qaZk7Fw4mgUZKer0FZposBAVoAQjeHADPcM5ExToZ0C0wby7SBrEwVEAVFAFBjMCnTmhbSnddIwjS+u1vBINVwowq06C9P0Ojk2X5411OvO+nsCpnFd+157DvO/+iOllwZrPfViLjCtO3dA67kC00KnY7DONA26Ri++WYEs47OG4IxgS8M14/MiPjPHA9Bm3vkt9ZlNAzd9XlRiMl7/wd0Yv/zzHjhfXVLUBszd+ewaZIwpVH1UFp1RsK301FEF8jV4C40y0kvIFPAF09S2liIETjdQYxECm8mF5HAzbhoehyGxtoBQqdnhBAsPPPX2OtQ2NGJkdjpWzJqGE/YorL/UrPKftRjC2i2HOcwItT471Kaqb+4qa1bAq9HR9lAjTGOo5xvnm5EfDYw2VSPmzHFUvvsOqrZuRXNFBVxcC5vJhLgZMxA3bz6i583HIVM8DtZZ8XG1UxUliAszYVy8BRNiHSgpOoPfvLUWo3MyMHtMPpZOHqsKERAyVFVVqUT8rLDJxiIEzH3GXGjGdvnyZU+if+7jMXnDhsFeWgpHXR3gdCIsLQ3mPl4Vk/neWIyA+d6Yy40FDOLi4jy52phrjZVBWdSAMMZXY4415mFjQQWey0qk/aUxrxzXz4INbCzQwFx0kRERcNTWormyEo6aGoRnZ8MSHa3us/7a6EolTNO5+0wmswpx1jnTOsqdpr5eUoCgv152mbcoIAqIAqKAKNBegWBgWn1lGdb95iFc+/WHPK4sX06P6x94Qr0YntyyJijHBmdD1wYdIHSKDJ+1CI211R5H2Ngln8Kh9/6FPa/8SU3833+/Uv2t4ZY/J4jRaTL11nvx/i9/2KEzjX2/8cN71Bh0iSRk5fp1ptkiItULsZ6X0VnCl3Tdl3a/FB/a3aZ/wi69bo7p7XzR66Puqx75DuZ95YdqbnTXud91TOrle9fLT2PY9AUel56v6xTKe15gWmjUFJgWOh07A9OM7lTjd6u+4koboOUN9b2dqkMmz1HAzPv7aXSuGoGcd/9GsK6fo111vIZGSemlQwX8wbQWkKYdarFWICfaiiVDY5Ee1RYY+eqfAO14UQl+8epqZCYnYMmU8RiaMwR7qm3YVNLss3Kn7icp3ISCWDOWZ9uwu8yB9SXNqvBASwFOz3BGmJYXbVbALd1iR+zpY7j4pz+i/uhR2MvK3A47Q2PutMhRo5B++x2wjZuACzFpWF1sR3E9iyG4kBBmwidzbLBVl+CFD7agpqERY4dk4b7r58FqsYCAbP/+/XjjjTdUdU22b37zm1iwYIFKzK8bocQHH3yADRs2YNu2bQogLVy4EF+57z5UbtiAxtOn4WpuRuKyZYgYOrRP36jnzp3D448/jpMnTyogeMcdd2DixImqYinbnj17sH79erVWDRi9F5SYmIjhw4dj7ty5qsIogVR/aQSo//d//6eqtbJx/bNmzUJOVhbqjx9Hzb59qDtyBGn/9m+IzM9X+fn6cyMQZcEK/W8yI0gTmNafr6zMXRQQBUQBUUAU6IQC3YFpDGmaede3PU6MI2teU+4ONv3i6s+xUVl8XoVFEcJpxwbPNYZ56u0ETMbPyXmjlBOELhMdCmp0gnTkNDEmE+9qmOeJze+h4sIpNbYRYHm7TNg/G4/zfoHW+vhyvnQE07RWXG9H4IzjGAFbJ26FgIcKTAsoUVAHCEwLSqaAB/l7dunQcHbCUMwxSz7dJkzbG6YxrFs7Yo1AXE+CoZnLH3xKfY99fT+9gZm//gWmBby0fecAv8UHjGGeTqRHmlGQEIZrMqKRxDKZAdr5K+XY9fEZ/HX9h5g+chhumjMDlxGF/ZUmfFTp27mkuxwabca4BAumJFmw7XIzNpQ0w87peI3JHGc8dl6aBaNjTaiua0LT9q1oYGjnhx8qR5qzqcnnTC3x8YgcMQIJS5cCU2bgUnwmdpa7cKLGqYDaDVk2pDmrsOvwEXx49BTSEmLxnZuXIjoiDI0tVTuffvppBVfoWvr85z+vQFl+fr5nPMK0F198UQGmEydOYOzYsVi4YAFuvvFGXHz2WdQeOABYLMi85x7ETJoEUx/OyXb27Fk88sgjah2pqam46667FBBLT09X6921axfWrVungBorfhK40InH5xj1odOJzjTCRgK4xYsXY+bMmer8/lARlDDt0UcfxdatW9V6v/CFL2DOnDnITktD2cqVqNy6FY3nzqlrGTt1KqzJyYG+In16P2GarhrLifIa+cqbJmGeffoyyuREAVFAFBAFRIHuKeDvhdTonjKOQidW5tgpbfKQ8QXUCJiMjip/jg3jS6yvXGUdwTTOxxgeZXR4eEOtzoZ5BsqZZoRp/tQ3amJ8gQ7kfPHnTNN537xDPPU8ejLUU2Ba975r+myBaaHTsavONG/nmDdM088y40y9w74740wz9i8wLTTX/6r04gnp5GjGSp6tIE2FeTqdGBprxaTkcFXFMy4sMEw7cOYCNhw8hq2HT2BR4Rh8cs412HzFpXKlXajruPAAZ0KQNinBgvRIE7Zebsa2K77hW5zNhPEJZkxLNCPPVaMcQmWrVqnQTvuVK3B1EG6otGWuJ7MZcbNnI3bePERfMwv7XXE4WG/DyRqnKn4w1NaIuvJLeHnjdphgwrduWoz0hDhE2KwqQftvfvMbDzxatGgRrr32WuW6YiNA0sds2rRJhYUuXboUC+bNw/SJE1H00kuoPXpUAbTM225DzNixMIeFec4lfGJoJftgI4gKZ863iLZVVHkcxyK4I8Dij4ZT3M4fYyJ5DUX0/cX+dfVGbuP5HIMgzAi5OgPTCJ7oQisoKFAhoRyfa7lw4YJy9XG86667TgG1yZMne0JFuQYCHO7nOZwLz+d8+Fk3Hsf93uviGNzGc6iXPkf3ybVyG/exT28tdP/sg3PgefzvGfvjeY899lh7mJaejsvvvovq3bthLylB2qc/jdhJkxCWkuKZL6+BvpacO8NbdTiw9xq43/uacQ6cj85hxrnzXmDTuc24n31yO9dnzGPWlWcJ58DxOD/jveXtStMa6/EkzLMrass5ooAoIAqIAqJAH1WgO840IyTrCKb5c2ww/JEFB7QjpLMwTScI19LqsEqOaXx5DTVMY1Jxo/OFuZDoFtMv2zr8k/PSCcq9YZoOBdVzD+R84XFGvbVWxvxyPEZgWh/9ohmmJTAtNNcomGeXHkmHhGsnrXfONH/PC3536Xr1LoxihGmBcqYJTAvNNb/qvXQA01R+MZdTFcRRIZJOJ0Ym2DAjLRJD48KCKj6w6dDHWL37I5RW12LJ5DGYP7kQr56zK+dXtd3bY9Z25TOSLShMsqDZCewsc2B/eXuYposULMu0Ii+8GZGnj6uqnbWHD6t8ZN6hnR1pa7JaETV6NNJvvx2WseNxNioV7xY1IyvSjLxIJ4bYGvDUyg9wubIaty+ciTFDMpEa7w7l/Mtf/oK1a9eq0Ee6zhjmeeutt6p9hBt0aP3sZz9TIZ4EN1/84hcxb948ZGVmovzUKTRUVCigl5CXh4j4eA/84bkMlSTAIoQjzCCcoqOLTi4NLridoXiEHgRFhD4ENRq4cRuBkBEKRUdHt4FkOtdZWVmZgjg8PyMjQ4WkGsFdZ2Aa50HX2pe//GWVV4zAh+t49dVXsWbNGpV3bNSoUQo8rlixApyTBmTMQ0fgRvjEuXDdWVlZChRpcKPzeTF/G3UlQGIf58+fV+fxHD1/9nvp0iWVz41r5bHx8fHIzMz0QEPve4N9MPcb4R/BFHO8UXvCNF5LNu1My8nORuWVK6i7eBGO0lIkjBmDyORkWFtchhyf14Fzq6ioUHCK4a2cL6+jvjacF/PJaUcYrynXy+38zfmUlJSo+fAe4Hx4PnXlPv7ExMQo1yDX5527r7PPFt4LvA+ptRGmGat7aleaB6QRUEvOtM5KLceLAqKAKCAKiAJ9V4FgXkj95UzTuX56w5lmfEE1KuwNmowvvTrMU4Mvnf+oq9U8jX17w0F/zrRgnC9GCOgN08SZ1ne/U4FmJjAtkELB7Q/m2WWEaYTR4bFxKtehr2qbRjBtdOXqY3WuRF/OUT5XAlXz1P2LMy2469snjvID01i901PN0+XE+KRwzM2KQnqUDeEsexmgEaSt3HEAMZHhWDBhNMaPHoWXTttxvs6pIJm/Ni/NqkI8i+ud2FvuwLGqtidwdIZ3jokzYUo8YNmzHXUb17uLDRAKGUI7LTExiBg2DBG5uXDa7ajctAnOhoZW2GYywRofj4gRI5B4w41wTZ6O4phUXG4yIdLsQmEC8OvX38PJi5dxw9TxmDEqD0NSktT0GdKoQxsJXObPn4+vf/3rCnIQTjFh/QsvvICjR4+q8Mb/+I//wPTp09X+V156CccOH1ZwZMVnPoMx48YpuEPocuDAAezcuVPBOAINwgwCKkIighiOw9/cTrhz6NAhBYxYBKGwsFCBLDbmOWNfBw8eVHCF+3ku+2HfDFnk3IqKijzj8DhCrKFDh2LMmDGqL0KazsI0zuOrX/2qAlE6zPOdd97Be++9h+PHj6sCBsw5dtttt6l1nDp1CnTw6aIOhEoEZdQkISEBU6ZMUcCSoI/HcM0bN25U4Ig/1OfMmTNq7rNnz8awYcMUkGSfhGIEWdqZxmMJsyZMmKD6JNhjoyY8lroQkOpwVerFcak1rw+vn4ZphFpvvPYajh48CHtdHRYsW4YxEyao43ntmFOP/VFjwj+ulfPVRRjYH/UdOXKkCnvlPPfu3auuC0EaYSS3EUASnBGsES7y+rAfXhfqSfjGe4kwjetnfzqfXaDvqq/92lmpnY9tiw+4CxIITOuKsnKOKCAKiAKigCjQjxTozAupcVneibM7gmn+HBv2hnpP3rPu5kzj+AdX/tVTIc8I2jQ4i03LUvnL2PiybMyr1hmYxsT/Cdl5niTkujgDwz+1006vjY41fznT+BLu7XzR8+Satv35CU8eOqMzTXKm9aMvmddUBaaF5tp15tklif5Do/mg68UbpvFvVb3TBTdMc4cP8vfklAgszIlGfLgFNnNgmPb6tr14fdsejMrOwMxxBRiSm4eXTjfhYr1/VxqvweIMK6YmW3Go0oEDFQ6crmmFaaz0ycqdExPMGGutQ1LxKdSseQ+Vmzej6dIlldBfN0tsLCLy8pAwb56CZc66Olx5/XU0nDzpdq/pRkeNxYL4+fNVlc+IGdfgrDkGLlsYxsZb8OSba3DobDGm5g/FdZNGIz/TnXSfsIz50P76178q8EM49O1vf1s5jIqLixXIoROLYC03N1c50whvCHmYf2v79u0KmHzrW99S5xIEvf/++woS7d69W0Ev9sW+6Twi4OC2T33qUwou8fNrr72mxiH8IfhasmSJCp9kI3Cic47QjwCJgOtzn/uccm2dPn0ar7zyCo4cOaIgDaENgQmhDB1cdD+xPzrt6OLieoLNmabH0jBNhy4Spq1atQrHjh1TMJDwiPMhUCJwevfdd5WzTOdW42cduslj6epjnjLOnWv+29/+piAlYZR2b3GudLtx/gRj//znPxWM4vOUUI6Ai30SlI0fP17BRR7PRqDH67l582YFv9gnrwmvEdfE60gnIIGjhmmEYr/85S9V7jzCOsJBzpEwTwNCrpmasj9eT+pBSMgfjsO5ErLefPPNCooSOBLccc7sX8+Z8+b4XAdhHa8/18ZzuJ3HERJyfIbR8h7patOOOq5Jg003PHOHEgtM66qycp4oIAqIAqKAKNCPFOjMC2lXYJo/x4aGWjpc84YfPYnycycw+577sfbJB1Wi745yphFSGZ0gOsST4/kKgfQOwTQez3nopOPBVPPk8Sx+wKqlbDrMk4BLb6ebZcqt9+LE5tUqjPXI+2+oip668qcv5wvDR41rWvzdR1F0cJenmqcRpnFc72IDUs2zf3zxBKaF5jp15tklMC00mg+6XjqAaaqCJ0M8W3JxEaxNS4vAktwYRFrNsJgCw7SXN+7AK5t3Yf74AkwuyEd8ejZePWtHSUNgmMbk/9OSLfjwikMVKzDmWEsMM6l8ZuNjXEi5eAoXn3tOJfJvunix3eWLGjMGCfPnI/W220CHWnN5OWp278blV19F9Y4d7at82myIHjcOGXffDUt+AWwpKcqF96fVG7H/1HlkJSfgkzMmYWxulhqLcINQh1Ue6eAhrCIwo+uKrjCCHLrCCE3oFlq2bJnaR5DjDdOuueYaBSkYFkrIxsawUVa/5PkEPARmhCYEbyx2MG3atC7BNIYWEl699dZbyvFEkMbxCYwYYkmQR8CWnZ2tnHYEgIQ2XYVpOv/Wyy+/jLfffluBwREjRijoQzBIeESQpiuFEkTRLUbIRiBFxxnnyHV/5StfUds1TNM55Qh/CL2Yp+0Tn/iEglcEhXQOErbRyTV16lQFxAjjWI2Vz1gCuvvvv18Bri1btqg8eNSHfRFk0QXG60xwqnOIcV8gmEbtGNbK60Z3GgEcQR/nwZBThmxSBzau1xdM47XhtadWHJPONjrROB+d+41uQ/bLNfHace6EpSyI8elPf7rLjzTqwXta56/T+eUEpnVZUjlRFBAFRAFRQBTofwp05oW0/61uYM/YO9SzJ/OlUUkpQBCa+0lgWuh0DLYAQWhGlF4GnQKdgGkz0iNx/dAY2OhKCczS8Nd1H+Ifm3bixmkTUFiQj6TUDAXHKgPkS+M1YM60kXFmHKxw4lydE2WNbgCXEGZCZoQJI6JdsO3dgaZN61G1bZtymanQzZZmiY5WoZ2JixerAgMM8WSif4Z/EqjxHIZ7Vm7ZAhdDQnVVU4Z8JiQgMj8fiTcuR+yM6YhIS8PLm3YqmBYRZsNNsyZjwtBsNRIdOwRPf/zjH5XDiFCDIIfQhsDnt7/9rQInBGKf+cxnMG7cOOUq8gXT6CIirPnVr36lwvwIX+gwmzhxogI6dIbRacX+6HIj4CJk6YozjQCK4Z8ESnSBEfDRpUVAQ3D10ksvqfUwTPBLX/qSmgMBTrAwjRCG5xIuEgZxPK6ZsIy6ENBo9xQBGSEWASIB3ujRoxUQ4/kMdWS4K8EZQd+MGTMU+DLCNPZF3elcI5Si4416MfSRDjhCMOpFrdgv9duxYwcI9tgIOf/zP/9TwS0CRrrdCI6oBx1rBFOEWJw7XYaEpIFgGvvk/J988kk1fwIuwjIWW+AcqCW304WooaUvmMb7i2viPcXwTc6d14ZzoB68LjyPQI3zI7jbs2ePuqastkqg1tWmc9jpvGm6uIXAtK4qKueJAqKAKCAKiAL9UAGBaf3wohmmrAEaq6vue+05zP/qj2ANj+yRRQlMC42sAtNCp6PAtNBoKb10oEAnYNrMjEjcOCwWZoZ6BSHoi2u3ge60m2dNxtRR+chMS1dgrNER2JmWG21GargZF+qdqGxyod7hUi6iRBuQ2FyHyAunUfnealRu2NA+tJM50phPasECxM+Zg8iCgnaVDRvPnUPNnj0offtt1J88qfKseVpLyGfCwoVIWLAAcTNmYMeFEhwqvoxLFdVYcc0kjG+BaTyH0OaNN97Arl27VBd0izHEjnm9fv3rXyvHE4HHfffdp5xOBB0dwTSCCzqjCOjYGGZJCMSQPq5fV1YkHCIAY86srsA0wiCda4vgi6GBdH7pRPl0iREuEeDQgUUoxrkFC9MInwh7GIJJCMN+uY0ONZ3Qn6CQBQi4FkIvgjOOSQilQ07ptvroo4+UHuyHMO373/++goramcY+Cb4IjwiVqAkbHW0ETOyD8+B2/qYzjW5Bhl6yEeZ985vf9OQ2o0uO47My67333qvWQfjF6/nUU09h3759Crb5c6Zxnhzv8ccfV9CSoZ0EWxyLcIxzZigvw2w5T+rsC6YRRPIeuP3225VLkECVLkg67rhv+fLlCkpy3Vwn7wVeO7Z77rkHd9xxRxDfVN+H6NBcAl7eIwLTuiylnCgKiAKigCggCvRfBQSm9d9rd7VnLjAtNIoLTAudjgLTQqOl9NI1mOZyukM9ASdmZ0TiE3lxQUupYdqnZk/BrNH5GJGdjmani8GjARtzsrHGAQsVOFpcYxZuczrQdPYsLr74Imp27ULj+fPt+mJuNEK0jDvuUIUFYDb7HI9uturdu3Hln/9E9c6d7Y4xh4cjprAQmV/8IpzZOThTb8cH+w5j6ZRxqqKnboQsdAMRqBHy0BnFcE46jp555hkFVRiSSWDDZyPBhC+YRtBCNxoBHPNl8RjdCDKYH4tgje4mAuvry4EAACAASURBVBS6sQi4ugLTCGYItwgACZYIBAmyGMrJMFLdmMurKzDNOHejsIR4BINcK3OVscABG8ek24wOtRMnTngceIRY1IuN5xI4PfDAA21gGuEcnWDf/e531TG6ETzSXUfHG0Ed4SHXyHVTN904l2984xsq5xl15/F0jxGIfvazn/UcR6jEEFy61zgnfzCNAIwQjmCUIZ68Bzg/ug8JLtkI5Qj0OB4hny+YxvO4naGwuvDCE088oXLhEaYxPxvBnd5HOPfmm2+q/nsaprmrerYWIeCYKqeaVPMM+HyTA0QBUUAUEAVEgX6jgMC0fnOpen2iAtNCcwkEpoVOR4FpodFSeulAgQDONG+YtjwvLihXGkf7C8M8N+7E8hkTMblgBBJTMrCzzIGqIMI8JydakB9rxvFqJ+xOF2KtQH60Cfa9u1C5cSOqtmxBU0kJnPX17RZGkJa4ZAnoLLNERfEN3+fieW5TcTEuPv88yteuVcUJPOGeBANmM6xJSYgqKED89TfAOWYsLrnMGJKWjMSYKE+fhDOENL///e8VVCPkoOOKwIZhgXRN0eWk81d1BNMIhAhaCLf4QwhDOMe8WhyD0Ii5v+huI1AjRCGM8gfT2M8HH3ygXFAETboAAefAUFKCIcJA/s1+CewI9OgGo4OLf3cFptF5Recc85FpeMT/LtChxbDJlJQU9cPPdECxSAKdZnRXEYJRQ86Hc2HuM8IjusF8wTRqQu0IxAiwdGMYJX/oamOYpXbE0XXGXGQ6L52GaQRpBGrczlBTAlAWX9CtuzDtO9/5joJpnC8b9dcwjTp0BNN4nW+55ZY+B9OkAIH8V0UUEAVEAVFAFBgECghMGwQXOURLFJgWGiEFpoVOR4FpodFSeukaTFMFCOhOgxOzOhnm+fcN7gIE104YhUkF+YhLy8Jr5+y4HEQBgiWZVpU37WiVU+VnS3Q0IPvKGdSufV+FdjZeuACX3e5zUTGTJilnWsK118KWng7mT/NuLocDzYRUhw6h9M03UbVzZzuYxnMI1JhrjWAudt48RE6bgfDYGFjDbJ4uCX8YxkgXEqEVXVn5+fkKEtFldf3116tCAkzwz9YRTGN4KIEPwRxdWsxdRoDD/gjUmC+Lv/k3QwXZ74033qgccQRRdJdNmDABS5cuVT9sBEmsoEkHGkGWhmnMubVy5UqVM43gijndCOaYa4zzo8OJx3QVphGCcS4EcezDXQXSpMbiGvmZjdrRlfbiiy8qsMQqp4SPzAdHhx/XzzDI1atXq+N9wTS6t+jUY+VQI0xjhVWCRIZ68nqMHDlS/RCmUSuOyaZhGrUiUGPeMYae0pnG8EodXkunIat2agjnz5mmHWh0kRFMEqDRKcZ7gI5Crpvgji4ygkLOyRdMY349wjRW+exrzjSBafJfFVFAFBAFRAFRYBAoIDBtEFzkEC1RYFpohBSYFjod+wJM05WCWX04MiEF3lV3Q7Na6aVXFOhEzrTpLECQG4swiymoAgT/2rIbr27dg8K8HEwfU4DMnKH4++kmXAoCpl2bbsWsVCvqml1ICjMh+koRSl56CVUffoiGU6f8S0VoM3Qo0j77WcTOmKEKEXg3R20tavftQ9Ef/oDGM2fQXFXlt0+GfLKvnG9+0w3o6Hjzan/5y19U5UgmvKeLio0OLebdYkgjQyvZOoJphFl0YRG+0IlGCEVIRKBCiEbIQ9jD8ECCMSalZ54wwrINGzYoJxsdVQRphGxshHusKEqox340TKMrijCJ7jMWS+DxDE2MjIxU7jBWGiWEYv6yrjjTCLU4FgEXHWYdNZ2LjHOhO4268RyujdCN4Zlcw7/+9S9P7jnvME+uizqxyqcRpjG3GJ2BdAgSitFpxtxihGK8TgRjRpjGsagvoR7ddIRprGRKMMjrQZcgc6YRQAYqQEBAx3U//PDD6npxXkuWLFH3AV2FhIScG4sJ8NoSYvZFmEbopwsQSDXPXnlCy6CigCggCogCokDvKiAwrXf170+jC0wLzdUSmBY6HfsCTDOuhhV2BaaF5vr2iV46gGl0VZlcTsDlVBCDn6ekRmDxkBhE28ywBlHO851dB/Hm9n1IjYvB/AmjMeb/OYP+csqOC3VOBKpBMDPFghkpVoSbTUgMAyJrKlC5eTPK3nkHVdu3twnH9KWjmdU8hwxB0vXXI37uXITn5MBktcJFp11TEyrWrkXFunWo3rULjpoauFrycnV0TcKzsxE/b57Kn2aJiVFuNe+2fv16BWn4w2cgYRChF8MPCVcIqgLBNMIthm0SaPFchkkOHTpUAR1CHIIZJp8nqGHyeebMYp4xOrAYssncW3R2EZARgvBYhp4SBjH/mYZp7IfOrcuXLytXGt1PrAxJ0MTQUK6Bc+lqzrRgYRrDL+nEe/7551VlS+pGFxbDNrlmOur4QydZR2GeHcG0n//85wpYcQyCMWrCtdIJxj6pGxvXToBHvVjl889//rPaTncanWTUgPoRtlEbwq9AMI1wj04yQkICOjoN2Q8dhbyedBfyGhO8clyO1RdhGsEv50eoJjCtTzyxZRKigCggCogCosDVVaC/wbSeflnd9IdH1QWYe+/3PRfCOCY3rnrkO5j3lR8iPjMH7/3se/B2pJSeOooDK1/Ckvsf63RlzfrKMk//ycNGhvRm4NqGTV+g+jy9Y32bNQYzkMC0YFQKfIzAtMAaBXNEZ59d/B6/+r07UHLsAIbPXoybHn4WkfFJOL93q/q+hkfHYtuff6n28fv/7iPfVseu+OkzGH/jbWpKrJ77xg/vUZ/TCibglsde6PA5wL6l9XMFAsI0VwtQc2JScjiuzYlGYrhVudMCtQ0Hj2PV7oOorm/A4sKxmF04Ea+cteN0jRO1zf7LEExKtGBKkgXpkWaEmwFLYwNsF8+j6oP3UbF+PRrOnFFQzG8zmxE7fToS5s1TYZ+2lBQwvLPh7Flc+de/VO41e3l5S4EF3z0RmhGexc2apaBcwoJrYWaIp488bAQjhFB0qLEx/JCQhOF9hFi6deRMozOMTi26lQjACLboViOUIVhjJUcm1CfkIvgiIGIuNo5LEMUqjgRHDBmk00mHUNLtxr7oMtMwjSBHhxgy9JL5zThXhlxyHLqwCHy4BibhJ+hhEYRgq3kGC9MYHstxuGZW0eRnhngSOhHeELRxzYRRfB4SiN1///0KAhJS/e1vf1OOO1/ONAI6QkYWHqAjjeujBpcuXVLrYxgrx6eWd955p9KZbrx//OMfKsSW+6glK23SYcgwW86P14hz8RfmyflwPOZsI7TTBSUI4agp+2af/OG1oWuxr8E0p9OF5ma7mqsRpvE+MJnMbYoP6LBdKUAQ6Kko+0UBUUAUEAVEgX6mQGdfSPvZ8jo93c7ANCPsChXk6ymYRmBgBGgarOUUzgpaI4FpQUvl90CBaaHTMVhnGr9Xr//gbgXJeM/z/q8uKVLA++LhvXj+7sW489k1yBhTqAB5ZdEZBdsIxnms92eCMv2smHnnt3xCdYFpobnOvdqLN0zjZFwu5eCiK83E2pt0pzmdGJsYhjmZUciMtiHC6rtCpnEte06cxdr9R7Hz49NYNmU8VsydiTWXmnGk0omSBlYI7bix+MCERAvGxJlRbQcancDIWDOcHx9F1ebNKPnHP8BqnO5Kox035jxjdc+0f/93xE6erNZWtnq1cqbVHTni3+FmMsGakIDI/Hyk8/wZMwCrO9+Xr5oGBFEMt6Qjio05v2bOnKnCLglzvGHa448/rpxQBCzavUZoRqjEfghi3JfDDR61242Ah4405ljTFT0J8V5++WUFigjUdH4yAiLCIIaAMsk9gR3PJSBh/6+//rqCZ8p9aDKpY/lDYMQk/WwEdgxPJLR67LHHVA4zFg+44447FIii44qNOcfozuPcCdM41pe//GW/YZ5ak7ffflvlRaP7i3PT66XLjpqwb27n31/72tcU9GOoKtfMedHJdt9997UJ82ROMs6H7jRCK92YN43zY+EFwjFeG4aVMvySGhw4cEDloeNcCD65jQCMWlNbwkmOTwDHcekSZAVW5lLjHAkfuZ0uOK0z89PRJchzCQkZwksNGU6qnYZ0yN10003qGnLOnD/H5fYVK1Yo2Md9v/rVrzzVPDkW7wO9jyG9b731lloqYR/DW7vaqJnd3qyAGj8TorlBGqt4un8bf/Q1k2qeXVVczhMFRAFRQBQQBfqgAsHANL6IrvvNQ7j26w8pJ4dufJnc8NufqD/nf+1/1IuqN1TSrg/90urtAOFLqi0iUr2MZowuxK6Xn27jBmF/qx//rucfj/O/+iNsf/H/w7IHfqFedIN1lHAefGFmm/yZL6qXaDaO21hdiUOrXlEv0wRObL6caYu+87B6gd7zyp+UK+WTP/kjdv/jab/ONP2izj6Nbhj9cn9yyxqPfvqlXPdvdL1wGxvnSBgQSOeNTz+C2tISZE+cgYXf+DG2PPMzTLr5C9AAkOfve+05UE9ruDu8JlATmBZIoeD2C0wLTqdARwXz7NJ98PuvoRifYcbvjxGYaUiWkJ2n3Gj+IDldahUXTkFgWqAr1Y/3dwDTCNBUZcuW3y6nA/lxYZiaFoERCeGIsQWGaacuXcH2Y6fw6pY9mDl6OFbMmY5zzZE4UAkcrXL4FS09woRRcRZcl2HFx9UOnKl1ojDRgjRHHcKKz6Fy0yZUbNqEusOHAwIxOssicnNVyGcMgYnFgtKVK1sLGTh8zyUsLQ3RhYVI+cQnEDZiBKzJyZ5QN1+Tp3uHYIrhmIRTBCUEMHSJMfxSN4IJQhq6z+iwIphgsn5CKYY2ajcWnVMMKSTYYn+EbgRp7JPOLX6mq4z98Ry6qejiYhJ/NkIxwhiCI/ajq1mOGDFCQRBuO3bsmAcqEVpp+MYxCYzYN7dxDRyLAItOKn4uKChQIEmHr9K5xfGpAYER99FlxnkHagRbdJAR1BFwcX48n44tzp9OMs6F4IxuPerB+TMXHPundhyLWupGBx/PY4hoRUWFOp/XhGGWnD+3MXcZt9GZR9earh5KhxrdcLw+HJ/gi8dQE2pDSDZq1Cg1LvsigOM14BjUl5rxmrN/zpPr0+NpOEetqCdDRzk23WwsKsE5cGz2x7G5j3Pm9eHYHIugkxpzLF5n7uPcqB/vAzbOj+Cwq41r0fnSqLfAtK4qKeeJAqKAKCAKiAL9WIFgXkh9wTQjJOPyNzz1vwrWsBlzBnnDNAItHTbl7ezQbpC68lIF0Jb+t/v/YDM06/oHnmgHkfgSHIyjxNifDs2MTcvyvATzs4ZnnXGmBQrznHvv9/D+L36oQkIJsfjyzTZ60QoF8YZMnuN5YdfrjUpMbhPmaZwPtWToGSFbIJ31cRzXFzhj0nR9zYINJxWYFpovusC00OnYkTPNG/QzvFnDdD26DtOsr7jSJiyb5/qCaRr6a7DNfvg/EQSmheZ69sleAsK0VmfakBgrxieFY2JKBOLD3Qn2/bXymjocPleM37+zHsPSkrFk6gQkpmZiX7UVH5Y2QxUJ7aBFW00YFm3Gp3JtOFHtwKFKB5LDzRifYMEwSwOazpxB+QcfqFBNFfLZQWVP1X2Lgyb2mmtUqGb87NmoP34cVTt2KCjXXFYGZ2OjZybMrcYKoHE8no6sBQtQaXfAaQKSYqI9lSh9TZ2QjMCDIIKwgzCEcMQIeXge4QThB49nI5AyVrkkxCAUIxCiG4rHsy/CMUIm9qlD63R/hHk8nuOz0f2kQRb7Y+N53Mb5cI4cg24p/uYcCKvoYCME4tx4DM/h2FwP58xxeD77Ma6NxxMyaWcZ97FP4zz93S9cJ8ETx+A5nD+rYOpxNdDhuNzPeXCenIsey7t/7if84xo1TCOEpNYcj9vYF8dgv7pwBDXkOZyPUXcNl3iesTIpj+f6OUdu53x4DHPTETJyroR21Jfr4jh027HYAeEXXWyLFi3CXN6fLWGg1FG7ETkHfc04Fvtj02PpfVyvvtZcD/d3tTkcTjQ2NoC/gVaY5suVph1q6uvm0l7Kro4s54kCooAoIAqIAqJAn1HAH0wzurmMEyYMS8jK9ZkXLJBjypc7RDu+NFziWPqFNnPsFA9Y02BIw7pgHSUnNr+Hc3s2e3KYacBHx9baJx/0QC09Ln+HImeaN0zr6KIbQzuNMI2fjaFp/qoGekNLo87eIZ56Hp0N9RSYFpqvrcC00OkYbJin8fvh7cT03tcRTPN+jogzLTTXsU/3omGanqRyo7U60vRnhnmmRpgxIj4MszOjkBJpDbgsp8uFotIK/N8/32WwKKbkD8PSKROwvz4Ca4rtaKL5rYNemJEtM9KEfxsWhmq7C0eqnDhc5cT8VAvmppphhUuFaRKGXX7lFTRXVAQsSkBIFlVQgPS77lK/m8vLcfGFF1B36BCaSkrc5zO0MzYW4cOGIeOOOxA3e7YqXHCsqATNThfG5GbC7CvGM6AacsBgU4CA8oknnlDhtARgdIkxlJShsXSpcTvDUAnGWOjgk5/8pHLXEWb2hcZ51dcT5LqBozHEs6MwT4FpfeHKyRxEAVFAFBAFRIEQKtBVZxqnYEzGrd1mgWCaMTG/PlbDNCby1zm8jDDN6HTzDs8y9ufvJVgnDdfSMeRy+YNPKWjnPW6oYBpDSSuLz3uSnuvwUr7Me4NK7ZLxBdN0KKieO7UmZPTnADTqol/6jYBQg0M6doLNmyYwLTRfPIFpodMxWJjmnTON34mDK//qyYUW7HNEQ3l7Q70C3fzuiDMtNNezT/bSko/LPTcN0lqBmq7kyRfqaIsJGVEW3DgsVuVNC9QIysqqavC3DTtw9MJFhNtsuO/6+agKS8DOchdOVDtR7yfaMynchIXpVqSGq8xtKK53Ibe5Ejm1V2AvugBbaqqCX8x/Vrlli3Kb+W0alOXlIWnZMkSPGwdnQwPKV69G1dataLp4UeVIi54wAck33YSw9HR3wYJTp+AaOQph2dmIjY5E4NILgZSR/YNBAbrE1q5d68l/R5ceQRl/6DojUKNrjrn1Fi5cqEI8uY+uub7QtMuSjwiz2Q3TAuVME5jWF66czEEUEAVEAVFAFAihAt2BaXoa/hxTfGnVL6DMH+btmOLfGmppZ5ruj397Q6OuwjTmNvKGScZ5a6DkCzwZ8y1xzV2t5qn7nvrZ+9o4zvw50/RY3qGY3tDSW2cjHBBnWgi/MCHoSmBaCERsSTgeLEzjiMZqnhpe83sVrDONfRCgEW4Txk+59V6c2Lxa5SSkw9W7qq8UIAjNde7VXjqCacRXjMNkzjT12QmLyYXEMBNWDI9HbqwNNnNgrFTb0Iidx0/j/X1H8HFxCe5ePAdpmdmoMkfjQIUDte4oR58t2gqVNy0vxoxEqxPVVXUwH9oP00f70HThgsp/FjV2LJwMydu0CVVbtqDh3LnAIZ8WC+JmzlQhn/zNvGvVu3ejZs8eVWwgdsoUVb2TzrfaQ4dQf+IE4ufNV9sjcof4rOTZq9dQBu+TCtDZxZxtzHG2a9cuBc50OCihFEMwCc/y8/NVsQYWV/AOB+6them8frqYha7eaQRqvgoQCEzrrSsm44oCooAoIAqIAj2kQDAwzdfQRuhkzL/FY3WOM10Zj9u8q+bpinrcp50d+ji6uYw507rrTDPmTOPLs67kZ3wJ1jDNmJeMx2rgpvOqGcFXoJxpU2+9F1ue+bkqlsAXa50zbcScJW1gGrdv+/MTKheav5xpGgYwf1xkQopfnb0dgN7FBiRnWg99oYLoVmBaECIFcUhXn11BdC2HiAJuBXzBNB8ONXUcE7hbgRuGxSI/PgyxYYHzpjmcTlTW1eOVTbvw9o4DmDs2H3MnjELB0FycqHGhzuHqMNTTagJiLCZkRZmRYmpSzrGSl15C2dtvw9HQgNjCQiQsXKgKCzScPavyp115/XU0V1YGrvLJkM8xY5Bx992IHDECjtpalL/3nsqTFjF0KOxXruDSiy8qSOeoq1PhnomLFiF5+XJVwMC7eWeJCjZPmNyGvaeArmAaaAbGaqqBjvW1X+dtO336tMqfxpxwuhgECzuwoER3cpt1ZU6BziEIpHuO+dd0iKfblUZ3WmvIJ/sx5ktTf0vOtEDyyn5RQBQQBUQBUaD/KNDVF1INmXQybh3myZXr8E+6P+jCunhkrwem7fzb75U4h1b9o11VTQIrXR20o6qVXXGmEWQZwyp1VU2dUNwY5sm5eYdg6kql3KfXfWH/9qCqeR55/w3oEFNjmKcxRPaGHz2pNOI8NIBk/76qeQarsxGm+QJnUs2z976jAtNCo31Xn12hGV16GRQK+IRpLZDNkzuttbJnhBmYkR6JsUnhGBIbFlAigohmhxPrDx7Fqt0foay6FgsmjMYN0yfCZAtHvdOE+mbfQI2pyawmE+JsJsSaHDDX16H01X+h9K230HjhAixRUYgYPlxBrqjRo9VcytesQdX27Wg4edL/3BjyGR+PyOHDkbR8OWImTQLzwhGUNZ49iytvvqmcafbLl1U/qbfcgsTFixFTWMiYN0/fDIUjeNCFBPQOJqDnj05oH1AoOeCqKqABF51h/qqN8v5lUQeCJBYO6Eqjy4tgiq40wineL3y2s6gAIZqx8EFX+u+Jc3QhCd7XvsI7dbgnx25TfIDFPgSm9cQlkT5FAVFAFBAFRIHeUeBqvpB2lATcV7hl76gxcEf1DvXsbPEBKiM500JzfwhMC52OnQnzDM2o0sugUqAdTOPqW3KmtYR6qgTkLWDNZnIhL86GwpQITEqNDFqqE8Ul2H7sFFbuOIDhGalYVDgGhcNz0WAKQ1G9C6WNLtjbzKW1a1b2TAkDhke60LR3Nyo2bEDVpk3KPWYKC1MgjUCNOdDoSuP+6g8/VMDN1VIt09dETTYbrHFxSL/jDiRedx0scXGo2btXudHoUqMjjftZrCDphhsQM3UqwtLS2oR5Xrx4UVV9JHwwAgadGys2NjZojeTAq6MAARlDLhmCyXxl/hL+E4R99NFHCoyOGTPm6kywD4xC2Mh7Wrv3/OVL00DNA9YEpvWBKyhTEAVEAVFAFBAFQqSAwLQQCdkPutEAjVM9vWN9uxxygZYgMC2QQsHtF5gWnE6Bjrqaz65Ac5H9A1gBD8Rqqa2pK3oqruZ0V/Nr2WZyORFrpTstCgtyYhBE2jQlnL3ZgXNXyvDbletQUlmN3NQk3LN4DuyRCThcDewsdaC62aXStHk3OtNGxJpxU44N8aZmNJ48iUvPPYvagwfdVTidTpXjjM6xhGuvRf3Ro6hYvx5l774LR3W1cpy1ayYTLNHRCM/ORtrnP4+4adPQXFOjQjt5Ls8zh4Uhevx4pN9+uwoJtaWktOtm+/btOHv2rHKmMXRPO9Gys7PBH4bxEcgoKV0uj4vH+xmpQwm9c2Zxu97nfb6eDPs3hiJqp5Ax9FT3Y8xz5e+O9tencU5GgGjcrter1+NrfO/jeY4Oj+1ovtyu9TSuJZi+jP0z3PLw4cOqemZKSorSz5eGdJGtWrVKuccWLVrURjJf4Z9GzTm/YHQM9ppcrScQ18BcaYRp3mGdvqp4GkOa1VoEpl2tSyXjiAKigCggCogCPa+AvJD2vMYDZQSBaaG5kgLTQqejONNCo6X04kcBf+40FiDQcE19dsICFyYmR2BOVjSSIywIswQuRKDcQHUNyp224eAxVYxgwfgCTBk1EilpmdhV5sCxagcu1renacydlh5pxnXpVuRGAbFNtWg+dRIVq1ehauNGFYpJV1nUyJFIXLpU5UBzNjWh4v333SGfp0+3WzxDPAnIUm6+GeFDhqC5rAylK1ei9qOPVG42Arr4+fORsGCBKlJAhxpdcN6NMI1VGQnO6EJj6B6bDt/j3yUlJaiurlZwIiEhAfHx8YiJiUFNTY0n7I/uNgKbjIwMBeQILQhiCH14HrfxGPaXlJSE6OhotY0Qj/2zL4If3T8rR9bW1qr9/OG53M/zOQbn11FeN4YiXr582dMn18V+OSZDFcvLy5Wzi+Mz9JE/dG5xDM6Dn/XYaWlpalzmCeM+rp19RUVFKd24jRCSv7leHs/16uO5Vh7P+XId1PHSpUsKfLEProVropOKWmkwxb54Lv/Wecr4mWvhfHk8c5gNGzZM9a3XxDHYX3p6urpGHMcXTON2nsM+eRzXTN04b+rCNfEacq56bZwP189rQ/24fq6Humode/s5pcKym5vR1GSHw+ErxNOdM03fO+3ypQlM6+1LKOOLAqKAKCAKiAKhVUBgWmj1HMi9CUwLzdUVmBY6HQWmhUZL6aWrMI1wq6WqJ907dFm5nBgaY8OklAiMTY5AXFhrDjF/Ojc7HLhSVYN1B45i48HjqvDA9JHDMG30SDgi43Gy3oxjVU5cbnDCzmEMncVYTRgdZ0Fhkhl50SbYG+2w796Bxs0bUL1tG+ylpTBHRCgnGYsSRI0ahebyclSsW6eAWlNxMVzMVUVQFR6uKoGqip7z56v8alUffqhCO5urq5VjLZKhnUuXInbaNIRnZXVYwfPDDz9UYGTo0KEqXFDDNIIewpXS0lIFTfhZAzICldzcXAV5CKAInrgvOTlZbdcwjVBj7969CmDxHPZBSMT9I0eO9IAiQh0dZkpwxX4ImTiu7l+DN8ISuuV4DCGQd+NaOGf+sC8Nhgi5CKJOnTqlQJR2chEacd1DhgzBuXPnVOgkj9N55PjfAoIm/ub8+ZlrIcRiXwyT5fka+unjOS+uif0TNFFfgilqpsdnXwRTXA/7plZcE8en/jzXCNl0Hjv2xe0HDx7EhAkTFEwrKipSOnM758710rHGufmCaTzm448/Vuvi+OyD15FzJBTl9aRGhJKcG+8LDTq5/8yZMwq88Tj2RU0I8Dh3zrO3msPhRFOTWwPOv231zlaQ5p0nTc9XnGm9deVkXFFAFBAFRAFRoIcUEJjWQ8IOwG4FpoXmogpMC52OfRGm6RyQQybPwfgbbwvNYr16YQERXfGYVYd9tasxL6QRHAAAIABJREFUjx5ZXF/rtCNnGufpKULgBmoqjM3pRKzNhJxoK5bkxiI92orA3rTWRR8vuoStR07ire37kBgTjWtG5eGGqRNQb43GsRoXdpQ6UN7kQrNO3QaocNJwswnXZVgxNcmCSrsLsS47ws+eQOnzz6GOjjKGfLpciJ871x3yuWCByoFW8cEHKF+3Dk7Ci/Bw2DIykPa5zymY5mxoQMlf/oLytWvhqKpSoZ1RY8eq0E/mYFM50vw0wjQCE8IQDXB4OCs00pG0b98+5TzSjqxDhw4psDJx4kQFXvjD8wsKChRgIlDRoIIQ5rXXXlOQZjgLLSQmKphER9XSpUsVbCIQIlBi/xyH/fMzYRthGiERwdioUaMUiOM2AhvCL+YL02GIHJPg7MSJEzh27JiCKHRSESYRyBG+ERht2rRJzYPnEz4VFxcrEHbdddepsflDlx7P5fb9+/er4wmcCLp4PNuCBQuwe/duBaR4PEETQRaPpwaEgVwP508oNn/+fOzatUvpRS3Y6OoiwJsxY4b6+/XXX1fQLS8vT82PwEpDQe1g41qoNX+vXr0ay5YtU3OlprwuXBM15pi8htTNF0zj2rZt26bGZX+cPwsVcD28D7Qbj8dxHdSPffJHQ1Iex/kyTJh6p6amqrXx+N5o/G5z3tSAjfeEDuv0F94pYZ69cbVkTFFAFBAFRAFR4CopIDDtKgk9AIYRmBaaiygwLXQ6BgvT6ivL8PoP7kZO4aw2uQJZVbfiwqlO5w/0twLvYh+dWa13lWTjucZqwL4KiHgXeOnsPDoqENOZ+Q/cY0mu9Or0Z0MhAgNUozvNanIhwWbCdUNiMDw+DHFhlqClqW1sRFFpBdbtP4qDZy6o8M9pI4ehcORwDMnKwqUmE45WOfFxtRMVTS44XFCwjkAtP9aMCYkWjI+3oKrRgdrKamRePImad99B5eZNyo2mQj5Hj0by8uUqhJP5z8pXr0bdsWPKdZZ8882qiie3q9DO/f8/e+8CJ0Vx7v0/3FxWXRYBCSIql6OCAQMSE27e/nLxSOI9etS/GkxIjPEcg3pARF/0EEWIgImJGo0a8bwxJiYqHjwiEOMFMCpChAh4AQwIiCIg4IIg+35+tT5DTW/3zPRMT09ffv35oMtsd9VT36ru3f7yVNWbsmvdOpO5VjtggLQ+8USpPeEEaVZba+RargMyDYIHggpSC7IEB0QVxNW8efOM7MHfkXG0cuVKI9mQnaRZUBAVEEAQLhA6Kicg02bOnGk+69+/vykb2VwQaCeccIIRQsjGQvkQUDjwfcgQzW7SXUYhaSBKIO6QyYasK1wDeYYMKcSOBfYR3zvvvCNf//rXMwJId6JEfRA/EGMQfygP645hmuk3v/lNI+HWrl0rAwcONEIP7X/hhRfkX/7lX0zZkHUQaPh8yJAhsmjRIiPLcD5EG2L761//Kj179jQSS8+HTBw0aJC89tprRsZBlIGZyjSwgOiD9AILyC38ff78+YZFnz59TPtwjcottENlGrLQUC6y8lAm6oNkRJ997WtfK0qmoS70L8pFX0PMgbdOy4Xo06w71AmWkGvHHXecEXOVODSbEOMOR7ZIKywrzUg4rplWie5jnSRAAiRAAiRQHgKUaeXhmsRSKdOC6VXKtOA4+pVp2z/+UM6e9IhoNlc5ZFowrRMpJPvMrqtUGVbq9UG1O7LlNMpQs1LDHGunYVOClk1Fjm1bJT3btpRutVXSxEd6Wt3nu+XddR/K31asksUr1wimgHY/7BD5WtfDpcPB7WR702r5cHdzWV9XL5/sqjeZaDv21JuMuC4HNJWTvtKQDff5nr3Sau/n0uSNV+Tz+S+ZXTz3bNkiTQ84wEzlRHYaxBmy1nb985/SpHlzaTVokOxas0a2vf66kWwQcJgi2rJbN2kzZIjUfOMbRsI1aZp/+ipkGjKSNJNKp3ki2wmi6PnnnzfiCDILz0XIKmRLQapA2ECoIBMJGUrOnT8hNZ599lnz+SmnnGKGDUQXJBTkGjKoINNQvm50AJkGWYZrNRMKIgnlq8iBSIJM06mZEE6QTxB6y5cvN3WgTJyjGwggZoghiDOU1a1bNxMP5BjK69evn5FpEIvI9kJGG+TYnDlz5Ktf/arJxMOBzDaUgXPQDpyDryGSwAtC7PjjjzdCTc9He1SmoXyINshCLJKP7+FciKDZs2fLySefbL6PA3WDA7Lm0C/25g6QiKgLmwpA/KFfIL2QnQUJhnIh2fr27ZtXpiELUDPTwABiEH9QHphBRuJr9AP6XLPf8BkEKvoF9eLvKMtt+m0YzwywQqyIsZCsNGdGmsZImRZGb7EOEiABEiABEgiJAGVaSKATUA1lWjCdSJkWHEc/Mm3WxGukVYdDZdeObTLkuknSvKpabJnmlEn6vX6XXi2z7xgjHbr3loV/uE82vr1Ezrj1QZPR9uLdE6TrgMFy5m0PSXVtG3Fmll360ByTDadiDC1H/+P8zzZvkifGXGLKs8tQOl4yDZ+7XWfHjzIQ86LHHzDF2XG8dO+t0rFnX5kz5Xppf1SvjFzU66sOqJFXHr6z4HahvKqaVo3qQr0oc/qIwSYGO7MumBEQciluMg0hZHb3/HLttL3Y+bBhI4La/ZrI8e2rpf8h+0uLpk19CTUUvXLDR/L6O+/LzNfelO07d0nHNrUy7LivylcP7yhtWreWD3eJvLddZOWOeln/2V7Ztbdeals0ka+3bWbWUEP9a3bUy8GyU2ref1s2/Pa38tmKFWYNNUxHxe6eBw0ZYjLOsF4apnViXbSNv/+9mf65G4vIN29u1lg7+Nxz5cDjjmtYI63AAzINcqR79+6ZhfL1UgibuXPnGhGETC4IIIgqZEDpovnIvsol0yB8INMgiXDgegg0yCsIH0wjHTBggMl8woE6kVmlMgTlu8k0nI9sMecBwQWhhmwxyDQIOYgeZE9BfCGjCuu6Qabhc8SCbDRMw1yxYoWRRyrTIPvQfuyYibXJcCBTT4VbITIN5yOTDdlnyEyDuETWnGbwQZBBhkHQgRWmj6pMQ5Ybsu6QNQdZB/6IGf+HdMT56BuU8frrr5sMNrQZ/Ynvo9xcMg3xQOJBLmIqK4QjZBq+1qmq4IbPdUov4oCkw2coH0ITMaE9EJr4vu4IW+AQDOQ0lYgQajp27Kmd9tf6jKdMCwQ9CyEBEiABEiCBaBOgTIt2/0QpOsq0YHqDMi04jn5lWv8R18gbj/9Geg2/0EguPzINUUPCbVi22AgiCLXup55hpJWuj4bplzgGjbzeiKRnJ44ysgoHBNhpY6eZenXaac/hF5l11XDdto3rMpIP57vJNL0O5aMc+zrEtWTmo6aMV6b/PGcc3QefZWJE+9csmpfVLoi3Dj16m3bVtO9oznPW42xXv8tGNWrH1vVrM+u61R7SKau8YEZAyKU4ZRqqzxJpX2aqWVM+WzSplyNb7yfHHdxSjmi1n+zfPH82l92qz3Z9Lpu2bZe3P/hQXn9ntSxbs0GaNW0ihx/cVo7q1EGOOvxQad2qtTSrainbdjdkqW3fI4Jquh3YVA6tbmoEW8sme6X5jm1S9+67sul//ke2zpsnX2zdKs2xc+Qxx0i7M86Qll26mKmdH2EdMkzt/OADqd+924g2bERQO3CgND/oIJOlVuiB3TwhbCCmIEcgRPSAQFmyZInJPIKUQsYRFtyHHINggniCvMgl0zAVEedDEuGwZRpEDuQZykBWE+pG+RBCyITT9cIgaCDAEIcKMS+ZhiwzlImsL0g4/MHXOB9xQCBBRiHzTKd/om5kk2G9NIg1rOeG70Om/eUvfzFsbJkG8YVz3GQa2gtZpplpmKqJ6aWQif/4xz/MGmma5YU40CaITDBAZhqkHqZ5KivEo7uIog8gypApB8ml5+NcZMwhMw/tRX1oG6Z5YtolYkKdyHDTA+zRF+CN8sEGZUP2QZxiLODnIMQpxgcYIkZINpSLjD5kgCEzDf/HGEA2I9aPs8dQoeOwlPNQP9qr2ZJeWWma2WdvPqD1Zok1TvMspTt4LQmQAAmQAAlEiwB+yA+7fmq0gmI0kSQw6/ZrGhbY5lESAcq0kvBlLvbzDwGQUMhMO+GKcVK35WMjh5Ad9t682Zk10/Jlpqkwg+RCNtawsVNNNhrKan1oF+k2cIhZl01Fl2apQdxVt26XtWGAsww3ceb2GWLU2FG3Xc6mVSuMTBs0cozMvOXKguLw4oKynZl5KiDtjQ0OOea4rHbZDJfPnZERdcgCjP00UleZhuHovnaa2ZBgb720a9lUutS0kOM77C/tq5vLfs18zPcUkT1798qnn9XJsjXrZcmqD+Td9RulDoKoRQs5on0b6dimtbRv3UoO3H9/abJfS6lvViXSrIV0PKCFHFzdzKylZqaY7t0re3fukk/nz5MtL7wg2159VfZ8+qk0b9VKDuzbV6q7dDGZaZ/MmmWmdjZBNlCXLmbXTmxGYKZ2Nit87TeQUZkFCWKvmYbvIUMM8gryCFMHkX0EoQJpgswufK5TACHAnBIFcgMyDp9rFhnkDRbLx3RAZDBB3kDaqbBDech8grDB9yB9UC/Kx9eQO5BcuimA80kFyYTvQ/ThZ6FmpmEaKeKGQII00sXq0WZMcYSsg4hDnRBn+BxlQYCBDTKwcCBzC7IK0z7RDpyDrxEjMu3QXohAxK/nqwDT7C7IK92ZEwwgrxAProVY0yw9ZLSBP3YYRfk4F+II7MAC5ytXrP0G2am7nkIcgRkEG85DfZBweqA+yEr0If5AtqFslAthhj5Dn6Ct6HOdxokywRFZfPbadqgbn+P7OlU4mJ8iuUvRfsT4RPw47B083TYewDm2PHP+ndM8w+g51kECJEACJEACIRG44sdXhVQTq0kCgXt/9cskNKOibaBMCwZ/LpkG4YQpmDhOvPIm6Xv+DzIyDeulqQDD93UDgnwyTWVSPpm2cv6crAYigw3SyRZwTilmSy1dz81Lpum0Sa1Ep2pCEtoyrZA4nDJNM9vsKbBgZ0tC1Kv83NqlZUCmzRh3eRYLt+mswYyGkEopeGfPBsGG6Z5N6uulVQuRkzsdKN1q95O21f5299wnKMRItb+vWmN2+3xz1VrZvH2HVFftJ+1ra+RfOraXI9q3lU5tW0u7VjXSav+W0nI/LPiv8q5e9u6tF6mrk90rlssn//2I7Fy50qyhhqNZTY2RZfg7/l/drZvJWKv55jel5RFHFAUYEkJFiVMwaIGQJviDc5GxBdECaaOSBV/jj/N6lIuMJnyuog2yDOVAVuEanKPl43soH2IHEgR/x/fxtW5IANmDz/F33SzB2XBIFdSBcnEusq5QpsooSEJ8D39H1htiwaEbKiBW1Kk7Q0IOqSDSc3AN2o9z8DXaqOejLo0N7Uc8eg7igYDD/1E/YsO5OAfn2tciJpSJOhEzDj1fudmx4xyUqVl3aAPagswyxKfn2rxQp06rBVNdm00lFOSlLugP6ajTUyHawFDFIDhWYhdPxIE/9vROzTyzpRrabGekeU3xNOcxM62oZwkvIgESIAESIAESIAESIAHzSzcz/EofCMVmpkFWqaj6ylG9ZL8DajLTMm2ZpFM2dc20QmSaZr+pENNWumWi2XLNT2aaHaNNUWUgMtPmTh1nsvDc4nhu8rUydPQU8z27XpVxzvXknO13ZqY5JaEt04LeKbX0UVNiCfmy04xAQ/bul+un1ddLk/qG3T077t9ceh9cLX0OrpYWTZv4Xj8Nke/5Yq9sq9tpJNqHW7bJqg8/ln9u3CTrPtliRBuqbt6sqewHGdS8mbRo1sz8Hcfe+nr5fPcX0rF1jXRvfYB8s2VTqZszWz5dsMBkqJkNBfBsgiA6/nizYyd27myBhfZ9TO20CdvZPF7kIXRwHv5AuKho0Wvdps1pWbhWp93hM7DHdVqGCqNCy8f1+my2F+R3xq4x41wIJmd9Gpd+z/Dfu9eUrWt+aax2/PY5Xufbdbmdowv2o07wVLHj5GLzQrzO8/GZxqpZZSgLZdqL8Dv7wNn/WrbdTo3JGasy14wwm2PYa6WhjbrpgJFgTZpk+rlJE6x/qH/3Fml6nc2EMq3EZzAvJwESIAESIAESIAESSC8ByrRg+r4UmYYIMI0RmVPIXHOucbb/QW1NNhbWJStUpunaZygb5elGAVgnDdM8bekU1JppaMPSmb8zU1Z1mqdzzTRnHFi7Tdc4c66Z5paZlm/NNC+ZZq+ZptmAznXhghkJIZfitXZag52w/mBaWINUQ3bafk3FrJ/Wu11LObxmP6lu1jBlrJgDYmzX7t1GqH3w8WYj0z7+dLts3VEn2+t2CnYDxQ6gOA9qL5ObVi9yaLvWcsyhX5FB3Q6XvYsWyvaXXpJP//Y3+WL79oZdOzt3loNOPVVa9e9vpnn6ndpZTHt4DQlEiYC9ThqEngrMfdM6VaZBijf8cRVnLlv4UqZFqacZCwmQAAmQAAmQAAmQQKwIUKYF012lyjTNsNJF9hGVTg/FdMSu/QfL53U7fMk0526emOIJyebMTENdXrtyKp1CdvN0240TMg2HvZunMw7dfdOeduk1zRUyLdcupV4yTddJ02mpsZ/iaQ9br+me+rluQqDrqUFq7d1rdtc87MDmMqjjAdKmyedmHaogDpMLt3evfLL9MyPVsGkBpBo2MNi1e4+ponmzZmadNUz/bFtzoBzatrW03PO5fL5smWx44AHZtXattGjTRtoOHy6tBgwwIo0HCaSNgGbhYYoqMuTsjDS3NdIKnd6pHCnT0jai2F4SIAESIAESIAESIIHACFCmBYPSj0wLpsb4l+Im9eLfqgq0oNFGLMhAQxzOzQgapg1iqif+j+meBzZvYtZOO+DdV2TYsKGN1gIrtjWofs+eL+TzPV/I7i/2yBdf7JUvvpz2iNw0JMk0xTS9Zs3MFNCqFs2lWX29fLF5s3y2fLnUrVwpTZo33ze188u1voqNh9eRQNwI4B7FenP4Y09fVWGWPdUzOyPNuaaf1xqBlGlxGxWMlwRIgARIgARIgARIIDIEKNOC6QrKNP8cKdP8M3O/QuWZfvfLXY49hJrZ2fPLKaDNmtRLbYumsnb6T+VnP/tZ1rpWQUXnp5z6PXvkix07ZPdHH5kpqmZqZ/PmforguSQQewLISNMNB5zrvHnJNDTaa00/yrTYDwk2gARIgARIgARIgARIIGoEKNOC6RHKtGA4spQiCbitnYaibKGW2YygYWdPXVMNa6j9acSJsnDhwsxOkF4v30VGx8tIgAQKJKBTO7GzqW6uoJLMntppf12MSDPXcDfPAnuFp5EACZAACZAACZAACZCAgwBlWjBDgjItGI4spRQCBWSofblDZJMvNyPQDLVfD+8uq1evNoubt2jRwvyhUCulL3gtCfgjoDuqIiMNUzv9ijQVanat+e5hyjR/fcSzSYAESIAESIAESIAESCBDgDItmMFAmRYMR5ZSIgHX3T1R5r6dPc2OmpkstYYpnz///46QDRs2mMqbNWtm/jRv3jyzc2CJUfFyEiCBHAQgznRqJ6Z16hppbhlp9lppToFmy7N8Is1cy8w0jksSIAESIAESIAESIAESKI4AZVpx3JxXUaYFw5GllEgg12YExqmZvTbN/1SoYcrnnScfJh999JF5odddA5GdBqEGsVbIi3mJkfNyEkglAdxvmo2G/6sgy7Vbp71umkIrdNMBGzJlWiqHHBtNAiRAAiRAAiRAAiQQBAHKtCAoNiz8fMOiHcEUxlJIoBQCBQo1XU8NL/NTTzhEPvnkEyPS9A9CwAs9hBqz1ErpEF5LAo0J4D5DBpru1mmmXH95hCHSjLRjZhqHJgmQAAmQAAmQAAmQAAkUR4AyrThuzqvClmn2TpiI5akbRsjK+XOywrr0oTnSqXf/vA18+f7b5cW7J2Sd13XAYDnztoekurZN3ut5QgQJ+BFq9fVyx6CvyJYtW7Jkmr7cY2zr1E/8X1/0I9hqhkQCkSagolqndUKmIRtNs0GdO3Ua4dWkibnn9Gvnjp3FZKQpJMq0SA8XBkcCJEACJEACJEACJBBlApRpwfROFGTaoJHXZ+QZZNsTYy6R08ZOyyvUINNw4Ho9lj7zmGz5YFXWZ8GQYimhEfAh1H424GD59NNPzUs9Dvulv+FrrKXW1Eg1TP+0hRqngIbWo6wopgT0vrLXRoNE27u3Xpo02SfMbJnm9rUKtYwMw8XW4fdepEyL6YBi2CRAAiRAAiRAAiRAApUnQJkWTB/4kWmaVdaxZ1+ZM+V6aX9ULyO9ILWQXXbilTdlJJZKsY1vLxHNFkPEmomGz4ZdP1Vm3X6NucbORIMQW7Nongy5bpI0r6qWtYsXyPQRg02D+5z3vcznbjIN5y6Z+ag5Z/fOuqzMNzs+O6utkM/d2sPst2DGoGspnkLNKLOGS+rr5Wf928n27dsbZabtm/a573zNlNFsNYg1zZwpY0tYNAnEkgAEmm4qoDJt35TOJhmZli3Pmjb6PGiRZsrjNM9YjikGTQIkQAIkQAIkQAIkEAEClGnBdIJfmYassX6XjZKep19gJNryOU/K2ZMeMcE8N/laGTp6iux/UFsjsXoOvyhz3raN64zg2rp+rbx0760ybOxUcw3Oc8o0eyroZ5s3ZcqtPaSTzL5jjNS072iucZNp+lm/S6825x7WZ6CJAWVqfHVbPs4IN8Tw4j0/la+d9V3x+lzbo3GiDm0PZB+PMhFoJNRskdbw9eRvtpHPPvssa7003YygwbftW0vNbF7QpGE9tYYMNfwfUqDhj73eU5laxGJJIJIEcJ/ofeOc0rnv84b7xysLTUTvpX3nlEOkUaZFcggxKBIgARIgARIgARIggbgQoEwLpqf8yjQVUm07Hyn2lMq6rZ/IrInXyAlXjDOBqTBD9pYtsuzvFSLT3ps3u1GWmmaevTL9543WTLMz12xCdny2NLNlmJ3V5vwcAk3XYrNlH7PTghmHnqW4ZajpyfUik77RWnbu3NlomqdzQ4JsqbZvwXSVaBBp9rpqOu3M7/SzMtNg8SQQGAHn1GhkoWkGmi2kVYg5d+LMNZ3T7f4pZY00Z6OZmRbYMGBBJEACJEACJEACJEACaSNQXV0tdXV1aWt24O3NJdOcUyF7DDk3S5J5yTTIKls+eYk2L5kGqaXXQ6bNGHd5Vrt12ujCP9xnPrfXTLNPtKeH4nNMS0UWnYpALfeMWx802Ws40Cbn585ynGUF3iksMJtAjgy1279eK59//nmWTMPFDZk2kGbZu3zaO37auxBqhfte+DVbrWFtJ0o1DsokELDHvFOY5bof7M0D9n2NbM6G+0TvEfs+8fo6iPuJMi0Jo5FtIAESIAESIAESIAESCJ0AXp6rqqoyL9ChB5CgCv1mptkZZ+XKTLPXTFs+d4bnhgJu0zy1ayDw7CmkttCDTNNjz646Mx201/ALs9Ztsz/HuZoNx2mdFRr8rkJN5PavtzIyTQ9ntk3DZY2Fmgo3+3z9DNPVGl74G0qlSKtQn7PashHYN+4b7g838eUUaHov2DJNp30675NyijRTF9dMK9vYYMEkQAIkQAIkQAIkQAIJJ4BpWatWrZIjjjgi4S0tb/PKIdNKWTPNuZunPUUUEsxerwzTPHG4ZaY5ZRoE3SsPTzOZaevfeiMj6CDNdM00r8+da6ahrKUzf5eZ9lneHmLpGQIuQm1i3xrB7oJ6uGWe4bIGedAg1Yw+8Pi/fm9fVfuuYU+QQFIINMiufdLYS6Y1rIPW0Gq9pkGmZUtmW7w5xZrNLCgxTZmWlJHIdpAACZAACZAACZAACYRO4MADD5Rf/epXctlll4Ved5wqxFSeXDsWlkOmQXp57X6pkgsMdTdP7ARqH5c+NCcrS8yeZqlTPLFWWa7MNJRnT9n81xvvkg3LF5sMtA49eptstEWPP2Cq1Wmemo3m/Bzn2O2xp4vGaSwkIlaHUINMw1pP9hQ1pyhzyrN8Iq3hfPPfDDK3KXCJ4MlGpI5AttByyrIGHNlrnmXLs3zroXkJs6BEmomPmWmpG7dsMAmQAAmQAAmQAAmQQEAEjjnmGOnRo4f86U9/CqjE5BUzZswYmTZtmvTv319eeOEF1wb6kWnJI8QWxZcA0s1EbjvuQLNoui3MCvm6sVDbJ8/cxBllWnxHCiPPJpB7IwC3TLRswWbLtlxf27UGKdIo0ziiSYAESIAESIAESIAESKAEAhBF999/v3zyyScllJLcS8Fn8uTJct1118k999wjffv2dRVqlGnJHQOJb1l9fZZM0/a6ZakVJthyCzUnTwq2xI+w2Dcwl8Rq/L3cWWpRkGjaIcxMi/3QZANIgARIgARIgARIgAQqSQCbEPzXf/2XQBzx2EdARdqkSZNk9OjRsmLFCiPT3IQaZRpHTpwJ3NbnADPF00tsOT/3Em25ZJsXH8q0OI+cdMSeLyMsd5Za43XRbGphTOf06iXKtHSMX7aSBEiABEiABEiABEigTASuuuoq+c1vfmNkETciaIDsFGmK3kuoUaaVaXCy2FAIqExzyjC78lxCTc8rVMZ5i7VQmstKSCAvAd0wIN+JfmRYPummdeWTd/liKvT7lGmFkuJ5JEACJEACJEACJEACJOBBYODAgfLmm2/KI488ImeddVaqOXmJtFxCjTIt1UMm9o23ZVqxYqxUkRZ7iGxAagkUKtTySbJ83w8aMGVa0ERZHgmQAAmQAAmQAAmQQCoJnHPOOfLEE09I79695Sc/+Ukqd/jMJ9K8hBplWipvmcQ02k2m2Y0rZCpmvnPyfT8xMNmQxBMoVHoVcl4h55QLKGVauciyXBIgARIgARIgARIggdQRWLhwoYwaNUpee+012bVrlxxwwAHmD3b8fPfddxPN49NPPxX80TXS8jUWUz579eolp5xyijz33HNyw6Id+S7h90kgkgTyyTQEXYgMC+qcSEJiUCQg2euf5QJSiCQr5JxyQqdMKyddlk0CJEACJEACJEACJJBqTyXjAAAgAElEQVRaApj2+fLLL8uaNWtk9+7dieeAHU0xzXXAgAGuO3Y6AdhZbPi6HDJt7eIFsmTmozLkuknSvKo68X3ABlaGQCEyzRlZIeIsiGsqQ4S1koA7gVIEWCnXlqM/KNPKQZVlkgAJkAAJkAAJkAAJkEAKCeTasdPG4ZwOWq5pnpRpKRyEFWhyMTItV5jFiLYKNJtVkkDgBKImzHI1kDIt8O5ngSRAAiRAAiRAAiRAAiSQXgL5hJrbump+ZNqm1e/Ic5OvNYBx3Zm3PSSfbd4kT4y5RDa+vUS6DhhsPquubSO2TMP5s+8YI4sef8Bce+lDc6RT7/7p7Si2PDACQcs0BEahFlj3sKCYEIiTSDM/f+p5l8ZkaDFMEiABEiABEiABEiABEogHAS+h5rVBgV+ZBnF22thpRobVbf1EnrphhPQcfpH0PP0Cefn+22XbxnVmaueGZYsz0zxfmf5zA2/QyOuNZHt24ig5e9Ij0rbzkfGAyigjS6AcMi2yjWVgJEAChgBlGgcCCZAACZAACZAACZAACZBA4AScQi3XTp9+ZRoy04aOnmJEGDLVXrr3Vhk2dqrJRtPMNXy/bsvHRqYNGjlGZt5ypRFpEHB7dtWZLLVewy9kdlrgPZ++AinT0tfnbDEJUKZxDJAACZAACZAACZAACZAACZSFgAq1Nm3amI0YvHb6zCXTkGn24t0TTHwnXnmT9BhybpY8Q5YZztGpnchUmzXxGjnhinGNZNrK+XOy2nnGrQ+abDYeJFAKAcq0UujxWhKIJwHKtHj2G6MmARIgARIgARIgARIggVgQgFD71re+JSNHjpTRo0e7xuw3M82ZiVZIZtrcqeOMYOO0zlgMm1gFSZkWq+5isCQQCAHKtEAwshASIAESIAESIAESIAESIIFiCZQi04pZMw1TQe1114qNm9eRAAhQpnEckED6CFCmpa/P2WISIAESIAESIAESIAESiBSBUmQaGqJyzM9unpziGakhEOtgKNNi3X0MngSKIkCZVhQ2XkQCJEACJEACJEACJEACJBAUAT8yLag6WQ4JBEWAMi0okiyHBOJDgDItPn3FSEmABEiABEiABEiABEggkQQo0xLZralpFGVaarqaDSWBDAHKNA4GEiABEiABEiABEiABEiCBihKgTKsoflZeIgHKtBIB8nISiCEByrQYdhpDJgESIAESIAESIAESIIEkEaBMS1Jvpq8tlGnp63O2mAQo0zgGSIAESIAESIAESIAESIAEKkqAMq2i+Fl5iQQo00oEyMtJIIYEKNNi2GkMmQRIgARIgARIgARIgASSRAAy7fCvn5CkJrEtKSLwz9dfkvr6+hS1mE0lARKgTOMYIAESIAESIAESIAESIAESqCgByLT///5nKxoDKyeBYgn898jTKNOKhcfrSCCmBCjTYtpxDJsESIAESIAESIAESIAEkkKA0zyT0pPpbAeneaaz39nqdBOgTEt3/7P1JEACJEACJEACJEACJFBxApRpFe8CBlACAcq0EuDxUhKIKQHKtJh2HMMmARIgARIgARIgARIggaQQqIRMW/rMYzJj3OUZhJc+NEc69e4fCaR1Wz+RWROvkROuGCdtOx/pOya0Dcchxxwnf3/yt3Lij26U5lXVvsvhBYURoEwrjBPPIoEkEaBMS1Jvsi0kQAIkQAIkQAIkQAIkEEMCYcs0yKalM38nZ972kFTXthHIq6duGCGDRl4fCaFWikzbtPqdLIGmYq3n6RfEcGTEI2TKtHj0E6MkgSAJUKYFSZNlkQAJkAAJkAAJkAAJkAAJ+CZQiEyDYPrrL2+Wk6+62QgwPV6+/3Z58e4J5q8nXnmTEWI4IJWeGHOJbHx7iXQdMDivOFu7eIEsmfmoDLlukrl+9h1jZNHjD5ivNWsNZb50761SVdOq0fdw/eu//7U5/61Zf5T2R/WSsyc9YjLL9uyqcy0P56rIWzl/jolz+Ph7BG1C3XYZdjvPuPVBgRxDPM9NvtbUCYaQgwv/cJ90Pv6kjBT04ua7k3iBJwHKNA4OEkgfAcq09PU5W0wCJEACJEACJEACJEACkSJQrExzCrAX7/mpfO2s78r+B7XNyjSDiNq2cZ0RZRuWLTaySrPS3EA4z3924igjxnBA0PW7bJSRWc7zpo8YbMRbhx69jTyrad/RyD2chwNfI2Ytr/aQTua8XsMvNPILWWRbPlglfc//QdY0T3y+ZtE8E//W9WtNDKeNnSbVrdtlvsb1uYSjLdgi1fkJCIYyLQGdyCaQgE8ClGk+gfF0EiABEiABEiABEiABEiCBYAnkkmmQT5BUzgPZWa07Hp7JJrPXBMM1tjDTjLJhY6fKplUrXK/R8jWLTAWX/v2wPgPNGmTIBBs6eorJOLNlnlPS2WLMnkJqlw8Zhkw3xGVn29nTPFW4oX6dqom2tT60S6N4nFM8tU2c6hnseHWWRplWXr4snQSiSIAyLYq9wphIgARIgARIgARIgARIIEUEis1MAyJ7IwGd/ugm4HTKZN2Wj3Nmprmtn2bLK1t+OWWaThOF2HPKNEzjtA+VgW5Zcm4yTaecahmY0tpjyLlZMs6Ox5aLlGnlvZko08rLl6WTQBQJUKZFsVcYEwmQAAmQAAmQAAmQAAmkiEApMk0x2Rlf+MwWWzZKr80GNKtrwOXXyfN3jc9MvXRmphUj07x25rQz5vJlpmmmnN0W5/XMTKvMTUOZVhnurJUEKkmAMq2S9Fk3CZAACZAACZAACZAACZCAWTz/hkU7fJPQ7C+sRQbp5bVmmnP3Tq/dPHsOv8h1LTR7zTS/Ms25ZppujIA1z9p2OTprbTddG23QyDEyd+o4OeGKcWY6qb1m2u6ddeYaxIppp3Y8XDPN9xAK5ALKtEAwshASiBUByrRYdReDJQESIAESIAESIAESIIHkEShWpjl3ydRpniBk7+Zp74qp9OzpofjMvtZr901nJlgh0zxV9Nm7g3rFqbuOtmhZbTYm+ODNVzM7grrtWuqW2YbzuJtnuPcIZVq4vFkbCUSBAGVaFHqBMZAACZAACZAACZAACZBAigkUK9NSjMyz6c6pnlwvrfyjhDKt/IxZAwlEjQBlWtR6hPGQAAmQAAmQAAmQAAmQQMoIUKYF2+Eq0DAN9O9P/lZO/NGNYm9IEGxtLI0yjWOABNJHgDItfX3OFpMACZAACZAACZAACZBApAhQpkWqOxiMTwKUaT6B8XQSSAAByrQEdCKbQAIkQAIkQAIkQAIkQAJxJkCZFufeY+yUaRwDJJA+ApRp6etztpgESIAESIAESIAESIAEIkWAMi1S3cFgfBKgTPMJjKeTQAIIUKYloBPZBBIgARIgARIgARIgARKIMwHKtDj3HmOnTOMYIIH0EaBMS1+fs8UkQAIkQAIkQAIkQAIkEBkCw4YNk+eee06O/uaJkYkpXyBrly+R/VsdJG06dsp3auq+//nOOvl4zWrpeGSPVLR975498s7C+bJ582Zp3bp1KtrMRpIACYhQpnEUkAAJkAAJkAAJkAAJkAAJVITASSedJAsWLJDdu3fLD3/4Q/m3f/u3isThp9Krr75a3nrrLdmzZ09sYvbTvlLOfeONN+SGG24wRdTW1spjjz1WSnGRv3b79u1y0UUXmfG7//77y3vvvUehFvleY4AkEAwByrRgOLIUEiABEiABEiABEiABEiABHwQg0hYuXGj+PPjggzJ58mSZNGmSjB492kcp4Z4ax5jDIvTwww/L97//fTn99NPlqaeeksMPP1xqamrkH//4R1ghhFrPli1bpGvXrubP66+/Ln379pXVq1dTqIXaC6yMBCpHgDKtcuxZMwmQAAmQAAmQAAmQAAmkkoAtpY4++mjDYMyYMZEWanGMOazBdfvtt5uMtBEjRsgDDzyQqbZdu3Zy1FFHyfz588MKJZR6nCJNK6VQCwU/KyGBSBCgTItENzAIEiABEiABEiABEiABEkgHATcppS2PqlCLY8xhjaZRo0bJnXfeKddff71MnDgxq9q1a9dK9+7dBfxmzpwZVkhlrcdLpFGolRU7CyeByBGgTItclzAgEiABEiABEiABEiABEkgmgVxSKqpCLY4xhzV6Lr74Yvn9738vU6dOFawl53YgK+3kk0826+FNnz49rNDKUk8+kUahVhbsLJQEIkmAMi2S3cKgSIAESIAESIAESIAESCBZBAqRUlETanGMOaxRc9ppp8lf/vIX+d3vfifnnXdezmqxEcGFF14o11xzjdxxxx1hhRhoPRBpXbp0kW7dupk10vIdmPK5cuVKWbVqFTclyAeL3yeBGBKgTIthpzFkEiABEiABEiABEiABEogTgb1790rLli1N9tLPfvazgkLHAvZVVVXyzjvvFHR+0CfFMeagGeQqD9M3N23aJB999FFB1f7nf/6nmQ4KwXTYYYcVdE2UTvrpT38qt9xyi2lv69at84YG+YY143DNuHHj8p7PE0iABOJFgDItXv3FaEmABEiABEiABEiABEgglgT8rIfmJyOsnDDiGHM5eTjLRqbWfvvtJytWrMhZLdZLO/fcc2XAgAEmmy2uR6EbDBQ6HTSuHBg3CZCACGUaRwEJkAAJkAAJkAAJkAAJkEAoBAqRU1ERaQokjjGH0plfVtK+fXs54ogj5LXXXnOt9te//rX8+Mc/lrPOOksef/zxMEMrS135hBpFWlmws1ASiBwByrTIdQkDIgESIAESIAESIAFvAhs2bBAs6P3uu+/Kxx9/LDt37jSZITxIIIoENm7cKE2aNJHmzZtLixYtpLq6Wv72t7/JggULzBpaV111lfTs2VNatWplwo+aSCtEqEU15rDGA6Z6IkPtm9/8psyePTur2ptvvtlMc7ziiivknnvuCSukstfjJdQo0sqOnhWQQGQIUKZFpisYCAmQAAmQAAmQAAm4E3j66afNOlOLFi2S7du3Z6QExAQEBQ8SiCqBZs2aSX19vezZs0d2794tn3/+uezatcv8wecYv0cddZRZwP7555+XhQsXmj9HH3105JrklqGWdpGmnYQ+wxROZJ9hswEcP/rRj+Tee++V8ePHC6Ra0g6nUKNIS1oPsz0kkJsAZRpHCAmQAAmQAAmQAAlEmMDAgQNNJhpe3EaOHCk//OEPIxwtQyOBwgmonELWWocOHWTz5s2RFWnaKluoYR2wKMu/wnsimDOfeuopOeecc4xE+/DDD+XPf/6z/OpXvzJZaUk9VKhhHBx33HHStWvXgnb6TCoPtosE0kSAMi1Nvc22kgAJkAAJkAAJxIpAnz59ZP369fLSSy/JkUceGavYGSwJFEJA5RQy2P7xj39EMiPN2Q5bAi5dujQWMRfSF0Gcc/fdd5v10dCfTzzxhHz7298OothIl9G7d29588035dhjj5XFixdHOlYGRwIkEBwByrTgWLIkEiABEiABEiABEgiMwMMPPyzTpk0zaxAdfPDBgZXLgkggagQmTJgg559/fqykVG1trdmd8sEHH4wazorH07p1aznjjDNk+vTpFY8lrACwLiCmLfMgARJIDwHKtPT0NVtKAiRAAiRAAiQQIwKDBg2St99+W7CAOw8SIIFoETjssMPkggsukDvuuCNagUUgGsj/q6++Wm688cYIRBNOCJRp4XBmLSQQJQKUaVHqDcZCAiRAAiRAAiRAAl8SwMs6jjVr1pAJCZBAxAhQpnl3CLL2Jk6cKFdeeWXEeq184VCmlY8tSyaBqBKgTItqzzAuEiABEiABEiCBVBM45ZRTTPuxwyEPEiCBaBGgTPPuj5qaGrn88svl5z//ebQ6rYzRUKaVES6LJoGIEqBMi2jHMCwSIAESIAESIIF0E6BMS3f/s/XRJkCZ5t0/++23n/zv//6vnHrqqdHuxACjo0wLECaLIoGYEKBMi0lHMUwSIAESIAESIIF0EaBMS1d/s7XxIkCZ5t1f2Mlz0aJFZnfLtByUaWnpabaTBPYRoEzjaCABEiABEiABEiCBCBKgTItgpzAkEviSAGWa91Bo2rSpfPDBB3LIIYekZrxQpqWmq9lQEsgQoEzjYCABEiABEiABEiiYAF4YeJBAUgnU19cntWlsV8AEKNPcge7du1fatm0rmzZtEki1tByUaWnpabaTBPYRoEzjaCABEiABEiABEiiYAF4Ybli0o+DzeSIJxIXAbX0OEMq0uPRW5eOkTPPugzSKpTS2ufJ3ISMggcoSoEyrLH/WTgIkQAIkQAKxIkCZFqvuYrA+CFCm+YDFU4UyjTLNJkCZxocCCaSPAGVa+vqcLSYBEiABEiCBoglQpu1Dt/SZx2TGuMvNB5c+NEc69e5vvn75/tvlxbsnSPujesnZkx6Rtp2PLJo3LwyPAGVaeKyTUBNlGmUaZVoS7mS2gQSKJ0CZVjw7XkkCJEACJEACqSNAmeYu00688iYZNPJ62bOrTmbfMUYWPf4AZVrM7g7KtJh1WIXDpUyjTKNMq/BNyOpJoMIEKNMq3AGsngRIgARIgATiRIAyrbFMO2bYeVJVUytDrpskW9evlSfGXCLtuhwtH69akclM02w1XN11wGA587aHpLq2jcliW7t4gXTtP1jmTLm+kYDzuq5u6yfy1A0jZOX8OXLMsO+YoKpqWpkYmldVi5011+e872U+1/pqOx5hhJ+dURencViOWCnTykE1uWVSplGmUaYl9/5my0igEAKUaYVQ4jkkQAIkQAIkQAKGAGVaY5mGrLTlc5404mz9W2/I0pm/M3Lszaf/r/msbsvHsmTmo1myrfvgs0wmm8oySK22XY42ggzTRfE9SLZc12mdiAgC79Bjv2Hq2LBssUwfMdiIMmeZdn06LZVDu4EAZRpHgh8ClGmUaZRpfu4YnksCySNAmZa8PmWLSIAESIAESKBsBCjTGsu086Y9Jm/88X7pOfwi2fLBKtm2cZ106N5bFv7hvqw10+wsM50Wis9UitUe0slMEcWhGWb42nld3/N/YKQbsstwHg77ulem/9yIODv7DTHhXOf3yjZQYlgwZVoMO62CIVOmUaZRplXwBmTVJBABApRpEegEhkACJEACJEACcSFAmdZYpl14z9OyfO6T5htb171vpBqOVx6elslWw0YFEGgqwjT7TKddQny1aFmdJcWWz51hNjhwXucsQ9dpQ52n/Pst8vxd480UTvvQqaUQfLZoi8u4CyNOyrQwKCenDso0yjTKtOTcz2wJCRRDgDKtGGq8hgRIgARIgARSSoAyrbFMw3TKLev+mbWzJ/4OmfbtCb+RN/54n7kImWG7d9ZlTeX0kmkqxdyu85uZZg9Vuz6s2cZjHwHKNI4GPwQo0yjTKNP83DE8lwSSR4AyLXl9yhaRAAmQAAmQQNkIUKa5yzR8inXKNAPsvXmzM5lpy2b/KZMNhs8120zXTNNMMWdmmj0l0+06nR6KNdlQt240kG/NNGamud8elGlle2wksmDKNO9uPeigg2Tz5s2J7HevRuFnY319farazMaSQNoJUKalfQSw/SRAAiRAAiTggwBlmrtM04X+dR0zTNHUaZ64AhsEbHx7idmt84C27aX1oZ0brWHmlGm6M6jbdZrhVuxunrqemo+uT/yplGmJ7+JAG0iZ5o0zjWIpjW0O9IZiYSQQQwKUaTHsNIZMAiRAAiRAApUiQJlWKfLZ9drTNfEdexfQaEQYvygo0+LXZ5WMmDKNMs0mQJlWybuRdZNAZQhQplWGO2slARIgARIggVgSoEyLRrdtWv1OJtsNEen0Uq6DVnz/UKYVzy6NV1KmUaZRpqXxzmebSWAfAco0jgYSIAESIAESIIGCCVCmFYyKJ8aMAGVazDqswuFSplGmUaZV+CZk9SRQYQKUaRXuAFZPAiRAAiRAAnEiQJkWp95irH4IUKb5ocVzKdMo0yjT+BwggXQToExLd/+z9SRAAiRAAiTgiwBlmi9cPDlGBCjTYtRZEQiVMo0yjTItAjciQyCBChKgTKsgfFZNAiRAAiRAAnEjAJnGgwSSSqC+vj6pTWO7AiZAmUaZRpkW8E3F4kggZgQo02LWYQyXBEiABEiABCpJgJlplaTPustJgJlp5aSbvLIp0yjTKNOSd1+zRSTghwBlmh9aPJcESIAESIAEUk6AMi3lAyDBzadMS3DnlqFplGmUaZRpZbixWCQJxIgAZVqMOouhkgAJkAAJkEClCVCmVboHWH+5CFCmlYtsMsulTKNMo0xL5r3NVpFAoQQo0wolxfNIgARIgARIgASEMo2DIKkEKNOS2rPlaRdlGmUaZVp57i2WSgJxIUCZFpeeYpwkQAIkQAIkEAEClGkR6ASGUBYClGllwZrYQinTKNMo0xJ7e7NhJFAQAcq0gjDxJBIgARIgARIgARCgTOM4SCoByrSk9mx52kWZRplGmVaee4ulkkBcCFCmxaWnGCcJkAAJkAAJRICAH5m2afU78tK9t8qwsVNl06oVsmTmozLkuknSvKratSUv33+7tD60i/Q8/YK8Ld2zq05m3zFGFj3+gDm364DBcuZtD0l1bRvzd/v7g34wVnZ8stGce+KVN8mgkdfnLT/XCWjXE2MukY1vL8k67YxbHywo9kIqRx3PTb5Who6eIm07H5m5xOtzPcFmvvAP97nyrNv6iTx1wwjDoVPv/p7hLH3mMdnywSpznl2uMi6kHXE6hzItTr1V+Vgp0yjTKNMqfx8yAhKoJAHKtErSZ90kQAIkQAIkEDMCxcq0QgRMoTJNZVDP4Rdl5NXaxQvk2Ymj5OxJjxj5hHP++sub5eSrbjaE9etC4sjXJW5CC/XNmniNnHDFuCz5la8sr++rDDysz8AsQQfBtWbRPE8pWYj0KkamFduOOF1HmRan3qp8rJRplGmUaZW/DxkBCVSSAGVaJemzbhIgARIgARKIGYFiZZqdmbZh2WKZPmKwablmlL03b7bMGHe5+UwzvCDI9Lw+530vI5DsjCkbn37e9/wfmMyrlfPnSLtux0h1q9ayZtF8aX9ULznlPybIq//3LnMZ2oJsts82b8pkmtkZbs7sN43LTabpub2GX2iyvbxit4WhfU2HHr1Npt2ubVvlrVmPy6UPzZEt6/6ZJc5swdZt4JBMG9EWzbjzykyz2wKWW9e9n8lMs2NFWagbh7JH2T2GnJvJMoSQRDtevHtCVn9pHTXtO2a+F0QmYFi3CGVaWKSTUQ9lGmUaZVoy7mW2ggSKJUCZViw5XkcCJEACJEACKSRQqkwbNHKMzJ06LpPBBQGGA1M7bdFkC6vaQzoZ0QRJ0+/Sq83XKq3sLoAUQhkQZDg0U2z/g9pmvsbnmKJ52thpRno5s7Rw/baN64y4Wz53Rmaao53pBvnmnIJpx2vXoZIMsWO6ZD6ZpuehDKe0U1F26jW3mXI0a81Zt06ttad52u1SmQlpVt26XVZb7Mw3u/22pIP4XDrzd1kiEjy1rYgd/FCPnS0Y9duFMi3qPRSt+CjTKNMo06J1TzIaEgibAGVa2MRZHwmQAAmQAAnEmEDQMs1GYYsm53RGiDKsuXbKv98iz9813lWm2cInl0yzRZgt4JBx5ZRGumaYHafXmmmQU5qVZq8PZ9dhCy63zDR7Wqcz280rI8+eYoo4nTKt+6lnZAlIZ7lOIamxe8k051ps6DccKjq1DUFPfS33bUOZVm7CySqfMo0yjTItWfc0W0MCfglQpvklxvNJgARIgARIIMUEcsk0e+qfc2qgPc1z6/q1mWmV9vRNp0zTaZ+KG1Mwh4+/x2RluWWmFSrTVDZBnjmnOKIuTAfVtdfsNqksy7cJgFME5pt6ibZoVpezXc6pq7ppgDNujdlNpumUUL3WKdPsNuJ67RM3mebMisP5GqMza5AyLcUPihQ0nTKNMo0yLQU3OptIAjkIUKZxeJAACZAACZAACRRMoNTMNOdunna2lVOmuWWF2fLGuSunXZYtcpzTPJ0yLd8uo6jTmf3lttOmQtQsOm2rV2aaPcXUS6bptcd9Z6S8N+85M31y9866rN04S8lMQ8w6NVblYqmZaSoEKdMKvq14YgwJUKZRplGmxfDGZcgkECAByrQAYbIoEiABEiABEkg6gVJlWt/vjJT5D06RYWOnCuRNIWumYXdOe80vlUn5dvP0WjPNlmnONdMQj64HZk9nzLdmmt3vOg3UXkfMXjNN12Sz1y7zkmkaHzZT0A0Q3GJ+5eFpJpsOh9uaaXa2nF2vLdNatKw200FxONeM87NmGmVa0p8CbB8IUKZRpimBHTt2yIEHHij19fW8OUiABFJEgDItRZ3NppIACZAACZBAqQRKlWkqaXQKp3OXTnzutpunvcsm2uDcadP5/UIz01CWvQaaPcXTFlk4r9BpnjjXazdPu8x+l/1Edu3YZqasesk0lV3L5zyZmXqKzyDHlOG/3niXbFi+2JSDDQXcZJpzN8+qA2rkqJO/lal30eMPmOmtJ/7oRnnr2ceN7MTUXOzo6Xc3T8q0Uu8yXh8HApRplGk2gaZNm8rmzZultrY2DsOXMZIACQRAgDItAIgsggRIgARIgATSQsCPTEsLE7YzGQS4AUEy+jGsVlCmUabZBKqqquTpp5+WoUOHhjUEWQ8JkECFCVCmVbgDWD0JkAAJkAAJxIkAZVqceoux+iFAmeaHFs+lTKNMswl06tRJzjnnHPnFL37Bm4MESCAlBCjTUtLRbCYJkAAJkAAJBEGAMi0IiiwjigQo06LYK9GNiTKNMs0mcP7558sbb7wh7777bnQHLSMjARIIlABlWqA4WRgJkAAJkAAJJJsAZVqy+zfNraNMS3Pv+287ZRplmk1g6dKl0qtXL1m4cKEcd9xx/gcUryABEogdAcq02HUZAyYBEiABEiCByhGgTKsce9ZcXgKUaeXlm7TSKdMo05wE+vfvLx999BGz05J2s7M9JOBBgDKNQ4MESIAESIAESKBgApRpBaPiiTEjQJkWsw6rcLiUaZRpbgQOOugg6d69uyxYsKDCI1fTEdQAACAASURBVJTVkwAJlJsAZVq5CbN8EiABEiABEkgQAcq0BHUmm5JFgDKNA8IPgUMPPVQuvPBCueOOO/xclopz8XOivr4+FW11NnLt2rXSt29f+eKLL+TGG2+Un/zkJ6nkwEaTQBoIUKaloZfZRhIgARIgARIIiIAfmbZp9Tvy0r23yrCxU6W6tk1WBGsXL5AlMx+VIddNkuZV1a7RvXz/7dL60C7S8/QLCo5+z646mX3HGOk1/ELp1Lt/wdf5ORHtemLMJbLx7SXmshOvvEkGjbw+UwTaNn3EYGl/VC855T8myPO/uMmce+lDc8oWk5/4ea47Aco0jgw/BJCBNHbsWBk9erSfy1JxbpplmnbwxRdfLH/+859l79690q1bN5Othh0/99tvv1SMATZyH4Hnn39ehg4dKshmHTRokBx77LHEkxAClGkJ6Ug2gwRIgARIgATCIBCUTCsk1mJkWiHllnIORNmzE0fJ2ZMekbadjzRFIc5tG9dlxODSZx4zn0MC4vzVr72QJdtKqZ/Xlo8AZVr52Cax5BYtWsjMmTPNSzKPbAKUaft4PPLII/L000/LO++8I1u2bJHOnTtzTbWU3TBYR69169ayY8cO86eqqkqOP/54mTZtmsli5BFfApRp8e07Rk4CJEACJEACoRMoRqZ17NlX5ky53mRqqYSyM9M2LFtsMrlwdB0wWM687SF5b95smTHucvPZGbc+mBFTel6f875n5BUOZKLt2rZV3pr1uFz865ny1uw/ZzLTNEsM5/3rjXfJ+6+9aDLlNq1akZUZBwG25YNVRnppdtuixx8w5WtGmVfWm/35lnX/zMTd++zvyuInfmvKQLzHDD1H5j80VXZs2iiHHvsNE7/ddm0TMvXs7DebW+gdnqIKKdNS1NklNvW1116Tfv36mal8PBoToEzjqCABbwIPP/yw3HnnnbJ48WI5++yzTQYjj3gSoEyLZ78xahIgARIgARKoCAG/Mg3TIftdNsrIMDuDCxIJ0zwHjRwjc6eOkxOuGGcyveysLjszTeXSaWOnSYcevY1Aq2nfUfpdenXma1uEYZpn2y5Hy1M3jDCCDFM+UR7kGmRdLpmG83DgOjsTDZ95TVu1r7HFnFMa2lltaNNzk6+VoaOnSO0hnRq1SaeqMrstnKFOmRYO5yTUghfgpUuXmmwjHpRpHAMkUAyBJ598Ui655BIz7XPevHnFFMFrKkyAMq3CHcDqSYAESIAESCBOBPzKNJVFEGVOseQm02wWtkxzrrGGv+P7w8ffY/5/WJ+BRtjZWWIoC9+DPMOabfYabl4yre/5P8gScHZ51a3beco0W6Dlkml2PDhvzaJ5memh2sZT/v0Wef6u8WVd9y1OYy6sWCnTwiId/3qw7tXkyZO5uLxHVzIzLf5jnC0Ih8D7778vRx99tHz/+9+XX/7yl+FUyloCI0CZFhhKFkQCJEACJEACySeQS6ZBFL149wQDAYvy9xhybpZ8cpNpmOq4df3azIL+9lRHW6Y5xZOKsVOvuc0IM83icso0e5MDPzJt5fw5WZ2JqaaHHHNcyTLNjgdt0qmsWplOc8XfkVWHOPQz5yYOyR9t4baQMi1c3nGtrXfv3mbdI2alefcgZVpcRzfjrgSBSZMmyf/5P/9Hdu3aVYnqWWcJBCjTSoDHS0mABEiABEggbQT8ZqbZ0yK9ZJq9m6ed1eUnM81LphWamabTNJGZNmviNZlpp3b/FrJmGqaT5spMc8o0Xact1zgqZOfTtI3DcrSXMq0cVJNVJkTa6tWrZd26dbL//vsnq3EBtoYyLUCYLCoVBNq0aSMjR44UiDUe8SFAmRafvmKkJEACJEACJFBxAkHLtL7fGSnzH5xiNgVA5lWxa6a5yTRdM63n8Isya7bZa6bp+mX7H9TWZIFBhGGdNHv9M3utNny/0N08VZLlEoj2mmmYBqtryjnXkeOaaeEMe8q0cDjHrRZsNnDbbbeZnTuPOOII+fvf/06RlqcTKdPiNsoZb6UJnHvuubJs2TJ56623Kh0K6/dBgDLNByyeSgIkQAIkQAJpJxC0TMM0z+VzZ2SmO9rTPHUaZCG7ebrJNMgve1fMfpf9RD7d8EFG3Om0VEyj7Np/sHxet8N1N0+tX/veLhOfYUorJJwehWam4Xx7t1F7OqfX52kff+Vsf5pl2iOPPCJPP/20mbq4ZcsW6dy5s7z77rvlxB3psvfu3SufffaZbN++XfB1165d5cc//jHXSCuw1yjTCgTF00jgSwLY4RPPGDxzeMSHAGVafPqKkZIACZAACZBAxQn4kWkVD9YRgL1mGtcfi1rvVD6eNMq0iy++WP785z8bYdStWzfp3r27dOrUSbDAftqP9u3bC6Z1Dh06NO0ofLefMs03Ml6QcgLYiKBLly7mWcwjPgQo0+LTV4yUBEiABEiABCpOgDKt4l3AAMpEIE0ybe3atdK3b1/54osv5MYbb2TGVZnGVFqLpUxLa8+z3aUQ4H1TCr3KXEuZVhnurJUESIAESIAEYkkgzjItlsAZdGgE0iTTDjroIJOFtmDBgtD4sqL0EKAUSE9fs6XBEaiurpa6urrgCmRJZSdAmVZ2xKyABEiABEiABJJDgDItOX3JlmQTSItM69+/v3z00UepXhONY7+8BCjTysuXpSeTAO+b+PUrZVr8+owRkwAJkAAJkEDFCFCmVQw9Ky4zgTTItKVLl0qvXr3kjTfekD59+pSZKItPKwFKgbT2PNtdCgHeN6XQq8y1lGmV4c5aSYAESIAESCCWBCjTYtltDLoAAmmQaeeff74RaWneqbOAocBTSiRAKVAiQF6eSgK8b+LX7ZRp8eszRhwSgVtuuSWkmlgNCQRPYPz48cEXyhJJQEQo0zgMkkogDTINO3Wec8458otf/CKp3ch2RYAApUAEOoEhxI4A75vYdZlQpsWvzxhxSATwQDvhinEh1cZqSCA4Ai/de6vU19cHVyBLIgGLQCkybe3iBfLy/bfLmbc9JNW1bcrGddPqdwT3wbCxU8taT9kawIIrQiANMq2qqkqefvppGTp0aEUYs9J0EKAUSEc/s5XBEuB9EyzPMEqjTAuDMuuIJYFSXhhj2WAGnRgCaXghTExnxbAhpTwbw5JpMcTKkCNAIA3PzqZNm8rmzZultrY2AsQZQlIJUAoktWfZrnIS4H1TTrrlKZsyrTxcWWoCCJTywpiA5rMJMSaQhhfCGHdP7EP3+2xEltgTYy6RjW8vkROvvEkg1DQzDV9PHzHYMOlz3vdkyHWTzNez7xgjHbr3loV/uM9cd8atD8qWD1bJi3dPkK4DBmeur9v6iTx1wwhZOX+OuQ7lDxp5vdiZaZtWrZDXf/9r8/23Zv1R2h/VS86e9Ii07Xyk7NlVZ+pa9PgD5vuXPjRHOvXub75GBh3qs8uNfeexATkJJP3ZuX37dqmpqWHmMu+DshOgFCg7YlaQQAK8b+LXqZRp8eszRhwSAb8vjCGFVdZqlj7zmMwYd3lWHfaLa1kr/7Jwfbm2X2rDqDdJdST9hTBJfRXHtvh5Nqrs6jn8Iul5+gVGUKlM+2zzJiPZThs7TTr06G2kVk37jtLv0qvN1zgg1zYsW2yEG4Ra91PPMN87rM/ArK9RNgTac5OvlaGjp5hrdZonZBquxzPFrgfSDfHgwNeI69mJo4xoq9vysSyZ+WhG7r14z0/la2d91wg4HsklkIZnJ1/Wkjt+o9QyjrMo9QZjiQsB3jdx6al9cVKmxa/PGHFIBPy8MIYUUtmrgUx75eFpjbI2tq57v+xrHJW9cSmqIA0vhCnqzsg11c+z0bl2mTNjTIVV86pqI7Mgt4aPv8f8H8JMJZm9/hm+1/rQLuZ79gFxN2viNZm1Lm2ZZq/Thuccstz6nv8Dk9UGkYZsNM1S6zX8QlOsHVvkOoEBlYVAGp6dfFkry9BhoQ4CHGccEiTgnwDvG//MKn0FZVqle4D1R5aAnxfGyDbCZ2BOmYbLdYpWv8tGZV5e7elPzqlZuKbqgBp55eE7zXSqE390oyCrQ6d44cXVLhef40DWCV6O7cw0zSKxy7Qz5ZxTtLQMn81O3OlpeCFMXKfFqEG5no3OqZGdjz8pa8MBW6a9N2+2rFk0z2R/Qabp90695jZzDaQWJJdTyNkyzZ4mCoQ6hRNf2zLNFmNOmaZTRLUL9DliZ+ry2RKjAVpCqGl4dvJlrYQBwksLJsBxVjAqnkgCGQK8b+I3GCjT4tdnjDgkApRpDdOZdJoWXmp1WpRO08L3kdmB7+nUrA/efNVktuHAFK4D233FZLXhxRlTSO2pVvqyjJfj5XOezEyvck7JcpapYs+eMmZP5dI1j0IaKpGrJg0vhJGDnqKA/DwbS8lMyyfTug0ckpVZliszzUumaSZbrumbdsZa2p8tSR/maXh28mUt6aM4Gu3jOItGPzCKeBHgfROv/kK0lGnx6zNGHBIBPy+MIYVU9mrcMtNsmabTolSsISC95tsTfiNv/PE+EyMyTXbvrMuINl2PSCWZvpDaC5NrRgnWKnLKNJ1mass7ZyzOtZnKDivCFaThhTDC+BMfmp9no4oonbLpZ800vzLNfn6hE/JlpjnXTNPnEdZw27Lun2YqKM5BG7hmWuKHtWlgGp6dfFlLx1iudCs5zirdA6w/jgR438Sv1yjT4tdnjDgkAn5eGEMKqezV5JNpPYaca7LN7Cmfxci0tl2ONqJt+8cfmmy09W+9kVmrzU2muQk6jUWniSoc3c2v7LAiXEEaXggjjD/xofl9NtrSfPC1t8um99+Rk6+6Wapr22SmdQOac8p4PpmGaeH2VMx/vfEu2bB8sZkeWt26XUEyzWuqOKeQJ34YuzYwDc9Ovqylc2yH3WqOs7CJs74kEOB9E79epEyLX58x4pAI+H1hDCmsslaTb800nVZVamYaGmFnqdn1FirT3LLkygonRoWn4YUwRt2RuFDT+GxMXCeyQZRpHAMkUEYClAJlhMuiE0uA9038upYyLX59xohDIpDGF0Y3mWZPy0Imif13dIVzzTR8lm+aJ7JGNMNNBZ1mqRUq05zrt3HNtH03BmVaSA+JlFaTxmdjSrs6dc1Ow7OTL2upG9YVaTDHWUWws9KYE+B9E78OpEyLX58x4pAIpPGF0Z4ypZjt3TP1M+eOfbqu0Ow7xphT8sk0ZLbZZRwz7Dx5a9bjZnMCHM4107zK5FSs7Jth7tQbZP2yN+Sfr78k9fX1Id0prCZtBNL4bExbH6e1vZRpae15tjtoApQCQRNleWkgwPsmfr1MmRa/PmPEIRHgC2NIoFlNYATmTh0jrz92v3zx+S7KtMCoxqOg7du3y4EHHhhKsHw2hoKZlVSAAGVaBaCzykQSoBRIZLeyUWUmwPumzIDLUDxlWhmgsshkEOALYzL6MU2tePqmkfLxymWy/q1F0qpVK9m1a5fs2bNH9u7d20iutWzZUnbu3JkmPKloa7NmzUzff/WrX5Xvf//7ctlllwXebj4bA0fKAiNCgDItIh3BMGJPgFIg9l3IBlSAAO+bCkAvsUrKtBIB8vLkEuALY3L7NuktS8MLYdL7sJj2QZwuWbJEZs2aJTNmzJDXXntN2rVrJ/fee6+ceeaZxRTpeg2fjYGhZEERI5CGZydf1iI26BIaDsdZQjuWzSorAd43ZcVblsIp08qClYUmgQBfGJPQi+lsQxpeCNPZs/5bDYkGsTZ+/Hi5+eab/RfgckVcno26puJhfQZKz9MvCKTtLCTZBNLw7OTLWrLHcFRax3EWlZ5gHHEiwPsmTr3VECtlWvz6jBGHRAAPtBOuGBdSbayGBIIj8NK9t5a8ZtqmTZvk4osvloEDB8pNN90UXHAsKXQCkGi33HKLPPnkk4FkqMVFpq1dvEBWv/aCYIMUPeq2fiKzJl5jnu1tOx8Zel+wwmgToEyLdv8wuvgQoBSIT18x0ugQ4H0Tnb4oNBLKtEJJ8bzUEaBMS12XJ6bBpcq0efPmyYQJE4xEe/XVV2XUqFGJYZPWhiBDDX25fv36khHERaa5NZQyreTuT3QBlGmJ7l42LkQClAIhwmZViSHA+yZ+XUmZFr8+Y8QhEYjzC2NIiFhNRAkE9UK4YsUKeeaZZyjTItrPfsNq0aKF/OY3vyl5UwK/z0YIrKduGCEr58+RrgMGy5m3PSTVtW1k0+p35Ikxl8jGt5dkfY6MsiUzH5WqA2rklYfvNN9DdtmzE0eZc8+49UEzbdPtPC1bp3guevwBg+nSh+ZIhx69ZfYdYwSftT+ql5w96RGpPaRT5jM9r1Pv/iY2SOmqmlbmfPt7+NqOvc9535Mh102S5lXVJqbpIwab870+txn47UOeX14CQT07yxtlaaXzZa00fry6MAIcZ4Vx4lkkYBPgfRO/8UCZFr8+Y8QhEfD7whhSWKyGBPISCOqFkDItL+pYnTBgwADBbp8vvfRSSXH7eTaq1Oo1/EKBpFr6zGOy5YNV0vf8HxjB1nP4RUaMvXz/7bJt4zojpTYsW2yElC3Atq5730i4TatWmHP1a5yncg2f44B4s7+G4IKIgzzb/6C2WdM8vc5DORB9/S4b1Si+3TvrGpXR+tAucsgxx8lzk6+VoaOnZCRdTfuOpq321FIwwMF13EoahmW5OKhnZ1mCC6hQvqwFBJLF5CTAccYBQgL+CfC+8c+s0ldQplW6B1h/ZAn4eWGMbCMYWCoJBPVCSJmWrOFz++23y+TJk+WTTz4pqWF+no2a4TVs7FSTjaaH83P8XUVU3ZaPM8IM10B4QVZBPtnX2WJNM92QTXbSj2+SWbdfY6QaBJ4t9Np2OTojtiDWIPTczqtu3S4TD9ZW0yw4lX3InNNsNG0TJNmaRfOystRw3qCRY2Tu1HFcp62kURfOxUE9O8OJtrha+LJWHDde5Y8Ax5k/XjybBECA9038xgFlWvz6jBGHRMDPC2NIIbEaEiiIQFAvhJRpBeGOzUmLFi2S448/Xvbs2VNSzLmejRBfL949wZR/4pU3SefjT8oSY1ox5JRmmEGE2WuZQabZsiqXTLPPU9GmMg3TSu0DGWzdBg5pJNPczkOWGcScSkBbpi2fOyNLmtkybca4y7Pq1Cmdn23elJnSak//LKkjeHHgBIJ6dgYeWIAF8mUtQJgsypMAxxkHBwn4J8D7xj+zSl9BmVbpHmD9kSVAmRbZrmFgeQgE9UJImZasoQaJhnXT6uvrS2qYn2djsZlphco0W8ipoBt2/VR54VcTXDPBbGnnnPJpQ3HGXWhmGqaw2ruHuoHWqa75ziupk3hxUQSCenYWVXlIF/FlLSTQKa+G4yzlA4DNL4oA75uisFX0Isq0iuJn5VEm4OeFMcrtYGzpIxDUCyFlWvLGzimnnCLPP/98SQ3z82zUzQd0KqVOhcTUx5m3XOm5ZlqhMk3XVsN0Tq8103SzgNPGThN7miemb9rX2OdhmqdXZtrW9WuzpoBqGT2GnNvoc6wD1/c7I2X+g1MyWW5cM62k4VfWi4N6dpY1yBIL58taiQB5eUEEOM4KwsSTSCCLAO+b+A0IyrT49RkjDomAnxfGkEJiNSRQEIGgXggp0wrCHauTgvhFze+z0WvXzny7eeqaZLmmeb7++18b/m/N+mPW7pnO3Tx1kwL9/IM3X3XdzVPPy5WZVsyunRBoOgWU0zyje8sE9eyMbgu5Jk+U+yZJsQXxsyZJPNgWEiiEAO+bQihF6xzKtGj1B6OJEAG/L4wRCp2hpJxAGl4IU97FRTc/iF/UovJstKdeQnDxIIFSCaTh2RnEM6BUzrw++QQ4zpLfx2xh8AR43wTPtNwlUqaVmzDLjy0BPy+MmsVQVdNKFj3+gGnzpQ/NMTvJ4cBLH6Yj4dCsBHw9+44x0qF7b1n4h/tk49tLBFkRWHMHC3jrwtX2DnixhcnAQyWQhhfCUIEmqLIgflHz82wsJzrKtHLSTWfZaXh2BvEMSOfoYKv9EOA480OL55JAAwHeN/EbCZRp8eszRhwSAT8vjDpdqd9lo6Tn6ReYdXiwVg6mKWF9nSfGXCJYr6dDj95GoNW07yj9Lr3afI0D521YttgINwi17qeeYb53WJ+BpjweJOCHQBpeCP3w4Ln7CATxi5qfZyPZk0CcCKTh2RnEMyBOfcpYK0OA46wy3FlrvAnwvolf/1Gmxa/PGHFIBPy8MEKmPTf5Whk6eopgUetcO7/pjnPDx99jpJsKM+caPfY6QSE1mdUkhEAaXggT0lWhNyOIX9T8PBtDbyArJIESCKTh2RnEM6AExLw0JQQ4zlLS0WxmoAR43wSKM5TCKNNCwcxK4kgg1wsjRBemYuI48cqbBLu4ee38tnzuDFmzaJ7JPsO6PirNTr3mNiPTeg2/0EwHpUyL4yiJZsxpeCGMJvnoRxXEL2qUadHvZ0ZYHIE0PDuDeAYUR5dXpYkAx1maepttDYoA75ugSIZXDmVaeKxZU8wI+HlhzLXzG6ZvLpn5aEamOTPTKNNiNjBiEG4aXghj0A2RDDGIX9T8PBsjCYFBkYAHgTQ8O4N4BnAAkUA+Ahxn+Qjx+yTQmADvm/iNCsq0+PUZIw6JgJ8XxlwyLd+aaZRpIXVoiqpJwwthiroz0KYG8Yuan2djoMGzMBIoM4E0PDuDeAaUuRtYfAIIcJwloBPZhNAJ8L4JHXnJFVKmlYyQBSSVgJ8XxlwyDVM7c+3mSZmW1BFUuXal4YWwcnTjXXMQv6j5eTbGmxajTxuBNDw7g3gGpG1csL3+CXCc+WfGK0iA9038xgBlWvz6jBGHRIAvjCGBZjWBE0jDC2Hg0FJSYBC/qKEMHiSQVAL19fVJbZppVxDPgEQDYuMCIcBxFghGFpIyArxv4tfhlGnx6zNGHBIByrSQQLOawAlQpgWONDEF8he1xHQlG0ICRRHgM6AobLzIJwGOM5/AeDoJ8B87YjkGKNNi2W0MOgwClGlhUGYd5SBAmVYOqskoky84yehHtoIEiiXAZ0Cx5HidHwIcZ35o8VwSaCDA+yZ+I4EyLX59xohDIkCZFhJoVhM4Acq0wJEmpkD+opaYrmRDSKAoAnwGFIWNF/kkwHHmExhPJwHKtFiOAcq0WHYbgw6DAGVaGJRZRzkIUKaVg2oyyuQLTjL6ka0ggWIJ8BlQLDle54cAx5kfWjyXBBoI8L6J30igTItfnzHikAhQpoUEmtUEToAyLXCkiSmQv6glpivZEBIoigCfAUVh40U+CXCc+QTG00mAMi2WY4AyLZbdxqDDIBAXmbZnV53MvmOMHNZnoPQ8/YIw0LCOiBOgTIt4B1UwPL7gVBA+qyaBCBDgM6C4TrjllluKuzClV918882CPzzyExg/fnz+k3hGKgjw+Ry/bqZMi1+fMeKQCMRFpq1dvEBWv/aCDBp5fYZM3dZPZNbEa+SEK8ZJ285HhkSM1USFAGVaVHoienHwF7Xo9QkjIoEwCfAZUBxtyLS5G3YXdzGvIgEPAqd2aCGUaRweSoDP5/iNBcq0+PUZIw6JQFxkmhsOyrSQBklEq6FMi2jHRCAs/qIWgU5gCCRQQQJ8BhQHX2XaCT+8obgCeBUJOAi89OvbhDKNw8ImwOdz/MYDZVr8+owRh0TAr0yDwHrqhhGycv4c6TpgsJx520NSXdtGNq1+R54Yc4lsfHtJ1ufIKFsy81GpOqBGXnn4TvM9ZJc9O3GUOfeMWx800zbdztOydYrnoscfMFQufWiOdOjR20z7xGftj+olZ096RGoP6ZT5TM/r1Lu/ie2le2+VqppW5nz7e/jajr3Ped+TIddNkuZV1Sam6SMGm/O9PrcZhNRlrOZLApRpHApeBPiLGscGCaSbAJ8BxfU/ZVpx3HiVNwHKNI4OJwE+n+M3JijT4tdnjDgkAn5kmkqtXsMvFEiqpc88Jls+WCV9z/+BEWw9h19kxNjL998u2zauM1Jqw7LFRkjZAmzruveNhNu0aoU5V7/GeSrX8DkOiDf7awguiDjIs/0Paps1zdPrPJQD0dfvslGN4tu9s65RGa0P7SKHHHOcPDf5Whk6ekpG0tW072jaak8tBQMcXMctpAFrVUOZFj7zuNTIX9Ti0lOMkwTKQ4DPgOK4Jk2m4Xe0GeMubwTjxCtvyiwb8up/3yXdBp3me7kQlP3Kw9Oy/jEXFek/yBbXAyLFxlNsfeW+jjKt3ITjVz6fzzHss/r6+vr4hc2ISaD8BPzINM3wGjZ2qslG08P5Of6uIqpuy8cZYYZrILwgqyCf7OtssaaZbsgmO+nHN8ms268xv/RA4NlCr22XozNiC2INQs/tvOrW7TLxYG01zYJT2YfMOecvP/glac2ieVlZajhv0MgxMnfqOK7TVv6hmbcGyrS8iFJ7An9RS23Xs+EkYAjwGVDcQEiiTFPh5ba2ri3E/K69W8q1Xr1TjjKLGwnBXUWZFhzLpJRUXV0tdXV1SWlOKtrBzLRUdDMbWQyBXDIN4uvFuyeYYvGveJ2PPylLjGl9kFOaYQYRZq9lBplmy6pcMs0+T0WbyjRMK7UPZLB1GzikkUxzOw9ZZhBzKgFtmbZ87owsaaZ1uP1rpk7p/GzzpsyUVnv6ZzH8eU3xBCjTimeX9Cv5Ip30Hmb7SCA3AT4DihshaZJp9lIeoIUZFNjoCp9jxkSLltVm6RAc+g+u+nsxlhfp2v9UWblgrmtmGmY96JIo+js0/rFX/0EYn9nLn9gzNLTnEA/+ETnuB2Va3HuQ8ZOACGUaRwEJeBAIIzOtUJlmCzkVdMOunyov/GqCayaYLe2cUz7t5joz5wrNTMMUVnv3UDeEOtU133kcgMEToEwLnmlSSuSLdFJ6ku0ggeII8BlQHLc0yTQQcmaC4fdQL5mmy5bgH3O7n3qGEW0fvPmqq0x7ZfrPM7Mw9B9n7eVO9DrEYC9Dwsy04sZtsVfhOcGDBEggPwHKtPyMeEZKCfiRabr5gE6l1KmQmPo485YrPddMK1Sm6dpq+Jc4m3EQ/AAAIABJREFUrzXTdLOA08ZOE3uaJ9Lz7Wvs8zDN0yszbev6tVlTQLWMHkPObfQ51oHr+52RMv/BKZksN66ZVrkbhzKtcuyjXjNfpKPeQ4yPBMpLgM+A4vgmUaa5rZmmWV9+ZBoEmYo2zMLIt2aavWEXesNt7WB8jgw2/N6L360p04obt8Ve5ecdqNg6eB0JxJ0A3rco0+Lei4y/bAT8/iDx2rUz326edoq815ppr//+16adb836Y9bumc7dPHWTAv3c+S+DumOnnpcrM62YXTvtKaCc5lm2oZm3YMq0vIhSewJfpFPb9Ww4CRgCfAYUNxCSKNP8rJmWKzOtUJl2yr/fIs/fNd7sHg+BhsO5ERc+w+/FOh2UMq248VrqVX7fgUqtj9eTQBwJUKbFsdcYc2gEovKDxJ56CcHFgwTyEaBMy0covd/ni3R6+54tJwHKtOLHAGWa9zRPyLTlc5400zoxG8IrMw0zGGbcNDKzg7yuzWZnplGmFT9Gg7wyKu9AXm3SpIGt69436/jp5m+a9Vjb8QjP3WM1yaHfZaPMpm+2KLY3kUPdfjIiMZ63rPunKbMchzOj066j2ASGXG3P1QZ7jcNSd+ktB6uwyqRMC4s064klgaj8IKFMi+XwqWjQlGkVxR/pyinTIt09DI4Eyk6Az4DiEKddptlSAQSxntmhx37DCItC10zTpU+Qbdbv0qvN2mqapdahR++sTQ2YmVbcOA3qqqi8A+Vqj73mnm5IoYJWZ+C4Xe+UafnqyJXBqdf6KTOIPnJrezHlFivTiqkriddQpiWxV9mmwAjE4QdJYI1lQYkiQJmWqO4MtDF8kQ4UJwsjgdgR4DOguC5LokxzWzNNM1ywbi6E2ca3l4juEq+7cB4z7DsGYlVNq0z2j77c59vNEzvFa71d+p8qOzZtNJlqunEBynWb5mkvmZJLlBTXu5W5Ksq7ecbhHUjHRPfBZ2U2RbOlLzZgc9s5Nl9mmtfOtJp1qeMXYx3ZmF71eC19U8hmHideeZO8ePcEwf/dNnJzk2luaxGqZLTvH4x2XRtRY0EmH8S2tglt1WuO/fbFsnLBHFk5f04mHmdmGspUOd51wGBBeZo1+NnmTVmbidgZqYgvV9yVuTMLr5UyrXBWPDOFBOLwgySF3cImF0CAMq0ASCk9hS/SKe14NpsEviTAZ0BxQyFpMq04CrwqSAKUaaXRdE71bNGyOiu70WvnWGy+Zu8Ua8utTatWmHX83HamRbS6aRu+hqjT6aQqn3XqqC2MsCmcvZlGoTLNTaIpMadMc8otSGvNqFPZ13P4RY2mtS78w31G2kGuOeNUmaYZqHaZtYd0ymLtVh9ixRTcXDLNmZFqlwOhF/WDMi3qPcT4KkoAv3CecMW4isbAykmgGAL4YV9fX1/Mpbwm4QT4Ip3wDmbzSCAPAT4DihsilGnFceNV3gQo00ofHbZUckoylO6W9ZRLpkEuee1Mq3LHLePMKdOc0yfx920b15msS3vDDqcA1CnTmjnmRcgp05zZdvr308ZOM0U8O3FUZk1Du0zEpesdOgWZtkkz/7zWONSNRVCuvamecswl05x9YcetWXWlj5LylUCZVj62LDkBBCjTEtCJKW0CZVpKO76AZvNFugBIPIUEEkyAz4DiOpcyrThuvIoyrZxjwJZIqEezsVQMue0cW6xMq9vysclaw1Tok6+6Wf76y5tN0yCQbJmmU5ZRt31g+iMytWxhF5RMU9HlZI0MO5uLM9srV5Zcrmw7O6NM10K0N32A7Fs683d5M9MQG5i6xV2ujRyCHI+UaUHSZFmJI8Bpnonr0tQ0iNM8U9PVvhvKF2nfyHgBCSSKAJ8BxXUnZVpx3HgVZVo5x4BOb9y17VNTja7jl0sE5ZNpXjvTLpv9p0zWmlOC5ctMsxkUMs2z1Mw0uz7nGmWFxlKoTAsyM62cY6UcZVOmlYMqy0wMAcq0xHRl6hpCmZa6Li+4wXyRLhgVTySBRBLgM6C4boVMe/B/5soRXz+xuAJ4FQk4CLz/+oty+bdOlfHjx0eOTZzegexpl7o5hU7vdNs5ttg109a/9UYm883OUnNmpiGjKteaaYXsjOtXphWyZhpYYB02u34/gtBrmifab691hsGMNekObPcVk5mGw7lmnK7TxjXTInfrMyASCI5AWD9IkKL83ORrZejoKRKHxRaDI8ySykWAMq1cZONfLl+k49+HbAEJlEKAz4Di6FGmFceNV3kToEwLZnToVE+Uht013dY2s3eOPeSY4zw3IKiubWNkE3bsdO5Ma+/aie8d0La94HkKYaSZapjaqTvi2jvX6mfNq6qz1nFz7oxb7JppaHspu3nabUBZ+QShU4LhGq/dPG2mOE93KlVhyN08g7kPWAoJRI5AWDIN6b6djz9Jil1oUbdwtgF6baUcNGT9l5Bewy8sOn7EhB+Ef3/ytzLg8utk/oN3yNfO+i7FYgmdRZlWAryEX8oX6YR3MJtHAnkI8BlQ3BDhNM/iuPEqbwLcgICjI6kEnBswJLWdnOaZ1J5luwIhEJZMKzVYPLBw6BbKKrhq2nfMfFZqHeW8HvG+eM9PMwJNxdqJP7pR8C84PPwToEzzzywtV/BFOi09zXaSgDsBPgOKGxmUacVx41WUaRwD6SNAmZa+PmeLSaARgUJkGlJTsZsLdnVBGqsedsqq7t6CrYExnROHpgXrdsEb314iep6WY+/MounBuBZptLu2bZW3Zj0uSJFd/doLWTINf3FOHdUUaGc9qGPJzEel6oAaeeXhO00MkHLYQhnn6toDKNNekwDpzUil1t1ykJmGNQiwiyQW/9QdbOw5/27tgSzD52iDykDUVWq2XtqHM2Va2keAd/v5Is2xQQLpJsBnQHH9T5lWHDdeRZnGMUACSSXAzLSk9izbFQiBYmWac+ojJNSWD1ZJjyHnmjn6p42dZqZEqnCDRMLfIZC2bVyXmaeu66ipsEKmWb9LrzYyzc46c2amofF2DG27HG0Wfuw5/CLBoph2PfbcfJ3/vnXd+2b+/6ZVK8y5zq8h+7ROjUdlGtrX77JRjerBjjBu7UHb3cSZm2ALpFNTUghlWko6uohm8kW6CGi8pGIETvv2mRWrO6kVz/qfGTLsW2cktXk52/Xs008V3W7KtKLR8UIPApzmyaFBAvEmQJkW7/5j9GUmkEum2VlWdhjI5MLClsjQGjZ2ala2mjNbDGWorIKgwvf1uvfmzZY1i+YZsabZW8gg0+2HD+sz0AgrHPlkmmaMaTx2HNiNxo4BX7c+tIsp247HzrpDnSoInTLN3khBs950lxev9ritkcapnqUNbsq00vgl+WrKtCT3bvLahvF63rTHktewCrbo8VEXpJIp2l1fX180ecq0otHxQso0jgESSCQByrREdisbFRSBYjPTnJJM43HKKTchp9Mnsf0ydpKxD0zBHD7+HiO/7AX/3WSanfWmwg0ZZpBi+N6sidfICVeME8g0SDqVdl4yzd6lRmPCJgdOmWZLRKdMc2vPsOunygu/mmBisXcypUwrbRRTppXGL8lXU6YluXeT17ZCfg4nr9XlbRF+PtywaEd5K4lg6aX+XCxWprn9jhZBPAypAgSinplWASSskgRiR6BJfSn/TBO75jJgEiicQCG/xLutmeaV0eUm02yRZUemmV/2OmL4vtvumW6/qNnZZ7jOllzOzLRCZJozU84rMy2XTMNUV7f22JsP2OIRu3tyE4LCx6t9ZqkvDcXVyqviQIAyLQ69xBiVQCE/h4OgZa8rapen65UmYTMc/f1h2XN/lv947p1GG/wUs2B0Idzw+8IrD08z66zqP5q5fRZEP+Yqo9Sfi8XINK9/GLT/4dIr5ly7pdv/WPnK9J9nZhSUm2FQ5RfS/qDqinI5UZdpaZTuUR4vjC16BJiZFr0+YUQRIlDsL/HOtdDwSyOmOPb9zkiZ/+CUzPRPt/OWzvydWaNMNysYOnqK+eVT1znTaZ65MtOcu3lqPV5rpvmVabt31pk12LDOW6GZafaaaXZ7kBGHXwQ7H3+SKU8PrplW2o1Q6ktDabXz6igToEyLcu8wNieBYn8O+yWpUkjX/MT1bp/5LTdK5+vvBohJs9Ht+EqRabm4pVmmefV/ITKpUJkWR9FbSPujdO+UKxbKtHKRZbkkEA4ByrRwOLOWmBIo5Zd4t90zIcica6nZ5+kUT/2XW3saqO70qdMtnTLtxbsnZFHGFEw7Cyzfbp75pnmicAi0lfPnmB0/j/vOSHlv3nOZNdzs3Tx1bTb7X0513bfpIwabOO2dS7mbZ/A3CGVa8EyTUiJlWlJ6Mh3tKOXnsB9CbuJM/yEK/9CDn6cqN3S3anu3a2eGlu5krT/H8TNZf047fz5DLOj37Ew4lVtd+w+WOVOuF+fvCF7X2buJg4HWp/Hv2vapQfPWrD9mlemUafYO3l4ZeoVwS7NMs/tIx4vNFZ91P/UMs7GUjivn7u0duveWhX+4L2uHda/MNLffG7G8h9fnzjFtj9tCd3r32qkdbf98xzZZuWCuiV3btXzujMwyJvY95Od+Tcq5lGlJ6Um2I60EKNPS2vNsd0EEwvolvqBgEnwSfpmzp3pyvbTSO5syrXSGSS2BMi2pPZvMdoX1c7iQzDRbNmG3a/zjEOSD7oSNHtBsawgG3Qkb56nQUpGi0sIuU//RSuWdihicq7ty6/dUYOB72GTIuZO2biRk16dxfvDmq2bK5f4HtTX/SFbb8QjPuN3qtkdaIdzSKtN0VgLGBLLz7d3c7cwse6kOe8aCc4d1e8aCvd6tTvPsNnBIZj1c/KMs6sfh9bnu7o5zIIsxpp6dOMqMDZTvHN9uO73bMdk7z+tO7Xof4Dyv9ifzyVVYqyjTCuPEs0ggqgQo06LaM4wrEgTC+iU+Eo2tcBAq0AZcfp247e5Z4fBiVz1lWuy6LLSAKdNCQ82KAiAQ1s9hr7W/NHPGmaVmL59gZxY5M7hs6QURZpfT9/wfZJZM0ExyWzwtm/0nWT7nSSM3VFSosNuwbLGRHThUzNm4ndlpbtIPGePO+lR+IBNKv0Zmky414Zwemo8bYrIzsewYnZl2AQyXnEWU+nPRz5ppmvHl3HldJafXNEd7aqfKNLcyWnc8PLN5lJdMUxj2plP2Rk/OpUbsunFtITu9e+08r1JZRZ1zyiqneTb0DmVaue96lk8C5SVAmVZeviw95gTC+iU+5pgYfgQJlPrSEMEmMaSACFCmBQSSxYRCIKyfw3aGlS3HVFR5SSPNOHPuzq1STaWXlmPLtB5Dzs3KKFPxpIv1Q6ap0NIlHlSm4f/21ECVaipgMGUQdeLwyqDzkmm6a7hOO9SOtpdn0M/ycXO2KakbEDiX7Pj2hN/IG3+8LzN1U3npeHHunI6sLUyF1MOWn85lPSDk3GQaMs3sOGyx6/a5rn+L5TvsAwLZLh/jxGund8g0t53akZUJIavykDLN/XFJmRbKjxFWEiIB/MyyRXyIVVekKsq0imBnpXEhENYv8XHhwTjjQ4AyLT59FXaklGlhE2d9pRAI6+ewc7qi/v3Adl8x0zVx6MY7zl2p7fbZGWEqJVRmFZOZ5iXT7EXnNfMLsgs7YD8z4d9FNwSwM+Oc01H9ZKZ59WE+bshqS+M0z1ybB4ClyikVt5p9liszzc5285Jpdj957QqvnyMzctbEa+SEK8ZldlnV651r3uaSaW47tdtthOSjTEu2TMNzQNeExhR4e2Mzt5b7yUx0ZtkGvcOynaGJKfPOta01fnvattemH15ZoKX8DMx3rXPTuXzne33fec8XU45z2Z5iyojbNZRpcesxxhsqgbB+iQ+1UawsFQQo01LRzUU1kjKtKGy8qEIEwvo57Lb2l65ZplM9vdZMy7WeGbBBpjkXXy90zTQvmYZF3DWDzZ4COmjkGJl5y5VZu21rlpoza03jDnrNNCe3NMo09Lv98q1ZYPau6sjacsq0XPLT3hXdbc20Q445LksE6JppXp8710zTe+C0sdPM3V7ITu9eO8/rNE9mpuV+cCYlM82WaRDo+Y5CZZo9nR7j1XlfBbGTrXO6s1fsUZVpKsEQ98lX3SyF8M/XP/x+4QQo0wpnxTNTSCCsX+JTiJZNLjMByrQyA45x8ZRpMe68FIYe1s/hXLtSbv/4w6x1ywrZzdM5/fNfb7yr0Y6M2p32jo/2Tp+2vHNO89Spd7oLqL3+mL1GWZf+p8qOTRtNppqKG3s3T3vqZtC7eSq39W+9kRF/SZ3m6XVrevWt9pGdvYgy0P84bNFm7+bp3G3TKa28dmD1+txrh9pCM9Ny7RRqCxNnZprdfpUkKXy8JWbNNK/MNHttR33W2FOD9R8qvHaEdRNYzrHknGJv3yOv//7XZlg5dy62xz3+oQObayDj2JmZpmXj+dq1/6mya8c2s1mLc4o07tt+l16dmXqP83Wqt07TtrPWENNzk681seFnHLKfdZMOTPe2n8u5dpHG9bjPOh9/kqx+7YXMtGp87nVdIfc8rtdlBI4Z9h0T59f/7YcZPlU1rTJT2O01O736UePUn1f2Lr5ez8i4PA8o0+LSU4yzIgTC+iW+Io1jpYkmQJmW6O4tqXGUaSXh48UhE4j7z2HnBgQh42N1FoFSfy762YCA4EmgEAJJzEzTaZ7Ikp07dVxmGrFmSmpGpGYtQsRBLA0dPSWz0UpN+44ZOWVvwOFkal+rO9iuWTTPCC97vUrNykW5utPsto3rGp1nyzR7B1p7ivwp/36LPH/XeNG47BiwQ7JOndaMYS+ZZu9u68yOszd8QRayTqXGeX/95c2ZDDT774j370/+1kz11yn8btdBZrp9bk/PRZ1uHN12jlaOduasc2dfr52N0Z+aAYuvX7znp/K1s77baNp5IfdSpc6hTKsUedYbCwLl+CU+15z0QtOeveDlSrN2Wzw5zJ20gpiLn2vQ6L/M4Bz860yuNW1iMfhKDLLUl4YSq+flESZAmRbhzmFojQiU4+dwmJgp08KknbuuUn8uUqZFpy+TEkmaZJrdZ/b7jjP7TN8XVFrZG3Dk63f7XQMyzV4IX9cK1AwyLdfOdLNlmnPtN6/3GDvjzI9MU4EICehctN9+n7Pll7P9uE7feZzrleVbM9H5nuTF3cnHGbfKMFvAQeY5y8u3K3EQU3bzjY9yfJ8yrRxUWWZiCJTjl/hyyrRc4J3/eoNzEcuzE0eZ6Sv2dulx60D7hwliV7GGxZ7TepT60pBWbmloN2VaGno5OW0sx8/h5NBhS/wQKPXnImWaH9o8txACcZVpzql52JnYbQMCZCvpTrX2xgFOmea2I6zuKpwrM01/59fpg/i7vZOyve6fvfEGNpOBTMJ7gpdMg8TS7CxbDtlZb9rHmpzgR6bZGx04p6qiXDvhweZtT6u0P9dYvKZQel3nnDqu627m46NTvG2ZlqsfnbtD65IG9hR0O/ZC7p8onEOZFoVeYAyRJVDIL/HOlFttjJ0JZs99V5lWdUCNvPLwnZl58YWuIYDyMY8dqcr6w0MfSM41C166b6JZK+XQY78hfb8zUubeOc6kUdviDA9iHHhoOufR6wNWy+3Ys6/MmXK9ecBjgVpciy3V7TVecq1doA/cV6b/XD7fsU1WLphrtoL32r69kDUD3HaOQbx2qnNkB1gZAyv1paGMobHoChOgTKtwB7B6XwQK+Tnsq0CenFoCpf5cpExL7dApW8PjKtOcQArZzdPOlHLKNK8dYb0W/bdno9jZZ87MNDeZVmpmmlM2FZqZZic1gJ9TpuXbARXXuK27Zr/Xec1Q8tpl1P5cNzVxZgR6yUY3mebWj/l2NtaxVOh5ZbsZiyyYMq1IcLwsHQQK+SXeTaY5d5+x577rHH57dzCVWc6tx3OtIYBr9F9HNLvMfjgjPfn/sfcm0FdUV/ro7qjBXxRB4dEIaIsmoDQakJgFMogBhEji0DHSxqhBgs/wkjaoLSISoAkgBiFp4xiVKHFA6ah0Y4tAnECJExh4DCpOKBIiEUIQUf/hrX3Mvm/fQ1XdGm7VPVX11Vos7u/eM+zz7VN16nxnD9rqzMsyjcvrhYdJLh1DQLfLJ0scwFhiHaxb/JCxaONL5NSfvWIXaDJNMpTpmASSWUxOQ8LEDLBjBLAMZUzNbN+RSTcN5bjDyzlKkGnl1HteRx1mHc7r2CB3tggkXRdBpmWrrzL0VmQyjQ/xn7njOho8dqbJMBkmZhrvHfS7v50Fl+cEt7N6wT0maD/vdYRMs5O08H7Li0zjPYYm6XRsNe3myX2JBZuOmWaTaTpbsZdlmsRp0+VsMs2OmabH+OL9t1YSC+g9p205J2SbyKwTEuh6fu2FjZnmRwLqmGm2HrULqNYpyywEXF73biDTyvCkxhhjIxD0Eu9lkssdMUlmpyHXRBYz//oURZ8i6AdcrRgCYvZsn1JoM2u7H+3nLqDU8pHnfng8uq4+XfI77bCJOr2oMWknBKI+ieDv/LDxixlgu3jKuMru6pl00xD7pkFF5xEAmea8iiCgQoDna6f+3wAmQCAxAq888T+0Z8+e2O2ATIsNHSr6IFBkMo0P/JlEEdc/7YViZ3PVeyrtlaIJIvaE4cvPa4W9Zjj4/ppH5xkCz455pvcudjZP9hbidcYvmyf3yxmZP9i4wfShx8Xfb163kjgGm5Bu7/7huYrBgbi5DrzsGtq0+kWTkMEm0/hv7dGkXTyFaJPxs9eQ9OPlAitkpJB+uh67tXq1x99r4wqWR7J59rzgxyaLKY/PCx9NWAbp0StrZ61MpXl4cIBMy4OWIGPDEAhzIu5lmWYHkvQyo+VFhn3wg8i0IN9zv+wwXjELpB8vMk1IO/ukRYgtzrZjk4NBZJrtv+8Vu4DJNMniY5Npdw0fWKXvWjED/AJsgkw7INGmoWE3HTpOHQGQaalDjA7qiADP17Nmza1ji2iqrAjMGz0s0boIMq2sMye9cReFTEsPIbTcaAT8PJsaLZcr/YNMc0UTkMNJBOKSabbPepBlmibebMu0ML7nQZZp+rTA72EoMdP8YgiIZZo26/Uj02yrO7/YBUFkWtSYAdynV/ZOkGkg05x8qDggFMg0B5QAEUIjEGYdDt0YCpYagaQW22mRabaLV6mVVLLBg0wrmcJzMlzbMEInL8jJEDITE2RaZlCjozwiEPclPkzMNHkw6QQAfjHTtO+5HRgyCZlmZ/O0Y7t5xWKTuAdC9NlWd2FiF/iRaXbMtDAxAxAzzfvOSrppyOP9CpnDIQAyLRxOKOUGAnHXYTekhxQuIZB0XQSZ5pI2iyELyLRi6BGjKC8CINPKq3uMPAQCSV7iw2bzjBpDQAJsxnHzFL99Gbp2oeTvamXz1EFEvci0Fod2qPjYB8Uu8CPT2Gc/SswASWn91E0/pS+f8b1KllJk8yRKumkIcXugSE4RAJmWU8WVVOwk63BJIcOwfRBIui5GJdPsdyr9vmfHbNq+6S2TVZ0vnYldEk1JCAy/7Of6fc7vPYrb1hYnkggLE6ZxCIBMaxz26BkI1AMBkGn1QBFtFBYBvMTnQ7V2EoKyu3iy1pJuGvKheUgZBwGQaXFQQ51GIYB1uFHIF6/fpOtiVDJNex7YrpxeWd7ZY4Evv0zscmDJ2QHt0BzyHuT3vZ3BkDPv8QHrkLGziA8mcTUGAZBpjcEdvQKBeiEAMq1eSKKdQiKAl/j8qFUINJbYK4ZafkZSH0mTbhrqIwVacREBkGkuagUy+SGAdRhzo14IJF0Xo5JpWm6dbEky8YmHQVBW81qZ3aUN6Uu3pUky+V5n/9OhReqFMdqJhoDrZFq00aA0ECgnAv+wJ0me6HJihlGXBAG8xJdE0QUcZtJNQwEhwZD+jgDINEyFPCEQZR3WyX+2vrGeaiW0iUIm2C57R544kE6fOps4jihf+vc+F42lnX/eQivm3U79Ro2vuO8lxR2HRskQTLouBpFpXq6VLK0dXoOtz+z4sDaZpuctk2lemd157vH18FXD6fVnFpOej2IFp7+XECE8J/VVz/mZTDvlrO06mXbVip3lVAxGDQRCIgDLtJBAoVg5EYjyEl9OhDBqVxFIumlwdVyQKzkCINOSY4gWskMgyjpsZ9KuJWVYMs1OKsTt2gl8uMwTv5xI/X840XQrn4VsqyVLrd8RzqAWQrV/T7ouRrFMsy3Bolim2WSaV2Z3e7Q6e/q+zZoqP8v3dvKq2mihRBYIgEzLAmX0AQTSQwBkWnrYouUCIBDlJb4Aw8UQCoRA0k1DgaDAUCwEQKZhSuQJgSjrsJ9l2ua1K0kCuIsFz4ZliyoWPxKInYkHr0DvbB3kRWjI9z3OvqhiIdT6qC7UdFBL2rjiGeKg8Cf/22R67u7rDeQ8FrYo4izUYrGkLYps6zeRi79Hop3kszbpupiETJO5JZnctfumzE+JmabJNJ7Tj117GZ1yxXUmyZLEWuszcgwtmTmO+l48znwvZCvPxYXTLt3reztm2icf7TJztuvQ71DXU4clBxctxEIAZFos2FAJCDiDAMg0Z1QBQVxEIMpLvIvyQ6byIpB001Be5Io/cpBpxddxkUYYZR32ItNs0oFJDL6YQNCWaZq0CAr0rrFlAoPbEJc7ITG+cHCrCqHB5XWg96BA9OuWzK+QdtrSjcm3lx/6NfX7wdUkVkdeBFuR9J7GWJKui1HINJZfk7PsTslXy/Ydzdyzs3k2O6A5der/DVPGdk/W7WjyNer33LbO5gkXzzRmWbQ2QaZFw8surS0+m1q2pqdvnkKDx86suN9Lee2Grdvge+CYQd/yrSdl/Sw/w0iv71MuX+8sunod8gtvYK87fnJ7WXfLmnlol+P3WofCjL/oZUCmFV3DGF8iBKK8xCfqCJWBQJ0RSLppqLM4aM4hBECmOaQMiFITgSjrcBgyTXeoybSogd65Hd0f/+1HpmnLIr3xYRdQ3QZby3lZwNkunjIGZK6uOX2qCiRdF6OSadGkQ+kyIgAyLZnW/RJu2K3aFp4R18wFAAAgAElEQVRRe41LptnhALwSgUSVxS5vryle7cUl0xg3fZCjD6OSyl2U+iDTiqJJjCMVBKK8xIcVIOiBHDZ+i19fQfFivE5l2AXlzOlzjItA2lfchUjk8jtVinPC4+eyw33ZGyptHfDi/bfSESeclIs08kk3DWnPB7TfOARApjUOe/QcHYGgddi2stEWBvqEfvt771TcKrufNYIGXT7dWHjZZJpXoPehE24y5eysiVHING0tYVspcDt6LdZj0i6BXiQbyLRo8ynpuggyLRreKF0bgUaTaX/961/pwAMP9BQ0zB5IvyNLfEghrrjRWq7tsjdgy8zld/7cJNJgl+RHp42mLa+sqlhxeZVji2BJrMHPZ22Zxs//p2+dRju3bqH2x32Venx7JC35+biKu7QesL130vsNWS/YFZstRrWckoDGds+X57YfcWb3p5OMyFqgraOfunGyEVdbkmoZ+XvGh+XR6x7XWTRjjEmEw+PYvuktgy1n+bXXIZ0YRScusfc9XvquPcuLXQJkWrH1i9ElRCDMQhK1izTJtCBZvE5l7BOTqGPJsryX/PxQ17FBwsoThUzTm5U8LSJJNw1hsUS5/CEAMi1/OiuzxFHW4TDZPPXz3ybT/AK914qZxhsUvR7Zbp42mVYryyjrW7e3a9v79ObzT+6VFRRkWrQ7I+m6CDItGt4oXRuBrMm0P/7xjzR8+HB65pln6C9/+Qvt2bMnUMizZt5HnU7+pm8ZPzItrGu7jhfY9phuhvxh0keIIXGjZ5KI41nKATp/z1fP8y8xdbzINCbkxGAgyDLNz8JYYhSya3bLdoeb/pl0Ejmbt2lnnskiC3/W+yqWT1sle4FoW5XZ4+I6fPjDOMl4eH3R8Q65jheZtvyuX9COLZsq9UV+Jh21XNqIgA+eZL3ivr0S6WDdqdYkyLTazzmUKDECYV7i/QgWfWpgx7jwOt0IGwyZ1cELBz/E7dMKeyMR5lRGLwJ+pyvSbruuPWjxdVeaU/QhY2eZBYRPMPRpiddph5yCyAaCH/Af79xBrz+7xJw8aUsBP9y8FkLbvNvrdEcWw/c3rKU1C+eZhZgvvWkSmXlcR/YaQLt37jCLDy8qdpyavJg4J900lPi2L/zQQaYVXsWFGmCYdVgG7EWmsUXCM3dcV4mjEyZmmg70zmuBV7B2+zAqLJlmu9uwPKsX3GM2j2wFIDG1EDOt/tM46boIMq3+Oil7i1mSaePHj6epU6fSF7/4RRoxYgSdc845dNhhh/mqIOjZ62Vhyw3xOzbH1grr2s4kmRBmbNlmx7EUYscuJ8/6AZdOrVgO25Zpul0v7xbZe2gCyS/mmE162clnxOIrbAw3P9ClXSEJD+ve28RY1OsL19UHNF7rnp29N8gdVht5aCy8YnVy33nZB2X1bAGZlhXS6CeXCIR5ifci0+RlWbIkSfYlOV3wOl2R0w15ka4VDNnrtEI/YHlBCHMqox+i9imG1Od2+ZSp5wWjK0Gb1y1+yJz46JMX/Zk3I3a2Kk2mySmKZDVjcq5Vx87mtEUWJY0bP+DtEx6NEZ/c2wsyyyO4yukMu/ZoKwNZYLl/OW0SbDkYNF8605UdP8DViZ100+DquCBXcgRApiXHEC1kh0CYdTiITON1l5/l4sKpD2/kAMYrm6c+BOP27cMm+/ewZBq3pTd22sVT3h34kIov7S6EbJ7J51zSdRFkWnIdoIVqBLIi06699loaM2YM/cd//AcxqRbmCvPs9bNMC+vazu/u2lI3iEyzs9xyH0FkWlBWXD1+O27lxhXLKqEApJztVeSVyVm36UUqemFurytchg0UtMUdGyTYlso2UahJRx43J95ZMGlUZT9lk2k6nAD3GYVYBJlWrUmQaWGeJihTWgSSnMrYpwZCBNmkj36I61PpWsGQa51WeJ3ieJkbywLhd4rB/dinTJqMCnK11IuPxBvgjQ2Tdnwx0aUf8Pyd3wIhpBtbsulLNhv2JLVdeaQ//l//Zi+QNrlox0jLi6tn0k1DaW/6EgwcZFoJlFygIYbZ0BVouL5DsZMQwNUmutaTrosg06JjjhrBCGRFpjU1NdHFF19Ms2bNCq2SMM/esGSan2u7/Q4e1jJNLMV0TEvbMi0OmRZkmabb02SaX7gZv5hpGjP2StLknW2ZJrE662mZZu+1YJkW+pbwLAgyLRl+qF1wBOIuJLY5sH2i4HW6wqmcbTItTDBkvwesvSD4xQsQ0s4+xZCHLVvKMZmmycEgMs3vtMMm0+z08Lxg8MVWe/qSU3v+Lij2gN/pjm3xZ5NptUhLO+g0yLSC3/QlGB7ItBIouUBDDLMOF2i4gUMRAo0LecVQKwsOcccJMi0ucqiXFgJZkGnf//73af78+bRly5ZIw4j77LUD7Ae5ttt7lSAyTWJ+saVWmJhpccg0PrjXew3phw/Wvcg0O2aa9naREDfaS0j2KhJvTe9BJJwA1wuyTJPkBGJU4RczjS2yhajTsek0mSYJHPg7CW+DmGmRbhMCmRYNL5QuGQJhFpIwpzJB7oiaeLPJNK9gyLapblIyzWtB4ge5PlEJS6bZVndBlml+ZJrf6VVQ8FAhyLxOd2qRabBMK9lNjeGa7Fq1gg4DJiDgCgJh1mFXZIUcbiPgCpkWFL8oLQT9MqKLuzKTCPrQNKwc9oFk2Hoo9xkCWZBpbdu2NfHRolilsWxxn702mcZt+bm2R7FMe+G+WwxmaxY+UHFL5L/9EhDEIdM4bpuOB2dn85RM0NqowD7Ml7ABMsft+HI6zrR27ed78fhvj6QNyx4j21vI9gLSeA687Bra+tar1P+HEwOzeXIm0k79v1EJacNZPtlgod8PrqY1j84zcUX54nA7fEkcT+2hkxeDgiyfLyDTskQbfeUOgbgLSZiYaeKeqBMA2Ccy9ukIx/0KesCahfnmKeaBGMYyzQ6gbMd20zHTwlimaTLNPu0IY5lmx0zTgZnt0yJ7Mvmd7tQi0/SJGWKm5e4WhcAxEACZFgM0VGkYAnHX4YYJjI6dRcAVMq0RANU6kPQiQMLICTItDEr+ZbIg0z73uc/Rxo0bqX379pGEdenZa5NukQaCwrERsONEI17a3lCCTIs9vVCxDAgkWUjCZvOMGgxZSKpafvReZBonEdAxx3TgY9ZnrWyeTNLxqY2fm6eYHnuddmh5OGaal2UaW8T5nV7VehH0O92RGG3SH49Ty89/61Ojr199PX2wcYM5qUE2zzLc5eUbI8i08uk8zyNOsg7nedyQvf4IZE2m8QGlV+ZyHhlb03QZ9C+0ZtFvSYeT0IeqXhYynETJfleT90hp1+/90C9Uhv3+pONQ2cHPObmUXwZ0lk2H+rAtdOqv0fy3mDaZtmDBAjrjjDPok08+iQyWS89ekGmR1Ve3CkKgsZfSyw/92uyP+F7H9RkCINMwE4BAAAIuLSRQVGMQ0EGe82TenHTT0Bi00WsWCIBMywJl9FEvBLAO1wtJtJN0XYyagEDHMtKZy8UKnkmvbZveJgnpYYftEPJLDiolzpL2aPCyro9KpvHM0JZptQ5t+WDWLwO6hNvgw0gpx4QcLm8E0ibTOIvn1KlTadu2bZFVgGdvZMhQoYQIgEwrodIx5PAIYCEJj1VRS2oCjWPa2dk9XR130k2Dq+OCXMkRAJmWHEO0kB0CWIezw7roPSVdF+OQaYypnblck2n8u2Qx1xb8Ong4W4H4Webo+Gu6XduijPuxvRP4O4nfFJZM43AeOhaVnRFegqLLuLRXQNHnV5zxpU2m/fu//zvdfffdtGnTpsji4dkbGTJUKCECINNKqHQMOTwCWEjCY4WSbiGQdNPg1mggTT0RAJlWTzTRVtoIuLIOawugppatfYO1h4khZQeTThNDv8Dzabjg2X3pQNs8Rv37GdNm0zOzZ5rQExJDNiwOcQ+5kq6LQWSaV4iKtYv+yzOkhSa9OFbswmmXUt+Lx5Euz/PIK6M7BwUXKzcdtoMxrEWmBWVED0umvbfmpUqGQE3ySTxfDvOhL3sOhNVxWcqlTaZdfvnl9OKLL9Ljjz8eGVJXnr2RBUcFIJAhAiDTMgQbXeUPASwk+dMZJP4MgaSbBuBYXARAphVXt0UcmSvrsCbTgtzWXCTTbBIlDTLPTmjEc1EnNRLi5c3nnzSWWlxePkedt3HDLyRdF+NYpnnFh7VJLx7PAYe0MfFav3zG94jjktmxXQUjnWm966nDKvHT2LXTblfHmuX6cck0OyN9kGWajv8WVa9lLJ8FmTZ37lyTgCDq5cqzN6rcKA8EskQAZFqWaKOv3CGAhSR3KoPAf0cg6aYBQBYXAZBpxdVtEUcWdR22g6mzJQ8nztHB3BknsYbi71+47xYD3ZqFD5BOzKMDvXOQ9+2b3jJEkG2Z5heQ/ZOPdtHDVw2n159ZbNpnK52e519igs9Lop5vTr6NXnrg1koQeq+4WVyXcbCtko48caD5jsdnB6UXyzOv5D3aNZCJQb9A9zoYvq7D42diRuSyA9bbxA8TLHzdNXyg+b/Tyd+gVx7/H/OZce1yyr8YK7WdW7dQ++O+Spw4iDOAS3mdqMnOLsdthM0wl3RdTItME/ztcQZldBd3SqmrLdMkthrjsvzOWXTm9DkG66hkmlc7Xzi4lZnTfB94ZUCXmGky97sO/Q4x6YfLGwGQaZgZQCDfCIBMy7f+IH3KCER9iU9ZHDQPBEIjkHTTELojFMwdAiDTcqeyUgscZR22SSKx7jlm0LeqiARtPSakjRcZoS2rdDlNpnkFlmeFidubkB6a1GJCQlz7JLi8X9B4HcTdto7T8nGMLR3I/olfTqT+P5xoXAJtEsW2WLIDyutA916WVTx+LZd2EWRiT186WL6O+8V4ioUTf3502mhD+rBVlpbPDr7vRZx5EWxeN03SdTEtMk30ahNPmuTUxKn+nglavkRP2t104GXX0KbVLxoXUr68YqYJeSwkGZezSVvdjs7myWV1BnQ7mydcPGs/ustEpgU9J2oj5V9Ct6vjDtYr46R9EKNd5PXzze+5x9+LNS1/jmuRmwQj1E0PAZBp6WGLlguAQJSX+AIMF0MoEAJJNw0FggJDsRAAmYYpkScEoqzDYTdrNqkjAeCZCBICTizIhOSyLbOevnkKDR47k+zNm1+geG1xFoVM00QYt61l1ePdsGxRhUzT+vWLmaYt82y3PemDk+74kWlariDctbtiEJlm60AsnOzg+8vv+sVeiYDCZtpOui5GJdPydJ9B1sYgUCYyLS2Ewz734/Rvu6/bbtb2M5n7sA89bJd27aYeRybUcQsBkGlu6QPSOIZAlJf4eouuFwduW06x+VQwzmXHLrHb8FoQ4vSj63CfT904uaqZrE4qbQuFOGPxCgCsXYDCthkUn8ZemLlNOXk/tMvx9PJDv6Z+P7iaop6wJd00hB0byuUPAZBp+dNZmSUOWof1GsNrC2db1qRM0HokLnXaQoqfs0L+9Dj7ooo7G7tC+pFpTGL5ET/aVZFl0VZAYS3ThLTzclXVbfK7gcZDyDIvN0+Nix3jTb97BJFpWq56kGma0PMLvu/nTgoyrcxPiHyPPe9kmte9p93D5Z2WrWbZQlieG/vt31Rxd+cyYu1lH0ZoMl678HMdr0y0+nBDP3+DXOLtZyW3zeuOPG90hlr+zd6fiduzxNLU+yke51M3/bQSC1Hqx323z/dsL6b0INOKqVeMqk4IFIVM4wf/c3dfb1D56rk/Mm4UWZFp3A/H1uBLNiPiQlInNaXWjFcgaT+rgyAhopBptrtK2Fgwdv8g01KbFrlvGGRa7lVYqgFEWYf9SB37sMjPQkqTaUkt0/qMHEMLJo0y6x9vssJaptkumDaZpkknv4ngFXftlCuu8137w1imBWUz9Tu88orNpl07vT5rHci7gx6nl1UHyLRSPRIKNdgikmn6+crK4hiRbOGr3eO1Ja2+f21LX9tS2MttnvuwLYX5+btk5jjj4iwJPbgcx++zXc/FxZx/t93Xg+IMykS0XT01mejlgs7PRZtgK9SkLtlgQKaVTOEYbjQEwrzEe73EyQt9u649aPF1V5rT6CFjZ5kHOAci1tZZ2gVDTk5YSgla3LHn14jJpz/M/41pR4IV796xndYsnGeCKEsQWElJbqeZF0KG25WYKrXINC+55GTcPkHmNmXjoeXiuACaTOPP9il5rX6aHdCclt/5c2Js+MWaFz1OB69jFuhTbDn513FoZAFv1vwgE/SZL42RX/BlLzJNb9bskzWxdNj+3jtVwZkHXzmTnrxhcmVR5/7FgqDL4G8beb7Y7+uVRZ6tK+SEK+wmAWRatHu7zKVBppVZ+/kbe5h1WEZlu9fIM5wD3D/761kmFpQ8t7mOBLr3WtN4vfGLraY3hbJe2wHZbTJNB4P3cvP0CxqvyTSv8a1ecI8Zl7Yi0+uGV8w0PQtkDeZ3FHmX0DHTdmzZVJUQgNdOOwEDtxc2m2cYMs1+T7Bjw8mmWMbhasy0/N1tkDhrBPJKptlxxAQ3fjdnrwohofh7eYbxs0g++7mlB1mmad3YBwa1yDS/NcIrsYocPIR1H9Uyc+IN7Unkl7UYrp5Z32np9QcyLT1s0XIBEAjzEu9HpvHpRs8LRlcIknWLH9oro5LOisTkiX5hZEJGFgeG0nYJ0dZdfqcsfBqjT0C4PwlKbAcJ1if3sjmQYLh2EOYgMs1PLpkOeuFq1bGzIQ39+uFMXpos5ExqvGngkytx5dGfeUyChbYqkGDJWh+yQRDiixdPr0DH2n2Hx6A3Vxy7hS/eRNmn9nbQaL24chuyAZLg1SzbUb0HeeonzqILy7QCPIBSGgLItJSARbOpIBBmHfYih/jQRQ6o9MEHH7iw6/yaR+d5xjzTbkV2Nk8+3OnU/xu+2TxZDh2QnZMCzB93oRGPv9+8bqWx0BDS6t0/PFd5L5Dg8HbQeE2mcTv6AEqHHbBdoMK6eQoR5pU5U7fZ84If0+6dO/ayMNHvEnZ8NjusQ1DMNNvizi/4vhdxFtaCO+m6iJhpqdzipW40r2SaJqfsfYV+z9+26e3KIb5NTnm5pQeRaTaBJ88/TdhpyzZ+v5fnqhx22xmWbRLQdl8PY5mmib331rxU5fav1xM90eO815f6RnF48CDTHFYORGs8AkEv8WFPZcS8WGfZEmJl17b3fYMJ6xMcLzJNTJ3tk2rbrcJ+8fR7gGsyTffNL8r6lJhlDiLTdGwBryw3fnFnvPrRsW9ss2l7gyGzxSt4NJNpdhBnGQNvdvzi3eiNkLSv4y7oGRp0umW7edrxJORvvxhpYTcKWp6km4bG332QIC0EQKalhSzaTQOBqGRaGjKgTbcQ0O8xUay3k66LINPcmgdFkKaIZBrrRd7F+bN4W/hZeul3ZHuPIfsIO4ZlLcs0tjrWsYZ1LEy/GNS2fF4xjXk89jNHyrU9ulvlwETHT/PK3gkyrQh372djAJlWHF1iJCkgEOYlPsjNkzN96exgYsGkyTQ5DRbxvU5avMg0yTBmn0ZLO+IG6RXI1ysJgCbTbGuvoIXOL/MZy+FFpmnyT8qwtRnjVGtB1anf/YKYcps8PtsyzS/uTBBhZgeWtqeYV5Y0LxcYPS6xfrNJRx5by3aHVxGVmiDkzxzrIeyVdNMQth+Uyx8CINPyp7MySxxmHS4zPmUcu37vYvdWHRohCI+k6yLItDLOtnTHnHcyzQ8deT8+sPU/Go8SOTCXd3E/t3Tef0gMM/HeYWLKJtO02zzLYLt59vj2SHrmjuuM9bHsw+Q9Wu9NtJt7GPd1v9jPsteyD9wRMy3d+8eF1kGmuaAFyOAsAmFe4pOSaX7BhO1sMWEyf9mJBWyrNQZaEztrF/1XJe19XMs0L7dKOZHxItOCgisHWcD5WabZhJefZVoQmeYXR84rZppMVvvEKsjiDpZpzt7imQm2fv16GjZsGL388ss0ePBguvvuu6lVq1Y1+9+1axdNmDCBRowYQZ07d65ZPkwBkGlhUEIZVxAIsw67IivkcBuBRpBp2lWY0dGbbTs2nKDn973b6EK6OAgUlUzzIp3sfY3EhmbcdBxjcf/ke+XIXgPp4107TTgVbRyg3eY1CabdPPVhubh5srWafU+K8UFQAhtt+OBlkCCk3NEDz6gkXeNxeSUbCBvjMc58Qp3sEQCZlj3m6DFHCMR9ibcfyHZqZyHG7JhpdiytoJhpYpnGcPqdsshvciokD3bOrMOWUXwJkaSJI4kp4BfLzOvUyM58Zsul+5a4akL2hYnNFoZME7mZzAtrmaZjpjEZaQc6tmOm+ZFp4vZbyzKN+7CJS4mvh5hpOXo4RBDVJsSWLVtGv/vd72j8+PE1W+G6M2bMoFGjRoUi32o2+PeU73v27AlTFGWAQMMRiLsON1xwCOAcAlmTaV6Egl7/JZaftlRn0IIO8pwDFQIlQqCoZFoiUApW2U5CABfPYikYZFqx9InR1BmBuC/xYck0JlZqBRPmIQ2dcJMheThYsWTz1GSa3ymLl2WYvKhxAHxplzNc6kDGXMYvy6aQZE/dONmcsMqpkR+ZxuX0ZZ/o1MrmKXEP/Mg0bltOt1ie4789kjYse4xO/tEkevz6CZ7Bku0Ap36Bjmu90Op6PC6+2F2TY5/ZGdjsGA32ydsXDmmDbJ51vn9daY6t0m6//XZiF6GmpiYKQ5BpSzY9jqVLl1Lv3p8R4XEvWKbFRQ71GoFA3HW4EbKiT7cRyJpM08SZTtSg32fs9wy/OE1uIwvp4iIAMi0ucvmqJwQaS+0VQy1fo4G0GgGQaZgPQCAAAbzEY3pkjYBt/h0n+QDLnHTTkPW4i9yfbYkWxXWT3UF37txJr732WoWMS4oVyLSkCKJ+lghgHc4S7WL3lXRdjBozze9AU6Nsu3T6uZoVWzPlHR3ItPLqHiMvBgIg04qhR4wiJQTwEp8SsGg2EAEh0Pyye4aBL+mmIUwfKBMOASbT3nzzTTr33HMrFSZPnkxf+9rXAq3MuN6cOXNo1qxZxtWTrzCuobWkAplWCyH87hICWIdd0ka+ZUm6LsYh0yRxkh9ydgZ2HRYk32hD+jAIgEwLgxLKAAF3EQCZ5q5uIJkDCOAl3gElQIRYCCTdNMTqFJU8EUhimZYGpCDT0kAVbaaFANbhtJAtX7tJ18UgMs0rZAcneeKLg6cHXUKg2RkLy6eh8o0YZFr5dI4RFwsBkGnF0idGU2cE8BJfZ0DRXGYIJN00ZCZoCTqKEzMtTVhApqWJLtquNwJYh+uNaHnbS7ouRrVM84uZZodvkHIS81VixZZXU+UZOci08ugaIy0mAiDTiqlXjKpOCOAlvk5AopnMEUi6achc4AJ36JXNU9w3OSEBW65JUgH9OS1IQKalhSzaTQMBnq9nzZqbRtPOtrlp1fNGtnbHnuCsjPUQ7MlfTqrZzF+3/pFaHHo4Hfh/taV2XY6nNp2Pq1nHr8C80cMoSSbjqGSaXzZPyYjOSaj4kszmrz+zmE6bcodJRoSrHAiATCuHnjHK6AjY8SSjt5BNDZBp2eCMXnKKAMi0nCoOYiMBgWNzQGfnHDx4MHFigVatWpF8f8MNN1Dr1q1p2LBhxJ+TZuwMGj7INMcmB8QJRGDIN08vHULr1/y/tHnTJjpp4KBCj/25Z5fVHN+uDz+kZs2a0UcffUQf795N++yzD7U/7HA6+p+71qzrVeDR/344Vj2uFJVM4zp2tnU7c7oIw8kK1i1+iM6cPoeEZIstKCrmBoGykWlshblqwb3kZX2ps9zGUWCY5B1sFTp/3IWV5s+fvZg6dOsVpzvPOjo77/K7fkFeMRP9LFbtBhsRP5F1sGPLJk/9hAUpjB7CtCUZUOuhHz6weOKXE6n/DyfSi/ffSkeccFLd9A4yLYw2Uaa0CIBMK63qcz9wWKblXoWpDQBkWmrQomEgUBcELr/8cpo7dy5t3LixLu0VqZFx48bRz3/+czr88MNp7dq1mQ4tDpmWqYDoLHcIgEz7/1WWlEyrpXwmp1YvuIdOnzqbmlocUrEI5ZiG9SBsuH9Npu3brMlTJFfJNCbBnrv7eiPzV8/9UaFIfU3MaWKN50HSC2RaUgRRv9AI5I1Mq9dpgJ9S+WH01I2Tq37uN2p8zeC69ZgkdsarOG3aJ1Lcht8pcVD7/CBeOO1S6nvxuL0WG5HzsO69K64a9cjOGXW8INOiIlae8iDTyqNrjDSfCIBMq603JtMOOuggWr16de3CdSoBMq1OQKKZCgJ5J9P8iAmdkOPIEwdWCCyxTGt2QHNafufPSX7bsGxRxWJMXJ257F3DBxqsup81wlhL8bVoxhhq3qZdZT8i+xC9B9r6xnp6+tZptHPrFmp/3Fepz8gxtGDSKLNf0cSZtpT75KNd9PBVw4ndrfmy223W/CBaMe9285u2aBM5eT9xZK8BtHvnDiOrtkzTeHC7XEdIPb03kT3Jrm3vV8bO5dmSSlv0aas13pu9v2EtrVk4r+Imrvdr2nVcf2/v32SvwuPb9u4bVXs7v3pe39t7URmf4PP5A5qbtrnuxzt30OvPLqEtr6yq6JhJSL/5w7J5zQu7jt7bcVsvP/Rr6veDq0kITjtuZZJHEsi0JOihbuERyBuZlrZC+MHHl2Sm8ooHkrYMSdr3OjEKMjn36ysKmWY/xOv5AA/CAmRakplS7Louk2l+7rC1NGLHpatVHr8DAZcRCEumbd26lc4991zjFj5+/HiXh1R32T799FM68MAD6bLLLqMpU6bUvX2vBkGmZQJzqTopIpkmMQC7Dv2OOVTWroOb1640JJEQPHpfoS3TdLysFod2qBBoPc+/xHzmiwkrbk9iEPJ3T988hQaPnUlMpunYhLWsweyDcN0/t/vgmPOo5wWj9xrP9vfeMb8NGTuL2h7TrUo2IdOO6j3IkHQaDyHTWE4etxBrGg9NmNl7FZtM066Zeq+j5eNxCCHHn5+66af05TO+Z4wCePzy9xcOblVxiWTLLd23rseEn1d7Wg8ffta3bRUAACAASURBVLCVHrv2MjrliuuI22UcmMwUMk1w4HKCY6uOnU05IT71/OHxSHte8+LYoeeY9rndN59/0rThte/yItjiPnhApsVFDvVKgUAYMs3vVCYMW68fULwg8EPJPq3Zb/8m83Bue3Q34+fN7L0sQvKwZ2WwrMy6P/ebGyoLid0eP1R4cdFtcN2g05/dO7ab0w4+heEHE186zbsdIDLKaZSfPF6nNPLQ5AdlU8vWZsGsdUrEssppFp9GeJFp+gRFsJaTJ6krD2/BefCVM+nJGyZXWaaJvrsM/rbB6Iv9vl5ZdLVvfr3Ni/1uRJBppXhExRqkq2SaV6KG3/3ud6FIAq47Y8YMGjVqlIlFhwsI5BmBMGQaJyuZPHmyuT+ee+45Gj16dJ6HvJfsYYjCf/u3fzPxJ7lsFhfItCxQLlcfeSXT9L5Ba4z3J4d2Ob5CajEZo/cJTMBo8ki/g/MeR2KM2e/rsl86+UeT6PHrJ5B4f+jDbZtM0/1EPTi32xUCh4knr72bxIDTvwmZ5oWHkH62m6EmyaKQabI38/KOEZKyZbvDfePV2eSSdov0w87ve61TtjjUVm42CWjLzXs8vvzmCLe3ccWySkw3e14ImabnpFfstXruxUCmleuZjdFGRCAumebH4usHvc32+53WyCnM9k1vmZMLzfJze8LkMxNvmzjz6Q+TYHJaIm3okxDdnhfLz6bUQp7Zlmncv3a/lNOEoNOoWvL4ndIIDkKmBZ0SeZ1ayOmEfgiz/HawUHmwy8ka12PyTuNsW6bpOAxyusInWHwaJQEv9YJZz6CaINMi3tQoboj3JBnt0oKQrdJuv/12E+Sbs5yGIci0JVvVy9PSpakmcUgLA7QLBBiBMGSaIMX3wCOPPFIoMi0KUcgJCZYsWUL9+/dPffKATEsd4tJ1kFcyTRTlRUrYVmD6nVlbM4lrnhBLNpmmEwVwf+wSOnTCTYZoEdIkiEzTbpG1LNO4fZsgFFfBoL3buiXzPckd7ebJJJYfOWQf4nNf4n4ZhUwTEtJOeCJ60m0Krtr90ysMjnYD1b/71dOGHlqnsq+SPZeQa9oSUe8luZy494r8oov31rxUlUBC5gXvj/kSN11xHxZ8bZINZFrpHrUYcKMQCCLTgk5l/Nh/24/cPt3wetgOuHSqeQjrGFzyAOLTDn1aYpNptumwPGztU4Mglt/uVz8U+bN+AIrFGJtY1zqNss25a53S2GSa3ylR0MLGv3ktzmJereeZPS7dn02m6bFwG1o/tp++LCb8P5u/p3XBMi0tZPPfrqtkGm+gtSVaFNdNtk7ZuXMnvfbaaxUyLv+awgjKikDZyTTRexii8LDDDqOhQ4fSzTffnPp0AZmWOsSl66CIZJq91wmyTNMkl02m2XG77D0HGxGEJdP0AbmOmSYWWSd8Z1RVTDW/dr0MIWzSTv4OY5lmW1qFtUzzc48NG1/ayxBCx5PzC2fj177fXrCWZZpNAoplml/G17AZTm0LQTt7J8i00j1qMeBGIRDXMk0IE5v9r0Wm6YeHlBUyTbPqmqzRJJRNpun2/MgrHfRTcPY6/RGSyCbT9AIlZXSmHAnUb59G+cnjd0pjk2l63PqhGUSY2YuWPa+0i6r8xpZ0NkmoFxmx5vMiO/1I1SzipoFMa9RTw/1+XSbT3nzzTRMDSi52Y/va174WaGXGJNycOXNo1qxZxtWTr7LFj3J/1kHCKAiATPsMrTBk2sCBA40VKz8H0r5ApqWNcPnazzuZ5qWxMDHTJIB/mJhp7FopcbPEzTOqZZrsy7yyebI3jcQ1E0KJ39OX3zmLzpw+xwzRb88hSQu4nl/MtKMHnGbC9cg+gcciscL0vkTakphitmWaxIDzij0mpJSMU4wkpE0eI19CUOoYabbrLZfT7qJ+9dhKzKs9jVetmGleZJodM832/tHGDTIvOMHEkpnjKuF3EDOtfM9SjNhRBJKQaTKkIMst7WLIbp62fz//LSbN8hDWD7ggP3x2lwxLpoU5/eHxeLl52kE6bXJPHnphyTS/U5ooZJrXeOwFxk5ZbccZCNIbLNMcvWEhVigEXCbT4lqmhRo4CgGBnCAAMi08mTZy5Eh64okn6NVXX01du1HJNNtq3UtA+5A1TB2vdiRuq/4tTrby1EFMqQOvWFF+RI8c8upYvNpaKSURPZstIpnGAw0bP9mOa8xGCF7ZPP3c9sJapgn4tjujn8vi16++njavW2ncSe0DdTtWmPZU4nofbNxgYlj7ZfMceNk1tPWtV6n/DycasbRr4vHfHkkblj1WSa7A7o7ibin3OGNxZK+B9PGunZVA/ppMk/3aUzdONu1LfdsF1CsJhJ6kQmLJPlTiSUs9v/b8snkGyW1bvOn5Yz/HNN52plhxD9XfI5tnlk809AUELATCkGleoOnTBM3+c1m/rC8SM80+rbEz1+hMJtxeUss0fWoQdPojD2f+3y+bZ63TqLDknn2iwi85Yck0jY8eD8cvsF1Ate7sFzF5WNeyTJNgpEKEImYaHiOuI+AqmRYnZprrWEM+IBAHgUsuuYQefvhhYkvNWlcY661abbj6e5ixXXHFFXTvvffSxo0bUx+G62Safj/jz15Jl1IHqUEdxCHT+P2t0VdRybRG44r+3UMg7D2ahuQ6VnU9XTxZViQgSENjaLMwCMQl0/zYenm54ZMXZtp7nH2ROfmQ9M4v3HeLwW7NwgcqWSj5bzYP5kQAcsoghJtXXAKdFjoMeSX+/zab7xW00evkUweoZFlrnUZJxhs/N09uw+uURpt2Rzkl0qcTtV4s9WkHj4svPu2xLQC9YgnYJ0ZfOKQNsnkW5klQrIG4SqZ5ZfMU901OSMBuXL179zbK0J+LpR2MBggQnX766YYceumll2rCEYZwqtmIowXCjC2KFV/SYSYh0+z3Qn6PE3em159ZbIKrdz75NPrfKf9mxGTrD7ayf3/DWpNRXVuRyLugtqrx8xyw3dPkXU9bBOl3U+lbYrrq9z7bIsXOMs/ysmy2FVGtcvwe6oUPH6Tye5l+N7atVEQ+O5O6HO4ytnzxO50cyrKFDbfzzcm30UsP3FoJZu/3/sp9fLxzB73+7BLa8sqqqizxSecUyLSkCKK+ywjY8cXtPWNWsmsCjWPz2THUksgBMi0JeqhbeATikmlxgPFLMRw2mGScPlEnfQRs8+Is4qXxqBAzLX3d5rUHV8k0xlNn5xw8eDBxYoFWrVpVvr/hhhuodevWNGzYMOLPQq7lVReQGwh4IdCxY0eTnXL27M8ylAVdYQinWm24+nuYseWFTNNkF7/vSfwjxl4TXvqgUeIBySGkPhBkK3ydZdyLTLPL+2U61++fHGNJ3CA5JpLEmBKr+yFjZ+0VG0pno9fxoeQzj1EOjZnMY1LOK44Ul2PPB40PhwixM9NLlnm/TOp22zocCceb8nLzDMpGz+56EuNK41AP11CQaa4+fSAXEAiHAMi0cDihVEkRAJlWUsXXedhCoLGFm1d2zzp3Z5oDmZYGqvlvc/Xq1XTccccR/9+lS5f8DwgjAAIFQ+Djjz+m/fffn5YuXUonnnhiwUYXbThFIdPs4OZBMVltMk0IJi8XKbusWKwJykGW+Xa2OzvmErfhlamcvxcLL4nl6xf3zYvU8iIOg/AROSSxlQ6j4iWf1zi0N4EfmRaUjX7tov8ykDLRV+8DbpBp0Z4JKA0EXEMAZJprGoE8TiGQJZnm1MAhTO4RAJmWexXWfQBMoB1//PH0ySef0H777UcrV64EoVZ3lNEgEEiGwCmnnEKvvPJKqHhpyXoqRm1XLNO8AmYzCcPkjpBF4nIoyLOFlh1GwibI7Gx3EgRc2tDByYOINzvwOpfVmdt1RnL+zYu8EyJLx7Bl66xaZJpkXvQrF4SPnRXdlsErkzq7qNruZeIe6kem2aSdJuBEj9wuyLRiPDcwCiBQLwRAptULSbRTSARAphVSraUYFMi0Uqg59CA1kSaVQKiFhg8FgUAmCFx99dU0depUWrRoEQ0YMCCTPvPeiStkmheOQowxWSSuhXbQ+6BsnppYq0Xi2G6eQu6xWyYTXtqiy5bVL4NoLcu0WiSZWKbVKheEjx0CJYxlmm3pVg/LNJvUlDElvX9gmZYUQdQHAo1FAGRaY/FH744jADLNcQVBPF8EQKZhcggCXkQaCDXMDyDgFgJDhw6l//3f/6Wf/vSndNVVV7klnMPS5IFMY4smTXZpost2L/SzTGMV6BhoHNuMkzV1HfqdSrIjLiPZ1u3yYTOdS7vczrZNbwfGTKtFkoUl04Lw4XHoZFqaTGOizS+TOmPDYxAicfmds+jM6XMobsy0spJpDt/6EA0IOIPAP+zZs2ePM9JAECDgEAIg0xxSBkSJhADItEhwFbZwEJFWb0Lt1Vdfpf/8z/80mTY5E+Ff//pX41L6t7/9jfg1g5+nfMn/0r/+26sMf2d/r//2+k3q2OXstnQ5+/PnPvc5IyL/7/Vb0HdSx/6f6/j9xt/r3+y/pe4+++xj5JHfdR35zauM/k3X5c/8m/5Ol/X6TerIb17/1/qNf9dl5G/9/x//+Ec67LDDTDn737777mtklv/zdBN/+OGHJlPnwoULDYHGLtdt27al2267jYYMGZKnoTRc1ryQaX5Z3iXrJAPJccE2LFtEnPFdsnnaMcB0dk2dGc8rAYG0LYSbdn3U8dS4b6+snX7f21ZySd08tfukuLFK5tAgyzQtH4/nyF4DSTKpa7fWr199PW1et9Jk7Wx7TDdaNGMMvfuH5yJl8ywjmdbwmxsCAIGcIAAyLSeKgpjZIwAyLXvM0WN9EACZVh8c89xKGCKtHoQak2Zf+9rX6Pnnn6c2bdrQV7/6Verbty/16NGDOnXqZLJx/ulPfzKk2v/5P//H85/89umnn1bKyXd2Pfv7oL+9ftPf8Wf9j+Wzv4vyN5OGdnn9nf27/B30v9dv+jv7M//t9538Vut/nhd2Gfs7/bd8tv+Xs1p9Zhv0ncxHKdOiRQvavn27+Tro3Ldly5a0bdu2mrdr2HI1G6pDAXazZnk4IchFF11EZ599dh1aLV8TLpNp5dMGRhwVAZfdPKOOBeWBQFkRAJlWVs1j3DURAJlWEyIUcBQBkGmOKiYjsZhI6969OzE5Ffbizf2KFSvon//5n8NWMdZnHTp0MFY18+bNo65du4aui4JAAAgAgaQIgExLiiDqNxIBkGmNRB99A4H6IAAyrT44opUCIgAyrYBKLcmQQKaVRNE+w5w4cSJNmjQpMggTJkwgrhv2You0TZs20bp168JWQTkgAASAQN0QAJlWNyjRUAMQyJJM27p1K5177rnUu3dvGj9+fANGiy6BQDERAJlWTL1iVHVAAGRaHUBEEw1BAGRaQ2B3qtOTTz6ZnnzyyUD3OBGYn3UnnXQSPf7446HHwK6b7MbJfbCrGi4gAASAQNYIgEzLGnH0V08EsiLT7rvvPpo8ebIh0Z577jkaPXp0PYeBtoBAqREAmVZq9WPwQQiATMP8yCsCINPyqrn6yh2GUItDpImUBx98MH3wwQf1FRqtAQEgAARCIgAyLSRQKOYkAlmRaZwUiK/169fTI488AjLNydkAofKKAMi0vGoOcqeOAMi01CFGBykhADItJWBz2GwQoZaESGMouD4SgudwUkBkIFAQBECmFUSRJR0GyLSSKh7DLhQCINMKpU4Mpp4IgEyrJ5poK0sEQKZlibb7fXkRakmJNJBp7usdEgKBoiMAMq3oGi72+ECmFVu/GF05EACZVg49Y5QxEACZFgM0VHECAZBpTqjBKSE0oVYPIg1kmlPqhTBAoJQIFJlM27X9z/TwVcOpz8grqUO3XoH6/XT3Llo0YwytmHe7KXfkiQPp9KmzqanFIbHnxdY3X6UHx5xHW15ZRUOu+gX98ZU/0KDLp9O+zZpit+lXcemvrqGW7TtS11OHkf4cp6PVj8yl+eMu3Ktqv1HjDZZJL8H62KHnUFPL1vT0zVNo8NiZsbAGmZZUG6gPBBqPAMi0xusAEjiKAMg0RxUDsWoiADKtJkSlLMCE2hNPPEH9+/ePlGzADyy4eZZyGmHQQMAZBECmEQm507xNuwpZ9M7KZw0plYRQ4zbefP7JuhBQtSZMUgJNt89k2sYVy1Ij/nRfTDiCTKulXfwOBIqNAMi0YusXo0uAAG8U+148LkELqAoEGoMAv9zlJZYV32e4gAAQyBaBvDwfskUFveUNAdfJNG0lddqUO4zlFV9MHj1142TzWX+vLcy6nzWCtm96q2KZxuTWXcMHmjr8m1iJ+RFnmqCyLdfOn73YWLtx3Rfuu8W0uWbhA9Sm07F05vQ5tGvb+1V9dTnlX2jNY781fS6/6xf0/oa1tGbhPCP7tnffoM83HUCvP7uYXn9mMbEFGFuZsXWYtNfqiC9VSD+xnpMxrFsyv2JJJu2JlVpUubmfWmQa45JEXsaKrQBhmZa3pwXkBQLpIAAyLR1c0WoBEJg0aVIBRuHmEH79618bwb73ve+5KWABpJowYUIuRgEL0FyoCUIWCAFYrhZImSUfistkGhNVqxbcawioTz7aRQunXWoOaN9b8xKtXnCPsRr78IOtxpVyyNhZhtxiomfHlk2mzua1Kw2hxcQXuxM+du1ldMoV11GLQzsYMkcs0bgOX0EujHa7j04bXUWacR9tj+lW1a6Wn2WRsTCZJjKyyye3zWX1eI4eeIaRR8umP9surH5unnHkDkOmJZFXcAKZVvKHD4YPBP6OAMg0TAUgAAQyR4Ddzfh6/PHHM+8bHbqFAMg0t/QBaYqPAMi04uu4LCN0mUzzc120vxeSqef5l1QsnphY07G5tm16u8p1URNdTG6JJZeX3nU7ut3Duvemlu0Or3IHZSKKLc2YCAsi0zR5Z5NkQhqKlZi0p2WzZfIi044ecJonHrXk9ouZJtZ4SeXNM5lWlucCxgkEskQAZFqWaKMvIAAEDAIg0zARBAGQaW7MBR1smiXS7jn8t/6d3XN6fHskzR8/0gSn1i5HbowGUgQhADIN86MoCLhCpunnIz87vzn5NnrpgVuJiR9x7WTMhUTS3wuB1ePsi6oSDthkmh1UX5IMvHj/rUadfpZpXokMhLxiMk0sztjKLCyZpsk7TYRxX35kmr3GsMya4LITEBzVe9BeCRjCyB3GMk36iiMvyLSiPD0wDiBQHwRAptUHR7QCBIBABARApkUAq+BFQaY1XsESi0fH7pHTfdns1Pq78aOABGERAJkWFimUcx0BV8g0L5zqbZnmZeHF/frFTONnNl+1LLyyINPE6k5IxHpYpvnJXQ8yLUhekGmuPxUgHxDIFgGQadnijd6AABCAZRrmgEIAZFpjp4NsalgKCWjNn/X3HHz67ouGVgTtc9FYWnrrtMrfEjSaN3Ut2v0TcYBpJuFadexsLAs4KDVfQsw1dsToHWQa5kBREHCZTNOkDsdM42chW4+xy6ZfzDRdxy9mGrtP6lhirEsdQ00INomLZpfndnXMtEaQaXKAE2SZxhZ9QTHTsiTTtLwg04ry9MA4gEB9EACZVh8c0QoQAAIREIBlWgSwCl4UZFpjFSyuNxIwWkujA0tvWLbIZFzzs1ST7HTyu03Scca25XfOMkGveXOHq3EIgExrHPboub4IuEym8Uj9snaGzebZ7IDm1Kn/NyqZNyWbp7h4NrU4xABqZ7203fSDsmJmQaZJDDaRnzN+8iXulmL5HCWbZxCZZrvEcl8SjkDHmAty89TZU7W82tKPE0Nw9vTBY2eS6CLKDH/6lqk0oO1+lFbCqCzvjyjjRlkgUCQEQKYVSZsYCxDICQIg03KiqAzEBJmWAcgBXQiZ1vOC0VWxfbgKb3CEAOMMdLXINMmQxpsKu135W7LWNXbU5e4dZFq59V+k0WdJFnCG9yWbP6G+//dVRYIQY2kgAiDTGgg+ugYCdUIAZFqdgEQzQAAIhEcAZFp4rIpeEmRaYzVcT8s0TabpU309Qh2XrbEjL2/vINPKq/uijRxkWtE0Wq7xgEwrl74x2mIiADKtmHrFqICA0wiATHNaPZkKBzItU7j36ixMzDSOpcZumkks0xo7SvSuEQCZhvlQFARAphVFk+UcB8i0cuodoy4WAiDTiqVPjAYIxEbg7rvvpp/97Gc0d+5c6ty5c6h2du3aZWI9jBgxInQdbhhkWih4S1EIZFrj1SxWZBwXhmPb8GXHQKuVzVPHV2M3T8RMa7xe/SQAmeaubiBZNARApkXDC6XdQgBkmlv6gDRAIA4CINPioIY6QKBACDAhNnr0aOrbty9t2bKFTj311NDEGNedMWMGjRo1ilq1ahUaFZBpoaEqfEGQaW6oWNw9t7yyyghkB7COSqZxGxzcGdk83dCvlgJkmns6gUTxEACZFg831HIDAZBpbugBUgCBJAiATEuCHuoCgYIhMGvWrFBk2vr162nYsGH08ssvVyGwdOlS6t27d01UQKbVhKg0BUCmlUbVGKgjCIBMc0QRECMxAiDTEkOIBhqIAMi0BoKProFAnRAAmVYnINEMECgCAmHJNBkru4bu3LmTXnvtNeJMV01NTaFgAJkWCqZSFAKZVgo1Y5AOIQAyzSFlQJRECIBMSwRfQytLKIDDuvfeK5N0QwXLsHOQaRmCja6AQEoIgExLCVg0CwTyiEAUMm3ZsmU0Z84c4jrs6snX+PHjQw0bZFoomEpRCGRaKdSMQTqEAMg0h5QBURIhUFYyjeNcrlpwL3FymOV3/YJatu9YIaRs9/ruZ40w5fZtFu6w00shEleT3f//qUdfOrTrVxITYNzmm88/WYnTmWgi5LQyyLScKg5iAwGFAMg0TAcgAAQqCEQh05LABjItCXrFqgsyrVj6xGjcRwBkmvs6goThECgrmabR4eQvQqYJkdZ16HcqZBfHu9y4YlkiQo3b4KvrqcPCKQalQiEAMi0UTCgEBJxGAGSa0+qBcEAgWwRApmWLN3ojApmGWQAEskUAZFq2eKO39BBwnUyTrMiMwGlT7jBklLg3tj26G714/63ESV/4t23vvkFP3TiZjjxxIJ0+dTZxVmTbykwyLvtZpnkRZ9LfsUPPoQ7depFYmbFM2mqNZf145w56/dklRib5bd2S+TR/3IVGidw/X0zeHT3gNFo0Ywzt3rGd1iycR+fesoDWLPothRmXyLRi3u2mvfNnLzayle0CmVY2jWO8RUQAZFoRtYoxAYGYCHiRaezOKUkF9OeYXZhqsExLgl6x6jKZhgsIAIFsEdizZ0+2HaI3IJACAi6TaZrY2v7eO/TgmPNoyNhZ1PaYboaE4ovdLzevXUl3DR9oCDUhqDiOmP7MJBxnXH7s2svolCuuo13b3t/LzdMu7wW3ZG3WcjRv0864WjKZxkQbE3kffrC1Ii+TXDwWJvuknCbTpL4QZLXGxWPhvvji9rjPR6eNpjOnz6FWR3wphVnibpMg09zVDSQDAmERAJkWFimUAwIlQMAm0yRr5w033ECtW7c2GTz5c5iMnUFwgUwrwWQKOURYpoUECsWAQJ0QgGVanYBEMw1HwFUyzSu4vrhjepFkT988hQaPnWms0bTbpgaYrdQWTruU+l48LpBMEws0L+VoizaOocZ/c39MoLGVnBBctjVbEJkmCQTsMTNx5zWuo3oPooevGm6INCbq7L4aPqkyFABkWoZgoysgkBICINNSAhbNAgEg4I8AyDTMDkEAZBrmAhDIFgGQadnijd7SQ8AVMk0svtg9koP0f3PybfTSA7eSuDEKAuwm2fP8S4xlmpBefqQTW3Bpl0xug9tmC664lmm2G6jum8k0ib0WhUyTcdh1apFprz+zuGpiiBtserPFvZZBprmnE0gEBKIiADItKmIoDwSAQGIEQKYlhrAwDYBMK4wqMZCcIAAyLSeKgpg1EXCFTLMFDbK2iko6iQVXLcs0Jt/8kg2w9dkRJ5xkxJQsoF6WaVmRaWJhVza3TnuegEyreYujABBwHgGQac6rCAICgeIhADKteDqNOyKQaXGRQz0gEA8BkGnxcEMt9xBwlUxjpDSx9clHu4xrI2fZFDfPWpZptjskt7f8zlm+lmlMpvll81y94J69YqFJ7DYdMy0LMs2OmabjuJUtCQHINPeeKZAICERFAGRaVMRQHggAgcQIgExLDGFhGgCZVhhVYiA5QQBkWk4UBTFrIuAymcbC62yekokzrGWaWJpJJs2vX309bV630riH8iUWZsvv+kXFPZO/tzOA6uyg/HtQNs+syDQ7m2cZXTxZFyDTat7iKAAEnEcAZJrzKoKAQKB4CIBMK55O444IZFpc5FAPCMRDAGRaPNxQyz0EXCfT3EMMErmEAMg0l7QBWYBAPARApsXDDbWAABBIgADItATgFaxqFDJNx4xpcWiHShDnVh07V7KclT0GS8GmB4aTAgIg01IAFU02BAGQaQ2BHZ3WCQGQaXUCEs0AgQYiADKtgeCjayBQVgRAppVV83uPOy6ZpkkzTbKBTMPcAgLBCIBMwwwpCgIg04qiyXKOA2RaOfWOURcLAZBpxdInRgMEcoEAyLRcqCkTIcOSaTrGSptOx9I3J99GLz1wK3UZ9C+0ZtFvacW820l/v3vHdlqzcB6dP3sxSaBlLsMXf1e2QMeZKBOd5AIBkGm5UBOEDIEAyLQQIKGIswiATHNWNRAMCIRGAGRaaKhQEAgAgXohADKtXkjmv52wZBqPNIybp7h/SoYyrsdBoPnqM/JKE3z50WmjTUY0WLHlf/5gBNERAJkWHTPUcBMBkGlu6gVShUMAZFo4nFAKCLiMAMg0l7UD2YBAQREAmVZQxcYYVlpk2mHdexNnQ5PMZkyksTWanUkthsioAgRyjQDItFyrD8IrBECmYTrkGQGQaXnWHmQHAp8hADINMwEIAIHMEQCZljnkznYYRKaxRdlTN042svcbNZ56nH1RJdGAXwIC/T2TZ0Kmvf7M4ioMTptyhyHbcAGBsiEA4I64zQAAIABJREFUMq1sGi/ueEGmFVe3ZRgZyLQyaBljLDoC/9Cz70l7ij5IjA8IxEXg2aeeiFsV9QIQAJmG6SEIpGWZduzQc4wlGpITYK4BgWoEQKZhRhQFgUaQaUXBDuNwA4EBbfejCRMmpCJMlvdHKgNAo0AgBwj8AxHt+e6vHs2BqBARCGSLwG9GDqE9e8A1p4E6yLQ0UM1nm2mTaYyKjpm29c1X6cEx59GQsbOQhCCfUwZSJ0QAZFpCAFHdGQSyJAsmTZrkzLhdF2TixInE/3CFQwBkWjicUAoIuIiAIdOuWrHTRdkgU0oI8MaSg3CfPnU2NbU4JKVe8t8sNhzp6RBkWnrY5q3lKGSaxDt79w/PVbJ5sgWaZOu0v5eMnToTKOMDF8+8zRLIW08EsLbVE0201UgEsiTTGjnOvPXN6zoOoxuvNdwfjdcBJCg+Ag0n01Y/Mpfmj7uwCukjTxyYKdHDxNJdwwfS+bMXp2qpoOP/NGpDF+Ty9Nxvrqej+gxBhru/z0ZsONJ7AIJMSw/bvLUchUzL29ggLxBwEQGsbS5qBTLFQQBkQRzU0q8DMi19jMP0gPsjDEooAwSSIeAEmbb8zll05vQ5hsQRC4Ltm97KlFBLBmNwba8xiavR0QPPIM4y1+iLSU2th0bL40L/2HCkpwWQaelhm7eWQablTWOQN+8IYG3LuwYhvyAAssDNuQAyzQ294P5wQw+QotgIOEemMdxCNPW8YHQl25q26up+1ggadPl0o5lFM8aY/5sd0JyW3/lzatPpWOr3g6vpqZt+SlteWWUywAlZJe3y93yJq4+2TBN3Id2mtpSL4y4U1vJNW+npPoXo4kx2//vTHxnZv3719bR53UpaMe920mXFhbNFu38yv/GlLe50H4Lj5rUrjWWeXFxecJA2BCsZvx8+/L2XrvZt1rRXVj0tl1+dRt5+2HCkhz7ItPSwzVvLINPypjHIm3cEsLblXYOQH2Sa23MAZJob+gGZ5oYeIEWxEXCSTGNXxIevGm5cLpkI0zG+WB3yW8/zLzFkGsfJYcs2vjiw9IGt/9FYtW1Ytsi4kGpySDK8cZvrFj9k6u3a9n7FzVPH3tFtCrGnZdn6xvpQ7qFhYpRpy7AWh3aokIRMGq5bMt+MgwmtowecZn5jkovH1dSytRmzWLgJKaXHLFZ+Wt5WHTtXYWxbpvmNsxY+3M7qBfcY/D/8YKuRjbETuVlHMiaxhNP4y3g0kdqoWxAbjvSQB5mWHrZ5axlkWt40BnnzjgDWtrxrEPKDTHN7DoBMc0M/INPc0AOkKDYCzpNpbI2liTVWhxA/35x8G730wK1GQ0zQfPLRrqqyXhZh2jqNrdj8yDQhoDR5Z8sipF/Xod+pWNB5TZdaZJq29uJxsBWXln3bprerXDD9yEWbeOTkArqdN59/sirxALezY8umvcitLxzcqgpHPU4hxbzwEXKzeZt2e7mu2taGOqMeYyaWcWnHrYtyO2PDEQWtaGVBpkXDq8ilQaYVWbsYm4sIYG1zUSuQKQ4CIAvioJZ+HZBp6WMcpgfcH2FQQhkgkAwB58m0YwZ9q2Ld1PXUYWa0ccg0scT66/t/NATae2teqhBUXpZpXgSdyCJuogK9diWNQ6bZlnjcRr3JtHNvWUBrFv224vopcoqLKFvxiaUY/8YWZV7jFMLMCx8v4lP6kfHY+NjWdvK7C6QaNhzJHi5BtUGmpYdt3loGmZY3jUHevCOAtS3vGoT8ggDIAjfnAsg0N/SC+8MNPUCKYiPgJJmmrZiO6j2oLpZprEadsVO7NYYl04LIoqBpUitmWqMs07TMGg/bMk2Xs2XV1oA20cYWdnJ5xcHzwkxiumWd0dVLFmw40nv4gUxLD9u8tQwyLW8ag7x5RwBrW941CPlBpjVmDmzdupXOPfdc6t27N40fP95XCJBpjdGP3SvINDf0ACmKjYCTZJrtFlkrZhqrqJabp47FJQSdWKmFJdNsN8qwMdPCZPOsFTNNZ9qs5eb51I2Tq+KrpREzzQ9zP1LOJto4DpyMSVsJ2vHiNCGX9a2IDUd6iINMSw/bvLWchEzjgwp+HnKMRnZrT+OS57fE2/Trgw8Mnr55Cg0eO9PEi5TPacmVxljRZjkQwNpWDj2XYZQgC7LT8rJly2jy5MmGRHvuuedo9OjRINOygz9WT7g/YsGGSkAgEgJOkGkcXF9fXlZJOtujuFUGWUkx8WVbhOk2ugw+i9YsnGeC+PMlVms6m6cXQRcnm6eMTffP39nuoV6ZNplMCkoOwO14JWs4stdAWnzdlSa7Kbu1tjriS0YMvz50LDkv10uvbJ5e+HAfSbN52jJHmtF1LIwNRx3BtJoCmZYetnlr2XUyLSyemkwDgRYWNZRrBAJY2xqBOvpMAwGQBWmgGtzm+vXr6ZFHHgGZlj30kXvE/REZMlQAApERaDiZFlliVAhEoFayA8AXHgFsOMJjFbUkyLSoiBW3fFQyTRP/fCDBhyZimaZjM3Y/a4SxWNYJXRhF+7BGk/86C/LuHdvNgYvEm2TLNLZwZouzdl17VB1WiGv8688sNu33+8HV9NxvbjBWajoRDPcvcvFnzszMCVvYmpivWvE3izsLMLIsEcDaliXa6CtNBEAWpImud9sg07LHPG6PuD/iIod6QCA8AiDTwmPlW9K2VtMFs7ayAplWB4X+vQlsOOqHpd0SyLT0sM1by1HINDuDsn7esWvlY9deRqdccR2JuzgTVRzrcuG0S6nvxeOMhS5b5/LFCW3487Z33zDZh8WybMClU411rWQl1m6eEi7g6IFnmDpcf+OKZYa02/7eO55uniwXJ3QZMnYWieUzt227vm9eu5IenTa6ypI4b7qEvPlAAGtbPvQEKWsjALKgNkb1LgEyrd6Iptce7o/0sEXLQEAQAJmGuQAEfBDAhiO9qQEyLT1s89ZyFDLNdqXUf3NGYiG2xBpt1YJ7qc/IMbRk5rgKmSb4+MVCk+8P697bEG42mSaEHRNzTO4JUcftesVM49iaLIe2kmOybuiEmwxpJ/3otsQtP2+6hLz5QABrWz70BClrIwCyoDZG9S4BMq3eiKbXHu6P9LBFy0AAZBrmABCogQA2HOlNEZBp6WGbt5aDyDQ7VuYRJ5xUlXDAJtP84m+KddiWV1ZV3CwlEzFbmHXo1qsCm02y2WSaTiwQhkyzST7bAk4SG4BMy9vMza+8WNvyqztIXo0AyILsZwTItOwxj9sj7o+4yKEeEAiPACzTwmOFkiVDABuO9BQOMi09bPPWcj0t08RlMwgDce0UN0s7S2ctMk1bpjExJn9zn3Es00Cm5W3G5l9erG351yFG8BkCIAuynwkg07LHPG6PuD/iIod6QCA8AoZMO/wrfcPXQEkgUBIE3n7hadqzZ09JRpvtMEGmZYu3y71FIdNsF0y/mGnsJsm/7diyiXp8eyQ9c8d1lWQAOmYal+FLYqYxMfa1H0+llx64lYTk8oqZ1vOC0ZWYa0ljpoFMc3l2FlM2kGnF1GsZRwWyIHutg0zLHvO4PeL+iIsc6gGB8AgYMu27v3o0fA2UBAIlQeA3I4eATEtJ1yDTUgI2h81GIdN4eDqb58DLrqGtb71K/X84ca+smTprJxNo4gKqs3zayWN0Nk8/Mo2tz5o1P4hWzLu9KjOoJEdgGaNk8wSZlsNJm3ORQablXIEQv4IAyAI3JwOv6ziMbrxucH80XgeQoPgIwM2z+DrGCGMigA1HTOBCVAOZFgKkkhSJSqY1EhY7AUIjZUHfQCAuAljb4iKHeq4hALLANY18Jg/INDf0gvvDDT1AimIjADKt2PrF6BIggA1HAvBqVAWZlh62eWsZZFreNAZ5844A1ra8axDyCwIgC9ycCyDT3NAL7g839AApio0AyLRi6xejS4AANhwJwAOZlh54BWs5T2RawaDHcEqKANa2kiq+gMMGWeCmUkGmuaEX3B9u6AFSFBsBkGnF1i9GlwABbDgSgAcyLT3wCtYyyLSCKRTDcR4BrG3OqwgChkQAZEFIoDIuBjItY8B9usP94YYeIEWxEQCZVmz9YnQJEMCGIwF4INPSA69gLYNMK5hCMRznEcDa5ryKIGBIBEAWhAQq42Ig0zIGHGSaG4BDilIiEIlM42xlC6ddSn0vHketjvhSFWCSyazPyCupVcfO9PBVw+n1ZxZXleFMaR269UodaASJTh3iUnSADUd6akbMtPSwzVvLINPypjHIm3cEsLblXYOQXxAAmebmXACZ5oZecH+4oQdIUWwEUiXTmFgT8owJrgfHnEdDxs7KhFArttowuiwQwIYjPZRBpqWHbd5arjeZ9s7KZ2npr66h06fOpqYWh+QNDsgLBFJHAGtb6hCjg4wQAFmQEdARuwGZFhGwlIrj/kgJWDQLBBQCici0T3fvokUzxtCKebdT97NG0PZNb5G2TNNkGve5+pG5tHHFMhp0+XTat1kT8abnruEDjThcn7/ni9tse3Q3evH+W2nLK6votCl30LZ336CnbpxMR544sLJJEms4sYDrN2q86V9bpm19Yz29cN8tpt01Cx+gNp2OpTOnzzGWdVp+/j0ryznMwHwggA1HenoCmZYetnlruZ5kGj/Tn7rpp/TlM763l/W04CLP/WOHnhPpYMdev/KGM+QFAoIA1jbMhaIgALLATU2CTHNDL7g/3NADpCg2AonIND7937FlkyHBNq9daYgxJqTEzdMm0zTJ9eEHWyuWam2P6WYItOZt2lHP8y8xn/nS7TKhdvSA08xvh3XvXfW566nDDIH22LWX0SlXXGfqPn3zFBo8diYxmSZy6X5YNpafL/7MxN6j00ZXiLZiqx2jC4MANhxhUIpXBmRaPNyKWKueZFqa+IBMSxNdtJ0lAljbskQbfaWJAMiCNNGN3zbItPjY1bMm7o96oom2gIA3ArHJtBaHdjDElpzu69P+MGQak1yrFtxbZaXG5NbQCTcZkosJMyHJhBhjlx3+rWX7juY3fel4bjaZpl1+eEPEVm49zr7IxHUTwi+utQImVnERwIYjPd2CTEsP27y1HIVMkwOZdl170OLrrqyyNOZxB1k7796xndYsnEfn3rKA1iz6bWXtkhAEbAWtLZ91e2zRfGSvAbR7544qC2q2yuYLVs15m3XllhdrW7n1X6TRgyxwU5sg09zQC+4PN/QAKYqNQCCZxiQUu1byxS6UTEBJAoIvHNzKl4zyI9N0LJsNyxZVuXzKJmnApVMNYSYknZ1MQJNpeuPEMooLp02madLOJtPsJAlsAWcTdcWeAhidHwLYcKQ3N0CmpYdt3lqOSqZx7M2jB55hDkK0tdj2996pWCfLYY+2dubPXMfr4Kfr0O+Y5762tub2JM6nWDUztmwxvfyuXxiYYdWct9kGeRkBrG2YB0VBAGSBm5oEmeaGXnB/uKEHSFFsBDK1TNMbH3YLDbJMq0WmHdV7UBWZF2SZ5kem+WUmLbbKMbqwCGDDERap6OVApkXHrKg1opJp4s7PcS/1c/+9NS/tFZOTn/0n/2gSPX79hIq1sybTmlq2roQEYMtnHS5g17b391qjuL0+I8fQgkmjYNVc1AlZgnFhbSuBkksyRJAFbioaZJobesH94YYeIEWxEYhNpvFGxibHgmKm2dk89d9eMdOikmksy/I7Z5mYZ3zpmGleZJodMw3ZRos90eOMDhuOOKiFq9OhQwfaZ5996K233gpXAaUKi0AQmWZbRx8z6FtV5JdNps0fd2EVTuy2KaEDvEIScGEdBiAMOSdkGqyaCzslCz8wrG2FV3FpBgiywE1Vg0xzQy+4P9zQA6QoNgKJyDQ7m2ezA5pTp/7fqCQgsDcbdlyZoPg2tcg0dslhAk02T1+/+nravG6lcQ/V1gZ2bDZx89TuPhL3Bi6exZ7sUUeHDUdUxMKX79+/P/HL1uOPPx6+EkoWEoEklmnakowt0zgeJj/b9WXHw6yHZdqSmeOo78XjfDOGFlJRGFRhEMDaVhhVln4gIAvcnAIg09zQC+4PN/QAKYqNQCQyrdhQYHRAoBoBbDjSmxGnnnoqbd26lX7/+9+n1wlazgUCUck0jmPW84LRJsaZX8w0tpyW+Gfi5hmULMcrZtonH+2qhBIIipkGq+ZcTDMIqRDA2obpUBQEQBa4qUmQaW7oBfeHG3qAFMVGAGRasfWL0SVAABuOBODVqHruuefSCy+8QOvXr0+vE7ScCwSikmnswt+s+UHEFsV+2Td54PLbfvs3+Wae7tCtl4mTxgRdUDZPbo+tnz/YuIH6/eBqgytns4ZVcy6mGIS0EMDahilRFARAFripSZBpbugF94cbeoAUxUYAZFqx9YvRJUAAG44E4NWoOnbsWLrtttvoT3/6U3qdoOVcIBCHTBs8diZxwgBcQAAIREcAa1t0zFDDTQRAFripF5BpbugF94cbeoAUxUYAZFqx9YvRJUAAG44E4NWoOnfuXPrud79Ln3zySXqdoOVcIAAyLRdqgpAFQgBrW4GUWfKhgCxwcwKATHNDL7g/3NADpCg2AiDTiq1fjC4BAthwJACvRtUPP/yQmjdvTm+//Ta1b98+vY7QsvMIRCHTnB8MBAQCOUAAa1sOlAQRQyEAsiAUTJkXApmWOeSeHeL+cEMPkKLYCIBMK7Z+MboECGDDkQC8EFU7duxIffr0oTlz5oQojSJFRQBkWlE1i3G5igDWNlc1A7miIgCyICpi2ZQHmZYNzrV6wf1RCyH8DgSSI1BoMo0DSz927WV0yhXXEWd3wwUEoiCADUcUtKKX/clPfkLTp0+n3bt3R6+MGoVBAGRaYVSJgeQEAaxtOVEUxKyJAMiCmhA1pADItIbAvlenuD/c0AOkKDYCkci0Xdv/TAunXUp9Lx63FznFvz181XDqM/JK4gxpfL2z8lm6a/jACoKnTbmDup46LDNEl/7qGjrihJMq8nDHTLBxNjgEsM5MDbntCBuO9FXXpUsX+uCDD+jaa6+lPXv20EEHHVTplF1Ae/XqRSeccEL6gqCHhiEAMq1h0KPjkiKAta2kii/gsEEWuKlUkGlu6AX3hxt6gBTFRiA1Mo2JtEenjaYzp88xxNunu3fRohlj6LDuvTMl1Gz1gUwr9oSu5+iw4agnmt5tPfLIIzRixAjatm1bxUKNX8I+//nP09/+9jf69NNPTcWjjjqKrrjiCvr+97+fvlDoIVMEQKZlCjc6AwKEtQ2ToCgIgCxwU5Mg09zQC+4PN/QAKYqNQCIyTQiyFfNup+5njaDtm94ylmltj+nmSZzZRJa2XOP6gy6fbtBm0q3t0d3oxftvpS2vrCK2aNv27hv01I2T6cgTB9LpU2fTfvs3eZYTyzfu68Ex55n6UofbZuu5159ZXPnuww+27lWuqcUhxqruhftuMfKsWfgAtel0bIUY5O/Y6o3l4ev82YuN9ZvGQ39f7ClU3NFhw5Fctx999BH97ne/o9///vf0hz/8gR588MGqRplI++///m9q164dffGLX6TjjjuOevbsSaecckqlHNedOnUq/c///A+deOKJ9PTTTycXDC04g0ASMo2f0/ws5jWBn9tpXTiESQtZtNsIBLC2NQJ19JkGAiAL0kA1eZsg05JjWI8WcH/UA0W0AQSCEUhEpvEmZseWTYYE27x2pXHpZGKpqWXrmrHKhOwaMnZWhXxr3qYd9Tz/EkOS8aXbZULt6AGnVUg6+cwEHm+kmBST+GhfOLhVlcuplnP7e+9U3Dy5D+2a6jceIQdZPiYLVz8y15B7/Flvspj844u/ty3zMBHzhwA2HOF0xoTZ/vvvX1X4xz/+Md144430ySef0H777UctW7Y0hNnKlSvDNepRat26dYZMY9fQpUuXxm4HFd1CIA9kmluIQRogkAwBrG3J8ENtdxAAWeCOLrQkINPc0AvuDzf0ACmKjUBsMq3FoR0MsXXs0HOqrLL4bybTasUlY7Jp1YJ7DWG2b7MmQz4xmTV0wk3mf3EHtS0C+LeW7TtWEWtijSa/tWx3eJW1gm6DSTeRbesb633L2b8JgSZkn4xbpocdM06s1OxyxZ5OxRodNhx765OTBqxatYo2bNhAmzZtor/85S90wAEHmLhn+vrNb35D//iP/0gDBgygz33uc3WbGNxv586d6Wc/+xmNHj26bu2iocYhEJVM01bH/UaNN2uHWKYlsXZmyzZ5jrP1Ml/cvn1owmuDn9UyrJMbN4/Qc3gEsLaFxwol3UYAZIGb+gGZ5oZecH+4oQdIUWwEAsk07crIm4oeZ19USUBgW39p8iiMZRqTUxtXLKuQaUJ4Dbh0qiG4hISqRaZpskqTaTrxAatQ3DT5sybT/Mrt2vZ+FdknZBpjYCda4DbtTZhMm6yTLhR7umY7urJtOD788MOKS6YQZvy/vjjG2bhx44xL5pe//GWTIIAJsyyv8847j5YsWWLIPFz5RyAKmSbP2a5Dv2Nib/IzX8g0cdlPau2sD3LE2tlr3WArbNtqmeXhC9bJ+Z+XRR5B2da2Iuuy7GMDWeDmDACZ5oZecH+4oQdIUWwEUrFM84uZxhuhJ345kfr/cCLx6X6QZVpYMk02PjrBAVum6ba1CjU5Z8ugy9mWc2Es0/wynRZ7ChV3dEXccAhh9o1vfKNKccuXLzfEGAf+F5dMJsweeOAB5xTMiQn22Wcfevnll02MNVz5RiAKmWYfrgQ9z6NaO9uZpnX2aptM03Ha/A5aYJ2c73lZZOmLuLYVWV8Ymz8CIAvcnB0g09zQC+4PN/QAKYqNQGwyjTN0ausyHTONg/H7ZfOUuGO1YqaFJdNYPewqyrHQ/GKmsZyrF9xTia0mlmlcV1uZ6XI20abjpGnrAx6H9Lt20X+Z2SJuQZwAga0kGA9c+UOgCBuOV199lc4880zavHkzbd++3WTHZMJs9+7d+VOIkphdSM8//3zj7okr3wgEkWm2dfQRJ5zk65q/YdmiRNbOTKZpN1FG1c+iWR/W2GSauIiKVmCdnO/5WUTpi7C2FVEvGFN0BEAWRMcsixog07JAuXYfuD9qY4QSQCApAonINDubZ7MDmlOn/t+okEf2xkTiz4jQQfFtwpJpTM7ZWTW5fR1XR2fiFDchLiOJCyTrpy7nZ5nGRJlfXBz7e2yikk7PxtZ3ecPx17/+lR5//HGTJVNcMpkwe/PNN+nAAw+sAu7ss882FlyNcMlMS4N9+vQxpCBnCsWVbwSyskyrtaYc1XtQ1eFKkGWaH5kG6+R8z8WySO/y2lYWHWCc9UEAZEF9cKx3KyDT6o1ovPZwf8TDDbWAQBQEIpFpURpOuyxcaNJGGO03esOhCbMRI0ZQx44dq5TSrFkzOvjgg02WzC996UuVGGYnn3xy4ZXHVmnPP/88rV27tvBjLfoAo5Bp2p0/asy0qGQaW5wtv3MWnTl9jlGBjrXpRabxQYtttQzr5KLP3nyOr9FrWz5Rg9QuIgCywEWtEIFMc0MvuD/c0AOkKDYCINOKrV+MLgECWWw4OBvmQQcdVCVlq1atTJZMcclkwmz69Ol0wQUXJBhNsaryC8L9999Pb7/9drEGVsLRRCHTGB5tdTzwsmto61uvmjicnI0zibUzk3NMoM0fd6HRwtevvp42r1tpkuHoDNVBIQBgnVzCCZzDIWextuUQFoicQwRAFripNJBpbugF94cbeoAUxUYgt2RasdWC0bmAQL03HFdddRWtXr2aNmzYYGKYMWHGMb9+/OMfVw136tSpxiWzDBZmcfWMF4S4yLlXLyqZ5t4IIBEQyBcC9V7b8jV6SFskBPAu4KY2Qaa5oRfcH27oAVIUGwGQacXWL0aXAIEoGw4mxiSGGRNmX/nKV+gnP/lJVe+HH344tW7dmjp16lRxyezfv38CCctbFS8IxdE9yLTi6BIjyQcCUda2fIwIUpYVAbwLuKl5kGlu6AX3hxt6gBTFRgBkWrH1i9ElQMDecGzbts0QZpwdU19MjnHWTI5h1rJlS2rfvr2JYXbfffcl6B1VgxDAC0Jx5gfItOLoEiPJBwIg0/KhJ0hZGwG8C9TGqBElQKY1AvW9+8T94YYeIEWxETBk2uFf6VvsUWJ0QCAGAm+/8DR16dKl4pLJMcwGDx5Mjz76aFVrTz75JJ100kkxekCVuAjgBSEucu7VA5nmnk4gUbERAJlWbP2WaXR4F3BT2yDT3NAL7g839AApio2AIdO++6tqcqDYQ8bogEA4BH4zcgj967/+K3Xr1s3EMOvXr1+4iiiVOgJ4QUgd4sw6AJmWGdToCAgYBECmYSIUBQG8C7ipSZBpbugF94cbeoAUxUYAbp7F1i9GlwABbDgSgJdyVbwgpAxwhs2DTMsQbHQFBECmYQ4UCAG8C7ipTJBpbugF94cbeoAUxUYAZFoK+n1n5bO09FfX0OlTZ1NTi0NS6AFNZoEAyLQsUI7XB14Q4uHmYi2QaS5qBTIVGQGsbUXWbrnGhncBN/UNMs0NveD+cEMPkKLYCKRCpjGZtGrBvTTo8um0b7OmyAhuffNVevrmKTR47MxYZNTqR+bS/HEXVvo9f/Zi6tCtV2Q54lT4dPcueuqmn9KXz/getTriS5UmWKZt775BfUZeGafZRHVYpkUzxlDzNu1C929jyAJ0P2tEbJ1GHQCTkS3bd6Supw6LWrVu5bHhqBuUdW8ILwh1h7RhDTaaTONn3cYVyzJ7tjUMaHQMBP6OANY2TIWiIIB3ATc1CTLNDb3g/nBDD5Ci2AikQqYlhSwJmcYbo9UL7qlYhe3a/md6+KrhhkTKilDzGn8jyTQhN1mu/j+cGIqg9NpgMsG1Y8um0mw6seFIeienVx8vCOlhm3XLINOyRhz9lR0BrG1lnwHFGT/eBdzUJcg0N/SC+8MNPUCKYiMQikxjQuqJX07ci4hhkuau4QMrCIkFmLZM4x/ZKmrFvNtNOSljE2ZSp8/IMbRg0ih6/ZnFdOSJAw0p9uEHW+nBMefRlldWVb5j90kR5GLfAAAgAElEQVSu8/St02jn1i3U/rivktS1ibMo8rTr2oMWX3cltel0LA0ZO8u4a7Is/UaNN4ScyK3LnTl9TsUKTWMillyb166s4CTteJVjKz7u7+OdO+j1Z5eY8WprMCEGNTaMA8vkhY8ohts84oST6M3nn6yy9rItCDXh50Wm2cSkX7/SbrMDmtPyO39udMbYPTpttBnTaVPuqFicaQs4xlywFMu0Q7scb6wUmzU/aK85xOPzw7Eety02HPVAMZ028IKQDq6NaDUKmeb1/PV6TvM4gp6L8tzgZ86RvQbQ7p07zCGB33rVCFzQJxBICwGsbWkhi3azRgDvAlkjHq4/kGnhcEq7FO6PtBFG+0CAKDaZxhuVx669jE654jpDJGnyhckjcfNcftcvKtZM/D0TKkyY8KVdOTWxs/29dyq/cTltWaato3R7LEOYWGV+9bkfJqR6XjDaED1cbt3ihyqyylil3NEDzzAEkR43yy3lWhzaocq1UhNVGju7HPfL49AkIm8W2x7TzbR37NBzjIWdtNfj7It88WFyThOhTEq+/NCvqd8Prjbut1HJNB67kFxH9R5k+u069DsVvMRqTchDJk5F7u2b3jJj2vrG+ko8Of2ZSUFumy/GVZNptl6knyC863FzY8NRDxTTaQMvCOng2ohWo5JpYZ7TXzi4le/ziZ8b3IZ+rvK4mUzj9UqeQfx8lPVKu+w3AiP0CQTqiQDWtnqiibYaiQDeBRqJvn/fINPc0AvuDzf0ACmKjUAgmWZbngkU2rJIvtPEjJBpJ/9oEj1+/YQKASSxuw7r3pvE4kjiovmRaTbhoi3a7N9qxWqT/oWQsuWxyUGJccaE1MJpl1Lfi8eZ4epy+rf31rxUFXtHy7NuyfxKzDTb6kuX05s5LW9Ty9aeceRsAtHL4o8t0pigsuO5JSHTbP1pgnDXtverEjDo+GdBLryacNRkmsbbxlTHOqql/6i3MjYcURHLrjxeELLDOu2eopJpYZ/T+rDGfj7pmJ62VbRYNtvrRdo4oH0gkBUCWNuyQhr9pI0A3gXSRjhe+yDT4uFW71q4P+qNKNoDAnsjENsyjZtiwuOpGydXWtVujbxZ8XK7tN33wpBp2pWUOxN3QCZt7E1RUBZNr/hpfvJoYscm0/QmzSbTdOIDllVcVTcsW1RFpvmVe/H+WyuumHozJ3jbGUK9CE/bXVLriNsRMjQqmabJx5btDq8izDQOtl78yLT99m+qcgFm2cQNNsw8YYLSD8d6ZFHFhsPdRyZeENzVTVTJgsg0vcbws+GYQd+qOlTwe07bhH6YQw8dYkCPwevwKOoYUR4IuIQA1jaXtAFZkiCAd4Ek6KVXF2RaethGaRn3RxS0UBYIxEMgNplmW0QltUyz3SWFsGLrM7/MoDYZ5JdsgK0S2L3xxAsvD20pF0SmacsIbfHAlml+GTvteGR+5TTxFNYyzQ8f2xWXp4ht2afrajfLWjHTbEu5IMsPPzKNCUZtWeZnmebnDqyt/eJN/+Ba2HCkgWp92sQLQn1wdKGVqJZp+nkQ9tAjrGXakpnjjAUy3DpdmBmQIS0EsLalhSzazRoBvAtkjXi4/kCmhcMp7VK4P9JGGO0DgZAx07yA0mSaWBhxOY47EzZmml/cmqCYaTpbpxfR5pfN0y+2l18Mt6BNmo7Z4xczjTdjOj6bJn5skkuXYzfPlu07mjhkmkxr1bFzVWw06de2/tPjt8kq1o8mHPlvGb/EGOJ4bHYsOI6vxpeW85OPdgXGTLNJOhmTJvO0fNKe9B/GMk3HTLPxFpmT3OTYcCRBL926eEFIF98sW0+DTAuKmSbPGn7OSUxHWbu0m70kMODYao3MBJ2lLtBXORDA2lYOPZdhlHgXcFPLINPc0AvuDzf0ACmKjUAoyzQvCITo4Syd7FbIQe3XPDqP2G1Tk1xc1yubJ38vmRy5PgfS37xupSHjZLPDZexsntqF0S9Gls4QyW1oNx0tN//ml120lsWDZJcUN05xK9Rul/o3+d4rm6cu52eZxps5v+x0+nvBRxIbcHw6Jub0ZZN37AbKMhzZayB9vGtnhUyzXSh1ZlFur1Y2T9alZCj1ItO4DU5iINlJj//2SNqw7LFKIHCuExRbT5IoiBuwrYukty42HEkRTK8+XhDSwzbrltMg05hcD5PNk8f69auvpw82bjBrmL1ewcUz69mA/rJAAGtbFiijjywQwLtAFihH7wNkWnTM0qiB+yMNVNEmEKhGIDaZFgRkvQPBu6S0oAD6LskJWZIjgA1HcgzTagEvCGkhm327Uci07KVDj0CgeAhgbSueTss6IrwLuKl5kGlu6AX3hxt6gBTFRqDuZJoEjBaLr6LBBzKtaBr1Hw82HO7qGi8I7uomqmQg06IihvJAIBkCWNuS4Yfa7iCAdwF3dKElAZnmhl5wf7ihB0hRbATqTqYVGy6MrkwIYMPhrrbxguCubqJKBjItKmIoDwSSIYC1LRl+qO0OAngXcEcXINPc0wXuD/d0AomKhwDItOLpFCOqEwLYcNQJyBSawQtCCqA2qEmQaQ0CHt2WFgGsbaVVfeEGjncBN1UKyzQ39IL7ww09QIpiIwAyrdj6xegSIIANRwLwUq6KF4SUAc6weZBpGYKNroAAEWFtwzQoCgJ4F3BTkyDT3NAL7g839AApio0AyLRi6xejS4AANhwJwEu5Kl4QUgY4w+ZBpmUINroCAiDTMAcKhADeBdxUJsg0N/SC+8MNPUCKYiMAMi2Bfj/dvYsWzRhDh3XvTV1PHZagJVR1EQGQaS5q5TOZ8ILgrm6iSgYyLSpiKA8EkiGAtS0ZfqjtDgJ4F3BHF1oSkGlu6AX3hxt6gBTFRiATMk1nwPzwg6309M1TaPDYmdTU4pBE6O7a/md6+Krh9Pozi0073c8aQYMun077NmtK1G7Yyu+sfJbefP5J6jPyykoVlmnhtEup78XjqNURXwrbVOJyqx+ZS/PHXVjVTlg8WD8PjjmPtryyqlK/Tadj6czpczIZA+O4asG9meouDODYcIRBqTFl8ILQGNzT6DULMo2zTLds3xGHHmkoEG3mDgGsbblTGQT2QQDvAm5ODZBpbugF94cbeoAUxUYgczItKYEm6hAirevQ71Q2SEwobVyxrKGkTCPJNHvsvIHcsWVTTTyYTHvs2svolCuuq5BnTHA9Om10ZoSai7cZNhwuauUzmfCC4K5uokoGMi0qYigPBJIhgLUtGX6o7Q4CeBdwRxdaEpBpbugF94cbeoAUxUYgFJnGBNETv5xI/X84sWJNJgQMw8MPzdOnzia2OhMLpyNPHGi+40usx/i7fj+4mp77zQ3GMm3rG+vp6Vun0c6tW6j9cV81pM/mtSvpruEDTT2xrOLP7E65e8d2WrNwHp0/ezFt2/T2XsSZuF0eO/Qc6tCtF2mLK5GHyTyxhGp2QHNafufPiX9j6zImj9g667QpdxiCzqscj4nbkL5WzLvdyMoytT2mm5GTvxPLrhaHdqh8J+VENrbQa9b8IFNe/8aftezawoxlsvFhSzwvIlEIRx5bU8vWVRaB2hps+3vv7EWmsQxMxvEllnf891M3TjbfCUZiddiuaw9afN2VZtxDxs4yddlisN+o8ZX6WnY9Xi3L8rt+QR/v3EGvP7vE6EKP3U+fad2i2HCkhWzydvGCkBxDV1qIQqbJ88bvuaktdOUZ/N6alypWu/zcatnu8CpLWK6z7d03qOf5l+y1zuhnuv2MdgU/yAEEoiKAtS0qYijvKgJ4F3BTMyDT3NAL7g839AApio1AIjKNiTMmTpgc0sQN/62topisEddO7ebJZJq2ftIWUkJCNW/TrrLJ4c9M7ISJVWZbrml5hLDTBNj2TW8Z8o9l4rLymYkrIY40uaQ/ayuuLxzcqsrN068cTyvGr+cFow1xp+X75KNde7XBLkqHdjm+QnppfBgTP6s8cW/iutq9NgyZpsusWzKfVi+4p4o0Zd0zSWePY93ih4xFG19i8aY/s/urlpf1IW6eTKZxv5qc5X5adexsSFkeqz2/0nLrxYbD3Yef3wvC3XffTT/72c9o7ty51Llz51AD2LVrF02YMIFGjBgRuk6ohlEoFAJRyTS/5yY/R+TZzQce9vNa3Dxtt3KbTJN1hoX3e35n6cIfCkQUAgIREMDaFgEsFHUaAZAFbqoHZJobesH94YYeIEWxEQgk02xLIoGCySVN7PDGgsvqjYxfnDSbTNN1bEJINj0n/2gSPX79hEqgf9sCzUtFun/eWGmibte29/fadMlGS9fTxJq0wYTUSf/PeFp4zaUVYkfLw6SPxExjYk0TQLock1DatVJv8DS5pIkiP3zYoo/JLi8X13qRaUxy6ZhDssk8ZtC3qsYhG1MmvYJcXv3Gy/3wpUlTtjSUja1YBtr6TeM2xYYjDVTr06b9gsCE2OjRo6lv3760ZcsWOvXUU0MTY1x3xowZNGrUKGrVqlV9BEQroRGISqb5PTdtUl0/i3TMtFpkmiSUsQ+Iwqw7oQeNgkCggQhgbWsg+Oi6rgiALKgrnHVrDGRa3aBM1BDuj0TwoTIQCIVAIss029JJ3A+lZ3Gz4b/9LNN04HmvIPrsgjl0wk2G/BL3zTCWaTa5p4kdJtN0v3qjZZNpupz8JmSaJD7QJONRvQftRaZ5lQuyFPMjxvzwYYJpw7JFvm6vvDmMY5km5J1NZvJ4ZaPKZJqeB0FkmnYT5TbEhdO2TBPSTm9eubzf/ErLSgQbjlDPkIYUCnpBmDVrVigybf369TRs2DB6+eWXq8awdOlS6t27d0PGVcZOg8g0/cxgl3H7eaOJMcZO3OwFR3Ezj0KmyTpjJ7jRz3lkby7jTC3OmLG2FUeXZR8JyAI3ZwDINDf0gvvDDT1AimIjUFcyzS8jo5+VGlt+2WQax67R2TEZfi+LgCC3xiNOOGmvGGG2ZVpYMk1bzglBN/jKmfTkDZM9M3Zq0s52+dRTybasCmuZ5oWPkFu2ZVpQzDSNX5iYaXY2PG2ZFoZMs60BgyzT/Mi0rDN+YsPh7sOvHmSajI5dQ3fu3EmvvfYaTZo0iZqasskG7C662UoW1TLNz13dPoQIa5kmzzKJmabJtEZkZs4WffRWRgSwtpVR68UcM8gCN/UKMs0NveD+cEMPkKLYCIQi07wgsMkg2yWGNzI6xlYYyzQ7q6TEERPLKNnksDx+2TylTy7DLpaS7dOOmRaWTGNrKI6tJnG6uF0m+3QsHQmML7G99AbMr1yUhAB+LpV6TF7WbHbcOolxJ0G1eSzsIupFptnZPG19Slv2OPws0zSZtt/+TcaCRPoPY5lmx0zT8tQrQ6w9z7HhcPfhVy8ybdmyZTRnzhxiazZ29eRr/Pjx7g68gJKlQaZx3El+/vNzW57XOmaaxOoUV3wuZ5NpDLXf85vL4wICeUUAa1teNQe5bQRAFrg5J0CmuaEX3B9u6AFSFBuBupFpDJPOtigunuyCJ8QXl7GzedrWRjpOm2TgFPJFk2maUBM3Sp2x05bHK5snE0kcZyfIzfOF+24xM2DNwgeqMkva2TwlSYF8/+4fnjNB+O1snnYWTM5qqjOMikx+WTu98OH6Xi6gOhMmj0HKsG56nH0RbV63skKmSRZWme5af/KddrnyG4cfmaZx4LZ5Hqx5dF4lq6tOQOBlmWZnZ/WSr963KjYc9Ua0fu3Vi0yrn0RoKS4C9SLThEDj9YCf98d/eyRtWPaYecbxYcP8cRdWJZPhzMRc7sheA+njXTs9yTS/53zcsaIeEHABAaxtLmgBMtQDAZAF9UCx/m2ATKs/pnFaxP0RBzXUAQLREIhNpkXrJp+l7UDV+RwFpI6LADYccZFLvx7ItPQxzqqHKGRaVjKhHyBQZASwthVZu+UaG8gCN/UNMs0NveD+cEMPkKLYCIBMC9AvyLRiT/5ao8OGoxZCjfs9KpnG7pySVEB/btwI0LMgADINcwEIZIsA1rZs8UZv6SEAsiA9bJO0DDItCXr1q4v7o35YoiUg4IcAyDTMDSDggwA2HO5OjShkmmTtvOGGG6h169Ymgyd/RsZON/QLMs0NPUCK8iCAta08ui76SEEWuKlhkGlu6AX3hxt6gBTFRgBkWrH1i9ElQAAbjgTgpVwVLwgpA5xh8yDTMgQbXQEBIsLahmlQFATwLuCmJkGmuaEX3B9u6AFSFBsBkGnF1i9GlwABbDgSgJdyVbwgpAxwhs2DTMsQbHQFBECmYQ4UCAG8C7ipTJBpbugF94cbeoAUxUYAZFqx9YvRJUAAZFoC8FKuiheElAHOsHmQaRmCja6AAMg0zIECIYB3ATeVCTLNDb3g/nBDD5Ci2AiATMtQv5zQYOmvrqHTp86mphaHZNgzuoqDAMi0OKhlUwcvCNngnEUveSHTPt29ixbNGEOHde9NXU8dlgU06AMIpIIA1rZUYEWjDUAA7wINAD1ElyDTQoCUQRHcHxmAjC5Kj4BTZNrqR+bSxhXL6OQfTaLHr59Axw49hzp062UIqKdunExfPvN79A+0h4477TzzfdSL258/7sJKtfNnL47VTtR+uTxvxJ666af05TO+R62O+FKlCR5by/YdndicbX3zVXpwzHm05ZVVFfnadDqWzpw+p0pmr/Hv2v5neviq4fT6M4urfs4KY5b96Zun0OCxM+tGVGLDEWemZ1MHLwjZ4JxFL3kh0/gw5M3nn6Q+I6+swMLPvYXTLqW+F4+r+YzMAkv0AQTCIIC1LQxKKJMHBPAu4KaWQKa5oRfcH27oAVIUGwEnybRBl0+nfZs1GeT9SKioamEibfWCeypWYUL+8MYoDjEXtX+/8q6RaY9dexmdcsV1lY0hbyAfnTa6JqHmhaeQc0PGzmooxnF1hQ1HXOTSr4cXhPQxzqqHvJBpfocIINOyminop14IYG2rF5Jop9EI4F2g0Rrw7h9kmht6wf3hhh4gRbERCEWmMVHyxC8nUv8fTqxY/YglULuuPWjxdVcSWzAxacLkEFsn9Rs1vnKCry2ejjxxYJWbI5M1dw0faOof2WsA7d65o2KZ1mXQv9CaRb+lFfNuN1o495YF5m+xWPNrl9t8+tZptHPrFmp/3Fepz8gxtGDSKCOPJs643KoF9xKTd3yxC4/0JRZVYcfpVU5bdMk4uZ/uZ40wfa5bMr9iKXfalDuMdZpXOSYWGdePd+6g159dYizHpA3+TVuFaXz98BF3JRmr9M3lbTKN5eW++WL8NPkn7bA+WnXsbCzTbIzF2lAI0qDxfb7pAHr92cWV+cMWe2xJqK3j/j/23j36quo6G14djUW0KAnEKmrr5U1EXmJEPi2K14ii0hhNoozq8IYDRqSmeVFHEJECg0Q0VTCvMUYaL2g0aSSNcXx0iECMGgifiYCXIhjxLlgqEcpA1LSDb8yVzpN5Fnvts27n7Ntz/uHHOesy57PW3HvtZ8+LKTvjsHXjWy3PtM2vrlO/+dGdWuY1ix5q68/6kKcjfVj3LDPHA0d5L344IJR3bXwl8yXTfK93fJ3vs2c/tWL+rYqukXSdopcEdC2V1166H8h2HJJvXnfo/rDv4Ue27hl8jdp7vwNy7yN9+u21yz2G8JLXanltt10v5ffmPdUXf7RvHgK4tzVvzeuqMc4C5VxZkGnlWBfYRznWAVLUG4EoMo1CAkdcMkmTQESyrF3ysPZgog+TMnt8fIAmWYaOuaDVbtumDZpMIgKExiASjh9MqK8M8+TvibCRf5vkDc3P477z4uo2byqXXGW2/iSPi57cbvCoc/SDmiSRSE/Ggx+2+u0zaBdySpJZWe1ID3q4e/+9zbvgxgQjzbvl7VfV8PMntJFbUj8i8agNySmJUho3i0yTpOOK+77dCkt1IdNk+GWW3BIHUz/G0iTzmNiT3nB9+w9sI9OIoJUPvDyPuS68/7K8E/HAUd6LHw4I5V0bX8l8yDR5zSGbNa93WfcZuh+Y14OtG17X11Ii3jmPJf1N7Zhcs113pLcu3d+kZ5rsI9tl3Uf4fvX7D3bsMga9SNhvyFGZ9w26tss5CQP6II+b785rbnvc25q79nXTHGeBcq4oyLRyrAvsoxzrACnqjUAumSbffksY6GFDHvQpBxg/1DBBw4d96idzWUnCaMeWd1ueYeRhxaSNC5lG48pk/pK0kQ9IlOhfkkEcPir1MR/QZKJpHz0lESVz6Wxcs1LngpPeWewRJ8mpLC8u2Y5JJCmvJJFkUQOTQJT4rF+2uEWmSRxsnmmpyDRaF9aH15vX8Jkfz9OimPvH3Fu2dTPJNLk3eG+OuPhruyQQzwuzxQNHeS9+OCCUd218JfMh02y5Ec3vzfuMvB5Im8+7b/BvJ/3dNLXoxqtaXrfmSwS+1/GLI/bONa/T8v4gr6lE9snrIuNnux+Qp/XSOVORp813o6F9CwHc27AZ6oIAzgLlXEmQaeVYF9hHOdYBUtQbgSjPNEmS2cg0Iszkg4wLyeRKppEXgfxwqE0WSZdXRTMr3xc/cBGZ5qKnSRqaesrCB9SWQ3OIROICBGaBBFs7+ZBmkoqMRxYRKsMluagDtZchrVmeafKhztczTZJ6ROJJUlE+yEoczKTecm9lFUkg+U0yTT6cmmQah7cyVjIkWe4nPHCU9+KHA0J518ZXsjwyTV6nyE4POvqkzIrI5ssDeQ0x7wd5ZJq8bphkmllchV4qHTrytJaXGJNpWe3M+4gk08hTWF4XJZlmu2+wl68Z8u+LPdo3EwHc25q57nXUGmeBcq4qyLRyrAvsoxzrACnqjUDXyTSTZErpmZb1Np/mMz3RbMUGSJZnH75XHTfumrbqoaZnmiuZJokoqSd5pnFYpbmd5IOdJI3y2rl6ptnwkWPLh0763idnmsTVJWea6YEhH4BdyDTTs8yGg+kBZ5JpHBLbybTxwNEJoeJ+xwGhOOxTz9wLzzR5LXT1TOPr0+hr56gnbp+V6Qkmr59myKfEyfScc/VMs9035Nh5943Ua4Xx6oEA7m31WEdooRTOAuXcBSDTyrEusI9yrAOkqDcCTmRaFgTmw4HNMy0vZxrliuGk9bE502S1TpNMIflt1TxtOXa4gqVJBuaFs8rcaracaRS2KPOXSU8vM8zS1i4vVxnPaxZdkPqbxBUXl8jKmWZW8zRzy3EuoiwyzazmKf/P652VO87mmWaSaex95+qZZuay4/3He8Dc53jgKO/Fjw4IDz74oNqwYUN5hYRkTgj4kGnmixHzeme7nruSaXw9o3xstpxp8jpG1z1bzjTZzgzHl2SazKnJ9wcC7vDTvtT2coOvvcPPG6+W332LGj1lji4IhJxpTtsMjQQCuLdhO9QFAZAF5VxJkGnlWBfYRznWAVLUG4Guk2n0cOBSzZNgPvP629R7b65v8xSzFSCghx05rgxhtOVIM8MoZSXHrGptPIerZxq142pttqqlpKf8jWXKquYp29mqaJo42Kp5SnxkNTySR4Z5EiFIoUP8kf3oO9l3xCX/R1dfldU8zRAnHpvHy6vmyeGueWGesj+FfdGHk3XzOtk804hMo48ZOsbfg0yrzsVu4MCB6ne/+5167rnn1NChQ6sjOCTdBQEfMo062+4ntu/N+0GeZ5qsAiyratoqIPP3bz/3tC6+Y1bzlJWS5X3ElMm3aqe8l0k5sb2AgAsCINNcUEKbKiAAsqCcqwQyrRzrAvsoxzpAinojEEym1RsWf+1sibH9R0KPsiCAB46yrES7HEcccYR64YUX1M6dO9Vuu+2mVq5cCUKtnEvlJJUvmeY0aECjToVqAoZEFyBQSgRwbyvlskCoAARAFgSA1oMuINN6ALLDFLAPB5DQBAhEIgAyLRJA7g4yLRGQJRoGDxwlWoz/EUUSaSwdCLXyrZOPRCDTfNBCWyAQjwDubfEYYoRyIACyoBzrYEoBMq0c6wL7KMc6QIp6IwAyrd7rC+0iEMADRwR4XeiaRaSBUOsC0D0esixkWo/VxnRAoDAEcG8rDHpMnBgBkAWJAU00HMi0REBGDgP7iAQQ3YGAAwIg0xxAQpNmIoAHjvKsex6RBkKtPOsUIgnItBDU0AcIhCOAe1s4duhZLgRAFpRrPVgakGnlWBfYRznWAVLUGwGQafVeX2gXgQAeOCLAS9jVhUgDoZYQ8B4PBTKtx4BjusYjgHtb47dAbQAAWVDOpQSZVo51gX2UYx0gRb0RAJlW7/WFdhEI4IEjArxEXYcMGaLWrl2riw24fv70T/9UrV69GkUJXAEruB3ItIIXANM3DgHc2xq35LVVGGRBOZcWZFo51gX2UY51gBT1RgBkWhfWl6rC/fKfblRfuOEe1XfvT3RhBgzZCwTwwNELlPPnOOWUU9QTTzzhRab92Z/9mfr3f/931b9//+IVgAQdEQCZ1hEiNAACSRHAvS0pnBisQARAFhQIfs7UINPKsS6wj3KsA6SoNwJdIdOITHp+4Q/VadfcpD7Wp28bgkQy9d//YDX0rLFByLpUzXzhX/9ZPTJ1XGv8i+9Zog448tig+Xw7/deHO9STd3xDffacS9WAgz7V6k4ybXn7VXX8+Gt9h0zenjD86eSL1KaXnm8b++xv3u29LibWNOCwL1+eufbJFVFKk5Yx+ylPJjxwdGPF/Mf0IdT22GMP9fbbb4NI84e5sB4pyLQdW3+nFs2+Sp3wlalt111TKdd2hYGBiYFADxDAva0HIGOKniAAsqAnMHtPAjLNG7KudIB9dAVWDAoE2hCoHJnWaf2I3Hlh4YMtrzB6ePrZdZdpEqtXhFqWjGUj0x771tXq9K/f0nrwDH3IJL3eXLWsjTwjgmvbpg09I9Q67YnQ3/HAEYpc+n4uhBqItPS492JEkGm9QBlzAIE/IoB7G3ZDXRAAWVDOlQSZVo51gX2UYx0gRb0RcCLTiGj5xXdmqJOvnNEWtig9nA45blSLwGLPtD579lMr5t+q+Lf1yxa3PMbYC4ra3nfZKI0yezTR34tvnqz67TNIPfndWZEZ5osAACAASURBVPq3EydO04SY9Ezb/Oo69dS82Wr75k1q/yOOUcePn6wWzpy4C3EmPeV47FUL7tLjstcajzto6HC15JZr1T6f/ow6Y8pc7fn0yvIlu8wv25170/0tUipLn3deXN3SkfXIakdefDTfR9u3qVd+tVR7jkkvLyYGSR6Jt20dyEuOcGRdGXNqb5Jp3PYzY/5Wk47S44ywYB1JvnfXv6jWLFqgaDz6mGSaSWD67BNa40dnT9K6S0+5PHnIM22/IUepp773TdWn314tfaVHog3vPPPGA0e5Ln55hBqItHKtlY80vmQaXYPkfWHExV9rXef4WrXHxwfolyh0reT7h9nu87O+r1Y+NE/xNc98oWDOUwavYh9c0RYI2BDAvQ17oy4IgCwo50qCTCvHusA+yrEOkKLeCASTaUyYDB1zgQ4NlN5ITB4xGUK/0YceRmRYniR19t7vgBaBxg891IdCRWk8IliI0KEPkSajp8xRRKbx9xRS6ZKrzJRTjkuhjyMumdTSZ+2Sh1tzMvlE81O7waPO0fpIz6ytG99qkVRSH27HYZ42vRkf0oPyrb3/3mY9F5F6+x5+pMZHkl003vDzJ7R53kn91i59pBVaKglRGtck06RMO7a825bzzVw/6XWW5ZlGGPE6HzryNC1f3j4h0ov127rhda07rS3nnZN/Uw66rP1EZJq5fixn3rqATKvWBS6LUAORVq01NKX1IdPMFyMcUk/kGYd58rX3wGEj9bVcXtuy2mWRaXQN5FQFJG9W6H61UYf0TUYAZFqTV79euoMsKOd6gkwrx7rAPsqxDpCi3gjkkmnSm0fCQCQZewIRqUUERx4ZI73JnvnxvFaOK5OI4QelU746Uz1+23TFD0PSY8Ak02Si/7xcbdTP9L7i/9M8pI8kmGRYpjm/bCd/27hmZZuXlpRHEls2vYk4XHHft1vEo5S3b/+BLRJRFjUwCUSJNXkCZuVps+VMs+WWk1hIIosE7USm+ewTk2hl0tQs4mDKw55pcl1M7KX3XKd9wnsdDxzlvPhJQg1EWjnXyEeqUDJN5uPMC1OXv4WQaWbeTx/d0BYIlBEB3NvKuCqQKQQBkAUhqOX3WbdunRo7dqx69tln1ejRo9UDDzygBgwY0HGiHTt2qOnTp6vLL79cDR482KtwVMfB0SAIAdhHEGzoBAS8EAj2TDNJHPnAIt/q04NIHpkmCwWQ5BS+OGb6Hdr7KMtjwCTTZKGDTp5pWfnTmMAxSZ88Mk2SPCaZlqUPeVpJYisraT+HbUqyUZJppHdWhdAswtMMy+SQKBnSanqmyV1jhofSbxyeaib8zyLTJEnZf9Bftsmdt09sZNpuu/dtC1fNksdcP5NMs61LXrXVbjxwEHGADxAoKwI7d+7suWh5ZFpWqKW8frL3s0mmmddFGf5perDZwjyz5uk5OJgQCHQBgW7c27ogJoYEAh0RAFnQESKvBpIQO+yww9SyZcvUz3/+czVt2rSO41Dfm2++WU2cOFENHDgQZFpHxLrfAPbRfYwxAxAIJtPMqpp5nmmS5DI907I8p0wPsjzPNEmm2YoNkGzPPnyvOm7cNdrjjR+eTM80SZK5eqZJvckzzVaxU46XV4xAEkqunmm2yqlye+d515lmYBJkWZ5gXI01i0yT62B61Jn7RMpuI9OIiJSeZTbPNLl+Nq9AH5PvxgOHjxeOj6xoCwRiEejGfneRKdQm5PVxwMGHtcI8OV8aF51x9UzLyiVJ8pv3Ixed0AYIlBmBomy9zJhAtmoiALIg7bqRV9pdd92lZs6cqfr27askQWbzTpOebFKaX/7yl2rkyJFpBcRoXgjAPrzgQmMgEISAE5mWNbJLzjT2hHLJmUY5zzjfF4d5+nqmkZy2ap62nF1ZudjIWymPTJO5uWw506Q+FL4pwzzNhzaZ54zCPClskcgq82FRViXlec2iC1J/SVx2ypkm11jq9PsPduicZ1SUwMx5x3jnVfPk/jb8fck0mzx5nmkyZ5q5LnkhXN144AglDoKsu+ad+BrEe7Pm6nZdvW7sdxehfWxCXpfp+piVM80k06jPivlzdf7LrDBPKnTDeS25nXwxIueh6wc+QKDqCBRl61XHDfKXDwGQBWnXxPREMz3V8majcNDt27erl19+Wf3jP/4jPNPSLk3QaLCPINjQCQh4IRBMptEsrlUaZUVKDp3JqubJoY4c1hdCpjHBI8P6ZFVIM4TRrObJOeA6hXly1UhZVZPmluFFZoVTqlqaVc1TtrN5phFhYMNbfi9DPGX1T5LNNczTrBp61Hnj1fplj+liEJLsy8KavpPr7bJPaFyuZMpEovR8pDG4Mh9hlSVPHplGY9vWJc9auvHA4UMceFlyDxub+0ruuR6Kodc0yyuTbJz2KRXnyAvj7aWsVZirG/vdRW8fm7BVKObv337uaU2aERnG94Azr79NvbN2tfZI5kIn3I7ko5cjVD141NU3qg0vPKNO+MpUxUUMzErILvqgDRAoOwJF2XrZcYF81UMAZEHaNSMy7bXXXlMXXnhha+BZs2apz33uc7leZtTv/vvvV3PnztWhnv/wD/8AMi3t0gSNBvsIgg2dgIAXAlFkmtdMNWlshrfWRC2okYFANx44fIiDMi4KE7dczZZkZILcVsCi13oQIc0VcUGmuaPfjf3uMnvVbcJFR7QBAmVCoChbLxMGkKUeCIAsSLuOMZ5pUhJU80y7LqGjwT5CkUM/IOCOAMg0d6x0S5BpnoBVuHk3HjiqThy4ElUycTx7KtJWWHzzZL0j+uzZT62Yf6sir7YTr7heh+uRdxB7brKn0Yfb/lO3X7PoId2WvI4o1M7moSSTxsuk8+zZSGMx6cfeiuS5RCHRNH+eFyvLJglE+tv0xKzqlu/GfnfBouo24aIj2gCBMiFQlK2XCQPIUg8EQBakXceQnGlZEoBMS7suoaPBPkKRQz8g4I4AyDR3rNCyYQh044GjysSBa44ySbjRluGceyMu/pom08wQuz8f+BeKK95SaB6RXWY4HufB2nvQX7XCjdn7bPOr6xSFUMscjfwbh4yTHJy7kPNiUdVhGXptEoUyl+E7L65uzUFj8XyU+F7mFKyyiXRjv7vgUWWbcNEPbYBA2RAoytbLhgPkqT4CIAvSrmFWNU8O36SCBOS5xkUF5N+mFCDT0q5L6Giwj1Dk0A8IuCMAMs0dK7RsGALdeOCoMnHgQqZlteEE8J+f9X218qF5ehcRsWUWk2BPMUmmcVvKe8fjnHn9d9RT35vVKoqRVQyFybT339usc2KNuGSSLurBYapnTJmr5SBSjL3RzET1RJJx4Qy59fNIt7yCFmU3n27sdxedq2wTLvqhDRAoGwJF2XrZcIA81UcAZEH6NZTVOUePHq2osABV8uTvb7/9djVw4EA1duxYRX9nVewEmZZ+XUJGhH2EoIY+QMAPAZBpfnihdYMQ6MYDR5WJAxcyjckqJq9ou6Qm0075+1nq8f87TYdlyg+HYUqyi73WzG1LBFr/QX/Z5tEmyTRqL0k47m+Gl/L3ZiGSKppJN/a7Cw5VtgkX/dAGCJQNgaJsvWw4QJ7qIwCyoJxrCDKtHOsC+yjHOkCKeiMAMq3e6wvtIhDoxgNH1YmDTjnTivBMM5dYymh6psm20hOOquVmeabR98ePv7Ztik4YRGy5Qrt2Y7+7KFR1m3DREW2AQJkQKMrWy4QBZKkHAiALyrmOINPKsS6wj3KsA6SoNwIg0+q9vtAuAoFuPHBUnThwqebZKWcaLYlrmOeqBXfpXGicm6wbOdM415ok06jIgY2Ukx5tyJkWYWD/07XqNkFqkF089q2r1elfv0UXyMAHCJQZgW7c28qsL2SrLwIgC8q5tiDTyrEusI9yrAOkqDcCINPqvb7QLgKBbjxw1IE4YO+zV5YvaaHLhBR/Iat5mhU6fcg0asuVP2Uopa2aJ7VnjzP6WxJxLK9ZzdNGpplzoJpnhDHldI2xCVpr2mtUwKLv3p+wzkJt+u9/sM6b1+lj7m+Xaq00/kFHn6Tz+Ll8pDykw/MLf6gJ5irn3HPRG23KgUA37m3l0AxSNA0BkAXlXHGQaeVYF9hHOdYBUtQbAZBp9V5faBeBQDceOGKIgwhVKteViSwm3kAydH8Ju7HfXaSOsYnUZJpZzILkJ4/FN1ctS0p2+ZB7LhiiDRDwQaAoW/eREW2BgAsCIAtcUOp9G5Bpvcc8a0bYRznWAVLUGwGQafVeX2gXgUA3HjhiiIMIVSrXFWRa75esG/vdRQtfm+BQYypAQd6CXLmVPNOI+Hpk6jg97T6f/ow696b71cY1K1vfceVW6b0oPc+yiDPei58Z87eqb/+BOpyTPiQ3ecRxXj6SxyxE4SIPhQ2zZxqNu/jmyYrCm+nDXpOk81Pf+6bq02+vXX5zwRhtgIBEoChbxyoAgdQIgCxIjWia8UCmpcExdhTYRyyC6A8EOiMAMq0zRmjRUAS68cDhSxw0FHqoXQAC3djvLmr42ITpOWZWbpUhn/Q3faiAhPQEk/nN9t7vAE1e9dtnkBpx8df03wcOG2kNB2Ui74wpc3VIJ8tDc9D/aZ5tmzZoL7Z3XlzdFoJqk0eGea6479tt/R+dPUkTgvSR1WXlPPDadNllaAMyDXugjgikIgvoPoQPECgzAjt37vQWL5V9eE+MDkCgQQiATGvQYkNVPwS6QS74EAd+0qI1EIhDoBv73UUiH5tgD63RU+boHGnm/+V85BW25e1XdyHTTO8zJrNO+epM9fht0xV5oNlyn5mFBsww0xB5bPOzRxyRe/sNOaqtwAHyrLnsLLSxIVCUrWNFgEBqBFKRBT73odQ6YDwg0AmB0Gt2KvvoJB9+BwJNRgBkWpNXH7rnIhB688obFAc2bLqyItCN/e6ia55NmIUsKMm/9D6T5NVuu/dtC5GkublohPRMk6GXLB+FZ46Zfoceu5NnGoVbMpknw0V5LA4vZa83Dtm0ycPE2PHjJ6uFMydq8o/JPJabyDRzXhQtcNldaJOFQFG2jtUAAqkRSEUW4GyWemUwXkoEQq/ZqewjpS4YCwjUDQGQaXVbUeiTDIHQm1cnMi2ZgBgICCRGICSMIFYEn4eYPM+09csWtxUKyPNMY481U3ZbsQGu1kk501xJLXMsmzyunmmu88auB/rXH4Fu3Nvqjxo0LCMCqcgCn/tQGXGQMpkvjGQl8lSy0xwr5s/NTEMg5+BUCPSCiF4U5X3IG5tSHQw/f0Jude5UOlRpnNBrdir7qBJWkBUI9BoBkGm9RhzzVQaB0JtXJzLtulXbK4MBBG0OAt3Y7y7o+TzEyNDHoWeN1Z5kXIBAkmm//2CH+tl1l2kPr7ycaQMO+lRbnjPuN3TMBa28afTQ8MLCB1vFBiSpZeZMk21d5XHNmQYyzWU3oY0LAkXZuotsaAMEfBBIRRb43Id85Ot1W7onrl3ysCa56P7G96i9B/1V0orUkkyjeWwfHzJN3s8pjQM+f0Qg9Jqdyj6wFkAACNgRAJmG3QEELAiE3rxApmFLVRGBbux3Fxx8H2JkNc9RV9+oNr/+W3XylTP0VESgvbJ8ia6qedR549X6ZY/pB4i1Sx/RFT2zqnmaFTj58E/j0Ef+npUTTcrDIZ7yIaaTPD7VPGV4KcI8XXYX2mQhUJStYzWAQGoEUpEFvveh1HqkGI/vRSMumWQtokPzyPQJfH/jNAn0e589+6kV82/dpTo196P73CHHnqpe+dXSTM80eU+katlbN7zeerFlm59ePslK3J+f9X218qF5Gha6h5svyDjFAnndPfndWTqlA3m08RmA+nE17BTYFj1G6DU7lX0UrT/mBwJlRgBkWplXB7IVikDozQtkWqHLhskDEejGfncRpQ4PMS56og0QKAsCRdl6WfSHHPVBIBVZUIf7kIu3mPSE3rrxLV0levCoc1rVrN9+7ulMgozJK3ohNfjUs3V+0qy2/BsRaF+44R61+dV16r7LRrXyl9rmZw9y9jSX5F4nMo36stc6k2/0Ao3DUPM856piCaHX7FT2URWcICcQKAIBkGlFoI45K4FA6M0LZFollhdCGgh0Y7+7gFyHhxgXPdEGCJQFgaJsvSz6Q476IJCKLKjDfciFTOOVN4v7jLj4a5ogYxKM2pmpEpjoohBMW840KpZDBB17x9nCPM35Q8k09j4zvfL4/2dMmWutzl0lKwi9ZqeyjyphBVmBQK8RAJnWa8QxX2UQCL15gUyrzBJDUIFAN/a7C8B1eIhx0RNtgEBZECjK1suiP+SoDwKpyII63IdcyDQuTiDDIim3KJNptDOyPMHMfGahZJpt/lgyLauyNunCqR2qvuNDr9mp7KPq+EF+INBNBECmdRNdjF1pBEJvXiDTKr3sjRW+G/vdBcw6PMS46Ik2QKAsCBRl62XRH3LUB4FUZEEd7kOdcqaZoZAyD5kLmSYLG3Qi0yh0lAgy6ZnmModvmKfNM60+O/wPmoRes1PZR93whD5AICUCINNSoomxaoVA6M0LZFqttkFjlOnGfncBrw4PMS56og0QKAsCRdl6WfSHHPVBIBVZUJf7UKdqnivu+3ZbBWxK+k9eap2IrlQ508wK3Dy/6ZlGoaSybVbuNcrFxmQacqZl23Qq+6jPFQOaAIH0CIBMS48pRqwJAt144KjLga0mSww1BALd2O8uAMMmXFBCGyCQDoGibD2dBhgJCPwBgVRkQZ3uQxxKyXuEKmpS6ObH+vRVZvXpPQfso/rvf5A65asz1eO3TdddssI86Xset1M1T1kR26zmaZuf5nznxdW6WAF9iCTr23+gzr+26aXnlTkOk3uyYqdZiRvVPNPZB643QAAI2BHQZNphf30iMAICQMBAYN3/96TauXNnUlx8Dmx06Hjqe99UffrtpVYtuKt1wKD8FvSROSL4sETfUxLZfQcfqZ758Tx9CKGcEVveflWXD+cy6PTWDx8gIBEo6gHbxyZ6uWJkX/RmnCqSwV56iTzm6jYCRdl6t/XC+M1DAGRa89a8iRqHXrNT2UcTMYfOQMAVgT95/PHH07IFrjOjHRCoAAInn3xyUil9iAMz/wU92G/btEG/NeSS5lSpaN/Dj9QEWr99Bu3iqs9v+mQ58wOHjVRDzxqbVC8MVn0EQg9rsZr72ETIXESKPb/wh603758Z87e7VPcyiTMKGXnyjm+oz55zqRpw0Kda08oKZPwlCOqQVUGfIhEoytaL1Blz1xOBVGRBt+9D9UQfWvUKgdBrdir76JWemAcIVBGBP9mZ2vWmiihAZiDQIwR8DmxEpj32ravV6V+/RT/QMynA7vBEELDrPpMBY6bfob1pmDBj77bRU+Zo7xr6rf/+B4NM69F6V2ma0MNarI4+NhEyl7QbCnPJ+rh6oZH90Ifyu/CHQl/I81N+FyIn+gCBXiFQlK33Sj/M0xwEUpEF3b4PNWdFoGk3EAi9Zqeyj27ohDGBQF0QAJlWl5WEHpVAIO/AJr1eKCHs4ad9SYd5MhEmSYG1Sx9Rb65a1pYHg9qeetUNmjBj7xuQaZXYFqUQMvSwFiu8z0OMSQZLIkuGPZNMnC/F5pkmc7eQvXEVMSKds0KoiYjLItOkXXJ1tFeWL9Gw0LhEsjExTt+Rvggdjd016B+DQFG2HiMz+gKBLARSkQU+9yGsBBDoNQKh1+xU9tFrfTEfEKgSAiDTqrRakLXyCPgc2EwizMczDWRa5bdKzxUIPazFCupjE9IGaF4Kb6a9TomKpRcnkWxMNlOosxnmOeDgw9TPrrtMDR1zgfbSlFXD3n9vc2usvfc7oBVCzdXGaF7phcYEG1dDk16hLBP1oUTKFJbNOQ9jcUN/IBCKQFG2Hiov+gEBGwKpyAKf+xBWAwj0GoHQa3Yq++i1vpgPCFQJAZBpVVotyFp5BHwObHlkWqecaSDTKr9Veq5A6GEtVlBfm5AElfTclHJkEc9crYzJN9lX2tr6ZYvbvD7lWCvu+7Yu5CE/slKa/J4qiy2afZU64StT9deS7IvFDP2BQAwCRdl6jMzoCwSyEEhFFtB9CB8gUGYEQrIypbKPMuMC2YBA0QiATCt6BTB/oxDwJQ5sYZ4UcpZXzRNkWqO2VRJli3rA9gl9Zu8v2t9bNrzRlqvMLA7AJFeWZxoBJit1mmTaI1PHtWHKRQaoQi59bPnRzFDTfT79GXXuTffrPjbiL8niYRAg4IFAUbbuISKaAgEnBFKRBT5nMyfB0AgIJEQg9Jqdyj4SqoKhgEDtEACZVrslhUJlRgAHtjKvTrNlCz2sxaLmaxOcJ43mPejok3TYpFlAINYzzVZQICtnGutPnmgUOkpEG8lkeqaBTIvdKeifCoGibD2V/BgHCDACqcgC3/sQVgAI9BKB0Gt2Kvvopa6YCwhUDQGQaVVbMchbaQRwYKv08tVa+NDDWiwovjbBhQP+fOBftBL5SzJtt9376jxn9JGVb2WY576HH6nbcH4zW840qqJLv23btEGPRWGe9MnyTDPJNCL9VsyfC8+02A2C/skRKMrWkyuCARuPQCqywPc+1HjgAUBPEQi9Zqeyj54qi8mAQMUQAJlWsQWDuNVGAAe2aq9fnaUPPazFYuJrE//14Y62ogA0P3+3asFdikIrT7zierXm0QW6Eu7mV9ftUoCAPMdkNc9RV9+oNr/+W3XylTOUWc2TQzzp+zzPNJKDCDQOET3z+tvUO2tXtwokwDMtdqegfyoEirL1VPJjHCDACKQiC3zvQ1gBINBLBEKv2anso5e6Yi4gUDUEQKZVbcUgb6URwIGt0stXa+FDD2uxoMAmYhFEfyDgh0BRtu4nJVoDgc4IpCILcB/qjDVaFIdA6DU7lX0UpzlmBgLlRwBkWvnXCBLWCAEc2Gq0mDVTJfSwFgsDbCIWQfQHAn4IFGXrflKiNRDojEAqsgD3oc5Yo0VxCIRes1PZR3GaY2YgUH4EQKaVf40gYY0QwIGtRotZM1VCD2uxMMAmYhFEfyDgh0BRtu4nJVoDgc4IpCILUt2HZMqB4ydMUdt/t0lR+oETJ06zVoHurCVaNB2B0Gt2KvtoOv7QHwjkIQAyDfsDCPQQgVQHth6KjKkagkDoYS0WHthELILoDwT8ECjK1v2kRGsg0BmBVGRBqvsQFaL5xXdm6Pyb9OG/KecmPkAgFIHQa3Yq+wiVG/2AQBMQAJnWhFWGjqVBINWBjaoXPr/wh7rC4Mf69C2NfhCkugiEHtZiNU5lE7FyoD8QaAoCRdl6U/CFnr1DIBVZ4HsfkgVsuEgNaf2z6y5TryxfogYeOkT13au/enPVcl0U55S/n6WefuA2DQzN9YUb7lHvv7dZ/XTyRWrTS88rWeimd+hhpqogEHrNTmUfVcEJcgKBIhAAmVYE6pizsQj4HtgaCxQU7zkCoYe1WEHJJvABAkCgtwjs3LmztxNiNiDQBQRSkQU+ZzPyPiPSbOiYC9TQs8bqKs/bNm3QLzd//8EOtWj2VeqEr0xVe3x8QOtvUp2IszOmzFVUTZrHOH78tfr/cgy8IO3CRqn4kKHns1T2UXH4ID4Q6CoCINO6Ci8GBwLtCPgc2OjN51Pf+6bq028vnXODPhffs0QfvNgzbcjpX1RrHvuXloca9xk9ZY7abfe+avHNk3fpS+NQ//suG9USzhyXPd5e+Nd/VlvefhW5PhqwkUMPa7HQ+NhE7FzoDwSAgFJF2TqwBwKpEUhFFvjch+Q5i8I36f+PfetqdfrXb2kj0EwyjdsMOOhT+gxGBBp5qPEYdN6jsxtCQlPvkuqPF3rNTmUf1UcQGgCB7iEAMq172GJkILALAr4HNnqTOeKSSbu8/XznxdU6zPP48ZPV0jlT9VtQOqBJ8osOavShN590cHt09iR17k336+/koY76vLlqmSbkeFyQac3bvKGHtVikfGwidi70BwJAAGQa9kB9EEhFFuTdh+gs9eR3Z2nQqJDAQUef1EaEkZdZljeaSaZJssx8oUljUzgondHoLIcPEJAIhJ7PUtkHVgMIAAE7AiDTsDuAQA8R8CEO5NtOfpPJedKY9DrlqzPV47dNVwcOG6kGn3q29kT7zJi/VQMOPkyHIXAIAVeYot/Is01+ZP41kGk93Awlmyr0sBarho9NxMxl2lPMWOgLBKqMQFG2XmXMIHs5EUhFFvjch0I900wyDXlvy7mnyihV6DU7lX2UERPIBATKggDItLKsBORoBAI+bz8PP+1LOsyT3f5tpNfapY/oUEzZnsDkRLgS2LO/eXfLy43ftNLvw758OTzTGrED7UqGHtZiYfN5iImZi7wLyKPAJJN9xmRSmsOuzaTR8vfjJ0xR23+3SYdZkzcDEds+H5aX+rz26ye8+/vMhbbNQqAoW28WytC2FwikIgt87kOhOdPkec7MmUYRAi8sfLAV9tkL7DBHdRAIvWanso/qIAVJgUDvEQCZ1nvMMWODEfA5sJlvP21k2taNb2nSbcgZX1abfvuCfuiWYQdmyICZqyPPM02GijZ42RqheuhhLRYcH5uInSumv/kARWPJ8GmyM2rzi+/MUCdfOUNPxX/75sChcSWBloIIjNEdfeuFQFG2Xi8UoU0ZEEhFFvjeh7KqedJ13hbySViZOdHkGAjxLMNuKq8ModfsVPZRXmQgGRAoHgGQacWvASRoEAI+BzZXMo3g40IDXEiAvpNEGB/aqJIU/0aJb7lIAX3HOdM4txrl+yDvNvLk8fWqadCS1kbV0MNaLAAuNiFJKklMMcH1yvIlir3E3n9vs84JSB8am/Y5fUf5Bze99HyrHY8jc9ewhybb1Ifbtqo1ixbowh9bNryRWYyD8xQOP39Cyxt04KFDVN+9+qs3Vy3XeXA+P+v7auVD85Qcb9/Dj8wsEELebU/e8Q312XMubeXOIft99uF71YlXXK9Q6S12x6F/UbYO5IFAagRSkQUu96HUsmM8IOCKQOg1O5V9uMqJdkCgiQiATGviqkPnwhDwObC5hBRBuwAAIABJREFUkmn0cJ0VImCGpHGIp/yeHvTpAX3Nowta4aScbJfIiUOOHaU+2rEdZFphO6Z3E4ce1mIldLGJLDLNzAPIpBaFOxNxRsQxEcFmOA3t722bNmjymLw6uRjH3vsdoMmtfvsMUiMu/lrrbyKSO+Uc5KpshEVWImo5NhPTeQVCTOIsi2CLxR39m4tAUbbeXMShebcQSEUWuNyHuqUDxgUCnRAIvWanso9O8uF3INBkBECmNXn1oXvPEcCBreeQY0JHBEIPa47DW5vl2URWxTMaiIjh/YYctUvYDP2WVbiDyS7yRpMk9fpli1uVbImU5pBnWdhj6Fljc8k0OV4nMo0KhdB4JsEnyToaIytHGkI9Y3ca+jMCRdk6VgAIpEYgFVmAs1nqlcF4KREIvWanso+UumAsIFA3BECm1W1FoU+pEcCBrdTL02jhQg9rsaC52ESWZ5qZ+4/lyPLovO+yUW1icn6ajWtWqkemjmv7jTwyx0y/Q4dJc/XbPM80HzKNx5PhqXJyIgnpQwVFzNBqkGmxOw39QaZhD9QNgVRkgct9qG7YQZ/qIBB6PktlH9VBCpICgd4jADKt95hjxgYjgANbgxe/5KqHHtZi1XKxiSwyzSTN8si05xf+UId1mvnGODTUJK6yyDNbW/m9Lfk0h3lKMo3DQbMKhMAzLXZXoX8eAkXZOlYFCKRGIBVZ4HIfSi07xgMCrgiEXrNT2YernGgHBJqIAMi0Jq46dC4MARzYCoMeE3dAIPSwFgtsqE2YoZJEar25apkaft54tfzuW1o5ALPavbDwwVZhAs6ZRqQW51PjME8mv0hH12qeeTnT5Hi2AiF9+w/cpdgAcqbF7jL0lwgUZetYBSCQGoFUZEHofSi1PhgPCGQhEHrNTmUfWBUgAATsCIBMw+4AAj1EAAe2HoKNqbwQCD2seU2S0TjGJrhKrazSSZU7n/reN1tkGk0p23GIJ3uEybxsXBGUq9xK8ovGMYt6cHuuDOrqmZY1liwQgmqesbsK/fMQKMrWsSpAIDUCqciCmPtQap0wHhAwEQi9ZqeyD6wIEAACINOwB4BAKRCgAxs+QKCsCOzcubPnouEhZlfIieCToZ7Il9bzbVnrCUMfzGoNCpSrJAKpyIKy3IekJzV5KZsvhniR2BM7K30Bt5Evd8x0ApVc7AYLHXrNTmUfDYYeqgOBjgjAM60jRGgABNIhUJYDWzqNMFJdEAg9rMXqD5vIRpAJNPo1K4daLO7o31wEumXrmzdvVhdeeKEaOXKkmjZtWnMBhuY9QyAVWVCW+5CZlsAGJMi0nm2xUkwUes1OZR+lAAFCAIGSIgAyraQLA7HqiUBZDmz1RBdaxSAQeliLmZP6wiZiEUR/IOCHQDdsfdmyZWrWrFmaRHv66afVpEmT/IRCayAQgEAqssD3PiQrMstwf5k2gNS5+J4l6oAjj1X0/W9+dKfWcM2ih5RMNyDTBwz78uVq64bXdTVn0zONx6a+hxx7qvpw+zZdWOf3H+xQP7vuMvXK8iV6/BMnTlMjLv6aWnzzZLVqwV1tcwVAjC4lQCD0mp3KPkoAAUQAAqVFAGRaaZcGgtURAd8DWygGlCNKJlYPHafIfnzAPHDYSDX0rLFFitKIuUMPa7Hg9MomYuVEfyBQFwS6aevr1q1T//qv/woyrS6bpeR6pCILfO5DZrVnruh8+Glfajt3Se+xd15cre67bJQm1/Y9/EhNdPXbZ5AmzbjwDRFjsp0k0ygX6E8nX6TOmDK31Z+Whovl8DlJnv32+PgAZasaXfJlhXgGAqHX7FT2gQUBAkDAjgDINOwOINBDBHwObDFipcixJN+8kiz0xjQvP0eMvFl9zbxR1AY5QFKj/MfxQg9rsRL1yiZi5UR/IFAXBLpp6yDT6rJLqqFHKrLA5z5EhJUtl5lEjc4wzy/8oT43EUlG57Iv3HCPooI1TMCxBxkXu5FEnSTTNr+6rjXWx/r01Z5uPDb9nz+2IjjImVaN/WyTMvSanco+qo0epAcC3UUAZFp38cXoQKANAZ8DW5HQMZE2dMwFLa8wlxwd3ZYZZFr3EA49rMVKVBWbiNUT/YFAWRDopq2DTCvLKjdDjlRkQd59iEiwJ787SwNKIZQHHX1SGzEmkZZt6Xt+CUlkmiS/mEwbfv4EHaJJHmoUDmoj09YvW6zeXLWs9ULTJOrI640/HEIKz7T62EDoNTuVfdQHSWgCBNIjADItPaYYEQhYEXAhDogw+sV3ZqiTr5yh32DyJytHB7n+UzgnfWhseuvJ4QCbXnpeyVwe1Ebm8+BDHn1PIQcfbtuq1ixaoMMQtmx4o+3gRm3M0AZ6O0thB+Y8fMjrs2c/tWL+rVoGOig+OnuSbnv2N+/WBF1WO35rK3OI0NwyNELmANl7vwNaeUG4HR1I+c1xn3576Zwh8jf6W8ouPe6y8JFvfeu8tUMPa7GYuNhE7BzoDwSAwB8R6Katg0zDTuslAqnIAp/7kM0zjc4P0vvMJLyyyLRYz7Tjx09WC2dObJFx8Ezr5e7r3Vyh1+xU9tE7TTETEKgeAiDTqrdmkLjCCLgc2LLItLwcHZxHg0gksxKUzMWxdeNbrXweTEJRzg4+zHH+DpdcZabnmi3nB+cGoYS6RJRRqAIfNulvepvK5Bp9Tx/OIcJ/04GUiLhzb7pfmW9aZR/ZjvoSLiMumaSJOykfJeuVeUTot/77H6z2G3JUJj4kTxM+oYe1WGxcbMJ3DlsIDI3D6x2ah88lxMdMQs17nPVg7wUicoec/kX1wIQxSZNEk4zPPnyvOm7cNWr53Terz55zqUKYj+8uqm/7bto6yLT67psyapaKLPC5D5nnLPbap2v5r+6dq886u+3eV7/oow+HeWaRaXS+sOVWk2GeNA57sPG56g9npHYyjcZaMX9u5nmpjOsHmdwQCL1mp7IPNynRCgg0EwGQac1cd2hdEAJ5BzbzAZxFpAdxInqycnSYhQbMN6Pywd8WJmAmsDWJuyyoTEJByrFjy7ttb2cleSH7SWKNPPD4t5P+bppadONVmWEPAw4+rEWEEbGWFx4hCzDkvSFm/cww1jxCpqDt09VpQw9rsUL5PMS4ztVNMq2TDLSPXlj4YCs3DtuTJKufvOMbLYKL2tMnlNwz5aH55PhMrJ14xfWqKV6Wndao6b9309ZBpjV9d/VW/1Rkge99KMsznwk09p6na+6aRxeo0VPm6BeJNjLNrOZJXv2fPvlvrNU8CeEzr79NvffmekVzrF36iHpk6jgNPH3/ztrVinKwMen29nNPa3INL1R6uzdTzhZ6zU5lHyl1wVhAoG4IgEyr24pCn1Ij4HJgy/JMM0kyVtIktbIIOc6fsXHNytaBi/tTCOaY6Xdo8stMgJtXRdOUR4YWEJkmD415ZJpsZ5JpXOZdkoqHjjxtFzItq51JPkpyhQ6eMveIJNP4QCrx4dDTUm+sBMKFHtZipw61CZrXJ9SY1pEIZV5jGW7M+WbM0GciwGSuHPIiMAnhp+bNVts3b1L7H3GM9hJYOmeqOuErU9seXNg+jh13jVr50LxW6PHxE6aoX86brSGkXDz0eXf9izrcWnpssgzSw03augznzirckaIgSew6o395EOimrYNMK886N0GSVGSBy32oCXhCx3IiEHrNTmUf5UQFUgGBciAAMq0c6wApGoKAy4Eti0yzhZZlkWlZFZ4IXk54a4YtZnmi2YoN8EO5DD9grzL2BPMh08z8IvT/0dfOUU/cPmsXQoJ0cM0HkoeLmQhYkmlb3n5Ve8Q18RN6WIvFKtQmXEKNbSHEFNZLnmDSozIr9Jl04xAdDjWm79hLlLwN+Ht662/ziJOh04NPPVuH/zB5Le1ShiOTF5m0QwrT5pBu6aFJ80rvtiziLItgi1039K8uAkXZenURg+RlRSAVWeByHyorBpCr/giEXrNT2Uf9EYaGQCAcAZBp4dihJxDwRiD0wGbL0TH8vPFq+d236DACIrWy2nHIGRcrOP3rt2ivGX5w5zBPfrhn0opCKM1qnjwWtZG/mznTXD3TyCOIigtQvjdbzjT2Pjpjylxlkgiyj2xnkn2S5JC54xgH0ufw077Uypkm8SEypQnhcaGHNW8jMDqkCn3OCzWW5OozP56nc+QRmWYL7TVDnyWJa5JptoTT5p5hD81OZBqNT4RuVu5CHkN6aMrQHTPEk6FGqGfsLq1X/6JsvV4oQpsyIJCKLAg9m5UBA8hQfwRCr9mp7KP+CENDIBCOAMi0cOzQEwh4IxBzYMsKaSOCzMylJttxiCc/cGeFhnGeD0mmSUKNwyjNyqCdQuyYhMoL8/zNj+7UGK5Z9FCrhDyREGY1T/Yw4u85B4hZzZPbdfLYs1XttIXOeS90BTuEHtZiVXWxCZfQ57xQ4zwyLSu01wx9ziPTJHHskqutE5nGRJ9pA4wzhYNyuClX0+XwVLO4Bsi02N1Zz/5F2Xo90YRWRSKQiixwuQ8VqSfmbjYCodfsVPbRbPShPRDIRwBkGnYIEOghAjiw/RHspiX47+E2C5oq9LAWNJno5GITLqHPeZ5pMsef6ZmWFdprhj67kmmynfQYk98zAWwL8zTJNJPkzsKbQ0WpMq8sPgAyLXZ31rN/UbZeTzShVZEIpCILXO5DReqJuZuNQOg1O5V9NBt9aA8EQKZhDwCB0iCAAxvItNJsRkOQ0MNarD6hNuGSM80WQpyVMy0v9NmVTCMsXKp55uVMY9l4LC6WQV5nHFptFthAzrTYXdis/kXZerNQhra9QCAVWRB6H+qFjpgDCIRes1PZB1YACAABOwLwTMPuAAI9RAAHth6Cjam8EAg9rHlNktE4xiY6hRr32bOfWjH/1rYQYiKeKLQzq5onhzKboc8+ZBqpaFbVlVU4Ta83swCBJNNoLAqTNiuKMtHGIaoc5kkh0qjmGbsj69+/KFuvP7LQsNcIpCILYu5DvdYZ8zUPgdBrdir7aB7i0BgIuCMAMs0dK7QEAtEI4MAWDSEG6BICoYe1WHFgE7EItvc3ixCg+EBafOswWlG2XgfsoEO5EEhFFqS4D9nC/E3EXNuVC2lIUyQCodfsVPZRpO6YGwiUHQGQaWVfIchXKwRSHNhqBQiUKQ0CoYe1WAVgE7EI7tqfCbTjxl2jlt99s/rsOZfqCr74AAFCoChbB/pAIDUCqciCFPchV5LMtV1qrDBedREIvWanso/qIgfJgUD3EQCZ1n2MMQMQaCGQ4sAGOIFANxAIPazFygKbiEUQ/YGAHwJk6wcccIBfJ7T2RmCPPfZQ++23nzrmmGPUFVdcoQ4++GDvMdAhH4FUZIHvfcgMv6fiL5QLc9WCuxRXUd/j4wN0nkuuiE6VmM12n5/1fbXyoXmKC82YRJstzB/7olkIhJ7PUtlHs9CGtkDADwGQaX54oTUQiELA98AWNVlDOstKjX33/kRDtE6vZuhhLVYS2EQsgugPBPwQIFu/+uqr/TqhtRcCdF3bvHmzevnll9XatWvVf/zHf6hDDz1U3Xrrrepv/uZvvMZCYzsCqcgCn/uQrEROknEFZSLPFs2+Sp3wlamKqzYfOGykGnrWWCWrTWe1yyLTdmx5Vz2/8IfqtGtu0gBkVWrG3mgGAqHns1T20QyUoSUQCEMAZFoYbugFBIIQ8DmwuU4gD3aUgFx+6K2mmdDcdVxqRwfAp773TTV6yhxlI6o4oTuPyxUUfeYJbWvmh+JxZFL30LGb1i/0sBaLUzdsIlYm9AcCdUagKFuvM6addNu4caO69NJL1WOPPaYuvvhiNX/+/E5d8LsDAqnIAp/7kO3MlRe+KX8LIdPMs50DNGhSIwRCr9mp7KNGUEIVIJAcAZBpySHFgEDAjoDPgc0Vx26SaZ1kINLqhYUPqi/ccI8m2+jASGENx4+/Vh1w5LGdunftd5Bp/tCGHtb8Z2rv0Q2biJUJ/YFAnREoytbrjKmrbj/4wQ/UZZddpsaNG6fuvPNO125oZ0EgFVmQdx/KCrWULxG5WrNJpplVnWX4p+nBZgvzzJoHm6F5CIRes1PZR/MQh8ZAwB0BkGnuWKElEIhGwIU4oAPZL74zQ5185Yw2bzDyEvvp5IvUppeeV4ccN6pFYDGZ1mfPfmrF/Ftbv61ftlg9MnWclpkPe/JwN+zLl7fCByjXR799BqknvztLt6fcHkSISc+0za+uU0/Nm622b96k9j/iGHX8+Mlq4cyJuxBnZggE5xGhcdlrjccdNHS4WnLLtTrHyBlT5io6tFJ+EXN+2e7cm+5vJVPP0uedF1er+y4b1aZHVjt600vzfbR9m3rlV0s1rowJ/cbEIMkj8batA3nJSV0Z8+hN06MBQg9rseK52ETsHOgPBIDAHxEoytaxBn9AgEg0yqH2zDPPqGHDhgGWCARSkQWh9yG+7xMZNuDgw1phnpwvjV8sunqmyXBQWTRGzlPki8qIpULXCARCr9mp7CNCdHQFArVHAGRa7ZcYCpYJAZcDWxaZxsTO0DEX6PwbRAJt27RBk2FMHjF5Q7/Rhw5xMsxTHtI4nwcRaJwQl/rweI/OnqSItKIPh3kSmcbf0yHPJVeZKaccl4jBEZdMaumzdsnDrTkf+9bV6vSv36Lnp3aDR52j9aG3tG+uWqbl3LrxLcXtpD7cbsvbr7YIQVs7ko/0IM+699/brOciUm/fw4/UxBi/LWZPt+HnT2jzvJP6rV36iOI5bYRomfaiKUvoYS1WJxeb8J2jm96aLqHPpkeCSayypwORt0NO/6J6YMKYVtJq16qb0luC8ZGkrytmefpkeZrSvAcdfZIe/rVfP6FtDJ9qIVCUrVcLpe5Ke/TRRyu69j399NPdnajmo6ciC3zuQ9LzXaaakOGbJplGfVbMn6vPOFlhnnQW47MLt9u4ZmXrTGFLaVHz5YV6/4NA6DU7lX1gIYAAELAjADINuwMI9BCBvAOb+QDOYtGD+H5DjmrLXSaJMUpSSw+4HGopH46f+fG8Vs40SUSR5xUTDqd8daZ6/LbpihPlyjeoJpkm58kjLKif+SaV/0/zkD5McBF5IA+n5vyynfyNDppMrEl9iGiTxJZNb2q34r5va5jpECvl7dt/YGauOJNAlFiTJyCTaT3cUsmmCj2sxQrg8xDjOlc3ybROMpihz7yv+GHJfCii9vQhktznI0lz7hcS3uxDphGukkBjYg2eEj4rV3zbomy9eM3LI8Gjjz6qCxH813/9V3mEqqAkqcgCn/uQzQudv3/7uac1aUZnFI4OOPP629Q7a1frF3T8so7bEewcdTDq6hvVhheeaStiQBVC6VM1b/cKbqfSihx6zU5lH6UFBoIBgRIgADKtBIsAEZqDgMuBLcurySRxJKkkKz4RqZRHpvHBjhEnT5Yx0+/QZFxWzg5qJz3TuLIUk1eSXDNX0ebVQgURTHIwj0yTBRBMMi1LHyIVJbFlFkggOdmDR5KNkkyjNlm6ZRGenAeFSEHpLdTLQgwpLCj0sBY7d6hN0LxlDH1eOmeqfhCSHma8b48dd41a+dA8xQ9Hx0+Yon45b7aGkEKb6fPu+hfVmkULWg9Ock/Jh6ksMk2SiL//YIf2oqQwZR6fSGNqI8O1h583Xi2/+5ZWkRH5oEiec1s3vK7JZnoANKvJEf7PPnyvOvGK6xUSZMdaQu/6F2XrvdOwGjPtvvvu6u6771YXXHBBNQQuoZSpyAKX+1AJ1YdIDUEg9Jqdyj4aAjPUBAJBCIBMC4INnYBAGAIuB7YsMs30HsnzTJPEm+mZluU5ZXqQ5XmmSTLNVmyAH7CPG3eN9nhjks70TJMkmatnmtRbhkCYqyHHy/PWkWGwrp5pEgPbLsir6hW2c7rfK/SwFitZqE2UNfQ5a3/IvT/41LMzQ4g5LJvDt4mcMsOaOQyZPMGyyDT+jkO32dvUvF7IcG3z2pIVQk7EMHlrmsQZQo9id38x/Yuy9WK0Le+sf/VXf6XOOussdccdd5RXyJJLlooscLkPlRwKiFdjBEKv2anso8bQQjUgEI0AyLRoCDEAEHBHIPTA5kIcsCeUS8409qKiB3cO8/T1TCOtbdU8bbndsnKxURXQPDJN5laz5UyT+phhnmZCX0kWUJgnecpRiJ2ZSFhWJeV5zaILUn9JXCJnWhqbqFPoMxO3ncg0Qk6GHTMhRt9L8jcrZ5osoCFXwPRktYWF77Z73zaiz/TWzMqRhlBP971elpahD2Zlkb8uchxzzDHqk5/8pFq4cGFdVOq5HqnIgtCzWc8VxoSNRCD0mp3KPhoJOpQGAo4IgExzBArNgEAKBGIObK4hbfKBmkMcs6p5cqij+QDt6pnGeJhhlDIUzcwtYlbzHD1ljq5Y2inMs0+/vXRonJlgXZItZoVTqujJVUFt7WyeaeT5Y8Nbfi9DPGX1T8IGYZ5uFuNiE1UKfbZ5LrqSaSa5yyGhjCbv6SzPNIm4SUTyXs0LC6f+kkSWZNqWDW9k5gQEmea2z8vUKvTBrEw61EGWz3zmM2rnzp3qhRdeqIM6heiQiixwuQ8VoiAmBQJKqdBrdir7wCIAASBgRwBkGnYHEOghAjiw+YHtUjnRb0S0tiEQeliLRdTFJqoU+rxo9lXWnGmUS40rz5qVYs3qu2b4tYlzHplmhmC75liEZ1rsbq5G/6JsvRro9E7KU045RU/2+OOP927Sms2UiixwuQ/VDDqoUyEEQq/ZqeyjQlBBVCDQcwRApvUcckzYZARwYPNbfZBpfnjFtA49rMXMSX1DbaIqoc9Z1TwX3zy5lUtQemVKT0nCRoY1c0EBGUJNbYiEMz8mmUbjrJg/V1eYy/NMYy9RrpL7zourFXl4Imda7C4vV/+ibL1cKBQvDci0+DVIRRaE3ofiNcAIQKAzAqHX7FT20VlCtAACzUUAZFpz1x6aF4AADmwFgI4pnRAIPaw5DZ7TKMYmyhr6bIZYZoU+d/JMY8hkbjQO8aTfOoV5yvDrM6+/Tb2zdrUm8OgjQ1FNwtqs5tlnz37q0yf/Dap5xm70EvUvytZLBEEpRAGZFr8MqciCmPtQvBbuI8hiNpTrFZ9mIBB6zU5lH81AGVoCgTAEQKaF4YZeQCAIgaoc2IKUQ6dKIxB6WItVGjYRi2Dv+hNJKIsQIF9a77BPOVNRtp5ShzqMBTItfhVTkQVVuQ+Z12BCsIzVw80csrbiOKE7IK86vBxTendTheysTxnxM+UMvWanso/QdUI/INAEBECmNWGVoWNpEKjKga00gEGQniEQeliLFRA2EYtgb/szgUazZlX37K00mC0EgaJsPUTWOvcBmRa/uqnIgirfh8pGBpkpGGiVXUgtn93g6qHnMm/Z8MvCIfSanco+fNYGbYFA0xAAmda0FYe+hSJQ5QNbocBh8q4jEHpYixUMNhGLIPoDAT8EirJ1Pynr3xpkWvwapyILfO9D0vNKVhJ3TT1AfSjf5aOzJ6lNLz2vZMV1CsOn8PoV829tq2CeVR1938OPVJSDk6o+c8VmLnLDlaDNKupcHZ3Ql1XHpezSk0ymLbB9LzHIIrDMgjpmKgSWg77/zY/u1BtjzaKHWjoNOOhT+jtOezBk9Hn6///rxDPVfkOOUk9975uKq8Pz2ITHIceeqj7cvk2dds1Nuj1jRX+TLqd8daZ6/LbpbfjxXPG7M90IodfsVPaRThOMBATqhwDItPqtKTQqMQK+B7YSq1J60ehARQevL9xwj6LE6vjkIxB6WIvFFTYRiyD6AwE/BIqydT8p698aZFr8GqciC3zuQyYxxEVkhp8/Qf3susuULBKzbdMGTeTIYi5MgG3d8Lo+n2x+dV3rrEJ/U9EXJtdkbkz5N51viIijojJ7fHyAklWkbe0I7Z9OvkiNuGSSonxr1I7lowI35hj99z9YE1WPfetqdfrXb2lVou63zyBFusr2hAF9Bp96tiasDhw2Us+R9SHSjsck4kqSb1k40XxEPFK7FxY+qDF7/73NLV0kmcbfnzFlrs7zSbLQh9ZgxX3f1n/TWLJIz4CDD2vTJX5Xph8h9Jqdyj7Sa4QRgUB9EACZVp+1hCYVQMDnwNZtdfgAw2/mOCE6v/n77LmXqj9RO9URZ1+kDjjyWG9xZAJ06izfgHoP5tmBDrtP3vEN9dlzLlXyLaNZLdFz2KDm8m2vHEAmpXcdWFZ+NPu4hDPkzRN6WHOV3dauTDYRqwv6A4EqIFCUrVcBm17KCDItHu1UZIHPfchWZdz8XpJGVEVZvtyTZxHZTxJr9BKQfzvp76apRTdepYkgOo9JQk+SQUSsEaGX1a5v/4FtJBYRclyMhkgsWZiGV8Y8V3Cf48dPVkvnTFUnfGVq2xnLJBpdVtiUQ+KUV+2aMZRkGuEn9ZBjy5xpNvzK6JVGGIZes1PZh8s6og0QaCoCINOauvLQuxAEfA5s3RbQ5oqfRUL5yiLfINKBUL4FDCHmfOe3tS+KTJNvYUm20BwdINNS7QSMAwSai0Dog1lzEeuO5iDT4nFNRRbknc3MisoHHX1Spte76Q0v7/NEpkmSJ49My6q2zGTaK8uXtIFGL+UOHXlay7OKybSsdlnhkDzX2qWPqDdXLdMeXJJ0Ml+K0uQc0sleYBSmyuGf9HsnzzRqIzGl/3N/k9TjM8+Ii7+2y7hZZNr6ZYvb9JBk2taNb2lvNpKXP/SSF55p8XaIEYBAkxEAmdbk1YfuPUfAhUyjA9gvvjNDnXzljFZ4Ir+dHDR0uFpyy7U6jwS5sdNhgg5NJ06cpt9E0seWs4N+y8olwZ5pQ077olqz+F907gj6XHjnQv1/9ljLywXy1LzZavvmTWr/I45R9MZy4cyJrTejDLI81PCBy5bTo5OeWXhQuAO/VczK8UGHxUemjtPiyPwkFFIhD3N0kCRcP9q+Tb3yq6X64CXzhPjmSjFDGmiurDARlo3znpAuJMe7619UaxYt0DLTZ8vbr7bW2pYbxFa1Km/DF/WA7WITPTdUTAgEaoxAUbZeY0hjZ9/aAAAgAElEQVSDVAOZFgRbW6dekGmmlKGeaa5kmvTMYoJu9LVz1BO3z9rFE4xkk6SdGfIpZTfldvVMk2cO24rJF302L3lZvMbU0eYhl8ozjc+5HH4Kz7R428MIQAAI/AEBkGnYCUCghwi4EAc2Ms3MdbF2ycM6XwZ92POJ30pm5ezgt3JmLgkZ5sk5JohAk3/TmzsZOiBzbdCbRM7dQQSQS64yW3/SxUVPbjd41DmtXBr8VpX0zMrxQWSj+TY4rx3pIXNzSNyYYDRzpXBohdRPysNkX6fwD9KP5eWcJkSQyYMlk5tZuUFAprkZtXy4oB4yB4zbCO2t5LpnrYGLbYTMayamlsmgaTz5+/ETpqjtv9ukSXNJwrvOi2qerkiVtx3ItHKsDci0+HUogkwzPe2ZPOIXibacaa5kGr3g47QYtpxp8v5velbJPrIdhXmaifpZJvOcwmMcftqX2kJD+R43/Lzxavndt7SS/nPONMqTZqvmyfnOZCjrbrv3bctrZvNMo/OQvH/acqbRjuKzqsyZZpJp/CISnmnxNogRgEDTEQCZ1vQdAP17ikAemWZWN2LByCNJJoHlhK38tlC+laQ+8rBkkjZZuSRcyDQaV75JzMvxYctRwfqYXlmyxLmPnjJ0UmKwcc1Kq5s/JaClpLp04LPlAjET1Up5zcMo62SSJBIfGQohN5sth5z5JpaJNfpX/mbi3An3Thu9qAdsF4K5k+yhv6ck02ispx+4TYtyzIVfbcsjY9snoXLLflkPLjI5NV0vJEFPfU3PV1c5aNzXfv1EyzOSibUiQ7ddZUe7PyJQlK1jDdoRAJkWvyOKINNIapunfqdqnhxGmRfmKatZSq9486UJe9jz928/97R+wWpW8+R2eZ5p9PInpGone9RLOQkf6cFP/5cveKQe5Il/4hXXqzWPLtDEnJnzzExtweGhNN4hx45Se3xiH2s1T5r3zOtvU++9uV7PwcUN6Ht6kUQfOg9y0QTGr4x500Kv2ansI95SMQIQqC8CINPqu7bQrIQIuBAHeWGeXPpbHjDMvByS9HIhmVzJNA6HZFg5HNHMBdLJ+yYrf1pW7gvKtWbTk2SQpKGpJx/wWFY+yD3z43ltZJpLO0mm0XgSX0mS2PChNmbONLk1zQMyH/RMTzr6Pi+Uos5kWjdCnwlPeoNNYdIHj/icoophzz3yAx1C/flZ31crH5qnPty2VYfYEvHJb7nN0GReS34zT/+3hcVkka6cw0U+bJhraeaNkXJt2fBG5nym1yTpOfDQIarvXv3Vm6uWe+uZVdSDHs6effhe/aAS4g1Zwkt0I0QKfTBrBDg9VBJkWjzYqcgCl7NZvLSdR4i9j3eeAS2qiEDoNTuVfVQRM8gMBHqFAMi0XiGNeYAAxVX/yZ+o61Ztz8UihkwzSaaUnmlZlZ5oPvPwZys2wA/ex427Rj1+2/RWLjbTM02SZHlkmiSopJ7kmWYjM+Tb4Lxk/rKdq2eaDZ+snGlyA5gecnk5QprqmZYi9NkWgsv7jdaEwzz5zT4RbJyLUIbOmJ5fkmiiUGub55ck05jMcwkJMsk0liuvcpo5F+smc+r46EnymsSZrWouLvblRiD0wazcWlVPOpBp8WuWiixwOZvFS9t5BJBpnTFqYovQa3Yq+2gi5tAZCLgiADLNFSm0AwIJEAg9sJnu+TaSKS9n2u8/2JGbS8LMk5aXM01W6zTd8gkmWzVPG3HAOddMMjCPTJO51SQhlZX7g/OOyTBPk+SS+a5kOzNRrcwdZ+ZKYcJG6k9hnnmeaVJ2XiMKm+vkmSZJS5kbxKzG5bptQw9rruPb2nU79Jk8J20hyrQ2eWQaJys2CWKTxDI9tGzhj2bOF9eQbFtFszwyzRbCmkWmuehJ6ydDPHk9EeoZawG971+Urfde03LPCDItfn1SkQWhZ7N4DTACEOiMQOg1O5V9dJYQLYBAcxEAmdbctYfmBSAQemBzJdMo14NLNU9SnXNJSE8xWwECInfkuLLipO1NKhEAMoyS83bQ3GZoI+cPc9WTSbc+/fbSidTNhOsy94f8jWXKquYp29k800wcZB8bPp0808zqoEedN16tX/aYLlEvST0mKbOqecr1DA25Cz2sxZqRi03EeGsSmZYXgptHpnGhCTP/C+vM+8jc6/R7VnJ/SabJJMwU0myGa0tPR5NMY7lSkWkuepJOWR6fINNiLaD3/Yuy9d5rWu4ZQabFr08qssDlPhQvLUYAAmEIhF6zU9lHmNToBQSagQDItGasM7QsCQI4sKVZCFtp+jSjN3OU0MNaLFouNhFLpuWF4LqSabZKn1lhzZIYe3HxT1p5+kI90zjEdMTFX9OVz5j8yiJYeT3yvFfNcFZJptn0NIsP8Dwg02ItoPf9i7L13mta7hlBpsWvTyqywOU+FC8tRgACYQiEXrNT2UeY1OgFBJqBAMi0ZqwztCwJAjiwpVkIkGlpcJSjhB7WYiUJtQlXL0YOfbaF4LqQaaSjzJnGXohnTJmr1TeLUsg8gPQ7e3RlhfR2Cn1m+ckrMotMc63mmZczTZJzNj2pki1ypsXu9nL0L8rWy6F9eaQAmRa/FqnIgtD7ULwGGAEIdEYg9Jqdyj46S4gWQKC5CIBMa+7aQ/MCEMCBrQDQMaUTAqGHNafBcxqF2oQrmWaGPssQZSaiSLwx0+/QpNjbzz3dquYpSSYzNJlDPCX5JNXkvHk8LoUjy7mpbV5INo375Hdn6RDmQ44dpT7asT2TTKNxTNnMsGfpKZeVM81FT1TzjN3p5elflK2XB4FySAIyLX4dUpEFofeheA0wAhDojEDoNTuVfXSWEC2AQHMRAJnW3LWH5gUggANbAaBjSicEQg9rToN3gUyLnRf9/REwQz0R4umPYRl6FGXrZdC9TDKATItfjVRkQZ3PZjIHbDzi2SPwCx1ZATurpVm9vFvyyHHlyyR6udYLPFLrFXrNTmUfqfXBeECgTgiATKvTakKX0iNQ5wNb6cGHgLkIhB7WYmGFTcQi2Nv+TKDRrFnVPXsrDWYLQaAoWw+Rtc59QKbFr24qsqDO96FekEdciIpW9OQrZygqqlNWMi1+1/V+hNBrdir76L3GmBEIVAcBkGnVWStIWgME6nxgq8HyNFqF0MNaLGiwiVgE0R8I+CFQlK37SVn/1iDT4tc4FVngcx/iFAODhg5XS265dpfwfVlNfNiXL9eVuekji8dIbyn67bFvXa3bkBxfuOEe/ffPrrtMvbJ8SVu1cltqAJrzNz+6U/dbs+ihlkwb16xsVVXPqj6dlfaA5iS5P9z2n+qEr0xVnarE05z8koVesPTf/2A19KyxrcVlPGiuQ449VX24fZvG5GN9+up+lM6APrLiu8SQKs+//usn1egpcxRVwc6qdE05Uc10B6TDKV+dqR6/bbqu+s66yqJAvngSFkV8Qq/ZqeyjCJ0xJxCoCgIg06qyUpCzFgj4HNhqoXAPlJAVEm1vQ3sgRuWnCD2sxSoOm4hFEP2BgB8CRdm6n5T1bw0yLX6NU5EFPvchJmAGjzpHEYkjQxe3bnxL/XTyRYqK0+x7+JGaQKPQR7N4jEmmcR8qNMOkEOey5MrMw8+foAk2LqZDRNS2TRs0MfXOi6vVfZeNUhffs6RtXmorPdPM85LM+Sn/pjlXzJ+rzr3pfmUW8ZHzEiEmq22//97mtkI1slgP40GrTjKvXfqIenPVMv23xG3AwYftoifJTSRjHpkm5ZdVtmk8WaWa8Th05Gl6HlsRIBue8bvWf4TQa3Yq+/CXGD2AQHMQAJnWnLWGpiVAwOfA5iouu9fzmz7ZL9a936VqJh26Hpk6rjUtHeboQNiLT1ZSdJqXD590kOzVR77hlHPKt62usuTJ362cI6GHNVedbO26YROxMqE/EKgzAkXZep0xDdENZFoIau19UpEFPvchuteTJ9npX79Fe21JYmzHlnfbPKeYvOJCNEyQZXmm8Xi2c5dJhMl2RDLJqtLyDJF3DpREnSScTJ3k2KZ8MpemeSYzz6f8f/YYO3DYyJYXG8vZf9Bftuli6mnzTJM7QxKSNjJtvyFHKa7mTS9i5brSOtrwjN+1/iOEXrNT2Ye/xOgBBJqDAMi05qw1NC0BAj4HNldxu0mmdZKBKxbSG0M6jMi3gb0i1LJkLIpMkwdskstMfNsJT/4dZJorUmgHBICALwKhD2a+86B9PgIg0+J3SCqyIO9sJkMRT5w4TR1+2pfaSBh5n6ewSva2Iq8tJoJOveoGTc7YyDRJ6ti87WXoIyPHoYsmiWcj08xQSBqHdcojCMlLS35keKjEh9vIkFKJh0mmUfil/JAsBx19Uhsh6UqmZb3QpJe7NjLNJO3ySNEizpQSl9Brdir7iLdUjAAE6osAyLT6ri00KyECLmSadJmXYYt5uR3oTV2fPfupFfNvbeXXWL9s8S65MvJyeVAoAueuoAMNeXWZh5in5s1W2zdvUvsfcYw6fvxktXDmxFbIAcMtyT36jsIc+MDEXmtZOUcoLIIOZZSvw5zfJzcJhzvwIZH0yNKb83V8tH2beuVXS9Wml57XeULYw4+JQdecJebbapo/K1yDvfjMw+i7619UaxYt0HlD6LPl7Vc1tvTJyzmSapuHHtZi53exidg50B8IAIE/IlCUrWMN2hEAmRa/I1KRBT73IfNeb3o0Sc8pm2ea7EMomB5S8v9ZZys6v8iP+VLVRqaZnu2unmlSJzlv1rknj/wyyTQmF01dbJ5wZpgnh3ZyGC17uqXwTHPxgIvfwW4jhF6zU9mHm5RoBQSaiQDItGauO7QuCAGXA1sWmcbETl5uB34TaObA4GSw8tCz934H7JLLgyDh3BuPzp6kc2XIQx4dYvh7Cm1wyVVm5vSQ41KOkBGXTNIu/tRu7ZKHW3PyG1Kan9rZcpNwO6kP5zBhMsqmN+cS4VwclOvDzHXik7OEcn6Ynml5YQPmOnHuEzoky4NwXs4R80Ads61DD2sxc1JfF5uIncPW3+bVaZKgqeY3PQvMEGB+w0+k7pDTv6gemDBml+TWLrLQnnn24XvVceOuUcvvvll99pxLdTgSPkCAECjK1oF+OwIg0+J3RCqywOc+xPdkPr/45Eyjl5Z8RuGcZPKcleXhz+ObLzBlZECnXGJ8DpSy/v6DHTpnGEUR8HmIZDHlM3OmyXnppa30PKP+Zr4yzvOWlzONZaEzblYuM5kzjc+RLBfJb5JpfK/N80zrlDMNZFq8fWIEINAEBECmNWGVoWNpEMg7sGW58JPg9MDtk9tBvhV85sfzWpWVzDeSttwVZi4PfkNq5uTICy8luU1Cgv9Pbw5JH0k8SfIoL5dIXjiFlIcS2zKZZtObiMMV931b7w1ZCYoItL79B7a9KeYNlJezhMk48nCTH1sOOfPNMctB/8rfbDlHsnLkxWz0oh6wfR5iYvTL6ttpD6eczwyJZnvghysz1wy1p4+siuYijzkOE2snXnG9rp6GDxAoytaBPMi01HugKDKNzkV9+u2lve4POW6UTo7PkQQ2T3gZXTDq6hvVhhee0dUy6WN6otkiEeT30rs9zzON89rSWZIJJPa4P+q88Wr9ssf0i1QmtOg3KZ9ZzZPn5ZeYMu8Zr29WcQT6jSpzvvfmesX3IzOElr3xpZ4jLvk/6j/feVtX8ySMuQ/hfsixo9RHO7brM5zEnaIb6EMk4uBTz9Yvj99+7mn9wta1mifItNTWivGAQD0RAJlWz3WFViVFwIU4yPJMM0mcvNwOeWSaLBRAENFhpFNiXEmmZYUvyEOkhD0rfxonmDXJwTwyTR4yTTItSx+Sh96WSjLN1k6SjZL8Iz1kmAHrlZezhNqYnmkSD1uuErPaFvWReOSRgSnJkaIesENtgnAy14OJS/pehiTLamEynJdCgrNCpHfbva8+fBOx+tqvn2gR0uba5IVemyHRS+dM1Q9O0kOM9/Ox465RKx+a1wqHPn7CFPXLebP19uGHAhkGzN6cHJYtPdxId5JZFt+gvUx5aIrMY1jSS3IjxSrK1hsJdo7S8EyL3xFFkmlM7sRrUb4RXCIPeiW1rSBDr+Yvwzyh1+xU9lEGDCADECgrAiDTyroykKuWCIQSB+ZhIi98UB6CTM80mYeLATY9yPI80ySZZis2IEPMHr9teivhrumZJkkyV880qTcl+s3SJ4uMsrWTVa4kDnmeaT65Q+QmtuUq6USmwTPtD2Ejv/jODHXylTNab//NXC0SXyLJZEiyWQhCVg2jxMpEwnEICnmKccgIkWn04TWnv5lko6TGHL5CJJUtpJlDorP2jbQJfntuhhbz/jDDgDm0hsKLOTyZ5TCJsyyCrZYXWCjlhEDog5nT4GjkjADINGeorA1TkQUuZzMWoo7kjvmyT3q9xa9S3Ah1xNsXkdBrdir78JUX7YFAkxAAmdak1YauhSPgc2CTwrrkTGOvHJecafSAzw//XKK8U5UpMycHk1YvLHywFeLQSc6sXGzktp9HpsncamZuEukJJskMGeZpki6yHYV5ci4RM2GtJEpccpZQmGeeZ1qnXCUsh0kGStLSzDlSd8+0vNBnM/xRko5EpknPQls4p/n2nfehJNOIWJU5/Gxhz2bSZZf5aa2Z2OtEplFbGY4sQ2vkGE/e8Y1dcqQh1LPwS3+pBAh9MCuVEjUQBmRa/CKmIgtCz2bxGmAEINAZgdBrdir76CwhWgCB5iIAMq25aw/NC0Ag5sCWF1ImQ9VkRUqZK4PIB0lOcJ4PGdJGni2unmkMH8/B/5chZ+bbTrOaJ4dJdArzdMlNIvOWsJ5cFTRLb869kUWmEQ6+OUuyqlplEaJZuUokqWeSafR/Kb+ZcyTVNg49rMXO72ITtgq3Mt8KycF7n8M3Oa+c6RXIMtvyzEgyjQlMIpu3bHij5Q2ZF/K7Y8u7LW82IjzzcrO5kmnmPuUKuawL7fXh509Qi2ZftUs4Kci02F1ar/5F2Xq9UIzXBmRaPIapyAKX+1C8tBgBCIQhEHrNTmUfYVKjFxBoBgIg05qxztCyJAjgwOa3EHDv98MrpnXoYS1mTurrYhMueQRNzzQzv19WmKULmUbEKpO9JC+HUOYRZOZvZpgpYya/52TOtjBPG+kr8TeLD/BvINNid2m9+hdl6/VCMV4bkGnxGKYiC1zuQ/HSYgQgEIZA6DU7lX2ESY1eQKAZCIBMa8Y6Q8uSIIADm99CgEzzwyumdehhLWZOVzItaw4ZosneldSOvNFMz7SsUF8mxrIqdknPNOml+OcD/2KXkGYKvWTCjUOeXUKis6p5cj42SeDZcupxzjSuwDZ0zAW68mdWsQHkTIvdpfXqX5St1wvFeG1ApsVjmIoswNksfi0wQvcQCL1mp7KP7mmGkYFA9REAmVb9NYQGFUIAB7YKLVbDRA09rMXCFGoTMoSYkiWfeMX1as2jCxSFDmeRWTIsMy8clIpVmGSaSXyxzjIUWCZszsvRRgUP+JMVEt3JM437yhBXDmem31DNM3ZH1r9/UbZef2T9NASZ5odXVutUZEHofSheA4wABDojEHrNTmUfnSVECyDQXARApjV37aF5AQjgwFYA6JjSCYHQw5rT4DmNYBOxCLb3N0M9EeKZFt86jFaUrdcBu5Q6gEyLRzMVWRBzHzIL2di0ktXD8zSXRaS4XS+99LnoEeV3lR+XCp+hcsp+VMxJVnuP3yXVHyH0mp3KPqqPIDQAAt1DAGRa97DFyEBgFwRiDmyAEwh0E4HQw1qsTLCJWAR37c8E2nHjrlHL7755l+qe6WfEiFVCoChbrxJGvZAVZFo8yqnIgpj7UF3JNE5h4LNKKcg0Kg6FTzsCodfsVPaB9QACQMCOAMg07A4g0EMEYg5sPRQTUzUQgdDDWixUsIlYBNEfCPghUJSt+0lZ/9Yg0+LXOBVZ4HsfkiH+FGZPhNoXbrhHEREkK5yzN9fGNSvVI1PHaYU5vD8r9QBVf3bxTOtU3V1WspapCz7ctlWtWbRAUWV1rlTNlaG52jp7ptnINCbMuMo66UR9Bxx8mPrZdZcprlhOqRee+O4srTPhS/iQ19lPJ1+kNr30vOIK7PS72e/pH9yuUzYQnnk4fbR9m3rlV0v1eLKSffzOKtcIodfsVPZRLjQgDRAoFwIg08q1HpCm5gj4HthqDkcp1ON8WAcOG6kTuDf1E3pYi8ULNhGLIPoDAT8EirJ1Pynr3xpkWvwapyILfO5DTDbJoi9MplG+TiLDmFiTxJgM85RFcbiSc799BikuOEPI0N/8kR5fTD4x2UXjbtu0IbP4Dlei5jygPAeNIWUj+R+dPUmde9P9ao+PD9DkVh6ZRoTYiEsmtYre8PxbN77VCtFk4uyMKXN1kR6TpJNym/04zJPGeOxbV6vTv36LysKJcTfnit9Z5Roh9Jqdyj7KhQakAQLlQgBkWrnWA9LUHAGfA1sZoAh12feR3czP0eu3i1kJ20mmRbOvUid8ZaoacNCnfNSJaivfaPNALnlKzEnz5LeRh6GHtSiF/+eN9XWrtscOg/5AAAg4IlCUrTuK15hmINPilzoVWeBzNjPPRXnnJCazzKrM9D1XZCZvNFm0ZsV931ZP/o9Hl0SIPblMwk7ObxbfMck0fmloElt8LqACONLDTM7PZzMivpjgovORlN0kxcx2kmi05UmTOdPWL1ucixOTjlJ+Iu7q9gm9Zqeyj7rhCX2AQEoEQKalRBNjAYEOCPgc2JoApvmGl3Q2D5lF4FAkmSYP2KS7rTJkHi4g04rYNZgTCFQDgdAHs2poVx0pQabFr1UqsiDvbGZWTj7o6JPavM8kKbTb7n3V4psnKw6dJA252rL0TMt6ccZk2TM/nqeBsXmmEWEmq0JTW37ptmPLu+r5hT/UXmpE0plkGleLthUZoBDUQ0ee1tEzTRYIyCPTzHY2uUkH6Y3GfxOZxuGxvFskTv33P1h7x4FMy7alVPYRb6kYAQjUFwGQafVdW2hWQgRcyDQ65PziOzPUyVfO0Pki+GMe6OigZb4RlYead15crQ9Vffbsp1bMv7WVn4IPe/sOPlLRoY1yTXAODw49oDlJVsp5wbkr+I2nHI9koNAAOQYTQHxo4reZ9D0dMmXOji0b3mh760htzENRp9wgneRhTEwcCFueS+YMkXlEpFeYxF/iRYc+M3cIvxmVskuPO1sOkCwiMe+gbr4p5nUbfe0c9cTts9o861j+IaPP01vqf514ZltYa1EP2C42UUJThkhAoLIIFGXrlQWsS4KDTIsHNhVZ4HMfyvNMMz2p8jzTKJeZJMzkWa8TmSYJM4mi+fKNQzk5zFOSaTbve9ecaTKnGctjC9fk3Gc2uW1eaoRnHk4g0/JtKMQ+1q1bp8aOHaueffZZNXr0aPXAAw+oAQMGdDTWHTt2qOnTp6vLL79cHXbYYR3bowEQqAsCINPqspLQoxIIuBzYssg0eUAiRZ+84xu6Qh99bG8IiUwjQouJH/NQtXXD662EsOyKT+NRLgzOcWGGD9B4MnEtjyHDDmw5LsycHS65yrJyk8jcIC7y8FtcEwczN4mZM0QeNCXJRYdFxqhv/4H676zcIb//YEdbqCi/ld5vyFHWHCBZZJr8jsI/+JAtD7wsh8xNYsr/wsIH2xIAs8xsOEU9YLvYhK9x53nzSe8A33GpvUvos+l1wImdQ+bL6mPuCX6gMB+qZEiNbW75sJdKvqxxbJ4Q7LWRem5Jfpuh0pJEp/n1NfW7s4ISWBN+9CG7fvbhe/ULCPIIKfOnKFsvMyZFyAYyLR71ELIga1af+5B5dqFrDefukmQanQEo9xi9XDPDPGXONAqVlPnD5H2eZc3LmUbXIL6/03nHzH1G85tkGo0rc6bxiz86Q3CYZ6cCBL5kmknSSbllaKf5twwVNXECmZZvQ772YRJiy5YtUz//+c/VtGl/uE/mfajvzTffrCZOnOhEvnUaD78DgaogADKtKisFOWuBQN6BTXorSWWJBOo/6C/bXPezDljmmz8i07LyU5x61Q36e5lwP4vooQOeSaaZiXX5ICPb2XJcnPLVmerx26a35nVxy896A8wHKwpncJHHll/kpL+bphbdeFUrya6ZM4TJKE5664JXlmcgh1vwmuXlSlm79BFrSINZLl7KS2SaPHCaYZ4mgZRFKBX1gO3zEON6EegmmdZJBvmAQGvW6S1/p/GyfncJhSYMykimyQc0l2uALz48pky0LR8UORE2e/+Spy6/nPDNj0jjSgKNibWyFzIpytZ917Lu7UGmxa+wL1lgm9H3PiS9zkddfaPa/PpvdTQBfWRlyqPOG6/WL3tMh13y/T2rmieHLtI9w7eap/mygF8k0JiHHDtKfbRjeyaZZnrms1y2Fx+kG70YovOG7SUuE4jUVkY28PlF4ibl5jmz+smzsYkTyLS0ZBp5pd11111q5syZqm/fvsqFIJOebFKaX/7yl2rkyJHxRo4RgEDJEQCZVvIFgnj1QsDlwGYL85TeLmaYYdYbQg7zZDKHiSkm09jdnxCWZJo8JOUltjUrU3XKcTFm+h16Hp7XxTPNJAQkSWTmBrHJYybkZZ2YTKMy7iZ5STlDTDJN5kDRB76J09Thp33Jeqikg7OZ/4z65eVKMYlIc/fLgyj/lnW4lTjlkYHyob+oB+wYm/AJAabqajL/StYDjRmSTIQMJ4JmDyrTJp6aN1tt37xJ7X/EMer48ZPVwpkTd6mCJsk9ftjgfWeOawsZ5gcKegA55NhT1Yfbt+kHNPJikKQ2eUpS2DWNy94S9CAj953Mr8Ph2NSecgFl5dthr4p317+o1ixa0Obtyvgwnnw9MXGzkYqm3bL88qHJJEfN0Ckpl+3FA4/Ba0T4f/JT/1t98pDDtU70ufDOhWrN4n9pC0WXYd/8MMlh3CQ7Ycb/t127y3YXK8rWy4ZD0fKATItfgaLItHjJMQIQcEcg9Jrtax+mJ5pP6CaFg27fvl29/PLLLTLOXUO0BALVRQBkWuwBjNcAACAASURBVHXXDpJXEIEY4oDVNT2SJPklPVZMzzQmppjUYk8rSWpRqFIKMi0rx0WWF4rNw4YfUs03oDI0wodMkx46jENWXjHGOIuMkuQjt3PJWZflmWbLAZLncWSSj3n7oG6eaVkkhUsIsC20V5JP7NHHpCMRaBwSQ+tM60e2xKEz9B3biAyp4apmed5g5hrK/Uzj2kKGZWgxkzssG5NpnDR66JgLdC48GXpkemdKzwdJTHUirTjEmhNbM1ks5SO5mJCjv9nra4+PD9glqbUk2Di0SMovQ7rzSD4ply2MV2JNsphkOdk3Yyu92iRWZii4LbelJNjKeJsKfTAroy5VlglkWvzq+ZIFthldzmbx0mIEIBCGQOg129c+iEx77bXX1IUXXtgSdNasWepzn/tcrpcZ9bv//vvV3LlzdagnfVxCQ8PQQC8gUC4EQKaVaz0gTc0RCD2wyQdeeiCXOdM4f5f5kM050zhfk5kzjR/GZZlzSRSQN0uIZ5rMmSZzgXCYpySlbNU8Of8HyUMhEy4P2HmeaZxbjTxI5MNxXs4QW8409iwimUzy0axqZeb6IH3Im82WA8TmzUb9TCKGPZU6eaaZJA+tjyRt2ORCD2uxJhsa+pxF/NpCgOU+pqIbTKbZQm7NkGRJTppkmknU2hIsZ+Fkjiv3RV7IsPyNybQ8ItwMEZbXEx8yjXQgL7Usr1K2P5tnWF71OCL/OoV055FpLBf9ayPTJNadyDR+0WB605kEdlaOtCqEehZl67HXirr1B5kWv6K+ZAHItHjMMULvEQi9ZvvaR4xnWu9RwYxAoBwIgEwrxzpAioYgEEqm2XJbEGwcvkWhW8PPn6DeWbu65U3zmx/dqZFds+ihVnJt+j9V1ZQhbEy45VWpMsMlbeQV527j8DEO1+IqoqaHl/mQLcO7SNZOoXzs+ZVHpmXhQN41Nlz5+7efe1qde9P9iknBvJC/rGpVtqqdthwgnXJhyX6cOJ2IIZNIMT3TmGQg+TmPyh6f2Kcy1TxtRTkkkZUXApxHpj0ydVzb1YfwMUOS88g0SfK45CkzcyNyyKVJZEvCzCRZs8g0IrEkHnlVYGkuDi/1IdPM/DRZoc9EtmWFpHfKHecT0m2rkJeKTJMV7zj/kdwkeXksQaY15GaeQE2QafEg+pIFINPiMccIvUegV2RaSM603qOBGYFAuRAAmVau9YA0NUcglEwLgcWWhL0bSb9D5OtVn7xk9L2SoQrzhB7WYnVzsYksMq2TJ1NWaC/lTTM901xCkl3JNBthxInqj75gYltONdu4WcVETNKO/+/imWbm4nP1TDO9OH2TPZtFPYiYcq0Q1ymkm/adWSGPvrPZu5m3Li/MU5Jp0kNV7nWz+AD/BjIt9orQnP4g0+LXGmRaPIYYofwIhJ7PfO0jq5onh29SQQLyXOOiAvLv8iMICYFA9xAAmdY9bDEyENgFARfiIBVsINP+gCTINLcdFXpYcxvd3irUJlxyppkhzib5IgmbvJBkVzKNtLRV86SwYM5rxoQStV0xf672fqRPpwpp1M+WM23wqWdrj1MOUZQ50ySZxmHKFPLMXmRMKJo5wYj84nZm+KT0opShz6QHjydD0rNypsld0Wk9OWcdj2OTy7WapwuZRvLlhYIjZ1qs9Te7P8i0+PX3JQtsM4beh+I1wAhAoDMCoeezEPuQ1TlHjx6tqLDAgAEDFH9/++23q4EDB6qxY8cq+hsVOzuvH1rUGwGQafVeX2hXMgRwYCvZgkCcFgKhh7VYCGNsolMIcJ89+6kV829thThz4nwK7cyq5mkLSfYh05hQk+GjstKlDIE88/rbdFg2eUKZxTZMEliGh1K/995cr0684nprNc9RV9+oNr/+W3XylTP0EnG4Iul41Hnj1fplj7XCwSkkm8M+iTyS4cAf7die6QHGRJMZ+mwLne4U5knj2dZTzsVhynlymbJxKC0RpvSxFRhholKGoueF2KOaZ6z1N7s/yLT49Q8hC7JmjbkPxWuBEYBAPgKh57NU9oH1AQJAwI4AyDTsDiDQQwRwYOsh2JjKC4HQw5rXJBmNYROxCKJ/UQiYoZ5VCPEkrIqy9aLWqazzgkyLX5lUZIHPfSivMJOvRvIFguxr5o7NGtdWbKWTDLIfPPc7oVWO30Ov2ansoxwoQAogUE4EQKaVc10gVU0R8Dmw1RQCqFVSBEIPa7HqwCZiEUT/IhFgAo2KgGRV9yxSNtvcRdl6GbEoUiaQafHopyILfO5DZr7OGC3MVAM+Y6Ug03zmQ9viEAi9Zqeyj+I0x8xAoPwIgEwr/xpBwhoh4HNgq5HaUKUCCIQe1mJVg03EIoj+QMAPgaJs3U/K+rcGmRa/xqnIAp/7kM0zjbShvJVc5dhWJV16g23d+JZ67FtXq9O/fouuGm5+qK2sRs4h6xvXrFScSoCrCz81b7bavnmT2v+IY9pC+GnMYV++XH9HlaHNflzMppP8ffrttYtu8SuIEVwQCL1mp7IPFxnRBgg0FQGQaU1deehdCAI+B7ZCBMSkjUUg9LAWCxhsIhZB9AcCfggUZet+Uta/Nci0+DVORRb43IdsZBpVVqYPFXaRxVzoO1txGRcyjXJaEjHHOR377TNolzyWcj4i5aTH2977HaBJPls/WRnaJv9PJ1+kRlwySQ09a6wuyrJt0wZNzlEeUny6j0DoNTuVfXRfQ8wABKqLAMi06q4dJK8gAj4HtgqqB5ErjEDoYS1WZdhELILoDwT8ECjK1v2krH9rkGnxa5yKLPC5D2WRacePn6wWzpyoSS6qNMyFSzoVlyEyjYiqTS893wYGF4QhkozIqy/ccI/qu/cndLVorpZs5j4z2725almL8JLecET69d//YE2M8fed5Jfec8izFr9vfUcIvWansg9fedEeCDQJAZBpTVpt6Fo4Aj4HtsKFhQCNQiD0sBYLEmwiFkH0BwJ+CBRl635S1r9108m0devWqbFjx6pnn31WjR49Wj3wwANqwIABHRd+x44davr06eryyy9X//RP/6T++Z//Wb355psd++U1yLsPcYVj6k8k1+Gnfanlabb51XWKPLuYjHpl+ZK2aSgEk/IpxnimsecYV6O2kWlmO1lRmoTiogbP/HielUzzlR+eaVHbzrlz6DUbZJozxGgIBIIRAJkWDB06AgF/BEAc+GOGHr1BIPSwFisdbCIWQfQHAn4IFGXrflLWv3WTyTRJiB122GFq2bJl6uc//7maNm1ax4WnvjfffLOaOHGimj17dtfJNFMgm2fa0jlT1QlfmbpL7jOzYAF5l7HXmEuYZyiZxqSbKX9WNU8iA13lh2daxy2avEHoNRtkWvKlwIBAYBcEQKZhUwCBHiIA4qCHYGMqLwRCD2tek2Q07qVNyNAbCsWRH1seHN837zSODNvhcB2eix5EKAcOJZI+5e9nqcf/7zQd4sPJql3x3LH1d+oX35mhTr5yhiJPg4OOPkmHF+EDBDohUJStd5Krab83mUwjr7S77rpLzZw5U/Xt21dJgszmnSY92eRe+eQnP6k2bdoUtX187kMuOdP4PnDGlLmqb/+B+p5Af3PeMxKWco51i0wzq4TKPGdZYZ4ki8z5Zspv86zzvT9GLVKDO4des0GmNXjTQPWeIQAyrWdQYyIgoJTPgQ14AYFeIhB6WIuVsZc24UqmUW6akI+ZBJrGMJM1k1cCfThfzWu/fkLn2fH90LhMoEliLVR23/nRvroIFGXr1UWsO5I3mUwzPdFMT7U8xCkcdPv27erll19WH330kfrJT37S1TBPUxbXap4U4knXefrQdZ/CLuklyvDzJ6h31q5ukWlZOdO4aueOLe/qMFJO9i9zpvGYXM1TtqM5+cUN/c0hnpx3jWQx+1E7WY2U5Tc96+CZ1p3rQd6ooddskGm9XyvM2DwEQKY1b82hcYEI9JI4KFBNTF1BBEIPa7GquthEFlnEB/xBQ4erJbdcqx9Szr3pfh1iYx72+QFkxMVf0w8L+w4+UntzkUdY1gMD58GhBxjzAYM9yPjNP/1OOoyZfocmzijhtPQQkwTelg1v6Acq+hx57qVq9U/v1X8P+/LlasjpX1TL75mjtm/epPY/4hj98PTOi6u1Fxu34QcqmvvZh+9VJ15xfauamiTpYtcE/euNQFG2Xm9U/bVrOpn22muvqQsvvLAF3KxZs9TnPvc5NXLkSCuYRMLdf//9au7cuTrU89FHH1VvvPFGT8k0/5VGDyAQh0DoNRtkWhzu6A0EXBAAmeaCEtoAgUQIuBAHiabCMEDAC4HQw5rXJBmNXWzCRqbRG/3Bo87Rnl0yDw2RUFlv85lM27rhdV0d7f33NiuuUkaicSiLJNNk6Iv0PKP2HLpD5Jn59l6qSiQbfVhOzmUjST+S+dHZk1qEoAzT2Xu/AzQJ2G+fQa0xaDz2eqC/swi22LVB/3oiUJSt1xPNcK2aTqbJHGk+nmkS8VRkgct9KHyl0RMIxCEQes1OZR9x0qM3EKg3AiDT6r2+0K5kCODAVrIFgTgtBEIPa7EQ5tmEDFOR83CFNCbCyBuNCLdFs6/SCaBtoTFMph04bGSLiOJkzLLimlmhjUgwIsyklxnlwZHz55FpZmiOjUwjWYjk41AcTlJNeWkk8UYEn5kjDaGesTuxOf2LsvXmIOymaZPJtJCcaVmopiILcDZz27NoVQwCodfsVPZRjNaYFQhUAwGQadVYJ0hZEwRwYKvJQtZQjdDDWiwULjaRF+Y5esocTT75kGkyFNOFTHtl+ZI2NZnMk0mZU5Bppjcdh4Ty5JT3xhZOCjItdic2p39Rtt4chN00bTKZllXNk8M3qSABhXNyuKf820Q2FVngch9yW1W0AgLpEQi9Zqeyj/QaYUQgUB8EQKbVZy2hSQUQoAMbPkCgrAjs3Lmz56K5PMTYyDTTM4z/b3qmcZil6ZnGnmbkqWbzTFs6Z6r2diPvN/kxyTNbcQPze+mlZoZ52hJNm4siiw/wbyDTer51Kzth6INZZRUuqeBNJtNoSWR1ztGjRysqLECVPPn722+/XQ0cOFCNHTtW0d9ZudRSkQUu96GSbiOI1QAEQq/ZqeyjARBDRSAQjADItGDo0BEIAAEgAARiEQh9iCEyi3KWjbhkkg7ZNHOmcf6xPT4+QP3sust0mCaTaSQzJfPfuvEtr5xpPOcZU+YqCvOUnmk0pms1T1uYpyTTZM40IvJkVdC1Sx/RsCNnWuzua2b/0AezZqLVPa2bTqalQDYVWRB6H0qhA8YAAp0QCL1mp7KPTvLhdyDQZARApjV59aE7EAACQKBgBEIfYtgzrE+/vdSqBXcpCoHkfGOkEpFPT353lv7+kGNHqY92bG+RabKap6zOmVWAgMai5P80B32yqn9SmCl/mHCjSqH0OXHiNF00gD+unmlMznE1T6kfqnkWvGkrPn3og1nF1S6d+CDT4pckFVkQeh+K1wAjAIHOCIRes1PZR2cJ0QIINBcBkGnNXXtoDgSAABAoHIHQh5i8HGWFK9UDAWSoJ0I8ewB4jaYIfTCrEQSlUAVkWvwypCILfO5DrvcezscpPYhDNbalEQgdD/2qhUDoNTuVfVQLLUgLBHqLAMi03uKN2YAAEAACQEAg4PMQI4FzfaCpK9iSQHvmx/N2qe5ZV72hVzwCoQ9m8TNjBIkAyLT4/ZCKLAi9D+VpkJJMi0cKI1QZgdBrdir7qDJ2kB0IdBsBkGndRhjjAwEgAASAgBWBbjzEAG4gAATsCIQ+mAHTtAiATIvHMxVZ4HMfki9yNr+6Tv3mR3dqRdYsekjt8+nPqHNvul9tXLNScTVmTg1AOTU5bH/Yly/XeTvpQ2kEPty2Va1ZtECdcd231b+/9Jz+7WN9+iqe69SrbtCpC7gStUwnwCkAaKxFs69qFcyReUR5Huq/7+FHtqUuyEp1QKkLzAI5T82brbZv3qT2P+KYlnzxK4gRXBAIvWansg8XGdEGCDQVAZBpTV156A0EgAAQKAECPg8xJRAXIgCByiMQ+mBWecVLpgDItPgFSUUW+NyHTDKNCDIipJik6rfPIJ0nU3qmyYIye+93gCazqB0XxeE+5HFsEmJUsIbbERk24ODDdFEdmoMK68jiNCvu+3bLS/npH9ymNr/+W3XylTM00L/4zgz9N3ky04f6y6I59J0sqmOSaVzUx6xsHb+KGKETAqHX7FT20Uk+/A4EmowAyLQmrz50BwJAAAgUjIDPQ0zBomJ6IFALBEIfzGqhfImUAJkWvxipyAKf+5BJphGZxcVvZIEZSaZJLzHyOGOi6pSvzlSP3zZdHThspK7OzLnR6P+DTz1bk27Sm4z+po+cU8qzftlixeTb8//vD3XbTx56uP73tV8/oYafP6GNiJO52MwK1SaZJueMXzmM4INA6DU7lX34yIq2QKBpCIBMa9qKQ18gAASAQIkQ8HmIKZHYEAUIVBaB0AezyipcUsFBpsUvTCqyIO8+xJWhSVqqznz4aV9qeXBRmOfzC3/YCnvMI9M47JO1pvDMMdPvaAvfpN94DDnPbrv3bRFr1IbDRXksDi+l/z/78L3qf585Vr3+6yfUoKH/j9qy4Y0W0IeOPE2Taa8sX9IGPoWi7jfkqFzPNKln/MphBB8EQq/ZqezDR1a0BQJNQwBkWtNWHPoCASAABEqEAMi0Ei0GRGkEAqEPZo0Ap4dKgkyLBzsVWeBzHzI901zJNPIYo9BK+cmq0snjDznjy2rTb1/QfWQ76m8jtqgdhXru86mh6qP3t2uC7MXFP1Efbd+mPnvOpWqPjw9oCyOVsphFfaQ33TsvrrbOGb+KGKETAqHX7FT20Uk+/A4EmowAyLQmrz50BwJAAAgUjIDPQ0wvRc2rFmqG6HBSaF/5ZEJq6suJqnkc9oigZNVDTv+iemDCmFaCa5+8NaQLeSscN+4atfzum/VDlU9/X73QvtwIhD6YlVur6kkHMi1+zVKRBT73oRAyTeZMo2sv5znjME95D2HibNWCu3QuNsqLJsk0M2cakV4vLHywFWpKudLWL1+sTpgwRedxI3KNyLQTr7heFzWguelDJB0XMjhjylxFYZ4/nXyRor85/xu1o2IIINPi92rMCKHX7FT2ESM7+gKBuiMAMq3uKwz9gAAQAAIlRsDnIaaXariQaVxxLUQu8wGIH5Y4ETX9/8k7vtEivqg9fSivjs/HHIeJNX6w8hkLbeuBQOiDWT20L48WINPi12L48OHq3/7t39QHH3wQNZjPfciVTKNrNoV2ZlXz5AqcMnyTSDP+2O4PWdU8OcSTX5DQSxqZ30zmbqPxJVlH/5cvcVhmGpPyq72zdjXItKidlaZz6DX7r//6r9Wzzz4bbR9ptMAoQKCeCIBMq+e6QisgAASAQCUQcHmIoQpnXIms796f0Hrxm376m8agBNDvv7dZv1nf9NLzih9WqD17kvXZs59aMf/W1m/mg4yspEbjUmWzQUOHqyW3XNvmEWbzTOO3/FnzPzVvttq+eZPa/4hj1PHjJ6ulc6aqE74ytc1DjOc/dtw1auVD8xR5JtDn+AlT1C/nzdZ/U84e+ry7/kW1ZtGC1oOQzOsjH45IVko8LcOLqO1BR5+kPR7waR4CoQ9mzUOquxqDTIvHd/Lkyeq+++5TGzdujBrM5T4UNQE6A4EIBEKv2VdddZX6yU9+ol5//fWI2dEVCACBPARApmF/AAEgAASAQGEIuDzE2Mg0DkkhUojaUGJlIo3o/xxGwyEqlLCZSSYOcxlx8ddaSZ15jEWzr9IkF31o/MGjztFjZuWPkSE6ZuiNOf+jsyepc2+6X5Nnskoahd3wx1bJjWQzE1tv27ShLen1m6uW6f9v3fhWK1SHcTCJsyyCrbANgIl7jkDog1nPBa35hCDT4hf41ltvVdOnT1dbt26NGszlPhQ1AToDgQgEQq/ZF110kVq5cqX23sQHCACB7iAAMq07uGJUIAAEgAAQcEAg7yHGzCnGw3Hlsce+dbU6/eu3tAgqGdpihuJk/XbqVTe0VVIzPdPk+PK3HVve1cmYJZlGsrnObyPTeIz++x+sBp96dhvRZ5Jp1FYmpj5w2MhWCCiH9dAYMlSU8UOop8PGrHGT0AezGkNSiGog0+Jhf/LJJxXh+N///d9Rg4FMi4IPnbuMQOg1e+TIkWr33XdXS5cu7bKEGB4INBcBkGnNXXtoDgSAwP/f3tkHX1Gdef78ERfRRYhYBlEzgjOjWKigpYNB0YwIGipqNlErzopvhaWsloNaIqILDIlESyQpjRomii8Tk1W2olSxJYjxLRDKNzA6iGYQDYrOLxAhDKJxa9x6zuxz57mH7r7dffve27fvp6tS+XF/5+U5n9O/bs/3Pi8Q6DiBNIeYOM80CcOcOOMOp6Gc4n1mL80lo+KX5jhToa2RmGbHTyOmpZ2/CDFNBDfJnxbmv9H1Szio5LxRTztbcAAxreO3fUcNyHsw66jRFZwcMa2YTf3Sl77knn32WXfiiSfmHjDNeyj34HSEQJME8j6zv/KVrzjxTrv99tubtIDuEIBAHAHENO4NCEAAAhDoGIE0h5i0Ypp4i0UVBQgTMuu/J826p84zzVZcEyDWM83+Ls4zLWl++zsrzFmRy34+8ICDEj3TQjEtqqJoWHxANxkxrWO3eykmznswK4XxFTICMa2YzTzssMPciBEj3OOPP557wDTvodyD0xECTRLI+8yW+1rCPEePHt2kBXSHAAQQ07gHIAABCECgdATyHmLCapthzjRbDW3rxreceI1NXrSilk9NQGjONK2gKX1WP7jA5zaTS3KmjblwmvcAy5ozLZw/FNrSVPN86vbpTkWyMMxTxTSx09r2+ae7fO64kZPO93ZHFRsgZ1rp/gzaalDeg1lbjeyByRDTitlkyZt2/fXXuz//+c+5B8z7Hso9IR0hkIFAnmf2lClT3JIlS9y//uu/ZpiJphCAQFYCeKZlJUZ7CEAAAhAojEDeQ0wopolBtpqmhnhqwv+Xf/ETb/O6ZY+50d+5tObBZvuMv/YHbvMbr9QKENhqnlHVQW3ONEn2nzR/lNdamBPOVuHU8M00Ypqsy1bzlBBPrd5JNc/CbtXKDJTnYFaZxZdoIYhpxW3G8OHD3b777utefvnlXIPmfQ/lmoxOEMhIIOsz+09/+pPbb7/93M033+z/xwUBCLSOAGJa69gyMgQgAAEINCDQjkNMUo6yqm9QGOpJiGfVd7zx+rIezBqPSIs8BBDT8lCL7vOHP/zBiaAmIZ95BLUs76GwuE1ceH+a1dkvYGx7++VN3DhaaEY8kLNctl8vvxuzMOt02yzP7K1bt7qRI0e6IUOGuDVr1nTadOaHQOUJIKZVfotZIAQgAIHyEshyiMm7il4/MKiA9rVLrnOr7r/dHX32Rb4CKldvEshyMOtNQu1ZNWJasZxFRPibv/kb995777lx48a5888/351xxhlu6NChDSfK8h6K8opuOEFMA5uLM+szuQgxLa/d9GsvgUbP7H//9393y5cvd/fee69bunSpO/LII32uNC4IQKD1BBDTWs+YGSAAAQhAIIZAlkMMECEAgeYJNDqYNT8DI6QhgJiWhlL2Nv/4j//oRYW33nrLffLJJ+6LL75INciNa3amahfnmSadJc/lmsX3+XE0R6e27zdgn8jf2UI3oQHyRZBNUaDpCz5c96pbMvMS31zSAwwa+lX3wsJ5bufWPnfgUcf7NAYfvbnW5wqVS1MbrH96yW791LMuj/2pgNGoaQLyzI679txzT/fpp5+6PfbYww0bNsxdddVV7sorr2x6TgaAAATSEUBMS8eJVhCAAAQg0AICiGktgMqQEEgggJhWjtsDMa0c+yBWZHkPxYlpqx/6kV+Q5KsUEezJedMii9mIR9mOvs1e8Nr+4ft1VaOjxDQtnjNkxCgv1mnBnDBcU+cTDzfr8aaVoeP6qZiWx/4v9etfnk2ssCU8syu8uSyt6wkgpnX9FrIACEAAAt1LIMshpntXieUQKA8BDmbl2AvEtHLsQxFi2olTprulc6Z6IU2K0dgCMv0H7VcnmNm0AyKmSdXovrdfr4OhRWSkrYhmZ92yyPUfuK+v3Lztg41+nlBMC9ttWrOyVmjHzimimVaD1s/z2o+Y1p57mGd2ezgzCwTyEEBMy0ONPhCAAAQgUAgBxLRCMDIIBFIT4GCWGlVLGyKmtRRvpsGT3kNhpeQRp33bSaXniTPucFs3vuXEs0vFqHdWraibV0IwDzjimFp7EcRCMa1RmKctcJAkpoXtNAxUDdKiBq88ujBWTMtqP2Japtssd2Oe2bnR0RECLSeAmNZyxEwAAQhAAAJxBBDTuDcg0F4CHMzayztuNsS0cuyDWJHlPRQV5ili2tN3zHQnXT5zt+IuYcGCdolp6sEWUo6q5pnXfsS09tzDPLPbw5lZIJCHAGJaHmr0gQAEIACBQghkOcQUMqEZxB5y5ONl866JPAwlzbtr+x/dEzde7MJv9DVRdFKFNpk/DPFR7wHxYCjiijr4ff2qOe6ZO2e5Iyd914ckNXNZr41wzRrqJAm5T7xshtv5xz6fgFtDmLLMK/McctzJvsu7Lz3nw5y48hHgYJaPW9G9ENOKJpp/vCzvoTQ50/TZfvqMBU7CPNWTrV2eaWGVUJunLSrMU/K32Zxpae1HTMt/z2XpyTM7Cy3aQqC9BBDT2sub2SAAAQhAwBDIcogpGlyRYprmysliY3jgkb5y6JGrFWKRekQUIaapUKZJrcVmewATkU6Exmfvmu1OuXK2X5P+nFUoFLutgKbCWrNCYJa9qlJbDmbl2E3EtHLsg1iR5T2UtpqnhHiO/MZ5/rmYJKZF5UzTLyZ2bdviw0hF7BLhyoZ5ys8SyqnVPG07WZM8N7Wap/2SJq6f9LHVSNPYj5jWnnuYZ3Z7ODMLBPIQQEzLQ40+EIAABCBQCIE0hxgryqgQoweUoSOPdSvm3+Dk8CFeACK0iJeYhU4xTwAAIABJREFU9X6yHmB6qBDj1aNs2Ji/9RXSfrvkn/w435z7U/fqYwvdZzu2u3XLFrvJi1Y4raQmnlVyyWcqGMk4cWKa2tlvwD7eK8v2jRLTbAjQR2+udS8snOd2bu1zBx51vD9QyWd6QBr9nUv9Z3oIUk8z4aVedvK7ML9PKKZF8VEPipd/8RM//rplj3k237r1YR/GZO20B6owobXsxX6HHuH67zPIbVqzKjNfEe2ev+d77uizL6qFT4m9rz3+gBt3xU3+gMmVjQAHs2y8WtUaMa1VZLOPm+Y9lH1UekCgGAI8s4vhyCgQaAUBxLRWUGVMCEAAAhBIRSDNISZOTJNv9MdcOM1/+y8i2voVj3uxRy5N6rzXlwd70UzFLhvuIpXUVGiSPipADTzgIP8NvfW6sh5jIhg9OW+anyscP1y0ClXWzh19m70IJvOHyafDfDY6jwhY1vNLxT2xcczkq729ecS0wcMO83xGTjq/xlHtU+HOionKxNpp12wFQmGjTO3PWfjK2KFwFiWwpbrZaOQJcDArx42AmFaOfRAr0ryHymMtlvQaAZ7ZvbbjrLebCCCmddNuYSsEIACBihFIOsTYMBW7bK2QZoUoG/5iPbMkTEaEn7NuWeTE28qG3Hzy8dZEMe3g0WO9wKR50VSQ0xBHEa9UjApzpqnXWCiYhcmnwxAf7SceV9LW2h56g+nvJ826x7fLI6aF+XysGBayi6skZ/fGsm8kpqXhK2NH5Ugj1DP/g4CDWX52RfZETCuSZnNjIaY1x4/erSXAM7u1fBkdAs0QQExrhh59IQABCECgKQJpDjFJYZ4TZ9zhRbIkMU3DItVQDVeUfyd5pllxKqrIgIh6h449rc7zLYTRKF9O6JlmBbStG9/aLV/OpjUra/lzdOxTr7klt5gm9lrBLhQi4/L1xHmmZRHT0vAV+6Kq0iGm5f+z42CWn12RPRHTiqTZ3Fhp3kPNzUBvCOQnwDM7Pzt6QqDVBBDTWk2Y8SEAAQhAIJZAmkNMs2JamJhZjYkrQKBhiFGeXmF1ztBrrVkxLUnMSuuZZr3LrGCo4pzNmdbIMy1OTGuUM03CWD//dFdimGcavmHxAeWLmJb/ocLBLD+7InsiphVJs7mx0ryHmpuB3hDIT4Bndn529IRAqwkgprWaMONDAAIQgEBTYlpU59DjK84zLcxpJu3eWPqID/tsFOapYo/Mb3Om2dxlGubZqACBetCFYZ5ZPNMa5UzTfGayxtUPLqjlj0sqQNAoZ1qcmJa2mmdSzrQ0fEXsI2dasQ8QDmbF8sw7GmJaXnLF90NMK54pIxZHgGd2cSwZCQJFE0BMK5oo40EAAhCAQGoCeQ8xacU0m7i/7+3X6ypSqleZGKt5xz747Yu1ap5W7FHxSCtySoinzacW5kyTMSVxf+j51ShnWqOKmTaPnM2vZityjr/2B27zG6+4ky6f6fehmWqecWKabrCIjM/fPdf/09ou/44L+Qw9/6RtHF+qeab+U0rdkINZalQtbYiY1lK8mQbP+x7KNAmNIZCTAM/snODoBoE2EEBMawNkpoAABCAAgWgCHGK4MxoRCEM9CfFsRCz59xzMmuNXVG/EtKJINj9OL7yH7JcbYboCSzD8oioNXZtawI4d97mOaYv5yGdRKRm0jRasibPH2r3Hnv3rKlynWUOZ2/DMLvPuYFuvE0BM6/U7gPVDAAIQ6CCBXjjEdBBvZaZWAU0WFFXdszILbcNCOJi1AXKKKRDTUkBqU5NeeA+lFdPyII8TvCTlgC2aE45txbSDRp0QOXUeMU2KElXp4pldpd1kLVUjgJhWtR1lPRCAAAS6iEAvHGK6aDswtQcIcDArxyYjppVjH8SKrO8hTREg4f3Dvzbe5+AUAceG29vPNby/394D3OoHf+j7SJ7NJ+dNc5J+QNMGpG0nNkeF/MvnT90+3Un+TA2/Hzf1Zjdm8tX+c0lToOH4mk9UUxRIO7HJenhJ0ZoXFs5zO7f2uQOPOt5Xkv7ozbVOK2TbVAOhcGZFsMNPPbM2v9io/dReSakgl/VM0xQCR0w8x//uL8edEZlaQew+9tzLfFVt3Q9N26CpGuLSI8gcf965w73zm6f9Ptj1lOfudI5ndpl2A1sgUE8AMY07AgIQgAAEOkYg6yGmY4YyMQQqQoCDWTk2EjGtHPuQVUwLvam0+I0KOiMnne9FHxFqdvRtrhOgJI/mkBGjvLC0ffN7XoQTwUra6s8iVDVqJ8VztHiN5qAUAU1FM1mTCl8i2H3r1oediGdaEEb7aOhkUgVo7a/5R6PmVRHOFtSxotwrjy70my3tbAVsZRGKaeufXlJXKOiX0y9wYy6c5lSUa2S3DfOUvKXS//QZC2rstViPcBehTQsSabs4L7lO3bE8sztFnnkh0JgAYlpjRrSAAAQgAIEWEUBMaxFYhoVADAEOZuW4NRDTyrEPWcW0uJxi4edWoNq1bUtNMBMPNhFxBh04zItuoSeYCmtJ7TasfKoufFI92r5+1Rz3zJ2znIpNcUVgwpxptp3wsEVrrD2h95ktqCP9RCRUbzBbYdvutBUj48S01Q/9qMZH+lpedqw4u62YJu2tx5vYrGuyIl+akNNO3bE8sztFnnkh0JgAYlpjRrSAAAQgAIEWEUBMaxFYhoUAYlqp7wHEtPJsT9J7yFYslpDCQ447uU4Y01VYkUaEMCv0iJgWhjDGiWlp2omYtmTmJXUAJXQ0DG9MEtNs6KMMpOGfoZgWVnSOmlfDXEMvPfFEEy8vG/6qRlvvO+uZFgqCoZiWxm4rpm3b/Ps64TH0mNN9QEwrz98jlkCgmwggpnXTbmErBCAAgYoRQEyr2IaynNITwMuhHFuEmFaOfRArsryH8nqmpRHJJOQzTTsR07Z9sNGHTdorFITixDTNl6ZiV5JnWiimRc0bCorHnDPFbVi53IeayiUea+ot14xn2qFjT/O50RrZncUzDTGtPH+HWAKBbiSAmNaNu4bNEIAABCpCIMshptklh6EwGo5ixw29C7LMqYcESfIsl01ALf+2vz/xshlu5x/7fEJoTfycZS6qW2ahRVtLADGtHPcDYlo59iGrmGZzfonXlYY+njhluls6Z6qLy5mWRiRLK6bZnGkSsqn52dSrS99tacU0WcPqBxf43Gpy2TBPa7cNXbXzimj2pX79a/nQpBCAFlUIq3GqZ1mcZ5rmetNQTFmr5kwLxbQ4u7PkTENMK8/fIZZAoBsJIKZ1465hMwQgAIGKEOiEmKb/4R+FMK+YpgcsPUjJ2DKWTd4sbZ69a7Y75crZfmr9WUKCslwy7rsvPVfzSlBhrWxJk7OsibbtI4CY1j7WSTMhppVjH7KKadI+rmpno2qe+u5JypmWRnSTd4YNd9QvbqyIJO8DK6Zp0YEPfvuiF80+XPdqLVT0jJvudB+tX+vznUnC/jgxTd9rWs0z/MJIfi9rW7/icT+H5maztsqXR3KJiKUFBZKqecocw08Y7/bad3+fY04ENA01tXYPHnaY91qTK0s1T8S08vwdYgkEupEAYlo37ho2QwACEKgIgTRimhWhVHgKExLbZMdhThX5BlwOFnGeafYAJP+hr9W9wgPL6O9cWhe28tmO7W7dssW+8prkZYkKfwlzyMg39vsdeoTrv88gt2nNKp+n5ptzf+pefWyhs+NpYmb1ctM1yLf8z9/zPXf02RfVDipi/2uPP+DGXXGT9w7ggkASAcS0ctwfiGnl2Ic8Ylp5LMeSXiDAM7sXdpk1disBxLRu3TnshgAEIFABAnnFtLgqYvKt+vLbrnUTrp/vxSZbfeyjN9f6fDQ2FEa/zbahOSqm2VAa/VZ/wP5D3ZjJV/scMPKz5G5JSlxsPd1ku5bNu8addPlMJzlr9Gc7tubAEbFQLvm39XCTz0LhLEpgq8CtwRJaRICDWYvAZhwWMS0jsBY2T/MeauH0DA2BRAI8s7lBIFBeAohp5d0bLIMABCBQeQJJh5jQw0xhSC6WA444piaayecalhKGTFrRLUpMsyEt0tcml5Ykz5vWrPTeaOLxFXq2RSVUDkMt7XiNxDQdL8zJY8U6GcOGeCoTQj0r/6dS2AI5mBWGsqmBENOawldoZ8S0QnEyWMEEeGYXDJThIFAgAcS0AmEyFAQgAAEIZCOQ5hATFeZpBaYwxFKEpefvnlszRMMzo8Q0aaSJjqPENM3NooNJ/pYwH0uSZ1oWMc0mjZbcLxISai8REeWKCidFTMt23/Vyaw5m5dh9xLRy7INYkeY9VB5rsaTXCPDM7rUdZ73dRAAxrZt2C1shAAEIVIxAmkNMlJgmGDQfmfx8yHEn1/KiWXGsWc+0KOEqSjyzOdvsFtnP4yqraZhnVAU2TeCsY4bFB/RzxLSK/WG0cDkczFoIN8PQiGkZYLW4aZr3UItNYHgIxBLgmc3NAYHyEkBMK+/eYBkEIACByhNo5hCjhQP+635fcWfdsshpwQAV07SymUCUUM0ozzRN9K8hltI3KmeaiFryux19m+tyrmlYZ9pqnkk501RME3ttzjRd5+kzFvhKa+RMq/yfRUsXyMGspXhTD46YlhpVyxs28x5quXFM0PMEeGb3/C0AgBITQEwr8eZgGgQgAIGqE2jmEKMeYloIQFjpZ1IFUyplSoXLdU8udhNn3OG2bnxrtwIEIobZap7jr/2B2/re79wpV86uiXMPXTzeb4OEeIpopyKdFb/CuW17zeOW1jMtaiwJ8Rz5jfP8+qjmWfW/itauj4NZa/mmHR0xLS2p1rdr5j3UeuuYodcJ8Mzu9TuA9ZeZAGJamXcH2yAAAQhUnACHmOwbHIZ6EuKZnWEv9+BgVo7dR0wrxz6IFa16D9k0A1LEpqjLfgFkxxw39WZfATrpsnk8w4I9tp+8VwYdOMx/icPVWQI8szvLn9khkEQAMY37AwIQgAAEOkagVYeYji2oTROrgCbTRVX3bJMZTNOFBDiYlWPTENPKsQ+tFNNatUIRxJbfdq2bcP18p3k1wyrQzc6NmNYsweL688wujiUjQaBoAohpRRNlPAhAAAIQSE0AMS01KhpCoBACHMwKwdj0IIhpTSMsbIAs7yEVslSEk9B/SSGg6QDk88mLVtQK4ry+9Oe1nJ1hygDxDLOpCWxf9SDrN2AfJ2kLwt+FYpr83gpgjcaV1AeaZ1Tt0srX659e4rSStaYYKAw2A2UmwDM7MzI6QKBtBBDT2oaaiSAAAQhAICSQ5RADPQhAoHkCHMyaZ1jECIhpRVAsZows7yFbEEZzblphSyo4b1qzsq7ozYlTprun75jpTrp8pvckkzZySQilFrbRIjlPzpvmvnXrw/73v5x+gRtz4bTd2m3/8P2Gnmm2iI2Em9pxX7j3+z6P6Ccfb62No1WlNQcpnmnF3FtFjMIzuwiKjAGB1hBATGsNV0aFAAQgAIEUBLIcYlIMRxMIQKABAQ5m5bhFENPKsQ9iRZb3UFSIpV2JzZOmFaRDMU3bq/eYFrPRf0t16QOOOKZOMLPjipgmQlvf26/XQVQvsjDk084jFaFVTNuw8qma8Cc53ewcqx/6ETnTSnKL8swuyUZgBgQiCCCmcVtAAAIQgEDHCGQ5xHTMSCaGQIUIcDArx2YippVjHxqJaeKh9fzdc72xkuB/xGnfrolRmsDftpF2Gi6pYpp4nVkBTH//+ae73BM3XuyLBoiXm1zqESZimopeGo6pIaOhZ5qIYNJPQk6lrYpp76xasZvYZscVMU3DObWhVq1+5dGFiGkluUV5ZpdkIzADAohp3AMQgAAEIFAmAohpZdoNbOkFAhzMyrHLiGnl2IdGYlpoZVgNMxSyojzTREyz1TwlzHPbBxvdmMlXu6dun+7iPNPSimkqwu3o2+zDS0WkWzbvmlpYqV2DtV/ENLEjqgIoYZ7luT95ZpdnL7AEAiEBPNO4JyAAAQhAoGMEWiGm2cOMPcDogWPQgcN8Dpo8V3iQijpo2fAb9UAQOxr11bGKbifjChObILvopNL2QCnJuNWDwvK3IUxJ/NOuP8/+hX3kUBt6Zuz/10f6nEVaJa+IedLsgXq3yD1zxIT/5n522SSXxxbh99rjD7ivXXKdW3X/7e7osy+qWwsHs6J2tLlxENOa41dk7yzvoSQxbY89+3txTC7NgSbPwmPPmeJW3T/f5ykTz7G0OdOyiGlhaKfNmWbzvNkwT5szTZ53Nn8bYZ5F3mHNjcUzuzl+9IZAKwkgprWSLmNDAAIQgEAigSyHmLQoWymmJdkQJqZW8U69BSQ0xx6O4sZKKyalbWeTT8uBKa2olZa3CkU2zCiqb9p5064ri31xbW2ycBX+ku6fvHPKPG8sfaQWhqUsNNm3/Pv5e75XE77sYTvLnOE4KqyNu+KmmmcMB7MsRFvXFjGtdWyzjpzlPRQ+n2zVTBG/5W9t3ZOLvXBmv1iwFTLtlyxZqm7GhXnqeu1zRoU9rQSqX6BEiYFRVUb1i4aiv3jJuje0d45nNncBBMpLADGtvHuDZRCAAAQqTyDNIUa+cX/2rtnulCtn+2/19VLxSpIwa54Xm1um394D3OoHf1j7nc0PowcE67GlBxwZX7wLROiwuXIkFMYeROSg9MLCeW7n1j534FHHe2+i3zywoCaYyDiarHrcFf/TvXDvXCc5bNRW6W+9xSYvWuEGDzvM59DRdnIwe/GfflzzaFChRxJaL50ztW48yXET2hsnYIUHKuuhZb2hRCD7884d7p3fPO2TXYeeduqFJ7mExDbJ2RN6pqnH1RETz/Fb95fjzvCegaG3XJb1q9eH5a+fKdM4W+36osS0kI3Nh5R0INWDruRJsnbFJR+X+1pCsU645Dr36mMLnR56T7xshvv1wnmelXCVa8uGN926ZYudzh9lk4qa7770XF3YlrQ95LiTazmZOJiV47GKmFaOfRAr0ryHymNtc5a088uK5iyltxLgmc29AIHyEkBMK+/eYBkEIACByhNIc4iJEtM0pGXkpPO9MGPDU0TMEEHFCg8CUsQwmwfGVmUbeMBBNQFN89hIHxVonpw3zYf+yaXeZSIa6efi8aU2/duWf40ME7SHmDC8xoo61oNN2iWF+lhbVMwRG9XLSX5eftu1bsL182PDFsOcPzY8SH5WkUxsEfHs9BkLaqKf5R8lpok3hnpkaf8xF07brVJdnvXLPlv+jfZT8xKJnSo4RYlp9rMo+2X9NlQqTA4e2hXn6WaFzsNPPbMud5LmVNJ7Vr0bxXsuZKV7IgnMQ+EsSmDjYFaOxypiWjn2oZfENLzNynPPZbGEZ3YWWrSFQHsJIKa1lzezQQACEICAIZAkpoWeS9pNRLKw0pkVUnZt21JX2cyKWLZCWSikqOjx9avmuGfunOUOHj3WC3XqQXTS5TN3E9OiQhvjvLySPAKs4NKsmGbzlOXxQgiFHBUiVfwRUSoUk0KPPRX2wrw7cUmt86xfRCvLv9F+qphm/wCjcqZZL8fQXhUaw4p+YdJxa1easONGYlq4B3pvyudqo4xhQ0V1nWGoJwezcjyCEdPKsQ+9JKaVhziWZCHAMzsLLdpCoL0EENPay5vZIAABCEAgpZimzaI800JvKit4iZhmE+AniWlh8nkRUibNuscLFCq+JIlpUYn27QZbO0MvMxuqJ300LDGPmKZJrXU9NhyxkWdamLNHbJHwwtCTz4ppKuJIWKfMHSWmhaKkFX7Um1DDUvOsX8Q0yz9JGJPxbfis2h3lmab7FxUiq0JjIzHN2lWEmKZFM6L2Svfr2HMvi6zgh5hWzkcuYlp59iWNh3R5rMWSXiOAmNZrO856u4kAYlo37Ra2QgACEKgYgTSHmCgxLfS4SvJMs4JW6Jm27YONdfmlBK8VjSR0Lq2YFpU0Pq1XW1rPrLhwSJtLzto/ZMQoHz5oPZlkjZap5JLbtGalD2nVMELlYj2zivRMGzT0q3VeZXnWHyWmRe1n+Cdj55IwTrv2sG1azzS7L6Fd9h6wFULt5xpmrAJu6B0YimlRXnZh8QFdC2JaOR+aiGnl2Zc076HyWIslvUYAMa3Xdpz1dhMBxLRu2i1shQAEIFAxAnkPMWlypklCe80jJdiScqaJyKF519SjKqtnmhX0VDSx1dWsZ5rkW9NQQK26JjaKoBV6pmlOLBXGotqJIKZCUiiqxFXz1EqSVgj6/NNd3oNLuCV5poUinc2tZgsQ2FBMmzPNiml51x+KViF/3c+wAECjnGn2TyzcP90LCXON25fQLhkvTTVPET0biWk6lgqAul82d50tNiDt7Xrl3xzMyvEQRUwrxz6IFXnfQ+VZAZZUmQDP7CrvLmvrdgKIad2+g9gPAQhAoIsJNHOISVvN01Z1DBMw27xsmitLxZ2sYppsg7VJ/m3zb6kAKJ9rKKlUcJTqklK1c92Ti33VTrlE0JJLwhG1Cqm0k1C+j9av9aKbCinhePJvDfPUWyPMP6dhnPJ7tUsriB5zzhS3YeVyP4fNeRZ67Nm1jr/2B27re7/zFVfjqnkKi+EnjHd77bu/0xxhzaw/SrSK2k8tEKBVPu2eJIV5Kru4ypl6L4X7EmWXilq2eqvdo5BtnGdalE12L0PhTNpTzbOcD0jEtPLsS573UNSXJ+VZEZZUiQBiWpV2k7VUjQBiWtV2lPVAAAIQ6CICeQ4xXbQ8TIVAWwmEXolhiKcYw8GsrVsSOxliWjn2QazI8x6KqpybdUWhiJ61v4rlGgaelJ+x0dhx+Riln/1CqtE4VvBXu9L2acb+tHN0Yzue2d24a9jcKwQQ03plp1knBCAAgRISyHOIKeEyMAkCpSGgAtrXLrnOrbr/dnf02Rc5m6uNg1k5tqrXxbS33nrLnXfeee61115zEydOdD/72c/c4MGDG27Orl273KxZs9yll17qDjvssIbt0zTo1HuoaDEtzVrTtCnC6y6ucnOa+WlTT4BnNncEBMpLADGtvHuDZRCAAAQqT6BTh5jKg2WBEIghwMGsHLdGL4tpoSC2cuVK96tf/crdfPPNDTdH+t5+++1u6tSpqcS3hgPm8EyLSjEQpgeQea2gZKsNS2j4t2592NnCI5KH8YV7v+9D/TU0Pa5asfb/cN2rzlZwllyU2kfmlzyMEkovl+YQ1eI9/Qbss9vvlFWUmGZD6ENPNbs2DV+Xtf+X/nu7d36zwkkKAQ1HT5rfeqZZ+2W+fnsPcPv/9VHugCOOSeSUZGeae6GMbXhml3FXsAkC/0EAMY07AQIQgAAEOkYAMa1j6Jm4RwlwMCvHxveymCZeaffdd5+bM2eO69+/v0sjkFlPNruDv/71r93YsWOb2tQs7yHNMSkFWrTAzY6+zT7HpFQH1kIwtlrvrm1b6qoXi9Ak15jJV3vBS/JzJolptpCLCG3aPywSY8UoyXepdkn/J+dN8wKeXFI8ZcyF09zIb5xXK7yj1Zzl96GYZv+tAqAWsLFzSh7PZfOucSddPtO9+dT/9sVPJO+nFp85fcYCv864+W2+SVtpWYryaJ8kMU3aLb/tWjfh+vk1oVLtbOoG6XBnntkd3gCmh0ACAcQ0bg8IQAACEOgYgSyHmI4ZycQQqBABDmbl2MxeFtNCT7QsoZsSDrpz5073L//yLzUxrtkdzfIeEoFIKzGLsKWeVuJRZqs0h4VYrI1aYCStmPalfv3rlhhXoESFrbAitYaTHjx6rPfsUsFJwr+j8pSFYlpYqCUU7aJyo1nBz4azipgWN7+KaWq/2CuCn1zq5ZckplkBTphVJQcbz+xm/8LpD4HWEUBMax1bRoYABCAAgQYEshxigAkBCDRPgINZ8wyLGKHXxbR3333X/d3f/V0N5dy5c93f/u3fJnqZiQj38MMPuwULFvhQT7nShIY22q+k95Ct5iuhioccd7KzVXllbA273OvLg+s8s1RkikruL2OlFdNkDhuyKf/WsEkbSqri0YlTprulc6Y69Z5LK0apaBclpmk4qbKUqshaldqKXvp7a1copsWFs4ZimlbUTmu/iGlRdop3nAif3XrxzO7WncPuXiCAmNYLu8waIQABCJSUAGJaSTcGsypLgINZOba218U0myMti2daK3Yvy3uokbeTiEh777u/+3jThlrxj9CzK41nmu0Telw165mWlJtN+EaJaRq+GvKPKzRQhJiWxjMt5BRnZyvum3aNyTO7XaSZBwLZCSCmZWdGDwhAAAIQKIhAlkNMQVPWhml0KGpmPhv60+w34qFXg3gE2G/a7e9PvGyG2/nHPp9YWj0XmlmH9pWDkXhkyPXuS895jweu7iTAwawc+9bLYlqenGmt3LUs76EwZ5qIOW8sfaT2TNYE+DZJvxV8JK/YEzde7POthZ5pkhdM8ooNGTHKe6LJpbnYNq1Z6X+2/fPmTMsqpoXimrwPbJ640DaxS94ToWdemtxwWkBBBETlqjnXJM+bhHnGcbI50ySE1doZhsq28n4qemye2UUTZTwIFEcAMa04lowEAQhAAAIZCWQ5xGQcumHzbhDT9OA2ctL5tdwxYrcmk5YDg7R59q7Z7pQrZ/s168/NingKUOazApoKa3IY5Oo+AhzMyrFnvSymRVXz1PBNKUgg4ZxaVMD+3Kqdy/oestU8NcRTnsVyRT2z9TOpailfhhxzzhS3YeVyF+Y206qYMuax517mPlq/tk5AC/ur0CahjVJFM0s1z7iqobKGRtU8wy90bCisrebZjJgm4peOK/MNHPoXTj3V4jhpnjQNww3tbNX90+pxeWa3mjDjQyA/AcS0/OzoCQEIQAACTRJIc4ixYpEKRPof+zK9jGErhvW9/bo/sFjvLXv4UY8Bzc/Sb+8BbvWDP6zrE3qDTV60wnsSRM0rNoingR501Bb59n/oyGPdivk31HLq6IFLvRekr9ojP4s3wmc7trt1yxY7mXPb5t/XqsNZ1BrmIwcunXu/Q49w/fcZ5DatWeXn++bcn7pXH1tYN556PIjnmly6rnC9eiCSz5+/53u1cCU9aL32+ANLnLsgAAAgAElEQVRu3BU3uW7+tr/JW7dru3MwK8fW9bKYJjtgq3NOnDjRSWGBwYMH1z7/8Y9/7Pbbbz933nnnOfm52YqdSbue5j1Ujrumd62ICyftBSI8s3thl1ljtxJATOvWncNuCEAAAhUgkOYQEyemaaiHiFxh6I0N75CwmGXzrnEnXT7TaeiHfGMu3+LLN9giKKnINGD/oT6E0VYis55ggtzOaxMrix0qco047du+nYSlSDUya48NRRl4wEFeQJN5NeRHbQjHttttK8rJ57o+mwDbjq1hmXHr+nDdqzXRzvKW8JpQOIsS2CpwK/bMEjiYlWOrBw0a5L8I+Pjjj8thUA9bkeY91MN4SrF0xLQvSrEPGAEBCNQTQEzjjoAABCAAgY4RSDrEWO8ta6B4TUnelOW3XesmXD/fC2RWXBLvNZuzbOvGt5zmYbGeVGGf0NtLK6GFlcjsvHG50cIwGRtSGiaT1t9pyI+GsiSJaXbeRmKajhcKjnb8OA+4MMRT94FQz479yTQ9MWJa0wgLGWDChAlu586dPqSRq7MEENM6y5/ZkwnwzOYOgUB5CSCmlXdvsAwCEIBA5QmkOcTEeaaFSZQ1T4pC01w24nWlCZJDMc2KbFGhk1EiXjivCEs2pFT6hCJbKKZJjht7SVjqpFn3eA82SdIsXm5FiWk6ns3bE65Lveeev3uu/5WGf9qqcbYPYlr3/mlyMCvH3l1wwQXupZdecuvXry+HQT1sRZr3UA/jYekdJsAzu8MbwPQQSCCAmMbtAQEIQAACHSOQ5hCTVkyL8j6ThcUVGgg/t2KaDQu1cEKRLMkzLa5imnimbftg424VMaPEszgxy34ufJLCPK2YFrcuu0Y73q5tWyKrdyKmdexPpumJOZg1jbCQAebPn+/+4R/+wW3fvr2Q8RjkPwn88z//s3vsscfc7Nn/UZSl0ZXmPdRoDH4PgVYR4JndKrKMC4HmCSCmNc+QESAAAQhAICeBvIeYUMQKQxhFbHpj6SO1wgQ2NFPzhh1y3Ml14Z9WoLK5xbR4wekzFrj+g/ZzViSLmle84I49Z4pbdf98F1UxzeZM0xxuO/o271bZTZCmreaZRkyT8eLWJdU6tfIaOdNy3sxd0o2DWTk2qq+vz33lK19xf/jDH3yifa5iCIiQNnr0aPf555+7U045xT3zzDMNB877Hmo4MA0gUAABntkFQGQICLSIAGJai8AyLAQgAAEINCaQ9xAT5RFmK3ZqiGdS9Uyt5nnadbf6qpRWTIurbtloXq0iKon74zzTZC6bD0777LFnf1+MQD3JlF5oS1ipNK1nmowXt64wBNRW+aSaZ+P7uJtacDArz24dfPDB7qSTTnKPPPJIeYzqYkvWrVvnRo0a5YU0ueT9cvLJJzcU1PK+h7oYFaZ3EQGe2V20WZjacwQQ03puy1kwBCAAgfIQ4BBTnr2IsyQsQkCIZ/n3LMlCDmbl2T8J9bzhhhvcli1b3MCBA8tjWBdaEgppuoQ0glqW95D98kK/rCkKl/1CyI4ZfoESNV/eape2X1xKhKLWxzj5CPDMzseNXhBoBwHEtHZQZg4IQAACEIgkkOUQA8LOEVABTSyQkFCpdMrVnQQ4mJVr38ST6uOPP3bvvfdeuQzrImvihLS0glqW91CrxTSbkiDLFhQhpmWZj7btI8Azu32smQkCWQkgpmUlRnsIQAACECiMQJZDTGGTMhAEepgAB7Pybf7w4cPdn/70J3f33Xe7c889t3wGltiiRkJaGkEt7XvIhslLKoETLr7W/f6VF5ymChDPstcef8B97ZLr3DN3znJDDh/lXnl0oet7+3V35vfvd1I1WS7rgWa9zuTzJDFNPMde/sVP/Bjrlj3mbMVqrRAt8wwa+lX3wsJ5bufWPnfgUcd7+yStgVa8Hv2dS/1nUgwn7KeFfGQOSTuwZvF9fj4N/ddUB/0G7LPb70p8m3S1aTyzu3r7ML7iBBDTKr7BLA8CEIBAmQmkPcSUeQ3YBoFuIsDBrJy7dfbZZ7slS5a4IUOGuAkTJrgzzzzTjR071hcp4IomkFZIaySoZXkPxeWolJBPybsp1+GnnumFqO2b39utCM5eXx7snrjxYu/de9CoE3xRGClAI+JWWJwmXLXm2hRha8iIUX6OAfsP9WOF4ZpPzpvmvnXrw07ssiLdwAMOSuynYtrqh37kp5exZV4dTz775fQL3JgLp3lx0Nov+UC5iifAM7t4powIgaIIIKYVRZJxIAABCEAgM4Esh5jMg9MBAhDYjQAHs/LeFP/2b//mpk2b5n71q1+5zZs3u88++8x98cUX5TW4w5bJ+yMPn7BPlvdQGOapIfAibmmxFhWsDh49tuaNpmKXeI3Jz2fdssj1H7ivF7q0WI0UrhGhSjzZ7DVu6s01Ucv2DStQa0VmEb/CdlJlWj3obG40Ec1sPxHTTpwy3S2dM7Um+KlHnhTHkYrW1nuOPGut/yPgmd16xswAgbwEENPykqMfBCAAAQg0TSDLIabpyRgAAhBwHMy4CapCoB2eaSJKPX/3XI9MRK1jz73MLZt3jTvp8pne60sLtIw47ds+xHPcFTf5tmFlZiumabil7oOGa8q/G4V5qudYWIE6qZCAiG4azqlzaniphKHGiWnvrFpRd6tICOkBRxyTWKm6KvdWmdbBM7tMu4EtEKgngJjGHQEBCEAAAh0jgJjWMfRM3KMEOJj16MZXdNlpBbWkqp5Z3kOhZ5r8+9m7ZrvBf/FXbq999/eeaOrJpZ5p9t/imWYFMbstaXKm5RXTtn2wMbJwTJQIJ55pT98xsyYYhjaqJ5141uGZ1vo/LJ7ZrWfMDBDISwAxLS85+kEAAhCAQNMEshxi0k6W9B/3eSue6dw2JEcOEmkOQjqn5tGRUBnJlRN15a0Ul2RXWm6N2mm+Hm1nE2rLZ+rBIcmtj5jw39zPLptUS5AtHhzNXja596r7b3dHn32R9wzhykaAg1k2XrQuP4FGglqSkCary/IeinpGy7Nv/YrHaznKVDyTscNcaGHONPEae2PpI7vlVot6toXvtqQwTyu6hSKdzXMWFeYpNtucaVow4fQZC3yYJ2Jae/8meGa3lzezQSALAcS0LLRoCwEIQAAChRLIcohJO3ErxbQkG+K8CrIIeHnFtLRs8razBz4REfWwqMmv5d+aL8gm4tbqdXnn1X7h+CqsSUgVSa+z0eVglo0XrbuDQJyg1khIyyqm6bPvg9++WBPPwneOfT5qiKhWw5T5bDVPDfHUQgFROdO0za5tW+q82qyYpqGcWs0z9H6zX4bYCqJx/cROW81TvzwJv7jBM631fx88s1vPmBkgkJcAYlpecvSDAAQgAIGmCaQR0zSM5pQrZ/uEzXrZA4k9HOh/3Pfbe4Bb/eAPnf5uw8qnanlj9GBgDxjiUSXfyOshQoQimytHqprZg8TWjW+5FxbOczu39rkDjzreHXvOFPf0D2e6CdfPr/OYivNMC3PxjJl8de3woocnTWS9ZvF93i49kKlwpwdBEZVe/Kcfu4kz7vCM9IAk40iOn4/Wr/Vrs14INqm0eMrF8YwT+PTzEy65zr362EKnNp542Qz364XzvL2SY0iuLRvedOuWLXbK3a7derjFHfg0L5HsgV6a+DvOy6/pm7OiA3Awq+jGsiwXCmpphLSsYloU5vALk/DZytZAoBkCPLOboUdfCLSWAGJaa/kyOgQgAAEIJBDIK6aJkPPEjRe7kZPO9zlqbNjKR2+udZLg2Qo3YoIIMfbQYz3JVLQSAU1FLekjApSM9+S8ad4LQS4NcRExTT9Xr4Ko5NFRYpqMo54D8rN6dUkIkE1uHa7L2iEeDBJ2o0KYrQindui6dC1xYtrgYYd5nsJIxgvnjcrxY/MAhSGsYfjRjr7NtUpy8jutLLf9w/d99TpZh9hg1y7t5NL9PeS4k+vCY6MENv7YGhPgYNaYES26l4AV1E455RT3zDPPNFxMmvdQ1CBhOKd6ySKmNUROgwwEeGZngEVTCLSZAGJam4EzHQQgAAEI/CeBpENMmKNLe0VVFLPCmITCiBh01i2LvJeW9SazlcusqCOHIPVo+/pVc9wzd85ymjzaemaFYlo4T1SIjvQRm63gZMU0G6Zo51IhTHOsWfFKKqpZ4c6uUTzwVKyy60ryTBN74piJaBiXMDvO6y4U02R8EerCxNw6r1STO3TsaXVimu53GOKpnxPqme9JwsEsHzd6dQ8BEdQeffRRN3v27FRG5xXTUg1OIwg0SYBndpMA6Q6BFhJATGshXIaGAAQgAIFkAmkOMVFhniJ8WfHHilBhXpkkMW3JzEvqDJSQ0Emz7vFjq4iVJKYlJXnWgZMEJ51fvejsXGGiais8iZhmk0CHYpqt3GZz2sR5psnY4s1nr7g8PbZNWjFNxDJb5U5DQnUsCQfVMFoVJDXs9vNPd0WKbIhp+Z4uHMzycaNXdQmkeQ9Vd/WsrOwEeGaXfYewr5cJIKb18u6zdghAAAIdJpDmEBMlpoVJkJM806zwFnqmWdFJUYQhOq0S06Lms6GOjTzTksS0NJ5pGiqrecjivM8a5Uw76fKZLrQ1rspclvAnHUPCbm1xA+WGmJbvj5eDWT5u9KougTTvoequnpWVnQDP7LLvEPb1MgHEtF7efdYOAQhAoMME8h5i0uRM02T94j0lV1LONMl5pnnCNMyzlZ5p2zb/3qmQZ8MYs+RMixPTPvl4ay0P2ZARo3xRA7k0zFPzl2luOeEU5kwLq3emqeYp8yizODFN7LDhteJ1prnvQm87cqa15o+Tg1lruDJq9xKQ9xAXBMpM4IsvviizedgGgZ4lgJjWs1vPwiEAAQh0nkBeMU0sT1vNU8MFJX+YVrmMquapVT/32LO/F6BaKaapyKXhjmqPem598NsXfcGDpGqecWKa5Imz+eYkhFIFNBWv3lm1wo258O/dZzt31NZpeWqIp4iMeoU57GwVztDjLElMk/HCSqbqHaf7I23svlHNs7i/VcS04lgyUjUINPMeqgYBVlFmAjyzy7w72NbrBBDTev0OYP0QgAAEOkiAQ0zr4ducabbYQetnLm6GsAgBIZ752XIwy8+OntUkwHuomvtalVXxzK7KTrKOKhJATKvirrImCEAAAl1CgENM6zeqCmKaUFIB7WuXXOdW3X+7O/rsi5z1nGs9yWrMwMGsGvvIKoojwHuoOJaMVDwBntnFM2VECBRFADGtKJKMAwEIQAACmQlwiMmMjA4QaIoAB7Om8NG5ggTK8h7S6shS+TjuylLEJWoMmeOQ4072v3r3ped8LlGuchPgmV3u/cG63iaAmNbb+8/qIQABCHSUQFkOMR2FwOQQaCMBDmZthM1UXUGgLO+hVotpYe5JFdYOGnVCV+xTrxrJM7tXd551dwMBxLRu2CVshAAEIFBRAmU5xFQUL8uCwG4EOJhxU0CgnkCa95BUkH72rtnulCtnOynyIpeEnkshmKEjj3Ur5t/gwsIttmhLWFDloYvH+zG08M2GlU+5JTMv8Z9JcZdBQ7/qXl/6c1+FWYvnSAXoMZOvriuQk1SI54WF89zOrX3uwKOOd1KlOgyPJ/dkd/wl8Mzujn3Cyt4kgJjWm/vOqiEAAQiUgkCaQ0wpDMUICFSEAAezimwkyyiMQJr3UJyY9svpF7jDx5/twyWlGvGmNSu9ALb9w/ed/O70GQucVm8esP9Qd+y5l7ll865xJ10+0+d8lD5ySWin9UwLc11qhWQrpg0edph74saL/dziXSb9tXLzR2+udU/Om+arQss8UcJZWNilMKAMVCgBntmF4mQwCBRKADGtUJwMBgEIQAACWQikOcRkGY+2EIBAMgEOZtwhEKgnkPQest5ltpd4jx1wxDFu+W3XugnXz/eClQhuKpTt2ralzrNMxhGxa+INd7jnfjy3JqbZMbOKadJX+px1yyLvLaeechNn3OG2bnyr7ndhiKfOS6hn+f8aeGaXf4+wsHcJIKb17t6zcghAAAIdJ9BtYpo9rGioT9EQNcH0msX3+aE1DEjns78/8bIZbucf+5y0HTf15tTJpG1oUHhATEp+HbVW9ZiISmRtPTUkVImr8wQ4mHV+D7CgXATSvIeSwjxFvJLnsxXTPlz3as1LTZ599t3xycdbvdda39uvOxv+mUdM03BRJaqhpqGYF/ecRkwr170YZQ3P7PLvERb2LgHEtN7de1YOAQhAoOME0hxiOm5kGw2Qw5iE7YycdL4P+5FLPApsuI491Mnvwzw+acyVg531qJA+9iAoXhZpL8S0tKTK0Y6DWTn2ASvKQyDNeyhOTLPPUftcjfNMUy8yXb19fiaJafI7uWyYp/zb5lWzRMMwUTzTynO/ZbWEZ3ZWYrSHQPsIIKa1jzUzQQACEIBAQCDvIUaGkcPF83fP9SOqV1boOWYPFJJDRg4e/fYe4FY/+MOax9cee/b3CZ2HHD7KvfLoQu8tICE8Imbp4UjmEFvHXXGTe/Gffuw0jCYcT7yzRPiyY0jfqETU8rnM+9mO7W7dssVu8qIVbtvm3ztJMh16eemBS/LtiNj2zqoVbr9Dj3D99xnkNq1Z5RNff3PuT92rjy2sG09z9aiXm8whuXWixDT1eDty0nd9G5lTE2LbxNrCfcuGN73Nwkkua7OuVfoMP+FU99nOHbUk2vwBdJ4AB7PO7wEWlItAmvdQlMXq4Tvmwmn+fZEmZ9qI077tixaoN1tSzjT9EmWvLw/2z315LiflTJOx3lj6iA/7lDBPK7SRM61c91wWa3hmZ6FFWwi0lwBiWnt5MxsEIAABCBgCaQ4xUR4BViST4Z6/53vu6LMv8iPbg0oopklIjApl4Tf92ze/5w8hEoKj3gYyniaRVhFKx5fDiownApWKVjqGzVdjxxt4wEFeQJNE1Hookp9FPAvFLHujaL4dsU8uzcsjhyz92Y6tYpyuUf5tPdxkjNAzLfSqsLl47Dg2ybWtMidz6OHSJt2WubQiHTd/5wlwMOv8HmBBuQikeQ/FiWnyPug3YB8fah+G5MdV87RfVNgwT/3cvqPkCyMZd/gJ492fd+1MrOZpv/QIPdOiig1QzbNc92GcNTyzu2OfsLI3CSCm9ea+s2oIQAACpSCQN/HzoKFfjQxvaeSZFpWs+dRrbvFebgePHlsLrdRwmzDBdFKCZxuiY9ttWPlUXe4cPeR8/ao57pk7Z9XmTRLT7HiNxDRdh4aMaqU3O37/QfvVcvbYG0E918KbIwxFkt+rYGd/FxVaFBeGVIobsAeN4GDWg5vOkhMJNCumqZdZ2TGHoZ7kSyv7jv2HfTyzu2OfsLI3CSCm9ea+s2oIQAACpSCQ5hAT5Zkmxttv921YZpJnWhj2Im1VTNPwRhnbiml2vFBMs+MliWkaLqnQxdNg0qx7/Dw6b1Fimo6nYpqEhNorqgpdeDOERRDk9xpKa9ep+6BhnmHBgVBcK8VN1+NGcDDr8RuA5e9GIM17KApbOwrSFL1dKqDJuO++9FzqojVF28F46QnwzE7PipYQaDcBxLR2E2c+CEAAAhCoEUhziIkT03SQ0OMqzEezac1KH2YoOdOsZ5qGTqqopR5dOp78WzzTihDTovKgRYlnccn87ee2UEBUmKcV0zQENCwoEJUzzd6WoSgWlyQ7FNPwTCv/HzcHs/LvERa2l0Ca91B7LWI2CPwnAZ7Z3A0QKC8BxLTy7g2WQQACEKg8gbyHGCvu2FwwAkxznGkeM/lMxTTNcSb5z8Kcadpu+4fv1+VMa1ZMsznTRNTSnGMa5mk94tJW80zKmRZ62Mm6wnxmEuYZ5kyLE9M+/3RXLfm1jJPkmWZDS0P+kl+Nq/MEOJh1fg+woFwE8r6HyrUKrKkqAZ7ZVd1Z1lUFAohpVdhF1gABCECgSwnkPcSEYYga5ikYNPxTkjFL9cuP1q+tiWkv/+InntS6ZY85Tfws/9aiAFod1Fa9bFZM6z9w37pqnpqkWquIWvFLbAnXFia1TuuZFjVWWKV0wvXzXei1Jv1siKjMf8w5U9yGlcs9x9UP/cgNOnBYLb9c6E1nk26fcdOd7uNNG3wVVMS0cvyRcjArxz5gRXkI5H0PlWcFWFJlAjyzq7y7rK3bCSCmdfsOYj8EIACBLibQzkNMXP6upFxlXYwW0yEQSYCDGTcGBOoJtPM9BHsIZCXAMzsrMdpDoH0EENPax5qZIAABCEAgINDOQwxiGrcfBKgMxz0AgZBAO99D0IdAVgKIaVmJ0R4C7SOAmNY+1swEAQhAAAIdFNOADwEIIKZxD0CgHWJaUiXjMO9k1h1JU0XUVruW8TV1Qda54trbIjVh6L/20SI/Z92yyEm6g6Sxoor0FGVrOI7YLpcUGHrt8QdKn4YAMa1VdwLjQqB5AohpzTNkBAhAAAIQyEkAj4Cc4OgGgZwEOJjlBEe3yhJoxXuolWJao40QseiNpY84FbFsYRgpvlPEFVZ8jhqzjGKaCJFWQFNhbeQ3zisCS0vG4JndEqwMCoFCCCCmFYKRQSAAAQhAIA+BVhxi8thBHwj0CgEOZr2y06wzLYE07yERpJ69a7Y75crZdV5WIs5IBem+t193tliMimn99h7gVj/4w9rvNqx8yi2ZeYk3TQvC2KItSYVxxk29uVaZWQvjbN34lnth4Ty3c2ufO/Co492JU6a7pXOm+nZWOLPinlZofmfVCm9HOG6/Afu4NYvv87+zHm1qpxT3GX7Cqe6znTt2K0pjeci40kdFPestJ2N869aH3a5tW5xU2VY7DjnuZPf60p/7caVojS1wIx59Wza86dYtW1xjJ59p4SBbiMh+ruuTOeRzmUPZxO1r2nunHe14ZreDMnNAIB8BxLR83OgFAQhAAAIFEEhziClgGoaAAAT+PwEOZtwKEKgnkOY9FCW6qMfXyEnn++rGItTs6Ntcqx4tIpEKPPI7uUTksmGeIj4tv+1aJ5WVBx5wUK2y9JjJV/uf5RJh6aM317on503zApRcVkzTz6UycyNvMC24c/Dosd5mO7+MK8LgmAun7bae7R++7393+owFbsiIUXW2aZjnoWNPc0/ceLGzPFRME9FP1q3CmuVhBbPQoy8U05SvCm2b1qz0fKx9sg4V5OTn5+/5njv67IvcXl8eHCmIhgJb2f4+eGaXbUewBwL/SQAxjbsBAhCAAAQ6RiDNIaZjxjExBCpIgINZBTeVJTVFIOk9ZL3G7CQikknOLRW1JCeYFabE48qKRzbP2SuPLnSDDhzmBaswXFLFpK9fNcc9c+csp6KXCHfL5l3jTrp85m5imp0nKbw0ClI4rgp7KsypKCVinvUYs/OomBbFw/Kx81uRLIuYpoJkKArK5ypSDhr61Tpbdd4wxFM/L3uoJ8/spv686QyBlhJATGspXgaHAAQgAIEkAohp3B8QaC8BDmbt5c1s5SeQ5j0U5ZkWeoFZYUrENCs+JYlpGvappCRcdNKse7w4dOSk7/qQxCQxLRS5rLgWRT8UCDXkUtpa8csKZuufXuLUC0y8wqLENBGx4gTEPfbs773ZNHxU5tLwyyximoqQKqbZ8cIxo8JpLSvEtPL/bWIhBMpOADGt7DuEfRCAAAQqTCDNIabCy2dpEGg7AcS0tiNnwpITSPMeihLTwqqaSZ5pVngLPdOiKlmqWJRVTIsrNqBeWcedP7Uup1qcSCeedlYwa9YzTXLFWTEurWdaXHhsyCfuFrPt+g/aL7J6J55pJf8DxTwIlJgAYlqJNwfTIAABCFSdQJpDTNUZsD4ItJMAYlo7aTNXNxDI+x5KkzNNE/inyZkmoZWad03DPLOKacI7rpqn5DLTvGZaoEDarn5wwW652EIxTYsWSL+4nGmHn3qm9z7T0FRZi+ZMs2KajiUedzJe6JmmOeAkx5nkYNN2NtecrlMFOh1T1iiXCpQippEzrRv+CrERAt1JADGtO/cNqyEAAQhUgkDeQ0wlFs8iINABAohpHYDOlKUm0Mx7KG01T63SqYnzJQQxqpqnVgTVsMg8YpoKTTZ81Fa6tFU1z7jpTvfR+rU+nFQ8t+LCPDW0UytvSr+PN21w4664yWnONC1ooNVNx1/7A7f1vd/5CqhyiTAmFURljcecM8VtWLm8rliDhn1qJU5pN/yE8e7Pu3buVrhBb6ioqp1hCGhY5ZNqnqX+c8Q4CHQVAcS0rtoujIUABCBQLQLNHGKqRYLVQKA9BBDT2sOZWbqHAO+h7tmrZi0NixCUPcRT1sszu9ldpz8EWkcAMa11bBkZAhCAAAQaEOAQwy0CgfYS4GDWXt7MVn4CvIfKv0dFWqgCmlQffe3xB7x3nXjelfXimV3WncEuCDiHmMZdAAEIQAACHSPAIaZj6Jm4RwlwMOvRjWfZsQR4D3FzlJkAz+wy7w629ToBxLRevwNYPwQgAIEOEuAQ00H4TN2TBDiY9eS2s+gEAryHuD3KTIBndpl3B9t6nQBiWq/fAawfAhCAQAcJcIjpIHym7kkCHMx6cttZNGIa90CXEuCZ3aUbh9k9QQAxrSe2mUVCAAIQKCcBxLRy7gtWVZcAB7Pq7i0ry0eA91A+bvRqDwGe2e3hzCwQyEMAMS0PNfpAAAIQgEAhBDjEFIKRQSCQmgAHs9SoaNgjBHgP9chGd+kyeWZ36cZhdk8QQEzriW1mkRCAAATKSYBDTDn3BauqS4CDWXX3lpXlI1D0e2jru79zL9z7fTdxxh2u/8B98xnVol6//scfuOfvnlsbffKiFe6gUSf4f0uVy20fbHQnTrkhcfa07ZIG+b+f7XJP3T7drVl8n282/Gvj3Vm3LCqMl45/8OixTqp2xu2HrGXTmpXutOtuja3ouWv7H92yede4ky6f6QYf8leF7ozsxyHHnezHfPel5yLZ88wuFDmDQaBQAohpheJkMAhAAAIQyEKg6ENMlrlpC4FeJMDBrBd3nTUnESj6PVRWMU2Emx19m2vCkdj5y+kXuNNnLPCCWlqRLG27OGewNGYAAA9OSURBVOYqdA3Yf2hNPHp/7W+c2FeUoGbFtJHfOC92+zsppsmarYCmwpqKm2o0z2yeXxAoLwHEtPLuDZZBAAIQqDyBog8xlQfGAiHQJAEOZk0CpHvlCKR5D4l30rN3zXanXDm7zntKPn/ixovdO6tW1LyrPvl4q/eEGjryWLdi/g1u/78+0n3r1odrXk0i4CyZeYnnqL8beMBB3lNLBCb1HBs39eY6semhi8f7PvK5FcVElNHfjf7OpTWxTMSZLRvedOuWLXaTZt/rNr/xkhNPLSsuSRu5xDvKji/eaVF27tq2pa6d9Ht96c9rc1qhTcW6vrdfr2MQJ5yJLYMOHObts2sS+9SDTj5/+Rc/8TavW/bYbmzV8+6Iief4Nn857ozdPNN0bGE//IRT3Wc7d3j75bLecsLy61fNcc/cOct70OlevfnU/67ZqaLdkZO+6/oP2s8tv+1aP47cUyIMyr0ggqUwsN530u/5e77njj77otp9Ibxee/wBN+6Km+q85HhmV+6Rw4IqRAAxrUKbyVIgAAEIdBuBNIeYblsT9kKgzAQ4mJV5d7CtEwTSvIeixDQrpFjPrhGnfdsLKGMunOaFIesR9tGba+s8sFTMGjP5ai/kyCXCjrR7ct40L8Lt9eXBXrATgWvIiFF17bZ/+L4XcCZcP99ZQU7ahp5oKo5Zkc7ytkJYKHipnSqyaTiotIsS03Q9IjIJG+uFZceK2m8RlXRNElZpvceEi4h+Iq4pC/Vwk3ZvLH2kTsSSPbBhnipuiTdeyHL1Qz/y5sgaVSSVnwcPO6wuzNOKfqGYZj397BjCwO6H7FsonEUJbGIPz+xOPBWYEwLpCCCmpeNEKwhAAAIQaAEBOcRwQQAC7SXwxRdftHdCZoNAiQkkiWmhh5Qu48zv3x+biysUg0LBKUrAUvFJPcdsni7xBrOClR1v/dNL6nJ+2d9ZcUjntJ508pkV1pLCN+3vQtEtjZhm12zFqDS3hV1TKEZaW8Jx9d9WTNu68a1Yll/q179mjhXJsohpVgQMBUkb/it2ROVIiwr1RExLc5fQBgKdIYCY1hnuzAoBCEAAAhCAAAQgAAEIdJhAXs+0uHDFMGeaFYNkqTaUUAWt0JPLimkfrns1VjATMU1DRhWjhhO+8ujCWjhiFOIwr5gVpsICAVZ4SyOmWe8uGwIrBRkaeabJXGGhBA1fFTEtSbyzYaxRYtqGlU/FshRvMQ3JVF7iAZdFTLOFDqKEWA0VlT2NKvaAmNbhhwHTQyAjAcS0jMBoDgEIQAACEIAABCAAAQhUg0BeMS2u0ECSmBZ6kqkwlSSmNfJMi6vAaT214nK+xXmchYn503qmxQllSd5lehfJHHINGvrVulDYsG9cjrZmPNM0N5qKcWk902wop+RMC8U0a6v9awmLD+jvENOq8UxhFb1DADGtd/aalUIAAhCAAAQgAAEIQAAChkAaMS0KWJgTSwWoY8+Z4lbdP99NnHGHL1YQF5b5+ae7fC40yaeVJKalzZkm+cVsXi4J89SE/mJ/KHSp/SMnne9zu4WC2aY1K33+NmtnVM60MLebrOfYcy+ryzNmxaO4ap46joiHWtlzjz3775ZLLk5Ms56CmhstzJkmHKLyz4VimnqVxXmmaQEIm8MtFNOi7g+b042caTyGIND9BBDTun8PWQEEIAABCEAAAhCAAAQgkINAXjFNprIVKzW8Uqt5RolpKkxp6OMx50xxG1Yur1WN1IT9NsxTRDJbgVKEqo/Wr61V0LThhLZiZFRusjB8UnK/aXVPHUfyqMkctkqp2qnFEaQIgOZb0zFl7uEnjHd/3rXTJ/GPs0u4hWGktuKp/Z18LtUt1z252IuTYc6zMM9baMte++4fW81T7Djjpjvdx5s2+DlUGJPPZW1yiRh5+KlnekHvg9++WFcQQvZwzIV/76uBajVP65kW3h/hGqnmmeOPlS4QKBkBxLSSbQjmQAACEIAABCAAAQhAAALtIdCMmNYeC+tnSZNzrBN2MWc2AmGoZ1SIp4xIAYJsXGkNgXYSQExrJ23mggAEIAABCEAAAhCAAARKQ6DsYpr1fhNomozfVp8sDUwMyURABTTpFFXdEzEtE04aQ6DtBBDT2o6cCSEAAQhAAAIQgAAEIACBMhAou5hWBkbY0DkCeKZ1jj0zQ6ARAcS0RoT4PQQgAAEIQAACEIAABCBQSQKIaZXc1sosCjGtMlvJQipIADGtgpvKkiAAAQhAAAIQgAAEIACBxgQQ0xozokXnCCCmdY49M0OgEQHEtEaE+D0EIAABCEAAAhCAAAQgUEkCiGmV3NbKLAoxrTJbyUIqSAAxrYKbypIgAAEIQAACEIAABCAAgcYEENMaM6JF5wggpnWOPTNDoBEBxLRGhPg9BCAAAQhAAAIQgAAEIFBJAohpzW2rVKR8/u65uw1y5vfvdyO/cV7s4Lu2/9Etm3eNO+nymW7wIX+V2gjbb+ABB7mnbp/ujpz0XXfQqBNSjxE2lDGfvWu2O+XK2e6VRxe6Q447uanxchsS0RExrUiajAWBYgkgphXLk9EgAAEIQAACEIAABCAAgS4hgJjW3EaJmCbXiVNuyDRQEWJaFhEuyThZgwpoVljrP3DfTGtqRWPEtFZQZUwIFEMAMa0YjowCAQhAAAIQgAAEIAABCHQZgTRiWpTAsvXd37kX7v2+GzryWLdi/g1u/78+0n3r1oe9l9X7a3/jXlg4z+3c2ucOPOp4d9p1t7qP3lzrHrp4vKcz+juX+s++1K+/k7GfuPFi986qFf7zz3b8yXtrybX8tmv9/4uNZ92yyG3d+FZtDPl88qIV3oNK5nt96c9dv70HuNUP/tAN/9p4L249OW+a63v7dadeYmnbydjSNrRXPhdPsM92bHfrli3287/70nOxYtr//WyXbz9g/6E177VxU292YyZf7T9fs/g+z+2bc3/qXn1sYd24Q0aMqrXRtdrPbD/1TJM9+eX0C/yahYEwE0FM1vLyL37i7Vy37LG6vZI+rz3+gBt3xU1+P+R64//8L///SZ517brNEdPaRZp5IJCdAGJadmb0gAAEIAABCEAAAhCAAAQqQKAZMU2Em8PHn+2FKxFgNq1ZWRPORMhScU1FntNnLHAqCInAJP2sZ5eMsfrBBb6fXDK+9BHBTMYQcW3C9fO9YBfOJ8KXiFs6/vbN79UEOJnDinGN2n3y8dbaXBpKKfaqCKa2i41Jnmkqpkk7FRSVy15fHlwL87RzqIebHVfEsKR+IqYNHnaYFyWlv/CS/jv6NtcJmXbduoYo4SxKYOvUrY6Y1inyzAuBxgQQ0xozogUEIAABCEAAAhCAAAQgUEECSWKa9c6ySxdPrwOOOKZO3LJhi7u2bfFijvWMEs8x9UaTceX3E2+4wz3347m1vGF2DJnPimchevUyU5HKzic/DzpwmPesUg+6iTPu8J5tadptWPlUTRgUby2d6+tXzXHP3DnLHTx6bM1rKypnmnrpqUim7e36osQ0284KYyrKqWimudZszjQV9pR50rpFQNv2wcaamBnmSCtTqCdiWgUfOiypMgQQ0yqzlSwEAhCAAAQgAAEIQAACEMhCoBnPNAnzFJFKQglDMc2KZ9aLTMQpFXqO/+//wz1399yat1koptnxVSyyyf41XFRCSO18SWJamnYipi2ZeUkdRgmbnDTrHi/G2YT/aTzTtH0jMc2209DXUMQ8dOxpu3m0ST+5NCxV+6ioJ+JmuB8ipqmnXVjAADEty18QbSHQuwQQ03p371k5BCAAAQhAAAIQgAAEeppAM2Ka9RyzYZiheGO9yNTTK41nmhXT1JstytutFWKaem7Zm8N6iGn1zFaJaXGVPuOqeYqdVjCzdof88Uzr6T95Fg+BwgggphWGkoEgAAEIQAACEIAABCAAgW4ikEZMi1qP5kEbc+E0H/IY5jCzwk7enGlxYtoee/b3yfnl0jDPNB5nEuaZpp3NmSb52TT/mIZ5ttozTdZlRTrLT3KjRYV5hjnTZD/eWPpILVdclGea5rqT+WyxAXKmddNfMLZCoHMEENM6x56ZIQABCEAAAhCAAAQgAIEOEmhGTBOxq9+AfXxVyrB6ZOglFVUdM6zmOf7aH7jNb7xSq+ZpxTT1CtMKmFJ9ct2Ti32YaVqRLG07rYCpYZO6NhXxQjHNhp7qVtqqnVFhnprv7IPfvlir5mnHteuVMbUiqX4e1c9W8wyrq8aJaVTz7OAfH1NDoMsJIKZ1+QZiPgQgAAEIQAACEIAABCCQj0CzYprmTMs3e32vMJSziDEZozEB8YLTIgRlypcmllOAoPH+0QICnSKAmNYp8swLAQhAAAIQgAAEIAABCHSUQCfFtND7ynpTdRRKj01uBbRXHl1YE9bKgAExrQy7gA0QiCaAmMadAQEIQAACEIAABCAAAQj0JIG8YlpPwmLRbSeAmNZ25EwIgdQEENNSo6IhBCAAAQhAAAIQgAAEIFAlAohpVdrN6q0FMa16e8qKqkMAMa06e8lKIAABCEAAAhCAAAQgAIEMBBDTMsCiadsJIKa1HTkTQiA1AcS01KhoCAEIQAACEIAABCAAAQhUiQBiWpV2s3prQUyr3p6youoQQEyrzl6yEghAAAIQgAAEIAABCEAgAwHEtAywaNp2AohpbUfOhBBITQAxLTUqGkIAAhCAAAQgAAEIQAACVSKAmFal3azeWhDTqrenrKg6BBDTqrOXrAQCEIAABCAAAQhAAAIQyEAAMS0DLJq2nQBiWtuRMyEEUhNATEuNioYQgAAEIAABCEAAAhCAQJUIIKZVaTertxbEtOrtKSuqDgHEtOrsJSuBAAQgAAEIQAACEIAABDIQQEzLAIumbSeAmNZ25EwIgdQEENNSo6IhBCAAAQhAAAIQgAAEIFAlAohpVdrN6q0FMa16e8qKqkMAMa06e8lKIAABCEAAAhCAAAQgAIEMBBDTMsCiadsJIKa1HTkTQiA1AcS01KhoCAEIQAACEIAABCAAAQhUiQBiWpV2s3prQUyr3p6youoQQEyrzl6yEghAAAIQgAAEIAABCEAgAwHEtAywaNp2AohpbUfOhBBITQAxLTUqGkIAAhCAAAQgAAEIQAACVSKAmFal3azeWhDTqrenrKg6BBDTqrOXrAQCEIAABCAAAQhAAAIQyEAAMS0DLJq2nQBiWtuRMyEEUhNATEuNioYQgAAEIAABCEAAAhCAQJUIiJjGBYEyE/jiiy/KbB62QaBnCfw/TM2Fw3ggaXIAAAAASUVORK5CYII=;strokeColor=#FFFFFF;" vertex="1" parent="1">
          <mxGeometry width="1235" height="824" as="geometry" />
        </mxCell>
        <mxCell id="WtAe4rb_YrOn60P3KVqw-5" value="" style="rounded=0;whiteSpace=wrap;html=1;strokeColor=#FFFFFF;" vertex="1" parent="1">
          <mxGeometry x="646" y="10" width="157" height="100" as="geometry" />
        </mxCell>
        <mxCell id="WtAe4rb_YrOn60P3KVqw-4" value="" style="endArrow=none;html=1;rounded=0;startArrow=block;startFill=0;exitX=1;exitY=0.5;exitDx=0;exitDy=0;" edge="1" parent="1" source="WtAe4rb_YrOn60P3KVqw-5">
          <mxGeometry width="50" height="50" relative="1" as="geometry">
            <mxPoint x="430" y="160" as="sourcePoint" />
            <mxPoint x="640" y="20" as="targetPoint" />
          </mxGeometry>
        </mxCell>
        <mxCell id="WtAe4rb_YrOn60P3KVqw-6" value="" style="rounded=0;whiteSpace=wrap;html=1;strokeColor=#FFFFFF;" vertex="1" parent="1">
          <mxGeometry x="610" y="110" width="190" height="46" as="geometry" />
        </mxCell>
        <mxCell id="WtAe4rb_YrOn60P3KVqw-7" value="" style="rounded=0;whiteSpace=wrap;html=1;strokeColor=#FFFFFF;" vertex="1" parent="1">
          <mxGeometry x="750" y="138" width="400" height="112" as="geometry" />
        </mxCell>
        <mxCell id="WtAe4rb_YrOn60P3KVqw-8" value="" style="rounded=0;whiteSpace=wrap;html=1;strokeColor=#FFFFFF;" vertex="1" parent="1">
          <mxGeometry x="740" y="228" width="70" height="46" as="geometry" />
        </mxCell>
        <mxCell id="WtAe4rb_YrOn60P3KVqw-9" value="" style="endArrow=none;html=1;rounded=0;startArrow=block;startFill=0;exitX=1;exitY=1;exitDx=0;exitDy=0;entryX=0;entryY=1;entryDx=0;entryDy=0;" edge="1" parent="1" source="WtAe4rb_YrOn60P3KVqw-5" target="WtAe4rb_YrOn60P3KVqw-6">
          <mxGeometry width="50" height="50" relative="1" as="geometry">
            <mxPoint x="813" y="70" as="sourcePoint" />
            <mxPoint x="650" y="30" as="targetPoint" />
          </mxGeometry>
        </mxCell>
        <mxCell id="WtAe4rb_YrOn60P3KVqw-10" value="" style="endArrow=none;html=1;rounded=0;startArrow=block;startFill=0;exitX=1;exitY=1;exitDx=0;exitDy=0;entryX=0.25;entryY=1;entryDx=0;entryDy=0;" edge="1" parent="1" target="WtAe4rb_YrOn60P3KVqw-8">
          <mxGeometry width="50" height="50" relative="1" as="geometry">
            <mxPoint x="893" y="138" as="sourcePoint" />
            <mxPoint x="700" y="184" as="targetPoint" />
          </mxGeometry>
        </mxCell>
        <mxCell id="WtAe4rb_YrOn60P3KVqw-11" value="" style="endArrow=none;html=1;rounded=0;startArrow=block;startFill=0;entryX=0.43;entryY=1.025;entryDx=0;entryDy=0;entryPerimeter=0;" edge="1" parent="1" target="WtAe4rb_YrOn60P3KVqw-7">
          <mxGeometry width="50" height="50" relative="1" as="geometry">
            <mxPoint x="898" y="140" as="sourcePoint" />
            <mxPoint x="800" y="274" as="targetPoint" />
          </mxGeometry>
        </mxCell>
        <mxCell id="WtAe4rb_YrOn60P3KVqw-12" value="" style="endArrow=none;html=1;rounded=0;startArrow=block;startFill=0;exitX=0.396;exitY=-0.007;exitDx=0;exitDy=0;exitPerimeter=0;" edge="1" parent="1" source="WtAe4rb_YrOn60P3KVqw-7">
          <mxGeometry width="50" height="50" relative="1" as="geometry">
            <mxPoint x="960" y="138" as="sourcePoint" />
            <mxPoint x="1040" y="260" as="targetPoint" />
          </mxGeometry>
        </mxCell>
        <mxCell id="WtAe4rb_YrOn60P3KVqw-13" value="" style="rounded=0;whiteSpace=wrap;html=1;strokeColor=#FFFFFF;" vertex="1" parent="1">
          <mxGeometry x="1090" y="212" width="70" height="46" as="geometry" />
        </mxCell>
        <mxCell id="WtAe4rb_YrOn60P3KVqw-15" value="" style="endArrow=none;html=1;rounded=0;entryX=0.429;entryY=0.243;entryDx=0;entryDy=0;entryPerimeter=0;" edge="1" parent="1" target="WtAe4rb_YrOn60P3KVqw-2">
          <mxGeometry width="50" height="50" relative="1" as="geometry">
            <mxPoint x="370" y="228" as="sourcePoint" />
            <mxPoint x="420" y="178" as="targetPoint" />
          </mxGeometry>
        </mxCell>
        <mxCell id="WtAe4rb_YrOn60P3KVqw-16" value="0..*" style="text;html=1;align=center;verticalAlign=middle;whiteSpace=wrap;rounded=0;" vertex="1" parent="1">
          <mxGeometry x="360" y="190" width="60" height="30" as="geometry" />
        </mxCell>
        <mxCell id="WtAe4rb_YrOn60P3KVqw-17" value="1" style="text;html=1;align=center;verticalAlign=middle;whiteSpace=wrap;rounded=0;" vertex="1" parent="1">
          <mxGeometry x="480" y="179" width="60" height="30" as="geometry" />
        </mxCell>
        <mxCell id="WtAe4rb_YrOn60P3KVqw-18" value="" style="endArrow=none;html=1;rounded=0;" edge="1" parent="1">
          <mxGeometry width="50" height="50" relative="1" as="geometry">
            <mxPoint x="613.7048192771085" y="248" as="sourcePoint" />
            <mxPoint x="614" y="360" as="targetPoint" />
          </mxGeometry>
        </mxCell>
        <mxCell id="WtAe4rb_YrOn60P3KVqw-19" value="1" style="text;html=1;align=center;verticalAlign=middle;whiteSpace=wrap;rounded=0;" vertex="1" parent="1">
          <mxGeometry x="587.5" y="250" width="60" height="30" as="geometry" />
        </mxCell>
        <mxCell id="WtAe4rb_YrOn60P3KVqw-20" value="0..*" style="text;html=1;align=center;verticalAlign=middle;whiteSpace=wrap;rounded=0;" vertex="1" parent="1">
          <mxGeometry x="600" y="330" width="60" height="30" as="geometry" />
        </mxCell>
      </root>
    </mxGraphModel>
  </diagram>
</mxfile>
